<svg xmlns="http://www.w3.org/2000/svg" width="610.417" height="410.345" viewBox="0 0 610.417 410.345">
  <g id="グループ_20859" data-name="グループ 20859" transform="translate(-959 -8050.826)">
    <rect id="しかく" width="575" height="348" transform="translate(959 8084)" fill="none"/>
    <g id="グループ_20802" data-name="グループ 20802" transform="matrix(0.985, 0.174, -0.174, 0.985, 1093.578, 8020.387)">
      <g id="グループ_20700" data-name="グループ 20700" transform="translate(52.794 23.416)">
        <path id="パス_4229" data-name="パス 4229" d="M94.051,32.054l-6.169-6.1-.03.031c-5.777-4.685-17.079-1.725-25.866,6.973l-.094.095-.02.02-.094.094c-8.605,8.879-11.446,20.211-6.7,25.938l-.031.03,6.168,6.1A7.815,7.815,0,0,0,65.1,67.287a17.574,17.574,0,0,0,7.323.049c5.537-1.156,10.756-4.787,15-8.981l.009-.01.01-.01c4.149-4.291,7.725-9.548,8.823-15.1a17.581,17.581,0,0,0-.126-7.323A7.812,7.812,0,0,0,94.051,32.054Z" transform="translate(-52.794 -23.555)" fill="#ffc417"/>
        <g id="グループ_20692" data-name="グループ 20692" transform="translate(0.025)">
          <g id="グループ_20691" data-name="グループ 20691">
            <g id="グループ_20690" data-name="グループ 20690">
              <path id="パス_4230" data-name="パス 4230" d="M91.145,35.169c.281-3.662-.637-6.874-2.885-9.054C82.633,20.658,70.8,23.738,61.825,33S50.141,54.181,55.769,59.639A10.759,10.759,0,0,0,64.241,62.3" transform="translate(-52.835 -23.416)" fill="none" stroke="#000" stroke-linecap="round" stroke-linejoin="round" stroke-width="3"/>
              <path id="パス_4231" data-name="パス 4231" d="M79.07,71.912A32.993,32.993,0,0,0,92.5,63.253a33.409,33.409,0,0,0,8.06-13.088" transform="translate(-63.128 -33.91)" fill="none" stroke="#000" stroke-linecap="round" stroke-linejoin="round" stroke-width="3"/>
            </g>
          </g>
        </g>
        <g id="グループ_20696" data-name="グループ 20696" transform="translate(14.523 5.237)">
          <g id="グループ_20695" data-name="グループ 20695">
            <g id="グループ_20694" data-name="グループ 20694">
              <path id="パス_4233" data-name="パス 4233" d="M89.123,32.192c-3.308-3.247-11.3-.627-17.292,5.292" transform="translate(-71.831 -30.784)" fill="none" stroke="#fff" stroke-linecap="round" stroke-linejoin="round" stroke-width="3"/>
            </g>
          </g>
        </g>
        <circle id="楕円形_2439" data-name="楕円形 2439" cx="1.29" cy="1.29" r="1.29" transform="translate(32.797 8.15)" fill="#fff"/>
        <g id="グループ_20699" data-name="グループ 20699" transform="translate(6.131 27.024)">
          <g id="グループ_20698" data-name="グループ 20698" transform="translate(0 0)">
            <g id="グループ_20697" data-name="グループ 20697">
              <path id="パス_4234" data-name="パス 4234" d="M63.168,73.071c3.237,3.09,10.678.741,16.6-4.783" transform="translate(-63.168 -68.288)" fill="none" stroke="#fff" stroke-linecap="round" stroke-linejoin="round" stroke-width="3"/>
            </g>
          </g>
        </g>
        <path id="パス_4235" data-name="パス 4235" d="M67.922,38.884" transform="translate(-58.729 -29.484)" fill="#ffc417"/>
      </g>
      <path id="パス_4236" data-name="パス 4236" d="M73.047,75.128a17.574,17.574,0,0,0,7.323.049c5.537-1.156,10.756-4.787,15-8.981l.009-.01.01-.01c4.149-4.291,7.725-9.548,8.823-15.1a17.581,17.581,0,0,0-.126-7.323" transform="translate(-7.946 -7.98)" fill="none" stroke="#000" stroke-linecap="round" stroke-linejoin="round" stroke-width="3"/>
    </g>
    <g id="グループ_20803" data-name="グループ 20803" transform="matrix(0.454, 0.891, -0.891, 0.454, 1546.619, 8141.263)">
      <g id="グループ_20700-2" data-name="グループ 20700" transform="translate(52.794 23.416)">
        <path id="パス_4229-2" data-name="パス 4229" d="M94.051,32.054l-6.169-6.1-.03.031c-5.777-4.685-17.079-1.725-25.866,6.973l-.094.095-.02.02-.094.094c-8.605,8.879-11.446,20.211-6.7,25.938l-.031.03,6.168,6.1A7.815,7.815,0,0,0,65.1,67.287a17.574,17.574,0,0,0,7.323.049c5.537-1.156,10.756-4.787,15-8.981l.009-.01.01-.01c4.149-4.291,7.725-9.548,8.823-15.1a17.581,17.581,0,0,0-.126-7.323A7.812,7.812,0,0,0,94.051,32.054Z" transform="translate(-52.794 -23.555)" fill="#ffc417"/>
        <g id="グループ_20692-2" data-name="グループ 20692" transform="translate(0.025)">
          <g id="グループ_20691-2" data-name="グループ 20691">
            <g id="グループ_20690-2" data-name="グループ 20690">
              <path id="パス_4230-2" data-name="パス 4230" d="M91.145,35.169c.281-3.662-.637-6.874-2.885-9.054C82.633,20.658,70.8,23.738,61.825,33S50.141,54.181,55.769,59.639A10.759,10.759,0,0,0,64.241,62.3" transform="translate(-52.835 -23.416)" fill="none" stroke="#000" stroke-linecap="round" stroke-linejoin="round" stroke-width="3"/>
              <path id="パス_4231-2" data-name="パス 4231" d="M79.07,71.912A32.993,32.993,0,0,0,92.5,63.253a33.409,33.409,0,0,0,8.06-13.088" transform="translate(-63.128 -33.91)" fill="none" stroke="#000" stroke-linecap="round" stroke-linejoin="round" stroke-width="3"/>
            </g>
          </g>
        </g>
        <g id="グループ_20696-2" data-name="グループ 20696" transform="translate(14.523 5.237)">
          <g id="グループ_20695-2" data-name="グループ 20695">
            <g id="グループ_20694-2" data-name="グループ 20694">
              <path id="パス_4233-2" data-name="パス 4233" d="M89.123,32.192c-3.308-3.247-11.3-.627-17.292,5.292" transform="translate(-71.831 -30.784)" fill="none" stroke="#fff" stroke-linecap="round" stroke-linejoin="round" stroke-width="3"/>
            </g>
          </g>
        </g>
        <circle id="楕円形_2439-2" data-name="楕円形 2439" cx="1.29" cy="1.29" r="1.29" transform="translate(32.797 8.15)" fill="#fff"/>
        <g id="グループ_20699-2" data-name="グループ 20699" transform="translate(6.131 27.024)">
          <g id="グループ_20698-2" data-name="グループ 20698" transform="translate(0 0)">
            <g id="グループ_20697-2" data-name="グループ 20697">
              <path id="パス_4234-2" data-name="パス 4234" d="M63.168,73.071c3.237,3.09,10.678.741,16.6-4.783" transform="translate(-63.168 -68.288)" fill="none" stroke="#fff" stroke-linecap="round" stroke-linejoin="round" stroke-width="3"/>
            </g>
          </g>
        </g>
        <path id="パス_4235-2" data-name="パス 4235" d="M67.922,38.884" transform="translate(-58.729 -29.484)" fill="#ffc417"/>
      </g>
      <path id="パス_4236-2" data-name="パス 4236" d="M73.047,75.128a17.574,17.574,0,0,0,7.323.049c5.537-1.156,10.756-4.787,15-8.981l.009-.01.01-.01c4.149-4.291,7.725-9.548,8.823-15.1a17.581,17.581,0,0,0-.126-7.323" transform="translate(-7.946 -7.98)" fill="none" stroke="#000" stroke-linecap="round" stroke-linejoin="round" stroke-width="3"/>
    </g>
    <g id="グループ_20620" data-name="グループ 20620" transform="translate(1006.906 8447.055) rotate(-67)">
      <g id="グループ_20619" data-name="グループ 20619" transform="translate(0 0)">
        <ellipse id="楕円形_2390" data-name="楕円形 2390" cx="12.715" cy="20.36" rx="12.715" ry="20.36" transform="translate(6.084 19.78) rotate(-51.061)" fill="#ffc417"/>
        <ellipse id="楕円形_2391" data-name="楕円形 2391" cx="12.715" cy="20.36" rx="12.715" ry="20.36" transform="translate(0 27.514) rotate(-51.061)" fill="#ffc417"/>
        <path id="パス_4081" data-name="パス 4081" d="M373.484,81.028a22.83,22.83,0,0,1-11.524-9.243" transform="translate(-344.949 -44.72)" fill="none" stroke="#000" stroke-linecap="round" stroke-linejoin="round" stroke-width="3"/>
        <path id="パス_4082" data-name="パス 4082" d="M359.816,73.278c-1.149-3.834-.826-7.441,1.249-10.009,4.413-5.462,15.081-4.161,23.828,2.907s12.259,17.223,7.843,22.685c-2.1,2.6-5.618,3.669-9.672,3.311" transform="translate(-346.989 -53.379)" fill="none" stroke="#000" stroke-linecap="round" stroke-linejoin="round" stroke-width="3"/>
        <path id="パス_4084" data-name="パス 4084" d="M385.191,95.1c-5.276,1.676-12.983-.372-19.592-5.713-8.745-7.066-12.259-17.223-7.845-22.685a8.127,8.127,0,0,1,1.624-1.524" transform="translate(-349.399 -49.529)" fill="none" stroke="#000" stroke-linecap="round" stroke-linejoin="round" stroke-width="3"/>
        <path id="パス_4238" data-name="パス 4238" d="M371.668,66.925c5.006,4.046,7.566,9.181,5.716,11.47" transform="translate(-336.751 -48.3)" fill="none" stroke="#fff" stroke-linecap="round" stroke-linejoin="round" stroke-width="3"/>
        <ellipse id="楕円形_2441" data-name="楕円形 2441" cx="2.143" cy="2.143" rx="2.143" ry="2.143" transform="translate(27.653 13.367)" fill="#fff"/>
      </g>
    </g>
  </g>
</svg>
