<svg xmlns="http://www.w3.org/2000/svg" xmlns:xlink="http://www.w3.org/1999/xlink" width="1200" height="658.531" viewBox="0 0 1200 658.531">
  <defs>
    <clipPath id="clip-path">
      <rect id="長方形_5921" data-name="長方形 5921" width="252.725" height="178.993" fill="none"/>
    </clipPath>
  </defs>
  <g id="グループ_20859" data-name="グループ 20859" transform="translate(-373 -132.469)">
    <g id="グループ_20701" data-name="グループ 20701" transform="matrix(0.985, 0.174, -0.174, 0.985, 838.531, 102.054)">
      <g id="グループ_20700" data-name="グループ 20700" transform="translate(52.794 23.416)">
        <path id="パス_4229" data-name="パス 4229" d="M115.328,36.326l-9.35-9.251-.045.047c-8.757-7.1-25.887-2.615-39.205,10.569l-.142.144-.03.03-.142.143C53.371,51.466,49.065,68.642,56.259,77.323l-.047.046,9.349,9.251a11.845,11.845,0,0,0,5.887,3.11,26.638,26.638,0,0,0,11.1.074c8.393-1.752,16.3-7.256,22.741-13.613l.014-.015.015-.015c6.289-6.5,11.71-14.473,13.373-22.882a26.648,26.648,0,0,0-.191-11.1A11.841,11.841,0,0,0,115.328,36.326Z" transform="translate(-52.794 -23.444)" fill="#ffc417"/>
        <g id="グループ_20692" data-name="グループ 20692" transform="translate(0.038)">
          <g id="グループ_20691" data-name="グループ 20691">
            <g id="グループ_20690" data-name="グループ 20690">
              <path id="パス_4230" data-name="パス 4230" d="M110.9,41.23c.426-5.55-.965-10.419-4.372-13.724C98,19.235,80.061,23.9,66.461,37.936S48.752,70.048,57.282,78.32c3.2,3.1,7.72,4.384,12.841,4.035" transform="translate(-52.835 -23.416)" fill="none" stroke="#000" stroke-linecap="round" stroke-linejoin="round" stroke-width="3"/>
              <path id="パス_4231" data-name="パス 4231" d="M79.07,83.127C85.873,81,93.114,76.51,99.422,70a50.639,50.639,0,0,0,12.216-19.837" transform="translate(-54.906 -25.527)" fill="none" stroke="#000" stroke-linecap="round" stroke-linejoin="round" stroke-width="3"/>
            </g>
          </g>
        </g>
        <g id="グループ_20696" data-name="グループ 20696" transform="translate(17.535 6.787)">
          <g id="グループ_20695" data-name="グループ 20695">
            <g id="グループ_20694" data-name="グループ 20694">
              <path id="パス_4233" data-name="パス 4233" d="M103.048,33.326c-5.972-5.863-20.4-1.132-31.217,9.554" transform="translate(-71.831 -30.784)" fill="none" stroke="#fff" stroke-linecap="round" stroke-linejoin="round" stroke-width="4"/>
            </g>
          </g>
        </g>
        <circle id="楕円形_2439" data-name="楕円形 2439" cx="1.956" cy="1.956" r="1.956" transform="translate(49.711 12.353)" fill="#fff"/>
        <g id="グループ_20699" data-name="グループ 20699" transform="translate(9.555 41.33)">
          <g id="グループ_20698" data-name="グループ 20698" transform="translate(0 0)">
            <g id="グループ_20697" data-name="グループ 20697">
              <path id="パス_4234" data-name="パス 4234" d="M63.168,76.41c5.5,5.248,18.133,1.259,28.195-8.122" transform="translate(-63.168 -68.288)" fill="none" stroke="#fff" stroke-linecap="round" stroke-linejoin="round" stroke-width="4"/>
            </g>
          </g>
        </g>
        <path id="パス_4235" data-name="パス 4235" d="M67.922,38.884" transform="translate(-53.988 -24.637)" fill="#ffc417"/>
      </g>
      <path id="パス_4236" data-name="パス 4236" d="M73.047,91.307a26.638,26.638,0,0,0,11.1.074c8.393-1.752,16.3-7.256,22.741-13.613l.014-.015.015-.015c6.289-6.5,11.71-14.473,13.373-22.882a26.648,26.648,0,0,0-.191-11.1" transform="translate(-1.599 -1.606)" fill="none" stroke="#000" stroke-linecap="round" stroke-linejoin="round" stroke-width="3"/>
    </g>
    <g id="グループ_20717" data-name="グループ 20717" transform="translate(0 20)">
      <g id="illust" transform="translate(-417.209 11.202)">
        <g id="グループ_20711" data-name="グループ 20711" transform="matrix(0.978, -0.208, 0.208, 0.978, 628.109, 611.761)">
          <g id="グループ_20620" data-name="グループ 20620">
            <g id="グループ_20619" data-name="グループ 20619">
              <ellipse id="楕円形_2390" data-name="楕円形 2390" cx="7.358" cy="11.782" rx="7.358" ry="11.782" transform="translate(355.637 67.569) rotate(-51.061)" fill="#ffc417"/>
              <ellipse id="楕円形_2391" data-name="楕円形 2391" cx="7.358" cy="11.782" rx="7.358" ry="11.782" transform="translate(352.116 72.045) rotate(-51.061)" fill="#ffc417"/>
              <path id="パス_4081" data-name="パス 4081" d="M368.629,77.134a13.211,13.211,0,0,1-6.669-5.349" fill="none" stroke="#000" stroke-linecap="round" stroke-linejoin="round" stroke-width="3"/>
              <path id="パス_4082" data-name="パス 4082" d="M359.539,67.638a6.19,6.19,0,0,1,.723-5.792c2.554-3.161,8.727-2.408,13.789,1.682s7.094,9.967,4.539,13.128c-1.215,1.505-3.251,2.123-5.6,1.916" fill="none" stroke="#000" stroke-linecap="round" stroke-linejoin="round" stroke-width="3"/>
              <path id="パス_4084" data-name="パス 4084" d="M372.829,82.5c-3.053.97-7.513-.215-11.338-3.306-5.061-4.089-7.094-9.967-4.54-13.128a4.7,4.7,0,0,1,.94-.882" fill="none" stroke="#000" stroke-linecap="round" stroke-linejoin="round" stroke-width="3"/>
              <path id="パス_4238" data-name="パス 4238" d="M371.668,66.925c2.9,2.341,4.379,5.313,3.308,6.638" transform="translate(-0.411 0.428)" fill="none" stroke="#fff" stroke-linecap="round" stroke-linejoin="round" stroke-width="2.5"/>
              <ellipse id="楕円形_2441" data-name="楕円形 2441" cx="1.24" cy="1.24" rx="1.24" ry="1.24" transform="translate(366.294 64.004)" fill="#fff"/>
            </g>
          </g>
        </g>
        <g id="グループ_20712" data-name="グループ 20712" transform="translate(906.452 610.847) rotate(180)">
          <g id="グループ_20620-2" data-name="グループ 20620" transform="translate(0 0)">
            <g id="グループ_20619-2" data-name="グループ 20619">
              <ellipse id="楕円形_2390-2" data-name="楕円形 2390" cx="7.358" cy="11.782" rx="7.358" ry="11.782" transform="matrix(0.628, 0.778, -0.778, 0.628, 21.85, 4.475)" fill="#ffc417"/>
              <ellipse id="楕円形_2391-2" data-name="楕円形 2391" cx="7.358" cy="11.782" rx="7.358" ry="11.782" transform="matrix(0.628, 0.778, -0.778, 0.628, 18.329, 0)" fill="#ffc417"/>
              <path id="パス_4081-2" data-name="パス 4081" d="M6.669,0A12.727,12.727,0,0,0,2.854,2.149,12.757,12.757,0,0,0,0,5.349" transform="translate(9.844 9.721)" fill="none" stroke="#000" stroke-linecap="round" stroke-linejoin="round" stroke-width="3"/>
              <path id="パス_4082-2" data-name="パス 4082" d="M.38,10.973A6.19,6.19,0,0,0,1.1,16.765c2.554,3.161,8.727,2.408,13.789-1.682s7.094-9.967,4.539-13.128C18.216.45,16.18-.168,13.834.039" transform="translate(7.043 8.244)" fill="none" stroke="#000" stroke-linecap="round" stroke-linejoin="round" stroke-width="3"/>
              <path id="パス_4084-2" data-name="パス 4084" d="M16.981.33C13.928-.64,9.468.545,5.643,3.636.582,7.725-1.451,13.6,1.1,16.764a4.7,4.7,0,0,0,.94.882" transform="translate(3.732 4.03)" fill="none" stroke="#000" stroke-linecap="round" stroke-linejoin="round" stroke-width="3"/>
              <path id="パス_4238-2" data-name="パス 4238" d="M0,6.638C2.9,4.3,4.379,1.324,3.308,0" transform="translate(19.141 12.864)" fill="none" stroke="#fff" stroke-linecap="round" stroke-linejoin="round" stroke-width="2.5"/>
              <ellipse id="楕円形_2441-2" data-name="楕円形 2441" cx="1.24" cy="1.24" rx="1.24" ry="1.24" transform="translate(14.179 20.371)" fill="#fff"/>
            </g>
          </g>
        </g>
        <g id="グループ_20716" data-name="グループ 20716" transform="translate(745.599 523.891)">
          <path id="パス_4241" data-name="パス 4241" d="M232.722,111.615l5.894,5.668,5.029-7.142a19.129,19.129,0,0,0-4.393-6.631c-3.062-2.9-5.353-3.222-5.353-3.222s-3.718-5.244-11.476-3.541c-10.918,2.4-15.6,12.488-15.6,12.488l4.074,7.88s9.48.586,11.823.213S232.722,111.615,232.722,111.615Z" transform="translate(-25.058 -17.97)" fill="#ffc417"/>
          <g id="グループ_20715" data-name="グループ 20715" transform="translate(72.383)">
            <g id="グループ_20714" data-name="グループ 20714" clip-path="url(#clip-path)">
              <path id="パス_4242" data-name="パス 4242" d="M167.249,201.784h53.99l4.994-32.529s19.436,3.194,34.824.225,31.224-12.6,31.224-12.6l-1.26-3.42,4.949-1.8s8.369-.81,10.618-1.26,6.749-2.7,9.178-4.048,4.319-3.87,4.139-5.13-2.7-1.439-3.509-.989-5.129,2.429-5.129,2.429l-2.25.45-4.319-1.8,5.939-3.149s.539-2.879-1.17-2.879-11.068,1.17-11.068,1.17-3.6,1.8-4.319,2.969-3.6,5.039-3.6,5.039l-3.24,1.709-1.98-.089s-12.418,4.949-22.586,4.949-23.5-3.838-28.7-5.759c-9.269-3.419-20.967-4.229-20.967-4.229v-1.62s2.609-3.689,2.879-5.309a21.246,21.246,0,0,0,.18-3.689s4.59-.181,4.769-1.98,0-7.738,0-7.738-.495-1.71-2.7-.945a6.173,6.173,0,0,1-2.789.134l-5.445-4.633s-5.354,4.544-8.683,5.264-12.508,0-12.508,0a2.518,2.518,0,0,0-2.609,1.35c-.526,1.025-.18,3.419-.18,3.419s-.36,2.25.539,3.42,3.87,1.8,3.87,1.8a30.265,30.265,0,0,0,1.17,4.5c.54,1.17,1.62,3.149,1.62,3.149l-.36,1.08s-8.008,2.16-12.058,3.51-16.467,7.738-22.946,12.147-12.778,8.729-20.516,10.528-21.866,2.79-21.866,2.79l-4.589-.18s-6.029-4.679-8.819-4.769-8.549,1.17-9.988,1.35-2.7,1.89-1.62,2.7,6.119,2.25,6.119,2.25l-3.51,2.79-3.779.18s-5.489-1.17-6.388-.63-.99,2.159,1.439,3.689,4.5,1.89,7.828,2.52a37.924,37.924,0,0,0,8.908.45c2.97-.09,15.027-1.44,15.027-1.44l.45,3.779a136.228,136.228,0,0,0,19.976.09,91.72,91.72,0,0,0,25.556-6.119c5.579-2.429,16.2-7.738,16.2-7.738Z" transform="translate(-74.216 -21.485)" fill="#fff"/>
              <path id="パス_4243" data-name="パス 4243" d="M230.059,118.319" transform="translate(-101.773 -22.054)" fill="#fff"/>
              <circle id="楕円形_2444" data-name="楕円形 2444" cx="1.653" cy="1.653" r="1.653" transform="translate(121.967 102.958)"/>
              <circle id="楕円形_2445" data-name="楕円形 2445" cx="1.653" cy="1.653" r="1.653" transform="translate(133.513 102.958)"/>
              <path id="パス_4244" data-name="パス 4244" d="M215.681,133.821a12.8,12.8,0,1,0,25.592,0" transform="translate(-99.093 -24.944)" fill="none" stroke="#000" stroke-linecap="round" stroke-linejoin="round" stroke-width="3"/>
              <path id="パス_4245" data-name="パス 4245" d="M214.45,132.192a4.388,4.388,0,0,1-4.024-1.262c-.926-1.065-.709-4.1-.709-4.1v-1.448" transform="translate(-97.977 -23.371)" fill="none" stroke="#000" stroke-linecap="round" stroke-linejoin="round" stroke-width="3"/>
              <path id="パス_4246" data-name="パス 4246" d="M247.123,131.9a4.386,4.386,0,0,0,4.023-1.262c.926-1.065.71-4.1.71-4.1v-2.726" transform="translate(-104.954 -23.078)" fill="none" stroke="#000" stroke-linecap="round" stroke-linejoin="round" stroke-width="3"/>
              <path id="パス_4247" data-name="パス 4247" d="M209.964,113.6l-2.014-4.123s3.719-7.751,11.142-11.071c9.467-4.234,14.648-.184,15.831,1.946,0,0,6.666,1.651,10,9.888l-4.97,5.965" transform="translate(-97.652 -17.997)" fill="none" stroke="#000" stroke-linecap="round" stroke-linejoin="round" stroke-width="3"/>
              <path id="パス_4248" data-name="パス 4248" d="M233.875,115.435s-4.318,4.064-7.754,4.856-11.4.213-11.4.213" transform="translate(-98.915 -21.517)" fill="none" stroke="#000" stroke-linecap="round" stroke-linejoin="round" stroke-width="3"/>
              <path id="パス_4249" data-name="パス 4249" d="M233.606,137.094a11.981,11.981,0,0,1-5.562-.089" transform="translate(-101.398 -25.537)" fill="none" stroke="#000" stroke-linecap="round" stroke-linejoin="round" stroke-width="3"/>
              <path id="パス_4250" data-name="パス 4250" d="M228.044,137.07a6.544,6.544,0,0,0,1.918,4.363" transform="translate(-101.398 -25.549)" fill="none" stroke="#000" stroke-linecap="round" stroke-linejoin="round" stroke-width="3"/>
              <line id="線_244" data-name="線 244" x1="1.728" y2="7.45" transform="translate(137.417 117.307)" fill="none" stroke="#000" stroke-linecap="round" stroke-linejoin="round" stroke-width="3"/>
              <line id="線_245" data-name="線 245" x1="1.745" y2="8.037" transform="translate(116.978 117.13)" fill="none" stroke="#000" stroke-linecap="round" stroke-linejoin="round" stroke-width="3"/>
              <path id="パス_4251" data-name="パス 4251" d="M250.324,147.947s5.8.269,23.08,6.074c16.711,5.614,37.429,1.879,44.542-2.429l5.8,11.067s-25.511,20.247-66.274,12.148l-4.769,33.339" transform="translate(-105.551 -27.577)" fill="none" stroke="#000" stroke-linecap="round" stroke-linejoin="round" stroke-width="3"/>
              <path id="パス_4252" data-name="パス 4252" d="M193.827,147.853s-11.058,1.268-26.785,12.339c-11.356,8-25.372,14.86-44.294,13.922l1.375,12.72s24.74,3.653,46.687-6.616c13.622-6.374,15.164-7.919,15.164-7.919" transform="translate(-81.771 -27.559)" fill="none" stroke="#000" stroke-linecap="round" stroke-linejoin="round" stroke-width="3"/>
              <path id="パス_4253" data-name="パス 4253" d="M339.508,148.145a19.855,19.855,0,0,1,2.727-4.22c1.153-1.04,3.705-2.956,4.808-3.039s5.178-.244,6.539-.53,3.471-1.039,4.428-.753a1.623,1.623,0,0,1,.639,2.6c-.828.893-6.375,3.278-6.375,3.278" transform="translate(-122.174 -26.01)" fill="none" stroke="#000" stroke-linecap="round" stroke-linejoin="round" stroke-width="3"/>
              <path id="パス_4254" data-name="パス 4254" d="M352.61,146.8l5.969,1.934s3.378-.679,3.73-.876,4.323-2.38,4.323-2.38a2.06,2.06,0,0,1,2.473.763c.728,1.232-.761,2.961-2.881,4.443-2.063,1.442-2,1.742-3.8,2.435s-6.673,2.966-7.754,3.094-9.173.979-9.173.979" transform="translate(-123.291 -27.091)" fill="none" stroke="#000" stroke-linecap="round" stroke-linejoin="round" stroke-width="3"/>
              <path id="パス_4255" data-name="パス 4255" d="M111.846,178.386a21.213,21.213,0,0,0-3.559-2.678c-1.394-.683-4.373-1.826-5.456-1.6s-5.047,1.185-6.434,1.283-3.623-.047-4.464.491a1.623,1.623,0,0,0,.1,2.675c1.041.631,7.03,1.4,7.03,1.4" transform="translate(-75.905 -32.447)" fill="none" stroke="#000" stroke-linecap="round" stroke-linejoin="round" stroke-width="3"/>
              <path id="パス_4256" data-name="パス 4256" d="M98.168,181.326l-5.21,3.5s-3.435.273-3.827.181-4.811-1.1-4.811-1.1a2.061,2.061,0,0,0-2.17,1.412c-.362,1.384,1.544,2.639,3.99,3.483,2.379.821,2.4,1.127,4.319,1.3s7.231,1.023,8.3.85,12.359-1.007,12.359-1.007" transform="translate(-74.196 -33.799)" fill="none" stroke="#000" stroke-linecap="round" stroke-linejoin="round" stroke-width="3"/>
              <path id="パス_4257" data-name="パス 4257" d="M216.513,160.013s3.219,4.2,10.724,4.442,10.088-4.718,10.088-4.718" transform="translate(-99.248 -29.774)" fill="none" stroke="#000" stroke-linecap="round" stroke-linejoin="round" stroke-width="3"/>
              <line id="線_246" data-name="線 246" x1="10.978" y2="35.364" transform="translate(93.168 145.205)" fill="none" stroke="#000" stroke-linecap="round" stroke-linejoin="round" stroke-width="3"/>
            </g>
          </g>
        </g>
        <g id="グループ_20527" data-name="グループ 20527" transform="translate(719.049 519.798)">
          <circle id="楕円形_2317" data-name="楕円形 2317" cx="29.693" cy="29.693" r="29.693" transform="translate(194.258 2)" fill="#ffc417" stroke="#000" stroke-linecap="round" stroke-linejoin="round" stroke-width="3"/>
          <path id="パス_3999" data-name="パス 3999" d="M249.846,35.742A21.846,21.846,0,0,1,228,57.588" transform="translate(-4.049 -4.049)" fill="none" stroke="#000" stroke-linecap="round" stroke-linejoin="round" stroke-width="3"/>
          <path id="パス_4000" data-name="パス 4000" d="M203.175,32.763a21.846,21.846,0,0,1,21.846-21.847" transform="translate(-1.07 -1.07)" fill="none" stroke="#000" stroke-linecap="round" stroke-linejoin="round" stroke-width="3"/>
          <path id="パス_4001" data-name="パス 4001" d="M229.462,38.063h-4.676v9.148h-4.745v-24.3h9.421c5.018,0,8.021,3.448,8.021,7.578S234.48,38.063,229.462,38.063Zm-.239-10.923h-4.437V33.8h4.437a3.333,3.333,0,1,0,0-6.655Z" transform="translate(-3.094 -2.509)"/>
        </g>
      </g>
      <g id="グループ_20710" data-name="グループ 20710" transform="translate(668.564 587.652) rotate(89)">
        <g id="グループ_20700-2" data-name="グループ 20700" transform="translate(0 0)">
          <path id="パス_4229-2" data-name="パス 4229" d="M42.513,36.729l-6.356,6.289-.031-.032c-5.953,4.828-17.6,1.778-26.653-7.185l-.1-.1-.021-.021-.1-.1C.392,26.436-2.535,14.759,2.356,8.858l-.032-.031L8.679,2.537a8.053,8.053,0,0,1,4-2.114,18.109,18.109,0,0,1,7.545-.05c5.706,1.191,11.084,4.933,15.46,9.255l.009.01.01.01c4.276,4.421,7.961,9.839,9.091,15.556a18.116,18.116,0,0,1-.13,7.545A8.05,8.05,0,0,1,42.513,36.729Z" transform="translate(0 0)" fill="#ffc417"/>
          <g id="グループ_20692-2" data-name="グループ 20692" transform="translate(0.026 5.379)">
            <g id="グループ_20691-2" data-name="グループ 20691" transform="translate(0 0)">
              <g id="グループ_20690-2" data-name="グループ 20690">
                <path id="パス_4230-2" data-name="パス 4230" d="M39.476,28c.289,3.773-.656,7.083-2.972,9.33-5.8,5.623-17.995,2.449-27.24-7.09S-2.776,8.4,3.023,2.781C5.2.672,8.272-.2,11.752.038" transform="translate(0 0)" fill="none" stroke="#000" stroke-linecap="round" stroke-linejoin="round" stroke-width="3"/>
                <path id="パス_4231-2" data-name="パス 4231" d="M0,0A34,34,0,0,1,13.836,8.923a34.426,34.426,0,0,1,8.3,13.486" transform="translate(16.428 0.948)" fill="none" stroke="#000" stroke-linecap="round" stroke-linejoin="round" stroke-width="3"/>
              </g>
            </g>
          </g>
          <g id="グループ_20696-2" data-name="グループ 20696" transform="translate(11.898 33.916)">
            <g id="グループ_20695-2" data-name="グループ 20695" transform="translate(0 0)">
              <g id="グループ_20694-2" data-name="グループ 20694">
                <path id="パス_4233-2" data-name="パス 4233" d="M21.222,6.5C17.162,10.481,7.352,7.265,0,0" transform="translate(0.035 -2)" fill="none" stroke="#fff" stroke-linecap="round" stroke-linejoin="round" stroke-width="3"/>
              </g>
            </g>
          </g>
          <ellipse id="楕円形_2439-2" data-name="楕円形 2439" cx="1.329" cy="1.329" rx="1.329" ry="1.329" transform="translate(33.275 33.29)" fill="#fff"/>
          <g id="グループ_20699-2" data-name="グループ 20699" transform="translate(6.479 11.28)">
            <g id="グループ_20698-2" data-name="グループ 20698" transform="translate(0 0)">
              <g id="グループ_20697-2" data-name="グループ 20697" transform="translate(0)">
                <path id="パス_4234-2" data-name="パス 4234" d="M0,1.586C3.738-1.982,12.327.73,19.168,7.108" transform="translate(0 0)" fill="none" stroke="#fff" stroke-linecap="round" stroke-linejoin="round" stroke-width="3"/>
              </g>
            </g>
          </g>
          <path id="パス_4235-2" data-name="パス 4235" d="M0,0" transform="translate(9.473 35.8)" fill="#ffc417"/>
        </g>
        <path id="パス_4236-2" data-name="パス 4236" d="M0,.423A18.109,18.109,0,0,1,7.545.373c5.706,1.191,11.084,4.933,15.46,9.255l.009.01.01.01c4.276,4.421,7.961,9.839,9.091,15.556a18.116,18.116,0,0,1-.13,7.545" transform="translate(12.682 0)" fill="none" stroke="#000" stroke-linecap="round" stroke-linejoin="round" stroke-width="3"/>
      </g>
      <g id="グループ_20713" data-name="グループ 20713" transform="translate(445.786 663.355) rotate(-180)">
        <g id="グループ_20700-3" data-name="グループ 20700" transform="translate(0 0)">
          <path id="パス_4229-3" data-name="パス 4229" d="M42.513,36.729l-6.356,6.289-.031-.032c-5.953,4.828-17.6,1.778-26.653-7.185l-.1-.1-.021-.021-.1-.1C.392,26.436-2.535,14.759,2.356,8.858l-.032-.031L8.679,2.537a8.053,8.053,0,0,1,4-2.114,18.109,18.109,0,0,1,7.545-.05c5.706,1.191,11.084,4.933,15.46,9.255l.009.01.01.01c4.276,4.421,7.961,9.839,9.091,15.556a18.116,18.116,0,0,1-.13,7.545A8.05,8.05,0,0,1,42.513,36.729Z" transform="translate(0 0)" fill="#ffc417"/>
          <g id="グループ_20692-3" data-name="グループ 20692" transform="translate(0.026 5.379)">
            <g id="グループ_20691-3" data-name="グループ 20691" transform="translate(0 0)">
              <g id="グループ_20690-3" data-name="グループ 20690">
                <path id="パス_4230-3" data-name="パス 4230" d="M39.476,28c.289,3.773-.656,7.083-2.972,9.33-5.8,5.623-17.995,2.449-27.24-7.09S-2.776,8.4,3.023,2.781C5.2.672,8.272-.2,11.752.038" transform="translate(0 0)" fill="none" stroke="#000" stroke-linecap="round" stroke-linejoin="round" stroke-width="3"/>
                <path id="パス_4231-3" data-name="パス 4231" d="M0,0A34,34,0,0,1,13.836,8.923a34.426,34.426,0,0,1,8.3,13.486" transform="translate(16.428 0.948)" fill="none" stroke="#000" stroke-linecap="round" stroke-linejoin="round" stroke-width="3"/>
              </g>
            </g>
          </g>
          <g id="グループ_20696-3" data-name="グループ 20696" transform="translate(11.898 33.916)">
            <g id="グループ_20695-3" data-name="グループ 20695" transform="translate(0 0)">
              <g id="グループ_20694-3" data-name="グループ 20694">
                <path id="パス_4233-3" data-name="パス 4233" d="M21.222,6.5C17.162,10.481,7.352,7.265,0,0" transform="translate(0.035 -2)" fill="none" stroke="#fff" stroke-linecap="round" stroke-linejoin="round" stroke-width="3"/>
              </g>
            </g>
          </g>
          <ellipse id="楕円形_2439-3" data-name="楕円形 2439" cx="1.329" cy="1.329" rx="1.329" ry="1.329" transform="translate(33.275 33.29)" fill="#fff"/>
          <g id="グループ_20699-3" data-name="グループ 20699" transform="translate(6.479 11.28)">
            <g id="グループ_20698-3" data-name="グループ 20698" transform="translate(0 0)">
              <g id="グループ_20697-3" data-name="グループ 20697" transform="translate(0)">
                <path id="パス_4234-3" data-name="パス 4234" d="M0,1.586C3.738-1.982,12.327.73,19.168,7.108" transform="translate(0 0)" fill="none" stroke="#fff" stroke-linecap="round" stroke-linejoin="round" stroke-width="3"/>
              </g>
            </g>
          </g>
          <path id="パス_4235-3" data-name="パス 4235" d="M0,0" transform="translate(9.473 35.8)" fill="#ffc417"/>
        </g>
        <path id="パス_4236-3" data-name="パス 4236" d="M0,.423A18.109,18.109,0,0,1,7.545.373c5.706,1.191,11.084,4.933,15.46,9.255l.009.01.01.01c4.276,4.421,7.961,9.839,9.091,15.556a18.116,18.116,0,0,1-.13,7.545" transform="translate(12.682 0)" fill="none" stroke="#000" stroke-linecap="round" stroke-linejoin="round" stroke-width="3"/>
      </g>
    </g>
    <rect id="しかく" width="1200" height="652" transform="translate(373 139)" fill="none"/>
  </g>
</svg>
