<svg xmlns="http://www.w3.org/2000/svg" xmlns:xlink="http://www.w3.org/1999/xlink" width="145.424" height="96.979" viewBox="0 0 145.424 96.979">
  <defs>
    <linearGradient id="linear-gradient" x1="0.773" y1="0.317" x2="0.282" y2="0.644" gradientUnits="objectBoundingBox">
      <stop offset="0" stop-color="#ffc42c" stop-opacity="0"/>
      <stop offset="0.291" stop-color="#ffc42c" stop-opacity="0.29"/>
      <stop offset="1" stop-color="#ffc42c"/>
    </linearGradient>
    <linearGradient id="linear-gradient-2" x1="0.303" y1="0.338" x2="0.738" y2="0.584" gradientUnits="objectBoundingBox">
      <stop offset="0" stop-color="#c03" stop-opacity="0"/>
      <stop offset="1" stop-color="#c03"/>
    </linearGradient>
  </defs>
  <g id="グループ_20594" data-name="グループ 20594" transform="translate(-951.605 -1250.915)">
    <g id="グループ_20595" data-name="グループ 20595">
      <g id="グループ_20596" data-name="グループ 20596">
        <g id="illust" transform="translate(947.099 131.893)">
          <path id="パス_4025" data-name="パス 4025" d="M50.544,1168.622l-19.3,10.057-15.237-23.285L35.9,1143.049Z" transform="translate(90.869 -0.837)" fill="#ecf1f7"/>
          <path id="パス_4024" data-name="パス 4024" d="M16.011,1168.985l15.126,9.695,15.237-23.285-19.891-12.346Z" fill="#ecf1f7"/>
          <path id="パス_4012" data-name="パス 4012" d="M31.633,1179.282l6.762,3.954,78.8-.963,5.566-3.93-15.292-20.866-7.069,2.756-32.985-.941-2.658-1.814-10.286,3.532-7.631-4.536Z" fill="#fff"/>
          <path id="パス_1702" data-name="パス 1702" d="M47.89,1157.709l8.832,5.145s10.363-3.5,12.386-2.131,1.769,0,1.769,0,7.33-3.9,19.21-.506c10.869,2.384,14.408,2.166,16.43.506l2.341-2.382,15.712,22.032L109.8,1189.9s2.274,4.044,0,6.825c-1.4,2.106-4.55,0-4.55,0s1.49,5.878-.773,7.237-6.187,0-6.187,0,1.811,4.527-.3,6.337-8.45-1.66-8.45-1.66,2.414,4.98.3,6.791-9.96-1.811-13.431-4.829c-3.773,1.962-7.394,3.923-9.205,2.264s-2.565-4.226-.3-6.187c-3.621,2.414-8.6,3.923-10.564-.3a9.66,9.66,0,0,1,1.207-3.471s-4.828,3.773-7.243,1.207a4.594,4.594,0,0,1-.3-6.337c-2.717,1.66-7.093,1.358-7.847-.755s.6-5.13,4.225-6.187,1.509-1.358,1.509-1.358l-15.712-9.2" transform="translate(-1.8 -2.556)" fill="#fff"/>
          <path id="パス_1703" data-name="パス 1703" d="M157.64,1163l-16.395-23.589-27.7,17.8,16.213,22.67Z" transform="translate(-7.71 -1.091)" fill="url(#linear-gradient)"/>
          <path id="パス_1704" data-name="パス 1704" d="M52.391,1160.494s5.13,2.716,5.734,2.867,9.507-2.867,9.507-2.867" transform="translate(-3.243 -2.707)" fill="none" stroke="#231815" stroke-linecap="round" stroke-linejoin="round" stroke-width="3"/>
          <line id="線_29" data-name="線 29" x2="14.034" y2="7.998" transform="translate(35.114 1181.178)" fill="none" stroke="#231815" stroke-linecap="round" stroke-linejoin="round" stroke-width="3"/>
          <path id="パス_1705" data-name="パス 1705" d="M48.49,1193.177s-7.048,2.564-7.048,5.582,2.263,4.829,5.432,4.527" transform="translate(-2.253 -5.66)" fill="none" stroke="#231815" stroke-linecap="round" stroke-linejoin="round" stroke-width="3"/>
          <path id="パス_1706" data-name="パス 1706" d="M63.826,1198.5s-1.056-3.412-4.15-2.356-9.583,5.885-9.583,5.885a4.336,4.336,0,0,0-.453,5.885c2.415,3.32,7.394,0,7.394,0" transform="translate(-2.907 -5.91)" fill="none" stroke="#231815" stroke-linecap="round" stroke-linejoin="round" stroke-width="3"/>
          <path id="パス_1707" data-name="パス 1707" d="M66.292,1213.436s-4.376,2.565-7.847-1.208c-3.757-4.083,6.187-9.022,6.187-9.022a12.546,12.546,0,0,1,5.13-1.24c2.264.151,2.566,4.075,2.566,4.075" transform="translate(-3.713 -6.453)" fill="none" stroke="#231815" stroke-linecap="round" stroke-linejoin="round" stroke-width="3"/>
          <path id="パス_1708" data-name="パス 1708" d="M78.18,1209.934s-1.66-5.433-5.13-3.169-6.942,4.828-5.433,7.545,5.433,2.112,6.338,1.509,3.32-2.415,3.32-2.415l9.658,4.829a6.018,6.018,0,0,0,7.244-1.207c2.112-2.565-2.264-5.734-2.264-5.734s7.092,4.571,9.658.549-5.584-8.4-5.584-8.4,8.149,5.972,10.715,2.683,1.207-4.97,0-6.166-6.036-4.516-6.036-4.516,9.205,7.372,12.073,4.516,2.264-5.42-.905-7.986S95.384,1179.9,95.384,1179.9" transform="translate(-4.586 -4.461)" fill="none" stroke="#231815" stroke-linecap="round" stroke-linejoin="round" stroke-width="3"/>
          <path id="パス_1709" data-name="パス 1709" d="M95.882,1174.367s-11.62,4.527-18.712-1.207c-4.377,4.678-9.809,9.054-14.186,8.149s-4.527-3.622-1.585-6.942,9.432-11.916,10.186-12.6,5.131-4.454,14.94-2.493,17.2,3.169,17.2,3.169a5.853,5.853,0,0,0,4.527-2.112" transform="translate(-3.877 -2.546)" fill="none" stroke="#231815" stroke-linecap="round" stroke-linejoin="round" stroke-width="3"/>
          <line id="線_30" data-name="線 30" x1="11.922" y2="7.144" transform="translate(107.247 1180.373)" fill="none" stroke="#000" stroke-linecap="round" stroke-linejoin="round" stroke-width="3"/>
          <line id="線_31" data-name="線 31" x2="7.504" y2="9.276" transform="translate(52.883 1134.111)" fill="none" stroke="#231815" stroke-linecap="round" stroke-linejoin="round" stroke-width="3"/>
          <line id="線_32" data-name="線 32" x1="7.504" y2="9.276" transform="translate(95.201 1134.111)" fill="none" stroke="#231815" stroke-linecap="round" stroke-linejoin="round" stroke-width="3"/>
          <line id="線_33" data-name="線 33" y2="10.9" transform="translate(78.049 1128.285)" fill="none" stroke="#231815" stroke-linecap="round" stroke-linejoin="round" stroke-width="3"/>
          <line id="線_115" data-name="線 115" y2="2.663" transform="translate(78.05 1120.522)" fill="none" stroke="#231815" stroke-linecap="round" stroke-linejoin="round" stroke-width="3"/>
          <line id="線_116" data-name="線 116" x2="1" y2="1" transform="translate(47.401 1127.785)" fill="none" stroke="#231815" stroke-linecap="round" stroke-linejoin="round" stroke-width="3"/>
          <line id="線_117" data-name="線 117" x1="1" y2="1" transform="translate(106.88 1127.785)" fill="none" stroke="#231815" stroke-linecap="round" stroke-linejoin="round" stroke-width="3"/>
          <path id="パス_1710" data-name="パス 1710" d="M5.506,1166.428l16.3-25.151,26.421,18.413L32.3,1182.885Z" transform="translate(-1 -3.602)" fill="url(#linear-gradient-2)"/>
          <path id="パス_3844" data-name="パス 3844" d="M107.247,1157.069l19.53-12.959" transform="translate(-1 -1.898)" fill="none" stroke="#231815" stroke-linecap="round" stroke-width="3"/>
          <path id="パス_3847" data-name="パス 3847" d="M128.05,1157.069l-20.8-12.959" transform="translate(-81.382 -1.898)" fill="none" stroke="#000" stroke-linecap="round" stroke-width="3"/>
        </g>
        <path id="パス_4010" data-name="パス 4010" d="M972.657,1273.755l21.309,13.41L978.4,1310.321s-11.655-7.29-15.5-9.683" transform="translate(0.06 0.07)" fill="none" stroke="#000" stroke-linecap="round" stroke-linejoin="round" stroke-width="3"/>
        <path id="パス_4011" data-name="パス 4011" d="M1072.885,1273.993l-19.56,13,16.37,23.15s11.537-7.313,15.314-9.682" transform="translate(-0.015 0.248)" fill="none" stroke="#000" stroke-linecap="round" stroke-linejoin="round" stroke-width="3"/>
        <path id="パス_4013" data-name="パス 4013" d="M963.375,1300.186H954.7" transform="translate(-0.296 0.029)" fill="none" stroke="#000" stroke-width="2"/>
        <path id="パス_4014" data-name="パス 4014" d="M962.374,1300.186H954.7" transform="translate(130.104 0.029)" fill="none" stroke="#000" stroke-width="2"/>
      </g>
    </g>
  </g>
</svg>
