<svg xmlns="http://www.w3.org/2000/svg" width="517" height="388" viewBox="0 0 517 388">
  <g id="_1" data-name="1" transform="translate(-3.328 53.313)">
    <rect id="長方形_5708" data-name="長方形 5708" width="517" height="388" rx="40" transform="translate(3.328 -53.313)" fill="none"/>
    <g id="zzz" transform="translate(366.196 39.103)">
      <g id="グループ_20634" data-name="グループ 20634" transform="translate(13.485 19.561)">
        <path id="パス_4099" data-name="パス 4099" d="M326.969,50.512a1.848,1.848,0,0,1,2-1.892c1.5-.043,5.11-.043,6.023-.043a1.727,1.727,0,0,1,1.327,2.588c-.37.543-4.307,5.2-4.307,5.2.11.239,3.371.109,4,.152a1.529,1.529,0,0,1,1.348,1.653,1.713,1.713,0,0,1-1.891,1.565c-1,.174-5.828,0-6.633,0a2.058,2.058,0,0,1-1.674-1.348c-.24-.826.391-1.652,1.087-2.458.717-.783,3.74-4.175,3.74-4.175.087.217-2.327.087-3.218.065C327.817,51.751,327.013,51.425,326.969,50.512Z" transform="translate(-326.967 -48.576)"/>
      </g>
      <g id="グループ_20635" data-name="グループ 20635" transform="translate(9.851)">
        <path id="パス_4100" data-name="パス 4100" d="M323.96,34.315a1.849,1.849,0,0,1,2-1.891c1.5-.045,5.11-.045,6.023-.045a1.727,1.727,0,0,1,1.327,2.588c-.37.543-4.305,5.2-4.305,5.2.109.238,3.371.109,4,.152a1.528,1.528,0,0,1,1.348,1.652,1.713,1.713,0,0,1-1.891,1.565c-1,.174-5.827,0-6.631,0a2.058,2.058,0,0,1-1.675-1.348c-.239-.826.391-1.652,1.087-2.458.717-.783,3.74-4.175,3.74-4.175.087.217-2.327.088-3.218.066C324.808,35.554,324,35.228,323.96,34.315Z" transform="translate(-323.958 -32.379)"/>
      </g>
      <g id="グループ_20636" data-name="グループ 20636" transform="translate(4.329 36.718)">
        <path id="パス_4101" data-name="パス 4101" d="M319.387,64.719a1.848,1.848,0,0,1,2-1.892c1.5-.043,5.11-.043,6.023-.043a1.727,1.727,0,0,1,1.327,2.588c-.37.543-4.307,5.2-4.307,5.2.11.239,3.371.109,4,.152a1.53,1.53,0,0,1,1.348,1.653,1.713,1.713,0,0,1-1.891,1.565c-1,.174-5.828,0-6.633,0a2.058,2.058,0,0,1-1.674-1.348c-.24-.826.391-1.652,1.087-2.458.717-.783,3.74-4.175,3.74-4.175.087.217-2.327.087-3.218.065C320.235,65.958,319.431,65.632,319.387,64.719Z" transform="translate(-319.385 -62.783)"/>
      </g>
      <g id="グループ_20639" data-name="グループ 20639" transform="translate(0 63.108)">
        <g id="グループ_20638" data-name="グループ 20638">
          <g id="グループ_20637" data-name="グループ 20637">
            <path id="パス_4102" data-name="パス 4102" d="M315.8,84.635" transform="translate(-315.801 -84.635)" fill="none" stroke="#000" stroke-linecap="round" stroke-linejoin="round" stroke-width="2.5"/>
          </g>
        </g>
      </g>
    </g>
    <g id="man">
      <path id="パス_4096" data-name="パス 4096" d="M328.947,79.877c-9.683-.268-19.7,3.939-26.112,5.676s-21.371,8.882-21.371,8.882a178.781,178.781,0,0,0-37.933-1.47c-22.039,1.336-45.546,7.814-59.37,14.56s-27.047,14.023-41.874,22.639-23.908,22.773-27.648,30.654-3.272,19.5-2.4,24.909,2.8,19.034,13.423,31.054,19.233,16.9,31.588,22.574,22.306,8.815,43.276,9.617a257.539,257.539,0,0,0,57.368-5.009,307.007,307.007,0,0,0,53.025-15.76c23.442-9.35,42.675-21.906,45.881-25.378s2.872-3.674,2.872-3.674l37.6-17.5s19.7-8.682,25.511-16.3,5.877-13.423,4.675-20.1-8.616-14.359-12.823-17.965S366.948,94.3,359.668,89.627,338.632,80.144,328.947,79.877Z" transform="translate(7.995 16.585)" fill="#ecf1f7"/>
      <path id="パス_4097" data-name="パス 4097" d="M322.643,70.059c-9.683-.267-19.7,3.941-26.112,5.677s-21.371,8.882-21.371,8.882a178.78,178.78,0,0,0-37.933-1.47c-22.039,1.336-45.546,7.814-59.37,14.558s-27.047,14.025-41.874,22.64S112.075,143.121,108.335,151s-3.272,19.5-2.4,24.911,2.805,19.033,13.424,31.054,19.233,16.9,31.588,22.573,22.306,8.816,43.276,9.617a257.546,257.546,0,0,0,57.368-5.008,307.034,307.034,0,0,0,53.025-15.761c23.441-9.35,42.675-21.9,45.881-25.377s2.872-3.674,2.872-3.674l37.6-17.5s19.7-8.682,25.512-16.3,5.877-13.424,4.675-20.1-8.616-14.358-12.823-17.964S360.643,84.485,353.364,79.81,332.328,70.327,322.643,70.059Z" transform="translate(6.685 14.546)" fill="#fff"/>
      <path id="パス_4098" data-name="パス 4098" d="M308.727,110.807c10.724,10.931,19.482,26.444,22.365,32.981,3.58,8.12,4.487,25.407-3.093,32.971-9.765,9.745-39.022,22.333-55.988,28.259-20.667,7.218-57.5,13.652-84.632,11.369-25.886-2.177-44.278-13.13-54.368-22.874s-15.886-23.778-16.576-35.495c-.632-10.724,3.727-28.848,26.838-43.79s50.291-26.473,72.272-29.956,42.429-1.868,58.746,2.833C292.1,92.238,308.727,110.807,308.727,110.807Z" transform="translate(8.981 17.111)" fill="#c03" stroke="#c03" stroke-linecap="round" stroke-linejoin="round" stroke-width="2.4"/>
      <path id="パス_4111" data-name="パス 4111" d="M289.6,78.645s5.293-4.354,11.974-4.2a21.2,21.2,0,0,1,14.988,6.663A18.724,18.724,0,0,1,321.3,94.057a32.042,32.042,0,0,1-2.142,8.635l-10.586.853-.635-13.135s-7.228.081-11.024-1.813-9.818-7.541-9.818-7.541Z" transform="translate(44.434 15.459)" fill="#ffc417"/>
      <path id="パス_4112" data-name="パス 4112" d="M289.9,81.582l-7.066,9.132A14.67,14.67,0,0,0,296.21,114.2" transform="translate(42.915 16.942)" fill="none" stroke="#000" stroke-linecap="round" stroke-linejoin="round" stroke-width="2.5"/>
      <g id="グループ_20647" data-name="グループ 20647" transform="translate(110.68 85.215)">
        <path id="パス_4113" data-name="パス 4113" d="M306.67,88.844s-6.1-.146-9.751-1.816-10.3-8.158-10.3-8.158" transform="translate(-66.344 -68.837)" fill="none" stroke="#000" stroke-linecap="round" stroke-linejoin="round" stroke-width="3"/>
        <path id="パス_4114" data-name="パス 4114" d="M291.971,76.489a18.8,18.8,0,0,1,18.869.155c10.037,5.826,10.916,15.927,9.725,20.613s-1.879,5.358-1.879,5.358l-10.137.874" transform="translate(-65.233 -69.845)" fill="none" stroke="#000" stroke-linecap="round" stroke-linejoin="round" stroke-width="3"/>
        <path id="パス_4115" data-name="パス 4115" d="M291.718,101.43l-3.132-.932-1.7-2.78" transform="translate(-66.29 -64.922)" fill="none" stroke="#000" stroke-linecap="round" stroke-linejoin="round" stroke-width="2.4"/>
        <path id="パス_4116" data-name="パス 4116" d="M322.155,93.645s11.734,6.305,9.939,16.636c-2.508,14.433-23.8,19.779-23.8,19.779" transform="translate(-61.844 -65.768)" fill="none" stroke="#000" stroke-linecap="round" stroke-linejoin="round" stroke-width="3"/>
        <path id="パス_4117" data-name="パス 4117" d="M321.43,101.5s-15.161-.549-24.069,11.362" transform="translate(-64.114 -64.139)" fill="none" stroke="#000" stroke-linecap="round" stroke-linejoin="round" stroke-width="3"/>
        <path id="パス_4118" data-name="パス 4118" d="M288.923,89.136a3.107,3.107,0,0,0,1.8,1.5" transform="translate(-65.866 -66.705)" fill="none" stroke="#000" stroke-linecap="round" stroke-linejoin="round" stroke-width="3"/>
        <path id="パス_4119" data-name="パス 4119" d="M296.444,95.274a3.1,3.1,0,0,0,1.8,1.5" transform="translate(-64.304 -65.43)" fill="none" stroke="#000" stroke-linecap="round" stroke-linejoin="round" stroke-width="3"/>
        <path id="パス_4120" data-name="パス 4120" d="M250.269,81.673s14.224-5.61,23.341-8.414,20.736-3.507,25.344-1.7" transform="translate(-73.894 -70.562)" fill="none" stroke="#000" stroke-linecap="round" stroke-linejoin="round" stroke-width="3"/>
        <path id="パス_4121" data-name="パス 4121" d="M269.513,88.269s3.64-4.075,13.924-4.608" transform="translate(-69.897 -67.842)" fill="none" stroke="#000" stroke-linecap="round" stroke-linejoin="round" stroke-width="3"/>
        <path id="パス_4122" data-name="パス 4122" d="M324.182,86.813s21.872,13.557,33.292,22.94c11.053,9.082,15.136,12.5,18.165,19.634,3.106,7.314,2.939,20.3-9.583,28.751-10.068,6.793-50.588,25.344-50.588,25.344" transform="translate(-60.354 -67.187)" fill="none" stroke="#000" stroke-linecap="round" stroke-linejoin="round" stroke-width="3"/>
        <path id="パス_4123" data-name="パス 4123" d="M105.327,150.288a43.3,43.3,0,0,0-1.037,11.968c.8,13.624,7.525,29.941,19.233,41.272s33.049,24.065,63.086,26.6c31.479,2.653,74.221-4.826,98.2-13.22,19.685-6.89,53.634-21.528,64.964-32.86,8.794-8.794,6.652-28.485,3.588-38.336-2.642-8.5-9.262-19.924-19.471-31.938" transform="translate(-104.223 -61.589)" fill="none" stroke="#000" stroke-linecap="round" stroke-linejoin="round" stroke-width="3"/>
        <path id="パス_4124" data-name="パス 4124" d="M316.248,104.428c-5.768-5.112-16.932-13.672-29.34-17.808-18.7-6.232-42.659-7.346-68.163-3.3s-57.043,17.459-83.861,34.834c-15.825,10.253-24.074,21.795-28.025,32.1" transform="translate(-103.676 -68.407)" fill="none" stroke="#000" stroke-linecap="round" stroke-linejoin="round" stroke-width="3"/>
      </g>
    </g>
    <g id="phone">
      <path id="パス_4144" data-name="パス 4144" d="M358.3,125.984a1.467,1.467,0,0,1-.21,2.638l-28.418,15.516a3.5,3.5,0,0,1-3.855-.523l-10.076-9.756a1.644,1.644,0,0,1,.4-2.8" transform="translate(50.257 26.163)" fill="none" stroke="#000" stroke-linecap="round" stroke-linejoin="round" stroke-width="2.4"/>
      <g id="グループ_20667" data-name="グループ 20667" transform="translate(365.391 141.441)">
        <path id="パス_4145" data-name="パス 4145" d="M315.746,134.4a1.645,1.645,0,0,1,.4-2.8l26.919-14.1a4.107,4.107,0,0,1,4.048.359l11.187,8.671a1.466,1.466,0,0,1-.21,2.636l-28.418,15.516a3.5,3.5,0,0,1-3.855-.522Z" transform="translate(-315.134 -117.119)" fill="#fff"/>
        <path id="パス_4146" data-name="パス 4146" d="M315.746,134.4a1.645,1.645,0,0,1,.4-2.8l26.919-14.1a4.107,4.107,0,0,1,4.048.359l11.187,8.671a1.466,1.466,0,0,1-.21,2.636l-28.418,15.516a3.5,3.5,0,0,1-3.855-.522Z" transform="translate(-315.134 -117.119)" fill="none" stroke="#000" stroke-linecap="round" stroke-linejoin="round" stroke-width="3"/>
      </g>
      <ellipse id="楕円形_2426" data-name="楕円形 2426" cx="1.892" cy="1.766" rx="1.892" ry="1.766" transform="translate(374.324 158.75) rotate(-0.987)"/>
    </g>
    <g id="dpoint" transform="translate(35.234 -21.546)">
      <g id="グループ_20226" data-name="グループ 20226" transform="translate(0.317 0.317)">
        <path id="長方形_5791" data-name="長方形 5791" d="M14.242,0H45.776a14.24,14.24,0,0,1,14.24,14.24V45.778a14.24,14.24,0,0,1-14.24,14.24H14.243A14.243,14.243,0,0,1,0,45.776V14.242A14.242,14.242,0,0,1,14.242,0Z" fill="#fff"/>
        <g id="グループ_20225" data-name="グループ 20225" transform="translate(13.194 6.788)">
          <path id="パス_3756" data-name="パス 3756" d="M428.015,227.3v21.9c-3.079,1.417-4.733,3.545-9.152,3.545a8.9,8.9,0,1,1,0-17.795,8.4,8.4,0,0,1,4.251,1.087V227.3H418.97a16.549,16.549,0,1,0,16.551,16.546V227.3Z" transform="translate(-402.42 -227.303)" fill="#c20024"/>
          <path id="パス_3757" data-name="パス 3757" d="M422.449,243a4.3,4.3,0,0,0,0,8.6,4.074,4.074,0,0,0,4.208-4.186v-.222A4.073,4.073,0,0,0,422.449,243Z" transform="translate(-405.898 -230.756)" fill="#c20024"/>
          <path id="パス_3758" data-name="パス 3758" d="M420.961,234.95a8.9,8.9,0,1,0,0,17.795c4.418,0,6.073-2.128,9.152-3.545V227.3h-4.9v8.734A8.4,8.4,0,0,0,420.961,234.95Zm4.314,8.787v.222a4.074,4.074,0,0,1-4.208,4.186,4.3,4.3,0,0,1,0-8.6A4.073,4.073,0,0,1,425.275,243.737Z" transform="translate(-404.517 -227.303)" fill="#fff"/>
        </g>
        <path id="パス_3759" data-name="パス 3759" d="M415.7,279.078a2.378,2.378,0,0,1-.852,1.985,3.784,3.784,0,0,1-2.308.688l-1.02.014v2.573h-1.057v-7.775h2.15a4.622,4.622,0,0,1,1.38.187,2.7,2.7,0,0,1,.966.521,2.047,2.047,0,0,1,.559.8,2.662,2.662,0,0,1,.182,1m-1.071.05c0-1.054-.69-1.578-2.063-1.578h-1.045v3.224l1.132-.031a2.36,2.36,0,0,0,1.48-.435,1.458,1.458,0,0,0,.5-1.179" transform="translate(-390.995 -231.35)" fill="#1a1311"/>
        <path id="パス_3760" data-name="パス 3760" d="M426.276,280.368a4.6,4.6,0,0,1-.283,1.624,3.795,3.795,0,0,1-2.046,2.165,3.886,3.886,0,0,1-1.575.32,4.221,4.221,0,0,1-1.573-.286,3.522,3.522,0,0,1-1.231-.817,3.778,3.778,0,0,1-.81-1.28,4.584,4.584,0,0,1-.291-1.674,4.473,4.473,0,0,1,.288-1.618,3.9,3.9,0,0,1,.8-1.3,3.73,3.73,0,0,1,1.24-.864,3.874,3.874,0,0,1,1.573-.309,4.232,4.232,0,0,1,1.575.282,3.6,3.6,0,0,1,1.232.82,3.775,3.775,0,0,1,.8,1.272,4.508,4.508,0,0,1,.293,1.665m-1.054.052a3.714,3.714,0,0,0-.214-1.3,2.97,2.97,0,0,0-.586-.984,2.727,2.727,0,0,0-.911-.631,3.006,3.006,0,0,0-1.161-.222,2.874,2.874,0,0,0-1.141.222,2.71,2.71,0,0,0-.888.626,2.816,2.816,0,0,0-.579.972,3.692,3.692,0,0,0-.2,1.261,3.9,3.9,0,0,0,.2,1.3,2.832,2.832,0,0,0,.583.992,2.648,2.648,0,0,0,.91.629,2.974,2.974,0,0,0,1.162.223,2.844,2.844,0,0,0,1.137-.223,2.589,2.589,0,0,0,.889-.629,2.942,2.942,0,0,0,.585-.981,3.587,3.587,0,0,0,.214-1.263" transform="translate(-392.756 -231.299)" fill="#1a1311"/>
        <rect id="長方形_5792" data-name="長方形 5792" width="1.033" height="7.775" transform="translate(35.227 45.214)" fill="#1a1311"/>
        <path id="パス_3761" data-name="パス 3761" d="M440.336,276.564h1.03v7.851h-1.144l-4.167-6.341v6.265h-1.031v-7.775h1.169l4.144,6.272Z" transform="translate(-396.397 -231.35)" fill="#1a1311"/>
        <path id="パス_3762" data-name="パス 3762" d="M448.659,277.56v6.778h-1.031V277.56h-2.721v-1h6.473v1Z" transform="translate(-398.571 -231.35)" fill="#1a1311"/>
        <path id="パス_3763" data-name="パス 3763" d="M400.966,272.033v4a3.87,3.87,0,0,0-1.949-.5,4.074,4.074,0,1,0,0,8.148c2.024,0,2.779-.975,4.19-1.621V272.033h-2.241m-3.828,7.574a1.889,1.889,0,0,1,1.928-1.967,1.865,1.865,0,0,1,1.926,1.915v.1a1.864,1.864,0,0,1-1.926,1.918,1.888,1.888,0,0,1-1.928-1.968" transform="translate(-387.571 -230.354)" fill="#1a1311"/>
      </g>
      <path id="パス_3764" data-name="パス 3764" d="M396.523,278.841v-.626h37.8a10.847,10.847,0,0,0,10.793-10.8h0v-37.8a10.846,10.846,0,0,0-10.793-10.8h-37.8a10.844,10.844,0,0,0-10.793,10.8h0v37.8a10.845,10.845,0,0,0,10.793,10.8h0v.626A11.456,11.456,0,0,1,385.1,267.42h0v-37.8a11.457,11.457,0,0,1,11.423-11.425h37.8a11.453,11.453,0,0,1,11.419,11.425h0v37.8a11.453,11.453,0,0,1-11.419,11.421h-37.8Z" transform="translate(-385.1 -218.195)" fill="#1a1311"/>
    </g>
  </g>
</svg>
