<svg xmlns="http://www.w3.org/2000/svg" width="532.012" height="341.241" viewBox="0 0 532.012 341.241">
  <g id="title" transform="translate(-1134.754 -154.382)">
    <path id="パス_3460" data-name="パス 3460" d="M1370.36,317.509a65.481,65.481,0,0,1,9.726,17.422l-.427.962-11.544,5.345-.961-.321c-2.458-6.413-5.238-12.292-9.406-17.636l.427-.855,11.223-4.917Zm52.374,1.39c-4.383,15.819-8.123,23.622-14.857,33.348-6.947,10.048-14.857,16.46-26.186,23.194a3.79,3.79,0,0,1-1.711.641,2.816,2.816,0,0,1-1.6-.641l-11.329-7.375c13.788-7.268,20.2-12.4,27.255-21.8,6.948-9.192,10.474-17.315,13.895-32.707l.962-.427,13.041,4.809Zm-32.6-6.948a56.383,56.383,0,0,1,9.834,16.675l-.428.962-11.33,5.344-.962-.214a72.386,72.386,0,0,0-9.619-17.209l.321-.855,11.223-4.916Z" transform="translate(-27.851 -23.631)" fill="#fff" stroke="#000" stroke-miterlimit="10" stroke-width="3"/>
    <path id="パス_3461" data-name="パス 3461" d="M1480.438,309.807a127.018,127.018,0,0,1-21.27,22.125c-1.176.855-1.818,1.283-2.565,1.283a3.791,3.791,0,0,1-1.71-.641l-12.719-7.7c16.781-12.72,27.576-25.974,35.379-43.075l.962-.321,15.284,5.665.214,1.069c-1.39,2.672-2.779,5.13-4.382,7.7l13.681-.214,8.124-.641,9.3,8.658c.962.855,1.5,1.5,1.5,2.245a5.665,5.665,0,0,1-.641,2.138c-13.467,28.966-30.783,48.739-61.138,62.634a9.262,9.262,0,0,1-2.779.855,2.762,2.762,0,0,1-1.817-.855L1442.6,360.472c23.837-7.8,46.282-24.8,58.253-50.771Z" transform="translate(-38.307 -19.884)" fill="#fff" stroke="#000" stroke-linejoin="bevel" stroke-width="3"/>
    <path id="パス_3462" data-name="パス 3462" d="M1611.273,366.793a192.361,192.361,0,0,0-23.728-25.331c-10.8,11.65-22.553,19.559-36.662,26.828a5.673,5.673,0,0,1-2.352.748,3.023,3.023,0,0,1-1.709-.748l-12.613-9.726c24.584-11.437,46.068-27.577,55.9-49.808h-25.439l-15.926.32-.747-.855V293.683l.961-.64,16.033.32h30.249l10.9-.534,6.519,6.413c.749.748,1.176,1.283,1.176,1.924a5.9,5.9,0,0,1-.961,2.565,218.4,218.4,0,0,1-14.75,24.69c10.153,8.444,18.171,15.5,27.042,25.546l-.107,1.176L1612.448,366.9Z" transform="translate(-51.635 -21.289)" fill="#fff" stroke="#000" stroke-miterlimit="10" stroke-width="3"/>
    <path id="パス_3463" data-name="パス 3463" d="M1287.8,209.955l.534,40.83h-18.6l.536-41.043V163.674l.854-.748h15.819l.856.855v35.7l9.192-10.261,1.069-.107a132.957,132.957,0,0,1,24.049,16.353l-.107,1.068-10.368,12.934-1.069.107a121.577,121.577,0,0,0-22.766-16.781Zm16.1-40.7,5.558-3.955,1.069-.107a68.553,68.553,0,0,1,10.9,11.33l-.107,1.068-5.879,4.169h-1.068a67.485,67.485,0,0,0-10.582-11.543Zm11.8-7.61,5.451-3.955,1.07-.107a64.707,64.707,0,0,1,10.581,11.01l-.107,1.069-5.558,4.061h-1.069a64.382,64.382,0,0,0-10.474-11.116Z" transform="translate(-10.502 -1.644)" fill="#fff" stroke="#000" stroke-miterlimit="10" stroke-width="3"/>
    <path id="パス_3464" data-name="パス 3464" d="M1369.127,180.569h39.761l15.071-.321.963.641-.321,12.933v39.31l.321,13.789-.749.854-14.75-.321H1368.7l-14.109.321-.747-.854V232.6l.962-.641,13.467.321h38.372V195.746h-37.089l-14.643.321-.749-.855V180.889l.963-.641Z" transform="translate(-20.919 -4.451)" fill="#fff" stroke="#000" stroke-miterlimit="10" stroke-width="3"/>
    <path id="パス_3465" data-name="パス 3465" d="M1496.118,224.977c0,3.1,0,4.383.534,5.557.427.855,2.779,1.6,7.588,1.6a210.674,210.674,0,0,0,22.446-1.069l.748.641.428,14.644-.641.748c-4.383.427-12.079.961-25.119.961-12.078,0-17-1.5-20.629-6.2-2.779-3.527-2.672-7.91-2.672-13.147v-14h-12.827l-13.467.321-.747-.855V200.607l.961-.641,13.36.321h12.72V186.605h-4.382l-14.108.321-.749-.855V172.5l.962-.641,13.574.321h35.059l14.749-.321.855.748v13.467l-.747.855-14.536-.321h-13.361v13.681H1520.7l14.537-.321.855.748v13.467l-.748.855-14-.321h-25.225Z" transform="translate(-33.046 -3.412)" fill="#fff" stroke="#000" stroke-miterlimit="10" stroke-width="3"/>
    <path id="パス_3466" data-name="パス 3466" d="M1629.365,251.261c-7.576.576-15.565.906-25.941.906-19.765,0-29.234-6.011-29.234-18.941,0-7.495,6.175-14.66,14.905-20.836a225.311,225.311,0,0,1-12.023-19.6l.165-.823,9.964-5.189.825.247a223.281,223.281,0,0,0,11.693,19.189,236.393,236.393,0,0,1,24.129-10.377l.824.329,4.859,10.788-.331.659c-7.164,2.388-14.494,5.189-19.271,7.248a5.322,5.322,0,0,0-2.224,4.118,6.07,6.07,0,0,1-5.929,5.352,8.483,8.483,0,0,1-5.683-2.224c-6.424,3.706-9.306,7.165-9.306,11.036,0,5.517,7,6.753,16.717,6.753a241.268,241.268,0,0,0,25.366-1.647l.659.494.328,11.776Z" transform="translate(-48.209 -5.26)" fill="#fff" stroke="#000" stroke-miterlimit="10" stroke-width="3"/>
    <path id="パス_3467" data-name="パス 3467" d="M1173.442,324.106c4.276,3.207,8.658,6.947,12.612,10.474a235.784,235.784,0,0,0,18.7-18.7h-44.571l-15.713.321-.747-.855V301.232l.854-.748,15.285.321h50.984l11.436-.534,7.162,9.833a4.032,4.032,0,0,1,1.068,2.458,3.448,3.448,0,0,1-1.283,2.458,379.141,379.141,0,0,1-32.065,30.249c2.779,2.778,5.451,5.771,8.123,8.871l-.214,1.069L1193,365.683h-.963c-9.939-12.826-20.842-24.155-30.568-31.317V333.3l10.8-9.192Z" transform="translate(-1.345 -22.21)" fill="#fff" stroke="#000" stroke-miterlimit="10" stroke-width="3"/>
    <path id="パス_3468" data-name="パス 3468" d="M1299.43,345.614l.534,27.47H1281.9l.536-26.294v-5.344a279.185,279.185,0,0,1-25.547,14.643,4.606,4.606,0,0,1-2.137.748c-.642,0-1.069-.321-1.924-1.176l-10.475-10.368c22.659-10.367,38.051-19.559,52.053-32.172l-23.622.107-14.536.321-.749-.855V298.905l.963-.641,14.429.321h12.078V282.231l.856-.748h15.283l.855.855v16.246h6.841l8.871-.534,6.093,7.7a2.416,2.416,0,0,1,.748,1.6c0,.641-.534,1.283-1.39,2.351a238.65,238.65,0,0,1-21.7,19.56Zm35.486-4.489-9.405,11.223-1.069-.107a148.224,148.224,0,0,0-20.736-15.284v-.962l9.085-10.048.963-.213a88.775,88.775,0,0,1,21.163,14.322Z" transform="translate(-13.559 -19.884)" fill="#fff" stroke="#000" stroke-miterlimit="10" stroke-width="3"/>
    <path id="パス_3469" data-name="パス 3469" d="M1691.714,365.89c17.706-2.964,25.695-11.446,25.695-21.329,0-12.518-6.918-20.423-15.319-22.153-1.646,15.565-7,30.059-12.681,38.376-4.448,6.506-9.059,8.894-15.483,8.894-4.942,0-8.483-2.388-11.612-7.329-2.39-3.706-4.036-8.235-4.036-14.906,0-19.93,14.906-36.071,37.553-36.071,22.482,0,34.5,15.072,34.5,33.353,0,14.988-10.541,26.353-28,30.471a2.688,2.688,0,0,1-2.635-.824Zm-22.07-18.447a12.143,12.143,0,0,0,1.4,6.258c.906,1.647,2.058,2.718,3.376,2.718,1.894,0,4.283-1.894,6.506-6.341a82.319,82.319,0,0,0,8.153-28C1677.055,324.138,1669.644,334.761,1669.644,347.443Z" transform="translate(-65.071 -23.585)" fill="#fff" stroke="#000" stroke-miterlimit="10" stroke-width="3"/>
    <g id="グループ_20108" data-name="グループ 20108" transform="translate(1145.493 365.916)">
      <path id="パス_3470" data-name="パス 3470" d="M1209.212,406.94l.773-.884h12.364l.773.774v17c.035,7.909.019,10.509.994,24.73a121.992,121.992,0,0,0,1.435,12.585h8.5a30.39,30.39,0,0,0-2.54-3.974l.441-.994,7.839-3.2.882.221a40.015,40.015,0,0,1,5.3,7.728l7.728-.11.773.663v10.6l-.773.662-16.339-.331h-9.605a58.363,58.363,0,0,0,2.981,8.611l.221.331a69.5,69.5,0,0,0,6.293-7.839l.994-.11,8.832,5.962.11,1.325a69.4,69.4,0,0,1-10.047,11.371c1.767,1.988,3.312,3.092,4.637,3.092,1.766,0,2.65-1.214,3.533-10.047l8.281,5.41a2.744,2.744,0,0,1,1.546,2.981c-1.436,11.151-4.417,16.119-13.138,16.119-4.526,0-9.936-1.766-15.787-9.384a80.317,80.317,0,0,1-18.989,8.5,3.03,3.03,0,0,1-1.325.221,2.582,2.582,0,0,1-2.209-1.435L1197.4,498.9c8.391-2.319,15.125-4.747,22.522-9.495l-.994-1.987a82.9,82.9,0,0,1-4.858-15.014h-12.144c-.11,2.538-.331,4.968-.662,7.507l3.864-2.981,1.1.11a54.088,54.088,0,0,1,9.494,7.507l.11,1.1-8.169,7.065h-1.214a84.31,84.31,0,0,0-6.4-6.071c-2.318,9.052-6.624,15.566-13.8,21.749-.442.442-.773.662-1.1.662s-.551-.221-.883-.441l-9.715-7.949.221,9.715h-14.683l.993-38.2a86.977,86.977,0,0,1-4.416,11.923c-.331.662-.774.994-1.215.994a2.138,2.138,0,0,1-1.656-1.214l-6.513-11.04c4.857-8.613,9.385-19.321,12.917-34.115l-10.378.331-.773-.662V426.37l.662-.663,11.041.331V405.393l.552-.662h12.033l.663.662v20.534l5.74-.11,4.306-5.189h1.325a11.63,11.63,0,0,0,1.214.773,141.5,141.5,0,0,0,5.41-14.131l1.325-.221,7.617,2.87.442,1.436c-2.1,5.3-4.637,10.6-7.066,15.456.663.552,1.436,1.1,2.1,1.655,1.545-3.2,2.981-6.293,4.085-8.832l1.1-.331,7.618,3.753Zm-4.638,50.784-.883-.662c-.11-.994-.331-2.1-.551-3.312-5.41,1.1-12.035,2.1-18.547,2.981l-.994-.773-2.65-8.28.773-.884c1.766-.11,3.422-.11,4.968-.221,1.657-2.87,3.2-5.74,4.858-8.611a116.51,116.51,0,0,0-9.164-7.4v7.948l-.552.552-7.838-.221v9.826l2.207-1.767h.994a119.143,119.143,0,0,1,9.384,14.021l11.482.221h13.8c-.331-1.765-.442-3.533-.662-5.189Zm-22.3,15.016-.773-.662v-5.852l-2.65,2.208-.883-.11c-1.1-2.318-2.429-5.078-3.974-7.839v8.612l.552,31.133a40.233,40.233,0,0,0,9.273-10.046,37.531,37.531,0,0,0,4.637-17.554Zm15.9-27.269c1.325-.11,2.65-.221,3.975-.442a25.5,25.5,0,0,0-1.325-3.754C1199.938,442.709,1199.055,444.145,1198.172,445.469Zm9.605-6.845a54.271,54.271,0,0,1,2.208,5.078c-.331-5.741-.552-11.372-.662-17.111-2.208,4.305-4.637,8.5-7.176,12.585l4.747-.994Z" transform="translate(-1147.277 -403.958)"/>
      <path id="パス_3471" data-name="パス 3471" d="M1287.673,427.916c3.2-.11,6.183-.11,8.943-.221a166.473,166.473,0,0,0,7.838-23.4l.883-.442,14.683,3.753.442,1.1c-2.539,6.292-5.3,12.254-8.28,18.216,3.754-.221,7.507-.552,11.371-.883-1.214-2.209-2.539-4.306-4.085-6.735l.221-.884,10.6-4.746,1.214.33a175.713,175.713,0,0,1,13.028,20.977l.11-4.637V406.94l.772-.883h13.469l.883.774v13.91a105.779,105.779,0,0,0,18.99-9.715l1.1-.11,8.39,9.163v1.214a164.2,164.2,0,0,1-28.484,12.476V438.4c0,3.422,0,3.422,7.287,3.422,10.046,0,10.93-.662,11.593-10.156l12.143,4.637c1.1.442,1.215.773,1.1,1.877-.442,7.066-1.434,10.157-4.416,12.917-3.2,2.981-6.955,4.305-21.418,4.305-18.658,0-21.749-1.214-21.749-14.242l.11-4.195L1332.5,442.82l-.995-.331c-.772-1.986-1.655-3.864-2.428-5.63a354.32,354.32,0,0,1-37.868,4.2l-.883-.662-3.312-11.593Zm20.645,58.954v21.75h-14.9l.552-26.166V457.946l-.331-13.69.773-.774,14.131.332h15.125l14.131-.332.773.774-.331,13.69V475.5l.552,19.872c0,10.6-6.182,13.138-18.437,13.138-1.656,0-1.877-.221-2.318-1.214l-4.858-12.034c3.423,0,6.625-.11,8.832-.331,1.435-.11,1.877-.552,1.877-2.319v-5.741Zm15.567-31.8h-15.567v5.409h15.567Zm0,16.008h-15.567v5.189h15.567Zm35.88-.331a132.629,132.629,0,0,0,18.99-9.605l1.1-.11,8.39,9.164v1.214a164.205,164.205,0,0,1-28.484,12.476v6.4c0,3.422,0,3.422,7.287,3.422,10.046,0,10.93-.663,11.593-10.709l12.143,4.637c1.1.442,1.215.773,1.1,1.877-.442,7.065-1.434,10.931-4.416,13.69-3.2,2.981-6.955,4.306-21.418,4.306-18.658,0-21.749-1.215-21.749-14.242l.331-10.82V458.719l.772-.883h13.469l.883.773Z" transform="translate(-1164.583 -403.849)"/>
      <path id="パス_3472" data-name="パス 3472" d="M1526.787,507.008c-.442,1.1-.773,1.1-1.987,1.1-9.164.331-18.438.552-26.938.552-9.716,0-18.658-.221-25.613-.773-9.384-.663-18.769-2.76-25.394-10.82-4.085,3.534-8.5,7.4-12.916,11.482l-.994-.442-7.838-12.917.331-.994c5.079-3.2,9.164-5.631,13.579-8.06V461.854h-1.987l-9.164.331-.773-.663V448.937l.662-.662,9.274.331h1.877l14.242-.331.773.773-.331,16.56v19.541c3.422,7.4,12.586,9.053,23.957,9.605,13.69.552,36.432-.442,55.422-1.878Zm-41.842-82.028h-13.8l-13.359.331-.773-.662V413.72l.663-.662,13.469.331h13.8v-6.624l.773-.774h13.58l.661.884v6.513h14.795l13.469-.331.662.552v11.15l-.662.552-13.469-.331h-14.795v4.195h9.274l14.242-.331.773.773-.331,12.144v12.365l.331,13.028-.773.994-14.242-.331h-9.274v4.527h14.463l15.126-.332.662.553v11.371l-.662.552-15.126-.331H1500.29l.222,8.39h-16.119l.221-8.39h-12.364l-15.016.331-.773-.662v-11.15l.662-.663,15.126.332h12.7v-4.527h-8.5l-14.573.331-.663-.883.553-13.138V441.21l-.332-11.593.774-.773,14.242.331h8.5Zm.442,13.69h-9.273v4.968h9.273Zm-9.273,14.242v4.968h9.273v-4.968Zm33.009-9.274V438.67h-9.6v4.968Zm-9.6,14.242h9.6v-4.968h-9.6Z" transform="translate(-1181.686 -404.114)"/>
      <path id="パス_3473" data-name="パス 3473" d="M1644.836,455.926h9.605l13.248-.331.882.662v8.832l-.772.883-13.359-.552h-37.427l-10.377.442.331-10.93V440.691l-.552.551a2.076,2.076,0,0,1-1.436.773,3.055,3.055,0,0,1-1.986-1.1l-3.312-3.2v1.214l-.663.552-8.611-.221v14.021c3.312-.883,6.4-1.877,9.6-2.981v11.151c0,1.987-.441,2.65-2.318,3.421-2.208.884-4.637,1.878-7.286,2.761v1.987l.551,24.62c0,12.806-4.967,16.118-18.436,16.118-1.325,0-1.657-.221-2.1-1.324l-5.52-13.8a64.482,64.482,0,0,0,8.169-.442c2.319-.221,2.981-.883,2.981-3.533V472.266c-2.319.662-4.636,1.214-7.066,1.876l-.993-.552-4.418-12.917.553-.994c4.195-.882,8.17-1.655,11.923-2.539v-18l-10.157.331-.773-.662V426.781l.662-.662,10.268.331V405.362l.883-.883h12.475l.994.773v21.087l8.611-.221.663.552V430.2a85.866,85.866,0,0,0,13.578-24.62l.883-.11,10.93,3.644v1.214c-.994,2.539-2.1,5.077-3.312,7.507h10.267c1.766-3.975,3.092-7.4,4.636-11.924l.773-.773,11.593,2.539.773,1.1a93.183,93.183,0,0,1-4.969,9.052h7.949l13.468-.331.774.442v8.943l-.774.442-13.468-.221h-7.949v3.643h4.527l13.468-.221.774.442v8.28l-.774.552-13.468-.331h-4.527v3.753h4.527l13.468-.331.774.662v8.06l-.774.552-13.468-.331h-4.527Zm8.391,24.841,13.026-.221.884.662c-.221,6.072-.663,11.15-1.436,17-.442,2.981-1.325,7.065-4.305,9.495-3.091,2.428-6.515,2.759-12.254,2.759h-2.761c-1.325,0-1.766-.331-2.208-1.324l-4.636-10.157c2.649,0,6.734,0,9.163-.11,2.1-.221,2.87-.552,3.422-1.877a17.957,17.957,0,0,0,1.215-5.63h-6.073a29.514,29.514,0,0,0-.773,2.981l-14.021-.221a72.136,72.136,0,0,0,3.644-14.352H1629.6c-2.76,17.112-10.267,25.061-25.723,29.808a7.478,7.478,0,0,1-1.878.33c-.993,0-1.435-.441-2.207-1.434l-6.625-8.943c14.021-3.2,20.314-7.949,22.521-19.762h-2.1l-11.7.331-.773-.662V469.174l.662-.662,11.814.33h23.293l6.735-.33,5.41,4.746c.773.662,1.1.883,1.1,1.877,0,.442-.11,1.1-.221,2.1-.221,1.214-.331,2.429-.552,3.533Zm-32.9-53.655v3.643h11.262v-3.643Zm0,12.364v3.753h11.262v-3.753Zm0,12.365v4.085h11.262v-4.085Z" transform="translate(-1198.835 -403.927)"/>
    </g>
    <g id="グループ_20109" data-name="グループ 20109" transform="translate(1208.952 159.106)">
      <path id="パス_3474" data-name="パス 3474" d="M1224.233,160.441c-.169.28-.337.561-.5.812a30.626,30.626,0,0,0,11.943,9.28l-2.888,2.888c-.336.336-.589.5-.813.5a.9.9,0,0,1-.477-.169,43.89,43.89,0,0,1-4.57-3.532V172.1l-.167.14-3.14-.084h-4.065l-3.112.084-.2-.169v-1.653a35.038,35.038,0,0,1-4.233,3.308,1.435,1.435,0,0,1-.674.279.634.634,0,0,1-.448-.223l-2.747-2.523c3.981-2.131,8.242-6.2,11.578-12.083l.309-.084,4.12,1.065Zm-11.411,17.185-.2-.168v-3.336l.167-.167,3.14.084h10.57l2.242-.14,1.486,1.429a.758.758,0,0,1,.308.533,1.794,1.794,0,0,1-.14.561,97.022,97.022,0,0,1-4.206,9.728l-4.149-1.008a57.349,57.349,0,0,0,3.336-7.6h-9.447Zm12.476-8.971a35.276,35.276,0,0,1-3.617-4.29,53.718,53.718,0,0,1-3.617,4.318l1.486.028h4.065Z" transform="translate(-1208.141 -159.095)"/>
      <path id="パス_3475" data-name="パス 3475" d="M1215.05,224.556h-3.869l.14-7.233v-3.112a10.969,10.969,0,0,1-1.093,1.178.678.678,0,0,1-.365.168c-.169,0-.281-.112-.336-.308l-1.291-3.42a22.418,22.418,0,0,0,5.8-7.6l.281-.028,2.915,1.626.085.252a26.314,26.314,0,0,1-2.271,3.924Zm-.981-26.885,2.915,1.765.084.253a24.369,24.369,0,0,1-5.944,6.223.618.618,0,0,1-.337.168c-.111,0-.224-.112-.364-.308l-2.046-2.832a16.941,16.941,0,0,0,5.41-5.242Zm12.56,1.765a44.7,44.7,0,0,1-3.365,4.093c.42.336.812.7,1.206,1.065,1.4-1.626,2.719-3.308,3.84-4.906l.28-.056,2.916,1.709.084.281a73.708,73.708,0,0,1-5.832,6.448c1.262-.056,2.523-.14,3.785-.224-.365-.421-.729-.869-1.093-1.29l.084-.252,2.383-1.514.364.056a32.027,32.027,0,0,1,4.149,5.607l-.083.252-2.523,1.765-.28-.056c-.308-.588-.645-1.15-1.009-1.737-2.13.252-4.289.42-6.42.588-.2.393-.42.758-.616,1.122h4.121l2.047-.14,1.766,1.514a.349.349,0,0,1,.168.308,1.2,1.2,0,0,1-.168.477,18.679,18.679,0,0,1-3.391,4.514,27.759,27.759,0,0,0,6.5,1.654l-2.074,3.336a.6.6,0,0,1-.5.28,2.283,2.283,0,0,1-.393-.056,23.244,23.244,0,0,1-6.561-2.748,22.46,22.46,0,0,1-7.625,2.944,1.557,1.557,0,0,1-.477.056.621.621,0,0,1-.561-.308l-1.795-2.552a24.193,24.193,0,0,0,7.6-2.438,12.814,12.814,0,0,1-1.935-2.159,18.793,18.793,0,0,1-2.86,2.776.814.814,0,0,1-.449.168.748.748,0,0,1-.477-.224l-2.1-1.907a19.268,19.268,0,0,0,5.719-6.308c-1.261.085-2.522.168-3.7.253l-.252-.141-.7-3.223.252-.2c1.29.028,2.776.028,4.318,0,.42-.393.812-.785,1.234-1.206a33.371,33.371,0,0,0-5.047-3.841V203l1.934-2.3h.224c.42.252.9.533,1.373.841a32.451,32.451,0,0,0,2.635-3.9l.252-.084,3,1.625Zm-2.552,15.84a13.007,13.007,0,0,0,1.935,1.991,11.925,11.925,0,0,0,1.766-1.991Z" transform="translate(-1208.153 -163.859)"/>
      <path id="パス_3476" data-name="パス 3476" d="M1221.17,258.71c6.028-1.009,8.748-3.9,8.748-7.262,0-4.262-2.355-6.952-5.214-7.541a30.453,30.453,0,0,1-4.318,13.064c-1.515,2.215-3.085,3.028-5.271,3.028-1.682,0-2.888-.813-3.953-2.5a8.89,8.89,0,0,1-1.374-5.075c0-6.784,5.075-12.279,12.784-12.279,7.653,0,11.746,5.131,11.746,11.354,0,5.1-3.589,8.971-9.532,10.374a.919.919,0,0,1-.9-.28Zm-7.513-6.28a4.135,4.135,0,0,0,.477,2.131c.308.561.7.925,1.15.925.645,0,1.458-.645,2.215-2.159a28.029,28.029,0,0,0,2.776-9.532C1216.18,244.5,1213.657,248.112,1213.657,252.429Z" transform="translate(-1208.345 -169.133)"/>
    </g>
    <g id="グループ_20110" data-name="グループ 20110" transform="translate(1636.876 369.141)">
      <path id="パス_3477" data-name="パス 3477" d="M1713.027,407.53l4.195.578.181.243a28.028,28.028,0,0,1-1.4,6.6,27.947,27.947,0,0,0-1.123,7.052,14.487,14.487,0,0,0,.181,3.069c.092.4.4.427.852-.03a24.439,24.439,0,0,0,1.55-1.976l.881.456a20.954,20.954,0,0,0-1.428,6.414,2.006,2.006,0,0,1-2.1,2.248c-1.216.032-1.945-.638-2.645-1.853-.669-1.125-1.519-3.587-1.519-7.964a42.6,42.6,0,0,1,1.338-9.241,25.62,25.62,0,0,0,.789-5.409ZM1735,430.022a47.2,47.2,0,0,1-7.143.486c-6.109,0-7.721-3.069-8.451-6.443l.152-.274,3.253-1.488.273.09c.578,2.858,1.763,3.77,5.836,3.739a35.592,35.592,0,0,0,5.685-.638l.273.181.273,4.073ZM1721.751,410.6c1,.031,1.976.061,2.918.061a49.292,49.292,0,0,0,8.571-.73l.214.182.181,3.831-.181.243a44.98,44.98,0,0,1-8.784.76c-.973,0-1.915,0-2.888-.06l-.214-.274v-3.769Z" transform="translate(-1708.224 -407.53)"/>
      <path id="パス_3478" data-name="パス 3478" d="M1710.065,452.314l-1.945-3.981.091-.273c8.329-3.861,13.861-5.684,17.782-5.684,5.622,0,9.362,3.313,9.362,8.967a10.213,10.213,0,0,1-6.171,9.239,27.6,27.6,0,0,1-9.119,2.1c-.486,0-.638,0-.82-.3l-2.431-4.074a28.479,28.479,0,0,0,9.331-1.732c3.039-1.216,4.164-3.009,4.164-5.866,0-2.341-1.52-3.861-4.559-3.891-3.222-.03-7.751,1.642-15.38,5.592Z" transform="translate(-1708.12 -405.931)"/>
      <path id="パス_3479" data-name="パス 3479" d="M1710.622,473.384l4.285.152.213.213c-.273,3.374-.365,6.384-.365,8.146a21.861,21.861,0,0,0,.7,6.018c.334,1.185.729,2.067,1.4,2.067.82,0,1.853-1.641,2.553-4.438l3.04,3.83a.644.644,0,0,1,.092.761c-1.217,3.161-3.193,5.441-5.655,5.441-1.976,0-3.708-1.4-4.924-3.861a22.819,22.819,0,0,1-1.763-9.453c0-2.462.06-5.38.213-8.693Zm14.407,5.288,2.917-2.34.335-.06a22.958,22.958,0,0,1,8.055,9.817l-.091.274-3.86,2.4-.3-.091a20.637,20.637,0,0,0-7.113-9.726Z" transform="translate(-1708.206 -404.174)"/>
      <path id="パス_3480" data-name="パス 3480" d="M1710.709,513.157l-1-4.013.122-.243c8.48-2.067,15.258-3.465,23.83-5.015l.273.152.881,4.043-.213.274c-3.373.243-6.322.851-8.176,2.371-2.827,2.28-4.408,5.045-4.408,7.9a3.86,3.86,0,0,0,2.948,4.1,25.592,25.592,0,0,0,7.265.669l.213.213-.244,4.621-.244.182a24.222,24.222,0,0,1-9.6-1.4c-3.01-1.276-4.894-3.83-4.894-7.964a11.563,11.563,0,0,1,4.073-8.571c-2.978.729-6.231,1.581-10.547,2.8Z" transform="translate(-1708.186 -403.406)"/>
    </g>
    <path id="パス_3481" data-name="パス 3481" d="M1434.225,412.907s2.508,6.812,5.2,9.5,9.5,5.2,9.5,5.2-7.321,2.915-9.5,5.2-5.2,9.5-5.2,9.5-2.375-6.68-5.2-9.5-9.5-5.2-9.5-5.2,6.943-2.639,9.5-5.2S1434.225,412.907,1434.225,412.907Z" transform="translate(-35.502 -39.055)" fill="#ffc42c" stroke="#000" stroke-linecap="round" stroke-linejoin="round" stroke-width="3"/>
    <path id="パス_3482" data-name="パス 3482" d="M1682.007,409.03s1.7,4.61,3.517,6.429,6.429,3.517,6.429,3.517-4.954,1.973-6.429,3.516-3.517,6.43-3.517,6.43-1.607-4.521-3.516-6.43-6.429-3.516-6.429-3.516,4.7-1.786,6.429-3.517S1682.007,409.03,1682.007,409.03Z" transform="translate(-66.778 -38.575)" fill="#ffc42c" stroke="#000" stroke-linecap="round" stroke-linejoin="round" stroke-width="3"/>
    <path id="パス_3483" data-name="パス 3483" d="M1141.119,480.3s1.637,4.446,3.391,6.2,6.2,3.391,6.2,3.391-4.778,1.9-6.2,3.391-3.391,6.2-3.391,6.2-1.55-4.36-3.391-6.2-6.2-3.391-6.2-3.391,4.532-1.722,6.2-3.391S1141.119,480.3,1141.119,480.3Z" transform="translate(4.727 -44.506)" fill="#ffc42c" stroke="#000" stroke-linecap="round" stroke-linejoin="round" stroke-width="3"/>
    <path id="パス_3599" data-name="パス 3599" d="M480.461-216.564c5.34,0,5.34,4.57,10.681,4.57s5.34-4.57,10.68-4.57,5.34,4.57,10.681,4.57,5.34-4.57,10.68-4.57,5.34,4.57,10.681,4.57,5.34-4.57,10.68-4.57,5.34,4.57,10.68,4.57,5.34-4.57,10.681-4.57,5.34,4.57,10.68,4.57,5.34-4.57,10.68-4.57,5.341,4.57,10.681,4.57,5.34-4.57,10.681-4.57,5.34,4.57,10.68,4.57,5.34-4.57,10.68-4.57,5.34,4.57,10.681,4.57,5.339-4.57,10.678-4.57,5.341,4.57,10.681,4.57,5.34-4.57,10.679-4.57,5.34,4.57,10.681,4.57,5.339-4.57,10.679-4.57,5.34,4.57,10.68,4.57,5.34-4.57,10.68-4.57,5.34,4.57,10.679,4.57,5.34-4.57,10.681-4.57,5.341,4.57,10.682,4.57,5.34-4.57,10.68-4.57,5.34,4.57,10.68,4.57,5.34-4.57,10.68-4.57,5.34,4.57,10.681,4.57,5.341-4.57,10.681-4.57,5.341,4.57,10.682,4.57,5.34-4.57,10.681-4.57,5.341,4.57,10.682,4.57,5.341-4.57,10.681-4.57,5.341,4.57,10.682,4.57,5.341-4.57,10.682-4.57,5.341,4.57,10.682,4.57,5.34-4.57,10.68-4.57,5.341,4.57,10.682,4.57,5.341-4.57,10.682-4.57,5.341,4.57,10.683,4.57,5.342-4.57,10.683-4.57,5.342,4.57,10.683,4.57,5.342-4.57,10.683-4.57,5.342,4.57,10.685,4.57" transform="translate(660.939 706.116)" fill="none" stroke="#000" stroke-linecap="round" stroke-miterlimit="10" stroke-width="3"/>
    <path id="illust" d="M2239.438,303.964H2236.4a16.908,16.908,0,0,0-2.509-6.067l2.2-2.087a20.09,20.09,0,0,0-4.886-4.88l-2.087,2.2a16.9,16.9,0,0,0-6.12-2.509v-3.043a19.863,19.863,0,0,0-6.874.063v3.053h0a16.9,16.9,0,0,0-5.982,2.581l-2.083-2.194a20.094,20.094,0,0,0-4.676,4.73l2.2,2.087a16.9,16.9,0,0,0-2.51,6.067h-3.043a19.828,19.828,0,0,0,.036,6.874h3.025l.05.114a16.913,16.913,0,0,0,2.524,5.875l-2.195,2.083a20.1,20.1,0,0,0,4.59,4.61l2.083-2.194a16.894,16.894,0,0,0,5.982,2.58h0v3.052a19.865,19.865,0,0,0,6.874.063v-3.043a16.9,16.9,0,0,0,6.12-2.509l2.087,2.2a20.091,20.091,0,0,0,4.8-4.759l-2.194-2.083a16.884,16.884,0,0,0,2.522-5.875l.051-.114h3.024a19.82,19.82,0,0,0,.036-6.874Zm-19.708,11.478a8.142,8.142,0,1,1,8.142-8.142A8.142,8.142,0,0,1,2219.73,315.442Z" transform="translate(-987.306 84.146)" fill="#fff" stroke="#000" stroke-linecap="round" stroke-linejoin="round" stroke-width="3"/>
  </g>
</svg>
