<svg xmlns="http://www.w3.org/2000/svg" width="1200" height="652" viewBox="0 0 1200 652">
  <g id="グループ_20946" data-name="グループ 20946" transform="translate(-360 -120)">
    <g id="グループ_20706" data-name="グループ 20706" transform="translate(371.09 28.704) rotate(20)">
      <g id="グループ_20620" data-name="グループ 20620" transform="translate(352.116 56.123)">
        <g id="グループ_20619" data-name="グループ 20619">
          <ellipse id="楕円形_2390" data-name="楕円形 2390" cx="8.962" cy="14.351" rx="8.962" ry="14.351" transform="translate(4.288 13.942) rotate(-51.061)" fill="#ffc417"/>
          <ellipse id="楕円形_2391" data-name="楕円形 2391" cx="8.962" cy="14.351" rx="8.962" ry="14.351" transform="translate(0 19.393) rotate(-51.061)" fill="#ffc417"/>
          <path id="パス_4081" data-name="パス 4081" d="M370.083,78.3a16.091,16.091,0,0,1-8.123-6.515" transform="translate(-349.97 -52.709)" fill="none" stroke="#000" stroke-linecap="round" stroke-linejoin="round" stroke-width="3"/>
          <path id="パス_4082" data-name="パス 4082" d="M359.622,69.327c-.81-2.7-.582-5.245.881-7.055,3.111-3.85,10.629-2.933,16.795,2.049s8.64,12.14,5.528,15.99c-1.48,1.833-3.96,2.586-6.817,2.334" transform="translate(-350.581 -55.301)" fill="none" stroke="#000" stroke-linecap="round" stroke-linejoin="round" stroke-width="3"/>
          <path id="パス_4084" data-name="パス 4084" d="M376.53,86.27c-3.719,1.181-9.151-.262-13.809-4.027-6.164-4.98-8.64-12.14-5.53-15.99a5.729,5.729,0,0,1,1.145-1.074" transform="translate(-351.303 -54.149)" fill="none" stroke="#000" stroke-linecap="round" stroke-linejoin="round" stroke-width="3"/>
          <path id="パス_4238" data-name="パス 4238" d="M371.668,66.925C375.2,69.776,377,73.4,375.7,75.01" transform="translate(-348.355 -53.247)" fill="none" stroke="#fff" stroke-linecap="round" stroke-linejoin="round" stroke-width="2.5"/>
          <ellipse id="楕円形_2441" data-name="楕円形 2441" cx="1.51" cy="1.51" rx="1.51" ry="1.51" transform="translate(17.269 9.599)" fill="#fff"/>
        </g>
      </g>
    </g>
    <g id="グループ_20935" data-name="グループ 20935" transform="translate(1138.628 407.314)">
      <g id="グループ_20925" data-name="グループ 20925" transform="translate(256.845 19.885)">
        <rect id="長方形_5953" data-name="長方形 5953" width="8.309" height="31.852" fill="#c03" stroke="#000" stroke-linecap="round" stroke-linejoin="round" stroke-width="3"/>
        <line id="線_258" data-name="線 258" y2="11.194" transform="translate(4.155 31.967)" fill="#ffc417" stroke="#000" stroke-linecap="round" stroke-linejoin="round" stroke-width="3"/>
      </g>
      <g id="グループ_20926" data-name="グループ 20926" transform="translate(202.32 2)">
        <rect id="長方形_5954" data-name="長方形 5954" width="8.309" height="52.163" transform="translate(0 11.422)" fill="#fff" stroke="#000" stroke-linecap="round" stroke-linejoin="round" stroke-width="3"/>
        <line id="線_259" data-name="線 259" y2="13.849" transform="translate(4.155 63.701)" fill="#ffc417" stroke="#000" stroke-linecap="round" stroke-linejoin="round" stroke-width="3"/>
        <line id="線_260" data-name="線 260" y2="11.307" transform="translate(4.155)" fill="#ffc417" stroke="#000" stroke-linecap="round" stroke-linejoin="round" stroke-width="3"/>
      </g>
      <g id="グループ_20927" data-name="グループ 20927" transform="translate(165.97 23.165)">
        <rect id="長方形_5955" data-name="長方形 5955" width="8.309" height="60.588" transform="translate(0 4.27)" fill="#fff" stroke="#000" stroke-linecap="round" stroke-linejoin="round" stroke-width="3"/>
        <line id="線_261" data-name="線 261" y2="4.962" transform="translate(4.155 64.973)" fill="#ffc417" stroke="#000" stroke-linecap="round" stroke-linejoin="round" stroke-width="3"/>
        <line id="線_262" data-name="線 262" y2="4.155" transform="translate(4.155)" fill="#ffc417" stroke="#000" stroke-linecap="round" stroke-linejoin="round" stroke-width="3"/>
      </g>
      <g id="グループ_20930" data-name="グループ 20930" transform="translate(220.495 5.575)">
        <rect id="長方形_5958" data-name="長方形 5958" width="8.309" height="23.427" fill="#c03" stroke="#000" stroke-linecap="round" stroke-linejoin="round" stroke-width="3"/>
        <line id="線_267" data-name="線 267" y2="16.388" transform="translate(4.155 23.543)" fill="#ffc417" stroke="#000" stroke-linecap="round" stroke-linejoin="round" stroke-width="3"/>
      </g>
      <g id="グループ_20931" data-name="グループ 20931" transform="translate(184.145 37.773)">
        <rect id="長方形_5959" data-name="長方形 5959" width="8.309" height="29.198" transform="translate(0 3.058)" fill="#c03" stroke="#000" stroke-linecap="round" stroke-linejoin="round" stroke-width="3"/>
        <line id="線_268" data-name="線 268" y2="8.482" transform="translate(4.155 32.371)" fill="#ffc417" stroke="#000" stroke-linecap="round" stroke-linejoin="round" stroke-width="3"/>
        <line id="線_269" data-name="線 269" y2="3.001" transform="translate(4.155)" fill="#ffc417" stroke="#000" stroke-linecap="round" stroke-linejoin="round" stroke-width="3"/>
      </g>
      <g id="グループ_20932" data-name="グループ 20932" transform="translate(147.795 7.813)">
        <rect id="長方形_5960" data-name="長方形 5960" width="8.309" height="22.619" transform="translate(0 3.058)" fill="#c03" stroke="#000" stroke-linecap="round" stroke-linejoin="round" stroke-width="3"/>
        <line id="線_270" data-name="線 270" y2="48.297" transform="translate(4.155 25.793)" fill="#ffc417" stroke="#000" stroke-linecap="round" stroke-linejoin="round" stroke-width="3"/>
        <line id="線_271" data-name="線 271" y2="3.001" transform="translate(4.155)" fill="#ffc417" stroke="#000" stroke-linecap="round" stroke-linejoin="round" stroke-width="3"/>
      </g>
      <g id="グループ_20933" data-name="グループ 20933" transform="translate(131.372 37.705)">
        <rect id="長方形_5961" data-name="長方形 5961" width="8.309" height="22.619" transform="translate(0 3.058)" fill="#c03" stroke="#000" stroke-linecap="round" stroke-linejoin="round" stroke-width="3"/>
        <line id="線_272" data-name="線 272" y2="3.001" transform="translate(4.155)" fill="#ffc417" stroke="#000" stroke-linecap="round" stroke-linejoin="round" stroke-width="3"/>
      </g>
      <g id="グループ_20934" data-name="グループ 20934" transform="translate(238.67 28.31)">
        <rect id="長方形_5962" data-name="長方形 5962" width="8.309" height="5.078" transform="translate(0 13.041)" fill="#c03" stroke="#000" stroke-linecap="round" stroke-linejoin="round" stroke-width="3"/>
        <line id="線_273" data-name="線 273" y2="27.12" transform="translate(4.155 18.465)" fill="#ffc417" stroke="#000" stroke-linecap="round" stroke-linejoin="round" stroke-width="3"/>
        <line id="線_274" data-name="線 274" y2="13.041" transform="translate(4.155)" fill="#ffc417" stroke="#000" stroke-linecap="round" stroke-linejoin="round" stroke-width="3"/>
      </g>
    </g>
    <rect id="しかく" width="1200" height="652" transform="translate(360 120)" fill="none"/>
  </g>
</svg>
