<svg xmlns="http://www.w3.org/2000/svg" width="129" height="129" viewBox="0 0 129 129">
  <g id="グループ_20299" data-name="グループ 20299" transform="translate(-1339 -10598)">
    <circle id="楕円形_2344" data-name="楕円形 2344" cx="64.5" cy="64.5" r="64.5" transform="translate(1339 10598)" fill="#f4f8fd"/>
    <g id="グループ_20841" data-name="グループ 20841" transform="translate(1298.748 10587.738)">
      <g id="グループ_20816" data-name="グループ 20816" transform="translate(78.409 25.529)">
        <path id="パス_4309" data-name="パス 4309" d="M131.049,118.659a6.309,6.309,0,0,1-6.29,6.29H84.7a6.309,6.309,0,0,1-6.29-6.29l.046-86.84a6.309,6.309,0,0,1,6.29-6.29H124.8a6.309,6.309,0,0,1,6.29,6.29Z" transform="translate(-78.409 -25.529)" fill="#fff" stroke="#000" stroke-linecap="round" stroke-linejoin="round" stroke-width="2"/>
        <path id="パス_4310" data-name="パス 4310" d="M141.464,148.058" transform="translate(-115.124 -96.874)" fill="#ffc417"/>
        <g id="グループ_20813" data-name="グループ 20813" transform="translate(21.772 4.022)">
          <g id="グループ_20812" data-name="グループ 20812">
            <circle id="楕円形_2448" data-name="楕円形 2448" cx="1.13" cy="1.13" r="1.13"/>
            <line id="線_251" data-name="線 251" x2="4.561" transform="translate(4.626 1.13)" fill="#fff" stroke="#000" stroke-linecap="round" stroke-linejoin="round" stroke-width="2"/>
          </g>
        </g>
        <g id="グループ_20814" data-name="グループ 20814" transform="translate(24.031 89.854)">
          <circle id="楕円形_2449" data-name="楕円形 2449" cx="2.335" cy="2.335" r="2.335" fill="none" stroke="#000" stroke-linecap="round" stroke-linejoin="round" stroke-width="2"/>
        </g>
        <g id="グループ_20815" data-name="グループ 20815" transform="translate(3.812 10.145)">
          <path id="パス_4312" data-name="パス 4312" d="M87.535,51.336a1.526,1.526,0,0,1,1.521-1.522H130.9a1.526,1.526,0,0,1,1.522,1.522" transform="translate(-87.535 -49.814)" fill="none" stroke="#000" stroke-linecap="round" stroke-linejoin="round" stroke-width="2"/>
          <g id="グループ_20857" data-name="グループ 20857" transform="translate(-55.581 -21.233)">
            <path id="パス_4325" data-name="パス 4325" d="M100.466,132.775V110.544c-2.548-1.968-9.549-4.816-10.067-5.025L85.535,103.4V96.547a16.675,16.675,0,0,1-3.672,2.481,9.839,9.839,0,0,1-7.507,0,16.68,16.68,0,0,1-3.672-2.481V103.4l-4.864,2.123c-.53.215-7.847,3.191-10.237,5.16v22.1A1.526,1.526,0,0,0,57.1,134.3h41.84A1.526,1.526,0,0,0,100.466,132.775Z" transform="translate(0 -37.227)" fill="#fff"/>
            <path id="パス_4326" data-name="パス 4326" d="M57.1,21.009a1.516,1.516,0,0,0-1.522,1.513V97.07A1.526,1.526,0,0,0,57.1,98.592h41.84a1.526,1.526,0,0,0,1.522-1.522V22.522A1.526,1.526,0,0,0,98.944,21Z" fill="none"/>
            <path id="パス_4327" data-name="パス 4327" d="M99.994,102.906" transform="translate(-21.885 -40.361)" fill="#ffc417"/>
            <path id="パス_4328" data-name="パス 4328" d="M86.812,82.375s5.083-.054,7.524-3.841,2.188-5.975,2.188-5.975,2.861.253,3.534-1.683a8.774,8.774,0,0,0,.126-4.25s-.505-2.2-2.062-2.076l-1.4.785-3.6-4.095s-4.039,3.576-7.657,4.081a27.306,27.306,0,0,1-8.289-.589l-3.24.379a2.714,2.714,0,0,0-.673,1.683v1.641s-.21,2.609,1.052,3.366a5.744,5.744,0,0,0,2.651.757,10.205,10.205,0,0,0,1.052,4.25,12.527,12.527,0,0,0,1.515,2.23A9.152,9.152,0,0,0,86.812,82.375Z" transform="translate(-8.703 -19.83)" fill="#fff"/>
            <path id="パス_4329" data-name="パス 4329" d="M91.832,115.123c2.307.981,6.722,2.953,8.634,4.428v22.232a1.526,1.526,0,0,1-1.522,1.522H57.1a1.526,1.526,0,0,1-1.522-1.522v-22.1c1.855-1.529,6.68-3.664,8.994-4.644,0,0,3.512,6.516,5.784,9.8l7.784,9.34s4.292-4.67,7.152-8.541a101.468,101.468,0,0,0,6.437-10.813Z" transform="translate(0 -46.235)" fill="#ffc417"/>
            <g id="グループ_20847" data-name="グループ 20847" transform="translate(63.376 29.753)">
              <g id="グループ_20846" data-name="グループ 20846" transform="translate(0)">
                <g id="グループ_20845" data-name="グループ 20845">
                  <path id="パス_4330" data-name="パス 4330" d="M91.129,49.721l3.861,3.65,4.247-5.054S97.2,44.106,95.025,42.6s-3.159-1.544-3.159-1.544a9.944,9.944,0,0,0-8.143-2.738c-5.23.527-9.336,5.125-10.775,6.493a8.347,8.347,0,0,0-2,3.089l1.509,4.949H76.7s7.16.527,9.582-.28A17.776,17.776,0,0,0,91.129,49.721Z" transform="translate(-70.948 -38.257)" fill="#ffc417"/>
                  <g id="グループ_20844" data-name="グループ 20844" transform="translate(3.875 13.278)">
                    <g id="グループ_20843" data-name="グループ 20843">
                      <path id="パス_4331" data-name="パス 4331" d="M96.673,124.762l-2.921,2,1,2.721-1.44,5.322,3.481,4.161,3.281-4-1.441-5.642.84-2.561Z" transform="translate(-85.844 -94.162)" fill="#ffc417"/>
                      <path id="パス_4332" data-name="パス 4332" d="M100.069,64.434" transform="translate(-89.173 -64.434)" fill="#fff"/>
                      <path id="パス_4333" data-name="パス 4333" d="M110.87,124.615a79.293,79.293,0,0,1-10.814,14.366" transform="translate(-89.167 -94.089)" fill="none" stroke="#000" stroke-linecap="round" stroke-linejoin="round" stroke-width="2"/>
                      <path id="パス_4334" data-name="パス 4334" d="M103.036,123.48l-3.152-3.544,3.887-3.115" transform="translate(-89.082 -90.249)" fill="none" stroke="#000" stroke-linecap="round" stroke-linejoin="round" stroke-width="2"/>
                      <line id="線_254" data-name="線 254" x1="1.207" y2="2.032" transform="translate(12.8 33.337)" fill="none" stroke="#000" stroke-linecap="round" stroke-linejoin="round" stroke-width="2"/>
                      <g id="グループ_20842" data-name="グループ 20842" transform="translate(0 26.572)">
                        <path id="パス_4335" data-name="パス 4335" d="M89.4,138.981a79.294,79.294,0,0,1-10.814-14.366" transform="translate(-78.588 -120.661)" fill="none" stroke="#000" stroke-linecap="round" stroke-linejoin="round" stroke-width="2"/>
                        <path id="パス_4336" data-name="パス 4336" d="M93.151,123.48l3.152-3.544-3.887-3.115" transform="translate(-85.402 -116.821)" fill="none" stroke="#000" stroke-linecap="round" stroke-linejoin="round" stroke-width="2"/>
                        <line id="線_255" data-name="線 255" x2="1.207" y2="2.032" transform="translate(7.696 6.765)" fill="none" stroke="#000" stroke-linecap="round" stroke-linejoin="round" stroke-width="2"/>
                      </g>
                    </g>
                  </g>
                </g>
              </g>
            </g>
            <g id="グループ_20848" data-name="グループ 20848" transform="translate(58.253 27.275)">
              <path id="パス_4337" data-name="パス 4337" d="M72.011,33.371H60.848V45.59" transform="translate(-60.848 -33.371)" fill="none" stroke="#000" stroke-linecap="round" stroke-linejoin="round" stroke-width="2"/>
              <path id="パス_4338" data-name="パス 4338" d="M128.308,45.59V33.371H117.145" transform="translate(-88.589 -33.371)" fill="none" stroke="#000" stroke-linecap="round" stroke-linejoin="round" stroke-width="2"/>
              <path id="パス_4339" data-name="パス 4339" d="M60.848,89.585V101.8H72.011" transform="translate(-60.848 -61.071)" fill="none" stroke="#000" stroke-linecap="round" stroke-linejoin="round" stroke-width="2"/>
              <path id="パス_4340" data-name="パス 4340" d="M117.145,101.8h11.163V89.585" transform="translate(-88.589 -61.071)" fill="none" stroke="#000" stroke-linecap="round" stroke-linejoin="round" stroke-width="2"/>
            </g>
            <g id="グループ_20856" data-name="グループ 20856" transform="translate(63.356 30.286)">
              <g id="グループ_20849" data-name="グループ 20849" transform="translate(12.525 25.609)">
                <path id="パス_4341" data-name="パス 4341" d="M95.6,89.8l2.23,1.115,2.33-1.115" transform="translate(-95.6 -89.795)" fill="none" stroke="#000" stroke-linecap="round" stroke-linejoin="round" stroke-width="2"/>
              </g>
              <g id="グループ_20853" data-name="グループ 20853" transform="translate(9.095 18.222)">
                <g id="グループ_20852" data-name="グループ 20852">
                  <g id="グループ_20851" data-name="グループ 20851">
                    <g id="グループ_20850" data-name="グループ 20850">
                      <circle id="楕円形_2450" data-name="楕円形 2450" cx="1.258" cy="1.258" r="1.258"/>
                      <circle id="楕円形_2451" data-name="楕円形 2451" cx="1.258" cy="1.258" r="1.258" transform="translate(8.784)"/>
                    </g>
                  </g>
                </g>
              </g>
              <path id="パス_4342" data-name="パス 4342" d="M80.9,83.352a9.735,9.735,0,0,0,19.47,0" transform="translate(-75.833 -61.012)" fill="none" stroke="#000" stroke-linecap="round" stroke-linejoin="round" stroke-width="2"/>
              <path id="パス_4343" data-name="パス 4343" d="M73.614,76.168a4.392,4.392,0,0,0,.54,2.641,3.338,3.338,0,0,0,3.061.96" transform="translate(-72.233 -57.472)" fill="none" stroke="#000" stroke-linecap="round" stroke-linejoin="round" stroke-width="2"/>
              <path id="パス_4344" data-name="パス 4344" d="M119.273,77.919a3.338,3.338,0,0,0,3.061-.96,4.394,4.394,0,0,0,.54-2.641v-1.9" transform="translate(-94.741 -55.622)" fill="none" stroke="#000" stroke-linecap="round" stroke-linejoin="round" stroke-width="2"/>
              <path id="パス_4345" data-name="パス 4345" d="M72.367,53.433l-1.459-4.072s3.113-6.117,8.761-8.643c7.2-3.221,11.144-.14,12.044,1.481a12.62,12.62,0,0,1,7.468,7.443l-3.108,4.072" transform="translate(-70.908 -39.308)" fill="none" stroke="#000" stroke-linecap="round" stroke-linejoin="round" stroke-width="2"/>
              <g id="グループ_20854" data-name="グループ 20854" transform="translate(22.231 28.753)">
                <line id="線_256" data-name="線 256" y2="4.082" fill="none" stroke="#000" stroke-linecap="round" stroke-linejoin="round" stroke-width="2"/>
              </g>
              <g id="グループ_20855" data-name="グループ 20855" transform="translate(7.371 28.753)">
                <line id="線_257" data-name="線 257" y2="4.082" fill="none" stroke="#000" stroke-linecap="round" stroke-linejoin="round" stroke-width="2"/>
              </g>
              <path id="パス_4346" data-name="パス 4346" d="M97.906,60.517s-3.368,3.17-6.049,3.789-8.89.166-8.89.166" transform="translate(-76.85 -49.759)" fill="none" stroke="#000" stroke-linecap="round" stroke-linejoin="round" stroke-width="2"/>
            </g>
          </g>
          <path id="パス_4347" data-name="パス 4347" d="M87.535,227.065a1.526,1.526,0,0,0,1.521,1.522H130.9a1.526,1.526,0,0,0,1.522-1.522" transform="translate(-87.534 -153.021)" fill="none" stroke="#000" stroke-linecap="round" stroke-linejoin="round" stroke-width="2"/>
        </g>
      </g>
      <g id="グループ_20819" data-name="グループ 20819" transform="translate(93.447 72.337)">
        <g id="グループ_20818" data-name="グループ 20818">
          <g id="グループ_20817" data-name="グループ 20817">
            <path id="パス_4313" data-name="パス 4313" d="M114.408,137.582" transform="translate(-114.408 -137.582)" fill="none" stroke="#000" stroke-linecap="round" stroke-linejoin="round" stroke-width="2"/>
          </g>
        </g>
      </g>
    </g>
  </g>
</svg>
