<svg xmlns="http://www.w3.org/2000/svg" xmlns:xlink="http://www.w3.org/1999/xlink" width="101.915" height="61.625" viewBox="0 0 101.915 61.625">
  <defs>
    <linearGradient id="linear-gradient" x1="0.263" y1="0.248" x2="0.754" y2="0.684" gradientUnits="objectBoundingBox">
      <stop offset="0" stop-color="#c03" stop-opacity="0"/>
      <stop offset="1" stop-color="#c03"/>
    </linearGradient>
  </defs>
  <g id="グループ_20597" data-name="グループ 20597" transform="translate(-136.861 -572.485)">
    <path id="パス_4022" data-name="パス 4022" d="M10554.8,2245.244h21.618l2.119-3.212,5.884,2.659-7.193,16.18-23.7-15.089Z" transform="translate(-10411 -1646)" fill="#fff"/>
    <path id="パス_1702" data-name="パス 1702" d="M44.632,1159.085l4.64,2.292s6.561-2.219,7.841-1.349,1.12,0,1.12,0,4.64-2.47,12.161-.32c6.881,1.509,9.121,1.371,10.4.32l1.28-1.051,9.441,14.532-8.64,4.99s1.44,2.56,0,4.32c-.886,1.333-2.88,0-2.88,0s.943,3.721-.489,4.581-3.917,0-3.917,0,1.146,2.866-.191,4.012-5.35-1.051-5.35-1.051,1.528,3.153.191,4.3-6.305-1.146-8.5-3.057c-2.389,1.242-4.681,2.484-5.827,1.433s-1.624-2.675-.191-3.917c-2.292,1.528-5.445,2.484-6.687-.191a6.114,6.114,0,0,1,.764-2.2s-3.057,2.389-4.585.764a2.908,2.908,0,0,1-.191-4.012c-1.72,1.051-4.49.86-4.968-.478s.382-3.248,2.675-3.917.955-.86.955-.86l-7.26-4.107" transform="translate(124.113 -562.712)" fill="#fff"/>
    <path id="パス_1710" data-name="パス 1710" d="M5.506,1157.2l10.317-15.922,16.725,11.656-10.08,14.683Z" transform="translate(135.964 -556.933)" fill="url(#linear-gradient)"/>
    <path id="パス_1704" data-name="パス 1704" d="M52.391,1160.494s3.248,1.719,3.63,1.815,6.019-1.815,6.019-1.815" transform="translate(117.34 -563.418)" fill="none" stroke="#231815" stroke-linecap="round" stroke-linejoin="round" stroke-width="2"/>
    <line id="線_29" data-name="線 29" x2="8.884" y2="5.063" transform="translate(160.846 611.883)" fill="none" stroke="#231815" stroke-linecap="round" stroke-linejoin="round" stroke-width="2"/>
    <path id="パス_1705" data-name="パス 1705" d="M45.9,1193.177s-4.462,1.623-4.462,3.534,1.433,3.057,3.439,2.866" transform="translate(121.983 -577.281)" fill="none" stroke="#231815" stroke-linecap="round" stroke-linejoin="round" stroke-width="2"/>
    <path id="パス_1706" data-name="パス 1706" d="M58.265,1197.559s-.669-2.16-2.627-1.491-6.066,3.726-6.066,3.726a2.745,2.745,0,0,0-.287,3.726c1.529,2.1,4.681,0,4.681,0" transform="translate(118.916 -578.452)" fill="none" stroke="#231815" stroke-linecap="round" stroke-linejoin="round" stroke-width="2"/>
    <path id="パス_1707" data-name="パス 1707" d="M63.1,1209.223a4.054,4.054,0,0,1-4.968-.765c-2.378-2.585,3.917-5.711,3.917-5.711a7.943,7.943,0,0,1,3.248-.785c1.433.1,1.624,2.58,1.624,2.58" transform="translate(115.131 -581.004)" fill="none" stroke="#231815" stroke-linecap="round" stroke-linejoin="round" stroke-width="2"/>
    <path id="パス_1708" data-name="パス 1708" d="M74.171,1198.915s-1.051-3.44-3.248-2.006-4.395,3.057-3.439,4.777,3.439,1.337,4.012.955,2.1-1.529,2.1-1.529l6.114,3.057a3.81,3.81,0,0,0,4.586-.764c1.337-1.624-1.433-3.63-1.433-3.63s4.49,2.894,6.114.348-3.535-5.316-3.535-5.316,5.159,3.78,6.783,1.7.764-3.146,0-3.9-3.821-2.859-3.821-2.859,5.827,4.667,7.643,2.859,1.433-3.431-.573-5.055-10.413-7.643-10.413-7.643" transform="translate(111.035 -571.651)" fill="none" stroke="#231815" stroke-linecap="round" stroke-linejoin="round" stroke-width="2"/>
    <path id="パス_1709" data-name="パス 1709" d="M82.5,1168.624s-7.356,2.866-11.846-.764c-2.771,2.962-6.21,5.732-8.98,5.159s-2.866-2.293-1-4.395,5.971-7.543,6.448-7.975,3.248-2.82,9.458-1.578,10.891,2.006,10.891,2.006a3.705,3.705,0,0,0,2.866-1.337" transform="translate(114.362 -562.664)" fill="none" stroke="#231815" stroke-linecap="round" stroke-linejoin="round" stroke-width="2"/>
    <line id="線_30" data-name="線 30" x1="7.547" y2="4.522" transform="translate(206.51 611.374)" fill="none" stroke="#000" stroke-linecap="round" stroke-linejoin="round" stroke-width="2"/>
    <line id="線_31" data-name="線 31" x2="4.75" y2="5.872" transform="translate(172.095 582.088)" fill="none" stroke="#231815" stroke-linecap="round" stroke-linejoin="round" stroke-width="2"/>
    <line id="線_32" data-name="線 32" x1="4.75" y2="5.872" transform="translate(198.884 582.088)" fill="none" stroke="#231815" stroke-linecap="round" stroke-linejoin="round" stroke-width="2"/>
    <line id="線_33" data-name="線 33" y2="6.9" transform="translate(188.026 578.399)" fill="none" stroke="#231815" stroke-linecap="round" stroke-linejoin="round" stroke-width="2"/>
    <line id="線_115" data-name="線 115" y2="1.686" transform="translate(188.026 573.485)" fill="none" stroke="#231815" stroke-linecap="round" stroke-linejoin="round" stroke-width="2"/>
    <line id="線_116" data-name="線 116" x2="0.633" y2="0.633" transform="translate(168.625 578.083)" fill="none" stroke="#231815" stroke-linecap="round" stroke-linejoin="round" stroke-width="2"/>
    <line id="線_117" data-name="線 117" x1="0.633" y2="0.633" transform="translate(206.277 578.083)" fill="none" stroke="#231815" stroke-linecap="round" stroke-linejoin="round" stroke-width="2"/>
    <path id="パス_4021" data-name="パス 4021" d="M10565.992,2233.215c3.285,2.053,12.976,8.077,12.976,8.077l-10.054,14.583-15.24-9.88" transform="translate(-10411 -1646)" fill="none" stroke="#000" stroke-linecap="round" stroke-linejoin="round" stroke-width="2"/>
    <path id="パス_3844" data-name="パス 3844" d="M107.247,1152.314l12.364-8.2" transform="translate(98.63 -556.894)" fill="none" stroke="#231815" stroke-linecap="round" stroke-width="2"/>
    <path id="パス_4016" data-name="パス 4016" d="M142.776,600.135h-5.915" transform="translate(96 -0.635)" fill="none" stroke="#000" stroke-width="1"/>
    <path id="パス_4017" data-name="パス 4017" d="M218.278,587.2l-12.3,8.116,10.173,14.708,16.036-10.034" fill="none" stroke="#000" stroke-linecap="round" stroke-linejoin="round" stroke-width="2"/>
    <path id="パス_4015" data-name="パス 4015" d="M142.776,600.135h-5.915" transform="translate(0 -0.635)" fill="none" stroke="#000" stroke-width="1"/>
    <path id="パス_4019" data-name="パス 4019" d="M142.776,600.135h-5.915" transform="translate(95.438 -0.635)" fill="none" stroke="#000" stroke-width="1"/>
    <path id="パス_4020" data-name="パス 4020" d="M218.278,587.2l-12.3,8.116,10.173,14.708,16.036-10.034" fill="none" stroke="#000" stroke-linecap="round" stroke-linejoin="round" stroke-width="2"/>
  </g>
</svg>
