<svg xmlns="http://www.w3.org/2000/svg" width="399" height="561" viewBox="0 0 399 561">
  <g id="グループ_20858" data-name="グループ 20858" transform="translate(12 -38)">
    <g id="slider">
      <g id="グループ_20689" data-name="グループ 20689" transform="translate(103.117 68.661)">
        <g id="グループ_20680" data-name="グループ 20680" transform="translate(121.819 65.808)">
          <path id="パス_4197" data-name="パス 4197" d="M146.978,177.751c.923,8.806,15.838,14.46,33.313,12.629s30.894-10.455,29.972-19.26l-1.191-7-62.985,8.371Z" transform="translate(-144.188 -148.509)" fill="#ffc417"/>
          <ellipse id="楕円形_2435" data-name="楕円形 2435" cx="31.816" cy="16.885" rx="31.816" ry="16.885" transform="matrix(0.995, -0.104, 0.104, 0.995, 0, 6.632)" fill="#ffc417"/>
        </g>
        <path id="パス_4198" data-name="パス 4198" d="M186.738,28.849s8.425-1.761,11.378-2.167,9.509-1.029,12.462-.65S216.7,27.17,216.7,27.17l1.219.487s3.847-1.869,5.066-1.761a40.567,40.567,0,0,1,5.039,1.381,1.994,1.994,0,0,1,.271.975,13.331,13.331,0,0,1-1.842,2.276l1.734.677a1.193,1.193,0,0,1-.081,1.274c-.434.812-5.283.541-5.283.541l-2.3-.027-.271,1.03-1.842.243s-9.671.867-12.678,1.517-14.3,4.5-14.3,4.5A61.359,61.359,0,0,0,192.7,49.6c1.165,5.743,1.815,9.13,1.815,9.13s-3.007,1.95-4.443,2.682A29.673,29.673,0,0,1,178.8,63.444a31.539,31.539,0,0,1-7.45-1.219c-2.838-.926-3.413-1.788-3.413-1.788l-.325-.732,2.14-14.9a100.642,100.642,0,0,0-11.92,2.871c-4.335,1.517-13,6.123-13,6.123l-2.519,1.273a40.163,40.163,0,0,0-1.869-4.93c-.651-1.084-1.544-2.655-1.544-2.655s7.965-5.147,12.57-7.531,13.329-6.745,16.769-7.721a32.737,32.737,0,0,1,4.8-1.111s1.029,3.413,4.118,4.5A6.449,6.449,0,0,0,183.975,34C185.383,32.669,186.738,28.849,186.738,28.849Z" transform="translate(-18.701 -12.187)" fill="#fff"/>
        <path id="パス_4199" data-name="パス 4199" d="M125.531,73.29c-.069-.05-2.438.759-2.438.759l-7.071.6-4.334,5.066-.054,2.167a1.207,1.207,0,0,0,1.029.569,38.693,38.693,0,0,0,3.9-1.219,2.952,2.952,0,0,0,1.436.7c.623,0,2.98-.325,2.98-.325l4.118-2.817,2.411-1.246S127.183,74.509,125.531,73.29Z" transform="translate(-4.794 -36.364)" fill="#fff"/>
        <path id="パス_4200" data-name="パス 4200" d="M188.49,97.182,178.452,129l.488.772-2.316,4.958s1.95,1.219,2.194,1.869a2.567,2.567,0,0,1,.163,1.179,11.217,11.217,0,0,0,2.844-.975c.366-.406.853-1.016.853-1.016l1.381-3.82,1.016-.487s7.193-13.776,9.834-16.661a45.459,45.459,0,0,1,4.185-4.145l6.421,3.535-2.4,14.588a22.686,22.686,0,0,0,2.438,1.625,7.838,7.838,0,0,0,1.3.325l.041-1.3s2.154-1.05,2.154-1.585c0-.243.731-3.292.731-3.292l1.341-.772,4.511-11.5a5.963,5.963,0,0,0-.122-2.316c-.325-.935-6.42-11.7-6.42-11.7s-6.542,1.788-10.769,1.544S188.49,97.182,188.49,97.182Z" transform="translate(-37.947 -48.553)" fill="#fff"/>
        <g id="グループ_20682" data-name="グループ 20682" transform="translate(106.636 13.512)">
          <path id="パス_4201" data-name="パス 4201" d="M209.069,166.106l1.03,5.817c.922,8.806-12.5,17.429-29.972,19.26s-32.39-3.823-33.313-12.629l-1.048-5.705" transform="translate(-128.842 -97.224)" fill="none" stroke="#000" stroke-linecap="round" stroke-linejoin="round" stroke-width="2"/>
          <path id="パス_4202" data-name="パス 4202" d="M145.751,163.62c-.607-5.8,4.391-11.487,12.492-15.387" transform="translate(-128.809 -88.107)" fill="none" stroke="#000" stroke-linecap="round" stroke-linejoin="round" stroke-width="2"/>
          <path id="パス_4203" data-name="パス 4203" d="M205.183,193c-5.378,3.472-12.887,6.045-21.358,6.933a55.51,55.51,0,0,1-14.73-.349A32.963,32.963,0,0,1,156.379,195q-.808-.536-1.519-1.117" transform="translate(-133.481 -110.944)" fill="none" stroke="#000" stroke-linecap="round" stroke-linejoin="round" stroke-width="2"/>
          <path id="パス_4204" data-name="パス 4204" d="M261.294,147.693c3.877,2.348,6.332,5.443,6.708,9.02.4,3.808-1.621,7.57-5.351,10.809" transform="translate(-187.775 -87.832)" fill="none" stroke="#000" stroke-linecap="round" stroke-linejoin="round" stroke-width="2"/>
          <g id="グループ_20681" data-name="グループ 20681" transform="translate(0)">
            <path id="パス_4205" data-name="パス 4205" d="M226.026,47.768a5.809,5.809,0,0,1-4.06,3.4,4.9,4.9,0,0,1-4.876-1.265" transform="translate(-165.225 -36.859)" fill="none" stroke="#000" stroke-linecap="round" stroke-linejoin="round" stroke-width="2"/>
            <path id="パス_4206" data-name="パス 4206" d="M169.629,37.531s-3.882.658-15.147,6.377c-12.723,6.459-16.252,9.465-16.252,9.465s2.1,1.93,3.44,6.88" transform="translate(-124.998 -31.637)" fill="none" stroke="#000" stroke-linecap="round" stroke-linejoin="round" stroke-width="2"/>
            <line id="線_239" data-name="線 239" y1="2.255" x2="2.404" transform="translate(4.675 28.794)" fill="none" stroke="#000" stroke-linecap="round" stroke-linejoin="round" stroke-width="2"/>
            <path id="パス_4207" data-name="パス 4207" d="M121.9,74.607l-6,.459-4.622,5.107c.12,1.075-.5,2.993.654,2.818a32.635,32.635,0,0,0,4.128-1.308l.888.7s2.727-.27,3.4-.283,3.707-2.365,3.707-2.365" transform="translate(-111.22 -50.55)" fill="none" stroke="#000" stroke-linecap="round" stroke-linejoin="round" stroke-width="2"/>
            <path id="パス_4208" data-name="パス 4208" d="M152.615,72.521a119.43,119.43,0,0,1,12.5-5.7,57.564,57.564,0,0,1,10.655-2.768" transform="translate(-132.336 -45.163)" fill="none" stroke="#000" stroke-linecap="round" stroke-linejoin="round" stroke-width="2"/>
            <path id="パス_4209" data-name="パス 4209" d="M199.358,62.434l-1.845,11.913s3.12,3.781,12.516,3.445c9.829-.351,14.3-4.552,14.3-4.552s-3.29-16.04-3.176-18.441" transform="translate(-155.239 -40.446)" fill="none" stroke="#000" stroke-linecap="round" stroke-linejoin="round" stroke-width="2"/>
            <path id="パス_4210" data-name="パス 4210" d="M248,27.666a64.273,64.273,0,0,1,18.2-1.594,48.36,48.36,0,0,1,5.621.755,5.959,5.959,0,0,1,4.051,6.107" transform="translate(-180.994 -25.728)" fill="none" stroke="#000" stroke-linecap="round" stroke-linejoin="round" stroke-width="2"/>
            <path id="パス_4211" data-name="パス 4211" d="M246.118,48.514a76.26,76.26,0,0,1,15.149-4.627c3.98-.722,10.858-1.246,10.858-1.246" transform="translate(-180.033 -34.243)" fill="none" stroke="#000" stroke-linecap="round" stroke-linejoin="round" stroke-width="2"/>
            <path id="パス_4212" data-name="パス 4212" d="M312.232,37.438l4.448-.118s.738-1.342.132-1.625-1.637-.628-1.637-.628" transform="translate(-213.759 -30.38)" fill="none" stroke="#000" stroke-linecap="round" stroke-linejoin="round" stroke-width="2"/>
            <path id="パス_4213" data-name="パス 4213" d="M300.4,27.018s3.433-1.649,5.034-1.51a27.869,27.869,0,0,1,4.189.908s1.121.456,1.277.866-.549.79-.549.79" transform="translate(-207.725 -25.499)" fill="none" stroke="#000" stroke-linecap="round" stroke-linejoin="round" stroke-width="2"/>
          </g>
          <path id="パス_4214" data-name="パス 4214" d="M193.011,145.639s6.643-11.642,8.167-13.987a61.541,61.541,0,0,1,6.121-7.268" transform="translate(-152.943 -75.941)" fill="none" stroke="#000" stroke-linecap="round" stroke-linejoin="round" stroke-width="2"/>
          <path id="パス_4215" data-name="パス 4215" d="M189.35,103.3l-9.028,28.844a6.869,6.869,0,0,0,2.984,1.989" transform="translate(-146.47 -65.186)" fill="none" stroke="#000" stroke-linecap="round" stroke-linejoin="round" stroke-width="2"/>
          <line id="線_240" data-name="線 240" x1="0.704" y2="1.842" transform="translate(33.442 67.842)" fill="none" stroke="#000" stroke-linecap="round" stroke-linejoin="round" stroke-width="2"/>
          <path id="パス_4216" data-name="パス 4216" d="M176.288,176.916l-2.462,2.349a10.819,10.819,0,0,1-4.566,2.16,7.271,7.271,0,0,1-5.373-1.3l-.461-2.317,3.531-1.814,2.113-2.791s2.874.926,3.13,2.21l-.186.961s3.005-.574,4.043-1.851Z" transform="translate(-137.851 -100.843)" fill="#c03" stroke="#000" stroke-linecap="round" stroke-linejoin="round" stroke-width="2"/>
          <path id="パス_4217" data-name="パス 4217" d="M229.813,162.793l2.462,2.35a10.814,10.814,0,0,0,4.566,2.16,7.271,7.271,0,0,0,5.373-1.3l.46-2.317-3.531-1.814-2.113-2.791s-2.873.926-3.129,2.21l.186.961s-3-.574-4.043-1.851Z" transform="translate(-171.716 -93.639)" fill="#c03" stroke="#000" stroke-linecap="round" stroke-linejoin="round" stroke-width="2"/>
          <path id="パス_4218" data-name="パス 4218" d="M241.569,152.038a6.55,6.55,0,0,0,2.589-.948" transform="translate(-177.713 -89.564)" fill="none" stroke="#000" stroke-linecap="round" stroke-linejoin="round" stroke-width="2"/>
          <path id="パス_4219" data-name="パス 4219" d="M222.646,124.072l6.422,3.523-1.246,9.343" transform="translate(-168.06 -75.782)" fill="none" stroke="#000" stroke-linecap="round" stroke-linejoin="round" stroke-width="2"/>
          <path id="パス_4220" data-name="パス 4220" d="M246.19,104.388s5.357,8.847,5.271,10.264-4.794,12.461-4.794,12.461" transform="translate(-180.07 -65.741)" fill="none" stroke="#000" stroke-linecap="round" stroke-linejoin="round" stroke-width="2"/>
          <line id="線_241" data-name="線 241" x1="0.509" y2="2.846" transform="translate(59.218 61.349)" fill="none" stroke="#000" stroke-linecap="round" stroke-linejoin="round" stroke-width="2"/>
          <line id="線_242" data-name="線 242" y1="18.452" x2="38.11" transform="translate(86.297 41.425)" fill="#fff" stroke="#000" stroke-linecap="round" stroke-linejoin="round" stroke-width="2"/>
          <line id="線_243" data-name="線 243" y1="6.712" x2="14.362" transform="translate(90.423 63.761)" fill="#fff" stroke="#000" stroke-linecap="round" stroke-linejoin="round" stroke-width="2"/>
        </g>
        <g id="グループ_20688" data-name="グループ 20688" transform="translate(152.092 2.24)">
          <path id="パス_4221" data-name="パス 4221" d="M222.822,19.954s-.108-.678-.487-.678-2.872.163-2.872.163-3.982.3-5.445-.406a33.345,33.345,0,0,1-3.928-2.547l-2.872,3.508.027,2.885a19.537,19.537,0,0,0,.894,5.2c.786,2,3.549,3.278,6.123,3.386a6.521,6.521,0,0,0,5.174-2.682c1.029-1.355,1.165-4.226,1.165-4.226s1.95-.109,2.221-1.273A12.781,12.781,0,0,0,222.822,19.954Z" transform="translate(-205.645 -9.629)" fill="#fff"/>
          <path id="パス_4222" data-name="パス 4222" d="M208.427,10l-2.671,2.716a5.061,5.061,0,0,1-.888-6.547,6.339,6.339,0,0,1,3.381-2.395s1.111-1.3,5.234-1.281c6.252.034,9.448,5.29,9.448,5.29l-2.072,4.364s-5.887.571-7.113.438S208.427,10,208.427,10Z" transform="translate(-204.007 -2.489)" fill="#ffc417"/>
          <g id="グループ_20686" data-name="グループ 20686" transform="translate(4.199 11.865)">
            <g id="グループ_20685" data-name="グループ 20685">
              <g id="グループ_20684" data-name="グループ 20684">
                <g id="グループ_20683" data-name="グループ 20683">
                  <circle id="楕円形_2437" data-name="楕円形 2437" cx="0.903" cy="0.903" r="0.903" transform="translate(6.004)"/>
                  <circle id="楕円形_2438" data-name="楕円形 2438" cx="0.903" cy="0.903" r="0.903" transform="translate(0 0.085)"/>
                </g>
              </g>
            </g>
          </g>
          <g id="グループ_20687" data-name="グループ 20687" transform="translate(1.985 11.891)">
            <path id="パス_4223" data-name="パス 4223" d="M219.172,35.254a6.426,6.426,0,0,1-11.081-4.095l-.031-2.3" transform="translate(-208.06 -27.831)" fill="none" stroke="#000" stroke-linecap="round" stroke-linejoin="round" stroke-width="2"/>
            <path id="パス_4224" data-name="パス 4224" d="M237.193,26.762s.172,1.519-.275,2.073a1.573,1.573,0,0,1-1.691.62l.217,2.709" transform="translate(-221.918 -26.762)" fill="none" stroke="#000" stroke-linecap="round" stroke-linejoin="round" stroke-width="2"/>
          </g>
          <path id="パス_4225" data-name="パス 4225" d="M214.173,17.256a13.941,13.941,0,0,0,4.136,2.36,16.449,16.449,0,0,0,5.176.06" transform="translate(-209.193 -10.022)" fill="none" stroke="#000" stroke-linecap="round" stroke-linejoin="round" stroke-width="2"/>
          <path id="パス_4226" data-name="パス 4226" d="M218.306,35.105a5.094,5.094,0,0,0,2.675-.135" transform="translate(-211.301 -19.058)" fill="none" stroke="#000" stroke-linecap="round" stroke-linejoin="round" stroke-width="2"/>
          <path id="パス_4227" data-name="パス 4227" d="M222.826,35.026a3.405,3.405,0,0,1-.9,2.31" transform="translate(-213.146 -19.087)" fill="none" stroke="#000" stroke-linecap="round" stroke-linejoin="round" stroke-width="2"/>
        </g>
        <path id="パス_4228" data-name="パス 4228" d="M204.794,11.687l-1.53-2.069a8.765,8.765,0,0,1,1.49-3.58,4.594,4.594,0,0,1,2.885-1.625,6.066,6.066,0,0,1,5.892-2.357c4.1.487,9.021,5.267,9.021,5.267l-1.761,3.649" transform="translate(-51.536 0)" fill="none" stroke="#000" stroke-linecap="round" stroke-linejoin="round" stroke-width="2"/>
      </g>
      <g id="グループ_20801" data-name="グループ 20801" transform="translate(29.323 534.636)">
        <g id="グループ_20612" data-name="グループ 20612" transform="translate(0 0)">
          <ellipse id="楕円形_2384" data-name="楕円形 2384" cx="12.551" cy="7.838" rx="12.551" ry="7.838" transform="translate(0 16.26) rotate(-40.373)" fill="#ffc417"/>
          <ellipse id="楕円形_2385" data-name="楕円形 2385" cx="12.551" cy="7.838" rx="12.551" ry="7.838" transform="translate(2.756 19.412) rotate(-40.373)" fill="#ffc417"/>
          <path id="パス_4059" data-name="パス 4059" d="M361.788,191.224a14.07,14.07,0,0,1-6.915,5.924" transform="translate(-339.056 -174.731)" fill="none" stroke="#000" stroke-linecap="round" stroke-linejoin="round" stroke-width="2"/>
          <path id="パス_4060" data-name="パス 4060" d="M343.129,191.665c-2.454.258-4.6-.35-5.92-1.9-2.8-3.3-.8-9.611,4.484-14.1s11.835-5.456,14.639-2.158c1.334,1.57,1.579,3.823.9,6.237" transform="translate(-332.131 -167.533)" fill="none" stroke="#000" stroke-linecap="round" stroke-linejoin="round" stroke-width="2"/>
          <path id="パス_4062" data-name="パス 4062" d="M361.835,183.727c.412,3.387-1.71,7.821-5.7,11.215-5.28,4.49-11.835,5.456-14.638,2.158a5.008,5.008,0,0,1-.738-1.158" transform="translate(-333.893 -171.989)" fill="none" stroke="#000" stroke-linecap="round" stroke-linejoin="round" stroke-width="2"/>
          <ellipse id="楕円形_2440" data-name="楕円形 2440" cx="0.833" cy="0.832" rx="0.833" ry="0.832" transform="translate(9.212 12.062)" fill="#fff"/>
          <path id="パス_4237" data-name="パス 4237" d="M348.239,179.138c3.436-2.922,7.463-3.831,8.993-2.03a3.6,3.6,0,0,1,.223,3.632" transform="translate(-336.198 -168.301)" fill="none" stroke="#fff" stroke-linecap="round" stroke-linejoin="round" stroke-width="2"/>
        </g>
      </g>
    </g>
    <rect id="しかく" width="399" height="561" transform="translate(-12 38)" fill="none"/>
  </g>
</svg>

