<svg xmlns="http://www.w3.org/2000/svg" width="406.058" height="561" viewBox="0 0 406.058 561">
  <g id="グループ_20858" data-name="グループ 20858" transform="translate(13.495 -38)">
    <g id="phone">
      <g id="グループ_20707" data-name="グループ 20707" transform="matrix(0.156, -0.988, 0.988, 0.156, 219.236, 453.887)">
        <g id="グループ_20620" data-name="グループ 20620" transform="translate(352.116 56.123)">
          <g id="グループ_20619" data-name="グループ 20619" transform="translate(0 0)">
            <ellipse id="楕円形_2390" data-name="楕円形 2390" cx="7.402" cy="11.853" rx="7.402" ry="11.853" transform="translate(3.542 11.515) rotate(-51.061)" fill="#ffc417"/>
            <ellipse id="楕円形_2391" data-name="楕円形 2391" cx="7.402" cy="11.853" rx="7.402" ry="11.853" transform="translate(0 16.017) rotate(-51.061)" fill="#ffc417"/>
            <path id="パス_4081" data-name="パス 4081" d="M368.669,77.166a13.29,13.29,0,0,1-6.709-5.381" transform="translate(-352.057 -56.029)" fill="none" stroke="#000" stroke-linecap="round" stroke-linejoin="round" stroke-width="2"/>
            <path id="パス_4082" data-name="パス 4082" d="M359.541,67.684a6.227,6.227,0,0,1,.727-5.827c2.569-3.18,8.779-2.422,13.871,1.692s7.136,10.026,4.566,13.206c-1.222,1.514-3.27,2.136-5.63,1.927" transform="translate(-352.074 -56.1)" fill="none" stroke="#000" stroke-linecap="round" stroke-linejoin="round" stroke-width="2"/>
            <path id="パス_4084" data-name="パス 4084" d="M372.93,82.6c-3.071.976-7.558-.216-11.406-3.326-5.091-4.113-7.136-10.026-4.567-13.206a4.731,4.731,0,0,1,.946-.887" transform="translate(-352.094 -56.069)" fill="none" stroke="#000" stroke-linecap="round" stroke-linejoin="round" stroke-width="2"/>
            <path id="パス_4238" data-name="パス 4238" d="M371.668,66.925c2.914,2.355,4.4,5.345,3.327,6.677" transform="translate(-351.415 -55.718)" fill="none" stroke="#fff" stroke-linecap="round" stroke-linejoin="round" stroke-width="2"/>
            <ellipse id="楕円形_2441" data-name="楕円形 2441" cx="1.247" cy="1.247" rx="1.247" ry="1.247" transform="translate(15.261 7.838)" fill="#fff"/>
          </g>
        </g>
      </g>
    </g>
    <g id="sofa">
      <g id="グループ_20800" data-name="グループ 20800" transform="translate(336.407 479.818) rotate(37)">
        <g id="グループ_20700" data-name="グループ 20700" transform="translate(52.794 23.416)">
          <path id="パス_4229" data-name="パス 4229" d="M86.04,30.445l-4.971-4.918-.024.025c-4.655-3.775-13.762-1.39-20.843,5.619l-.075.076-.016.016-.075.076c-6.934,7.155-9.224,16.286-5.4,20.9l-.025.024,4.97,4.918a6.3,6.3,0,0,0,3.13,1.653,14.162,14.162,0,0,0,5.9.039c4.462-.931,8.668-3.858,12.09-7.237l.007-.008.008-.008c3.344-3.458,6.225-7.694,7.11-12.165a14.167,14.167,0,0,0-.1-5.9A6.3,6.3,0,0,0,86.04,30.445Z" transform="translate(-52.794 -23.596)" fill="#ffc417"/>
          <g id="グループ_20692" data-name="グループ 20692" transform="translate(0.02)">
            <g id="グループ_20691" data-name="グループ 20691">
              <g id="グループ_20690" data-name="グループ 20690">
                <path id="パス_4230" data-name="パス 4230" d="M83.706,32.887a8.9,8.9,0,0,0-2.325-7.3c-4.535-4.4-14.072-1.915-21.3,5.545s-9.415,17.072-4.88,21.47a8.67,8.67,0,0,0,6.827,2.145" transform="translate(-52.835 -23.416)" fill="none" stroke="#000" stroke-linecap="round" stroke-linejoin="round" stroke-width="2"/>
                <path id="パス_4231" data-name="パス 4231" d="M79.07,67.689a26.586,26.586,0,0,0,10.82-6.978,26.922,26.922,0,0,0,6.495-10.546" transform="translate(-66.223 -37.067)" fill="none" stroke="#000" stroke-linecap="round" stroke-linejoin="round" stroke-width="2"/>
              </g>
            </g>
          </g>
          <g id="グループ_20696" data-name="グループ 20696" transform="translate(9.006 4.18)">
            <g id="グループ_20695" data-name="グループ 20695" transform="translate(0 0)">
              <g id="グループ_20694" data-name="グループ 20694">
                <path id="パス_4233" data-name="パス 4233" d="M16.6,1.351C13.421-1.765,5.749.75,0,6.431" transform="matrix(0.996, -0.087, 0.087, 0.996, 0, 1.446)" fill="none" stroke="#fff" stroke-linecap="round" stroke-linejoin="round" stroke-width="2"/>
              </g>
            </g>
          </g>
          <circle id="楕円形_2439" data-name="楕円形 2439" cx="1.04" cy="1.04" r="1.04" transform="translate(26.333 7.581)" fill="#fff"/>
          <g id="グループ_20699" data-name="グループ 20699" transform="translate(5.154 20.569)">
            <g id="グループ_20698" data-name="グループ 20698" transform="translate(0 0)">
              <g id="グループ_20697" data-name="グループ 20697">
                <path id="パス_4234" data-name="パス 4234" d="M63.168,72.606c2.923,2.79,9.64.669,14.99-4.318" transform="translate(-63.168 -68.288)" fill="none" stroke="#fff" stroke-linecap="round" stroke-linejoin="round" stroke-width="2"/>
              </g>
            </g>
          </g>
          <path id="パス_4235" data-name="パス 4235" d="M67.922,38.884" transform="translate(-60.514 -31.31)" fill="#ffc417"/>
        </g>
        <path id="パス_4236" data-name="パス 4236" d="M73.047,69.037a14.162,14.162,0,0,0,5.9.039c4.462-.931,8.668-3.858,12.09-7.237l.007-.008.008-.008c3.344-3.458,6.225-7.694,7.11-12.165a14.167,14.167,0,0,0-.1-5.9" transform="translate(-10.336 -10.38)" fill="none" stroke="#000" stroke-linecap="round" stroke-linejoin="round" stroke-width="2"/>
      </g>
    </g>
    <g id="coin">
      <g id="グループ_20719" data-name="グループ 20719" transform="matrix(0.276, 0.961, -0.961, 0.276, 30.987, 133.119)">
        <g id="グループ_20700-2" data-name="グループ 20700" transform="translate(52.794 23.416)">
          <path id="パス_4229-2" data-name="パス 4229" d="M88.308,30.9,83,25.647l-.026.027c-4.973-4.033-14.7-1.485-22.265,6l-.081.082-.017.017-.081.081c-7.407,7.643-9.853,17.4-5.767,22.327l-.027.026,5.309,5.254a6.727,6.727,0,0,0,3.344,1.766,15.128,15.128,0,0,0,6.3.042c4.766-.995,9.259-4.121,12.915-7.731l.008-.008.008-.008c3.572-3.693,6.65-8.219,7.595-12.995a15.134,15.134,0,0,0-.108-6.3A6.725,6.725,0,0,0,88.308,30.9Z" transform="translate(-52.794 -23.585)" fill="#ffc417"/>
          <g id="グループ_20692-2" data-name="グループ 20692" transform="translate(0.022)">
            <g id="グループ_20691-2" data-name="グループ 20691">
              <g id="グループ_20690-2" data-name="グループ 20690">
                <path id="パス_4230-2" data-name="パス 4230" d="M85.812,33.533c.242-3.152-.548-5.917-2.483-7.794-4.844-4.7-15.032-2.046-22.756,5.923S50.516,49.9,55.361,54.6a9.261,9.261,0,0,0,7.292,2.292" transform="translate(-52.835 -23.416)" fill="none" stroke="#000" stroke-linecap="round" stroke-linejoin="round" stroke-width="2"/>
                <path id="パス_4231-2" data-name="パス 4231" d="M79.07,68.885a28.4,28.4,0,0,0,11.558-7.454,28.758,28.758,0,0,0,6.938-11.266" transform="translate(-65.347 -36.173)" fill="none" stroke="#000" stroke-linecap="round" stroke-linejoin="round" stroke-width="2"/>
              </g>
            </g>
          </g>
          <g id="グループ_20696-2" data-name="グループ 20696" transform="translate(9.958 3.854)">
            <g id="グループ_20695-2" data-name="グループ 20695">
              <g id="グループ_20694-2" data-name="グループ 20694">
                <path id="パス_4233-2" data-name="パス 4233" d="M89.559,32.228c-3.392-3.329-11.587-.643-17.728,5.426" transform="translate(-71.831 -30.784)" fill="none" stroke="#fff" stroke-linecap="round" stroke-linejoin="round" stroke-width="2"/>
              </g>
            </g>
          </g>
          <circle id="楕円形_2439-2" data-name="楕円形 2439" cx="1.111" cy="1.111" r="1.111" transform="translate(28.231 7.016)" fill="#fff"/>
          <g id="グループ_20699-2" data-name="グループ 20699" transform="translate(5.427 23.472)">
            <g id="グループ_20698-2" data-name="グループ 20698" transform="translate(0 0)">
              <g id="グループ_20697-2" data-name="グループ 20697">
                <path id="パス_4234-2" data-name="パス 4234" d="M63.168,72.9c3.122,2.981,10.3.715,16.012-4.613" transform="translate(-63.168 -68.288)" fill="none" stroke="#fff" stroke-linecap="round" stroke-linejoin="round" stroke-width="2"/>
              </g>
            </g>
          </g>
          <path id="パス_4235-2" data-name="パス 4235" d="M67.922,38.884" transform="translate(-60.009 -30.793)" fill="#ffc417"/>
        </g>
        <path id="パス_4236-2" data-name="パス 4236" d="M73.047,70.761a15.128,15.128,0,0,0,6.3.042c4.766-.995,9.259-4.121,12.915-7.731l.008-.008.008-.008c3.572-3.693,6.65-8.219,7.595-12.995a15.134,15.134,0,0,0-.108-6.3" transform="translate(-9.659 -9.701)" fill="none" stroke="#000" stroke-linecap="round" stroke-linejoin="round" stroke-width="2"/>
      </g>
    </g>
    <rect id="しかく" width="399" height="561" transform="translate(-12 38)" fill="none"/>
  </g>
</svg>
