<svg xmlns="http://www.w3.org/2000/svg" xmlns:xlink="http://www.w3.org/1999/xlink" width="430" height="332" viewBox="0 0 430 332">
  <defs>
    <clipPath id="clip-path">
      <rect id="長方形_5883" data-name="長方形 5883" width="430" height="332" transform="translate(1014 6789)" fill="#fff" stroke="#707070" stroke-width="1"/>
    </clipPath>
    <clipPath id="clip-path-2">
      <rect id="長方形_5923" data-name="長方形 5923" width="247" height="299" transform="translate(-0.001 -3.943)" fill="none"/>
    </clipPath>
    <filter id="長方形_5922" x="189.501" y="141.712" width="53.72" height="53.721" filterUnits="userSpaceOnUse">
      <feOffset dx="1.984" dy="1.984" input="SourceAlpha"/>
      <feGaussianBlur stdDeviation="0.992" result="blur"/>
      <feFlood flood-color="#231815" flood-opacity="0.502"/>
      <feComposite operator="in" in2="blur"/>
      <feComposite in="SourceGraphic"/>
    </filter>
  </defs>
  <g id="マスクグループ_123" data-name="マスクグループ 123" transform="translate(-1014 -6789)" clip-path="url(#clip-path)">
    <circle id="楕円形_2359" data-name="楕円形 2359" cx="145" cy="145" r="145" transform="translate(1084 6819)" fill="#ecf1f7"/>
    <circle id="楕円形_2360" data-name="楕円形 2360" cx="66.5" cy="66.5" r="66.5" transform="translate(1259 6789)" fill="#ecf1f7"/>
    <g id="illust" transform="translate(-16205.058 4431.914)">
      <g id="グループ_20757" data-name="グループ 20757" transform="translate(17310.059 2382.029)">
        <g id="グループ_20727" data-name="グループ 20727" transform="translate(71.666 36.663)">
          <g id="グループ_20726" data-name="グループ 20726">
            <g id="グループ_20725" data-name="グループ 20725">
              <g id="グループ_20724" data-name="グループ 20724">
                <path id="パス_4258" data-name="パス 4258" d="M123.144,261.641a12.383,12.383,0,0,0,12.348,12.348h78.638a12.384,12.384,0,0,0,12.348-12.348l.089-186.3A12.383,12.383,0,0,0,214.219,63H135.581a12.384,12.384,0,0,0-12.348,12.348Z" transform="translate(-123.144 -62.998)" fill="#fff"/>
              </g>
            </g>
          </g>
        </g>
        <g id="グループ_20728" data-name="グループ 20728" transform="translate(78.097 43.632)">
          <path id="パス_4259" data-name="パス 4259" d="M218.445,74.973H205.586a6.316,6.316,0,0,1-6.083,4.7H159.4a6.316,6.316,0,0,1-6.083-4.7H140.594a6.317,6.317,0,0,0-6.309,6.31L134.2,265.716a6.317,6.317,0,0,0,6.309,6.309h77.851a6.317,6.317,0,0,0,6.31-6.31l.088-184.435A6.316,6.316,0,0,0,218.445,74.973Z" transform="translate(-134.196 -74.973)" fill="#c9d5e3"/>
        </g>
        <g id="グループ_20756" data-name="グループ 20756">
          <g id="グループ_20755" data-name="グループ 20755" clip-path="url(#clip-path-2)">
            <g id="グループ_20754" data-name="グループ 20754" transform="translate(21.459 1.164)">
              <path id="パス_4260" data-name="パス 4260" d="M37.537,390.748h80.52l8.014-20.438s19.5-7.916,26.84-15.351,8.207-11.489,8.207-11.489H99.037a13.7,13.7,0,0,1-8.786-4.538,11.092,11.092,0,0,1-2.8-9.366v-47.79s7.627-12.551,9.172-26.454-4.345-20.758-7.145-23.268-4.827-4.538-9.268-1.931-4.345,14-6.469,19.116-12.455,21.433-13.13,25.875-7.145,32.44-7.435,35.432-1.738,45.86-1.738,45.86Z" transform="translate(-37.151 -96.855)" fill="#fff"/>
              <path id="パス_4261" data-name="パス 4261" d="M290.536,328.228s-2.768,3.282-3.347,6.63,1.8,8.882,6.565,9.912,9.912-3.862,12.229-8.561a11.99,11.99,0,0,0-.065-11.006,23.132,23.132,0,0,0-3.54-4.956,12.617,12.617,0,0,0,5.214-9.14c.386-5.986-.515-10.492-5.021-14.611,0,0,6.823-4.763,7.852-12.036s-5.535-12.938-10.491-12.873-10.234,6.887-10.234,6.887a18.238,18.238,0,0,0-3.991,8.818c-.772,5.278,1.223,9.912,3.154,10.878a18.922,18.922,0,0,0,3.475,1.352l.9.064s-5.857,7.145-7.209,11.65a10.658,10.658,0,0,0,2.7,10.556,5.64,5.64,0,0,0,4.313,1.866Z" transform="translate(-140.824 -114.696)" fill="#fff"/>
              <path id="パス_4262" data-name="パス 4262" d="M300.722,193.325s9.28-7.686,14.342-7.968,7.5,4.875,7.4,11.624-6.843,13.872-10.4,17.9-11.248,11.436-11.248,11.436Z" transform="translate(-147.171 -78.645)" fill="#fff"/>
              <g id="グループ_20732" data-name="グループ 20732" transform="translate(80.651 250.412)">
                <g id="グループ_20731" data-name="グループ 20731">
                  <g id="グループ_20730" data-name="グループ 20730">
                    <g id="グループ_20729" data-name="グループ 20729">
                      <path id="パス_4263" data-name="パス 4263" d="M216.906,432.287c-2.757,5.2-9,11.917-33.469,23.429l-7.979,20.73" transform="translate(-175.457 -432.287)" fill="none" stroke="#000" stroke-linecap="round" stroke-linejoin="round" stroke-width="3"/>
                    </g>
                  </g>
                </g>
              </g>
              <g id="グループ_20743" data-name="グループ 20743" transform="translate(50.207 35.499)">
                <g id="グループ_20738" data-name="グループ 20738">
                  <g id="グループ_20736" data-name="グループ 20736">
                    <g id="グループ_20735" data-name="グループ 20735">
                      <g id="グループ_20734" data-name="グループ 20734">
                        <g id="グループ_20733" data-name="グループ 20733">
                          <path id="パス_4264" data-name="パス 4264" d="M226.552,181.622,226.6,75.346A12.383,12.383,0,0,0,214.255,63H135.618a12.384,12.384,0,0,0-12.348,12.348l-.038,80.144" transform="translate(-123.18 -62.998)" fill="none" stroke="#000" stroke-linecap="round" stroke-linejoin="round" stroke-width="3"/>
                          <path id="パス_4265" data-name="パス 4265" d="M123.166,327l-.022,45a12.383,12.383,0,0,0,12.348,12.348h78.638A12.384,12.384,0,0,0,226.477,372" transform="translate(-123.144 -173.359)" fill="none" stroke="#000" stroke-linecap="round" stroke-linejoin="round" stroke-width="3"/>
                        </g>
                      </g>
                    </g>
                  </g>
                  <g id="グループ_20737" data-name="グループ 20737" transform="translate(6.432 6.969)">
                    <path id="パス_4266" data-name="パス 4266" d="M224.736,191.52l.053-110.24a6.316,6.316,0,0,0-6.31-6.307H205.621a6.316,6.316,0,0,1-6.083,4.7h-40.1a6.316,6.316,0,0,1-6.083-4.7H140.628a6.317,6.317,0,0,0-6.309,6.31l-.041,84.877" transform="translate(-134.23 -74.973)" fill="none" stroke="#000" stroke-linecap="round" stroke-linejoin="round" stroke-width="3"/>
                    <path id="パス_4267" data-name="パス 4267" d="M134.222,314.112l-.026,51.572a6.317,6.317,0,0,0,6.309,6.309h77.851a6.317,6.317,0,0,0,6.31-6.31v-.819" transform="translate(-134.196 -174.941)" fill="none" stroke="#000" stroke-linecap="round" stroke-linejoin="round" stroke-width="3"/>
                  </g>
                </g>
                <g id="グループ_20742" data-name="グループ 20742" transform="translate(27.827 81.098)">
                  <g transform="matrix(1, 0, 0, 1, -190.49, -142.7)" filter="url(#長方形_5922)">
                    <rect id="長方形_5922-2" data-name="長方形 5922" width="47.767" height="47.767" rx="10.078" transform="translate(190.49 142.7)" fill="#ffc417"/>
                  </g>
                  <g id="グループ_20741" data-name="グループ 20741" transform="translate(11.402 7.106)">
                    <g id="グループ_20740" data-name="グループ 20740" transform="translate(0 28.393)">
                      <g id="グループ_20739" data-name="グループ 20739">
                        <path id="パス_4268" data-name="パス 4268" d="M205.214,265.768a2.419,2.419,0,1,1-2.419-2.419A2.419,2.419,0,0,1,205.214,265.768ZM202.8,264.32a1.448,1.448,0,1,0,1.448,1.449A1.448,1.448,0,0,0,202.8,264.32Z" transform="translate(-194.659 -263.349)"/>
                        <path id="パス_4269" data-name="パス 4269" d="M195.531,263.535v4.621h-.952v-3.244h-.013l-1.133,3.244h-.783l-1.132-3.244H191.5v3.244h-.952v-4.621h1.43l1.052,3.173h.013l1.052-3.173Z" transform="translate(-190.553 -263.427)"/>
                        <path id="パス_4270" data-name="パス 4270" d="M230.287,268.156l-1.61-2.4,1.479-2.218h-1.171l-.9,1.462-.9-1.462H226.02l1.479,2.218-1.61,2.4h1.186l1.013-1.612,1.013,1.612Z" transform="translate(-205.324 -263.427)"/>
                      </g>
                      <path id="パス_4271" data-name="パス 4271" d="M222.195,263.535v.854h-2.431v1h2.246v.789h-2.246V267.3h2.493v.854h-3.509v-4.621Z" transform="translate(-202.339 -263.427)"/>
                      <path id="パス_4272" data-name="パス 4272" d="M210.969,263.535l2.093,3.05h.013v-3.05h.952v4.621h-1.01l-2.093-3.05h-.012v3.05h-.952v-4.621Z" transform="translate(-198.665 -263.427)"/>
                    </g>
                    <path id="パス_4273" data-name="パス 4273" d="M214.676,223.416a7.765,7.765,0,0,1-4.353,7.467,1.37,1.37,0,0,0-.8,1.637,18.322,18.322,0,0,0,2.326,5.081c.474.6,1.78.771,2.077.893,1.028.423.981,2.257-.238,2.257H208.1a.7.7,0,0,1-.79-.56c-.085-.307-1.613-6.33-1.669-6.543s-.155-.374-.324-.374c-.348,0-.53.587-.772,1.162s-2.133,5.674-2.256,5.889a.723.723,0,0,1-.644.427h-5.482c-.651,0-.579-.572-.2-.805a9.253,9.253,0,0,1,1.572-.53,4.433,4.433,0,0,0,2.564-2.337,13.816,13.816,0,0,0,1.068-3.312,1.791,1.791,0,0,0-.9-1.984c-5.642-2.655-5.418-8.859-2.9-12.817a9.463,9.463,0,0,1,8.043-4.405C210.209,214.561,214.676,218.391,214.676,223.416Zm-9.382-6.672a7.345,7.345,0,0,0-6.82,4.849c-1.2,3.262-.3,5.4,1.231,6.775.943.849,3.072.229,3.975-2.012.044-.11.253-.145.334-.16a2.825,2.825,0,0,0,1.175-.494c.267-.194.238-.588-.054-.521-.237.055-.789.313-1.068.392-.2.056-.178-.112-.178-.112s.076-.236.139-.534c.059-.283-.034-.38-.406-.19a2.11,2.11,0,0,1-.59.232c-.124,0-.365-.122-.294-.357.713-2.366,1.443-2.732,1.854-2.847a1.7,1.7,0,0,1,2.138,1.125,9.084,9.084,0,0,1,.2,1.716c.124.978-.142,2.664,1.442,3.125,2.424.7,5.067-2.8,3.712-6.544A7.274,7.274,0,0,0,205.293,216.745Zm-.84,6.961a.349.349,0,1,0-.349-.349A.348.348,0,0,0,204.454,223.706Z" transform="translate(-192.693 -214.561)"/>
                  </g>
                </g>
              </g>
              <path id="パス_4274" data-name="パス 4274" d="M36.873,390.989l14.482-34.854s.774-41.384,1.97-47.364,5.382-25.515,7.774-35.481c1.263-5.266,11.262-20.133,13.356-26.71s2.292-15.848,7.674-17.641,12.274,7.79,13.943,16.081c3.121,15.508-8.543,36.26-8.543,36.26" transform="translate(-36.873 -96.777)" fill="none" stroke="#000" stroke-linecap="round" stroke-linejoin="round" stroke-width="3"/>
              <g id="グループ_20753" data-name="グループ 20753" transform="translate(73.784)">
                <g id="グループ_20746" data-name="グループ 20746" transform="translate(46.553 6.146)">
                  <g id="グループ_20745" data-name="グループ 20745">
                    <g id="グループ_20744" data-name="グループ 20744">
                      <line id="線_247" data-name="線 247" y1="12.806" x2="9.715" transform="translate(-1 -6)" fill="none" stroke="#000" stroke-linecap="round" stroke-linejoin="round" stroke-width="3"/>
                    </g>
                  </g>
                </g>
                <g id="グループ_20749" data-name="グループ 20749" transform="translate(0 6.146)">
                  <g id="グループ_20748" data-name="グループ 20748">
                    <g id="グループ_20747" data-name="グループ 20747">
                      <line id="線_248" data-name="線 248" x1="9.715" y1="12.806" transform="translate(-1 -6)" fill="none" stroke="#000" stroke-linecap="round" stroke-linejoin="round" stroke-width="3"/>
                    </g>
                  </g>
                </g>
                <g id="グループ_20752" data-name="グループ 20752" transform="translate(27.891)">
                  <g id="グループ_20751" data-name="グループ 20751">
                    <g id="グループ_20750" data-name="グループ 20750">
                      <line id="線_249" data-name="線 249" y1="15.972" transform="translate(-1 -6)" fill="none" stroke="#000" stroke-linecap="round" stroke-linejoin="round" stroke-width="3"/>
                    </g>
                  </g>
                </g>
              </g>
              <path id="パス_4275" data-name="パス 4275" d="M308.847,190.4s7.194-5.949,10.99-4.751c6.634,2.1,7.058,12.206,4.614,17.443s-15.83,18.544-15.83,18.544" transform="translate(-150.473 -78.704)" fill="none" stroke="#000" stroke-linecap="round" stroke-linejoin="round" stroke-width="3"/>
              <path id="パス_4276" data-name="パス 4276" d="M296.071,299.524a11.424,11.424,0,0,0,6.45-3.276c2.67-2.559,7.722-6.467,8.012-12.908a11.807,11.807,0,0,0-7.371-11.057c-3.949-1.617-7.985.921-7.985.921s-6.407,5.057-8.319,9.837C285.014,287.648,283.557,299.925,296.071,299.524Z" transform="translate(-140.868 -114.762)" fill="none" stroke="#000" stroke-linecap="round" stroke-linejoin="round" stroke-width="3"/>
              <path id="パス_4277" data-name="パス 4277" d="M289.583,322.807c-.505.7-1.855,2.83-2.358,3.652-1.3,2.121-3.271,7.674,1.785,13.293,4.023,4.472,15.574-1.33,17.838-6.911,1.411-3.48,2.362-13.29-4.212-18.479" transform="translate(-140.905 -132.578)" fill="none" stroke="#000" stroke-linecap="round" stroke-linejoin="round" stroke-width="3"/>
              <path id="パス_4278" data-name="パス 4278" d="M291.064,364.383c-2.689,2.979-3.881,6.27-2.264,10.158,2.231,5.366,7.749,5.976,10.357,4.59a16.628,16.628,0,0,0,7.883-7.781c3.638-7.483-1.474-14.357-3.347-15.929" transform="translate(-141.881 -149.742)" fill="none" stroke="#000" stroke-linecap="round" stroke-linejoin="round" stroke-width="3"/>
            </g>
          </g>
        </g>
      </g>
    </g>
    <g id="グループ_20793" data-name="グループ 20793" transform="translate(1281.003 6815.189)">
      <path id="パス_4303" data-name="パス 4303" d="M67.966,2.365a4.844,4.844,0,0,0-5.479,1.3L47.552,20.942,32.617,3.67a4.933,4.933,0,0,0-8.61,3.392V44.5a11.782,11.782,0,0,0,2.479,6.653c2.179,2.752,21,23.221,21,23.221h.126s18.824-20.469,21-23.221A11.782,11.782,0,0,0,71.1,44.5V7.062A4.8,4.8,0,0,0,67.966,2.365Z" transform="translate(0 0)" fill="#fff"/>
      <path id="パス_4304" data-name="パス 4304" d="M47.552,20.942,32.617,3.67a4.933,4.933,0,0,0-8.61,3.392V44.5a11.782,11.782,0,0,0,2.479,6.653c2.179,2.752,21,23.221,21,23.221h.125Z" transform="translate(0 0)" fill="#ffc417"/>
      <path id="パス_4305" data-name="パス 4305" d="M67.966,2.365a4.844,4.844,0,0,0-5.479,1.3L47.552,20.942,32.617,3.67a4.933,4.933,0,0,0-8.61,3.392V44.5a11.782,11.782,0,0,0,2.479,6.653c2.179,2.752,21,23.221,21,23.221h.126s18.824-20.469,21-23.221A11.782,11.782,0,0,0,71.1,44.5V7.062A4.8,4.8,0,0,0,67.966,2.365Z" transform="translate(0 0)" fill="none" stroke="#000" stroke-linecap="round" stroke-linejoin="round" stroke-width="3"/>
      <line id="線_250" data-name="線 250" y2="43.454" transform="translate(47.552 24.84)" fill="#ffc417" stroke="#000" stroke-linecap="round" stroke-linejoin="round" stroke-width="3"/>
    </g>
  </g>
</svg>
