<svg xmlns="http://www.w3.org/2000/svg" width="167.388" height="129.867" viewBox="0 0 167.388 129.867">
  <g id="graf" transform="translate(-1193.585 -1761.09)">
    <path id="パス_3995" data-name="パス 3995" d="M11423.442,6793.925l33.374-27.49,18.1,9.272,38.52-30.323,22.17,12.279,33.161-23" transform="translate(-10223.522 -4964.971)" fill="none" stroke="#ecf1f7" stroke-linecap="round" stroke-linejoin="round" stroke-width="9"/>
    <path id="パス_3996" data-name="パス 3996" d="M0,0,15.939,2.184l-4.7,13.934" transform="matrix(0.996, -0.087, 0.087, 0.996, 1332.818, 1766.712)" fill="none" stroke="#ecf1f7" stroke-linecap="round" stroke-linejoin="round" stroke-width="7"/>
    <g id="グループ_20508" data-name="グループ 20508" transform="translate(1199.92 1768.302)">
      <g id="グループ_20497" data-name="グループ 20497" transform="translate(0.998 50.912)">
        <path id="パス_3984" data-name="パス 3984" d="M1427.569,412.907s1.372,3.727,2.842,5.2,5.2,2.843,5.2,2.843-4,1.595-5.2,2.842-2.842,5.2-2.842,5.2-1.3-3.654-2.842-5.2-5.2-2.842-5.2-2.842,3.8-1.444,5.2-2.843S1427.569,412.907,1427.569,412.907Z" transform="translate(-1419.53 -412.907)" fill="#ffc42c" stroke="#000" stroke-linecap="round" stroke-linejoin="round" stroke-width="3"/>
      </g>
      <g id="グループ_20501" data-name="グループ 20501" transform="translate(36.072)">
        <path id="パス_3984-2" data-name="パス 3984" d="M1431.756,412.907s2.086,5.667,4.322,7.9,7.9,4.323,7.9,4.323-6.09,2.425-7.9,4.323-4.322,7.9-4.322,7.9-1.976-5.557-4.323-7.9-7.9-4.323-7.9-4.323,5.776-2.2,7.9-4.323S1431.756,412.907,1431.756,412.907Z" transform="translate(-1419.53 -412.907)" fill="#ffc42c" stroke="#000" stroke-linecap="round" stroke-linejoin="round" stroke-width="3"/>
      </g>
      <g id="グループ_20500" data-name="グループ 20500" transform="translate(0 21.838)">
        <g id="グループ_20173" data-name="グループ 20173" transform="translate(0 59.03)">
          <path id="パス_3625" data-name="パス 3625" d="M616.507,1802.927H592.655l13.891-9.19h22.784Z" transform="translate(-592.655 -1793.736)" fill="#c03" stroke="#231815" stroke-linecap="round" stroke-linejoin="round" stroke-width="3"/>
          <path id="パス_3628" data-name="パス 3628" d="M0,0H23.852V31.1H0Z" transform="translate(0 9.19)" fill="#c03" stroke="#231815" stroke-linecap="round" stroke-linejoin="round" stroke-width="3"/>
          <path id="パス_3626" data-name="パス 3626" d="M618.456,1824.833l-12.824,9.191v-31.1l12.824-9.19Z" transform="translate(-581.781 -1793.736)" fill="#c03" stroke="#231815" stroke-linecap="round" stroke-linejoin="round" stroke-width="3"/>
        </g>
        <g id="グループ_20174" data-name="グループ 20174" transform="translate(35.323 33.405)">
          <path id="パス_3625-2" data-name="パス 3625" d="M616.507,1802.927H592.655l13.891-9.19h22.784Z" transform="translate(-592.655 -1793.736)" fill="#c03" stroke="#231815" stroke-linecap="round" stroke-linejoin="round" stroke-width="3"/>
          <path id="パス_3628-2" data-name="パス 3628" d="M0,0H23.852V56.722H0Z" transform="translate(0 9.19)" fill="#c03" stroke="#231815" stroke-linecap="round" stroke-linejoin="round" stroke-width="3"/>
          <path id="パス_3626-2" data-name="パス 3626" d="M618.456,1850.458l-12.824,9.191v-56.722l12.824-9.19Z" transform="translate(-581.781 -1793.736)" fill="#c03" stroke="#231815" stroke-linecap="round" stroke-linejoin="round" stroke-width="3"/>
        </g>
        <g id="グループ_20175" data-name="グループ 20175" transform="translate(71.447 16.703)">
          <path id="パス_3625-3" data-name="パス 3625" d="M616.507,1802.927H592.655l13.891-9.19h22.784Z" transform="translate(-592.655 -1793.736)" fill="#c03" stroke="#231815" stroke-linecap="round" stroke-linejoin="round" stroke-width="3"/>
          <path id="パス_3627" data-name="パス 3627" d="M0,0H23.852V73.424H0Z" transform="translate(0 9.19)" fill="#c03" stroke="#231815" stroke-linecap="round" stroke-linejoin="round" stroke-width="3"/>
          <path id="パス_3626-3" data-name="パス 3626" d="M618.456,1867.161l-12.824,9.191v-73.424l12.824-9.19Z" transform="translate(-581.781 -1793.736)" fill="#c03" stroke="#231815" stroke-linecap="round" stroke-linejoin="round" stroke-width="3"/>
        </g>
        <g id="グループ_20176" data-name="グループ 20176" transform="translate(107.24 0)">
          <path id="パス_3625-4" data-name="パス 3625" d="M616.507,1802.927H592.655l13.891-9.19h22.784Z" transform="translate(-592.655 -1793.736)" fill="#c03" stroke="#231815" stroke-linecap="round" stroke-linejoin="round" stroke-width="3"/>
          <path id="パス_3627-2" data-name="パス 3627" d="M0,0H23.852V90.127H0Z" transform="translate(0 9.19)" fill="#c03" stroke="#231815" stroke-linecap="round" stroke-linejoin="round" stroke-width="3"/>
          <path id="パス_3626-4" data-name="パス 3626" d="M618.456,1883.863l-12.824,9.191v-90.127l12.824-9.19Z" transform="translate(-581.781 -1793.736)" fill="#c03" stroke="#231815" stroke-linecap="round" stroke-linejoin="round" stroke-width="3"/>
        </g>
      </g>
      <path id="パス_3988" data-name="パス 3988" d="M1429.029,412.907s1.621,4.4,3.358,6.14,6.14,3.359,6.14,3.359-4.732,1.884-6.14,3.358-3.358,6.14-3.358,6.14-1.535-4.317-3.358-6.14-6.141-3.358-6.141-3.358,4.487-1.706,6.141-3.359S1429.029,412.907,1429.029,412.907Z" transform="translate(-1278.974 -367.68)" fill="#ffc42c" stroke="#000" stroke-linecap="round" stroke-linejoin="round" stroke-width="3"/>
    </g>
  </g>
</svg>
