<svg xmlns="http://www.w3.org/2000/svg" width="399" height="569.627" viewBox="0 0 399 569.627">
  <g id="グループ_20947" data-name="グループ 20947" transform="translate(12 -34.373)">
    <g id="グループ_20701" data-name="グループ 20701" transform="matrix(0.985, 0.174, -0.174, 0.985, 124.538, 3.345)">
      <g id="グループ_20700" data-name="グループ 20700" transform="translate(52.794 23.416)">
        <path id="パス_4229" data-name="パス 4229" d="M86.628,30.563,81.57,25.558l-.024.025c-4.738-3.842-14.006-1.415-21.212,5.719l-.077.078-.016.016-.077.077c-7.057,7.281-9.387,16.575-5.494,21.272l-.025.025L59.7,57.775a6.409,6.409,0,0,0,3.185,1.682,14.412,14.412,0,0,0,6.005.04c4.541-.948,8.821-3.926,12.3-7.366l.007-.008.008-.008c3.4-3.519,6.336-7.831,7.236-12.38a14.418,14.418,0,0,0-.1-6.005A6.407,6.407,0,0,0,86.628,30.563Z" transform="translate(-52.794 -23.593)" fill="#ffc417"/>
        <g id="グループ_20692" data-name="グループ 20692" transform="translate(0.021)">
          <g id="グループ_20691" data-name="グループ 20691">
            <g id="グループ_20690" data-name="グループ 20690">
              <path id="パス_4230" data-name="パス 4230" d="M84.253,33.055a9.054,9.054,0,0,0-2.366-7.425c-4.615-4.475-14.322-1.949-21.68,5.643s-9.582,17.374-4.967,21.85a8.823,8.823,0,0,0,6.947,2.183" transform="translate(-52.835 -23.416)" fill="none" stroke="#000" stroke-linecap="round" stroke-linejoin="round" stroke-width="2"/>
              <path id="パス_4231" data-name="パス 4231" d="M79.07,68a27.057,27.057,0,0,0,11.012-7.1,27.4,27.4,0,0,0,6.61-10.733" transform="translate(-65.996 -36.835)" fill="none" stroke="#000" stroke-linecap="round" stroke-linejoin="round" stroke-width="2"/>
            </g>
          </g>
        </g>
        <g id="グループ_20696" data-name="グループ 20696" transform="translate(9.487 3.672)">
          <g id="グループ_20695" data-name="グループ 20695">
            <g id="グループ_20694" data-name="グループ 20694">
              <path id="パス_4233" data-name="パス 4233" d="M88.721,32.16c-3.231-3.172-11.039-.612-16.89,5.169" transform="translate(-71.831 -30.784)" fill="none" stroke="#fff" stroke-linecap="round" stroke-linejoin="round" stroke-width="2"/>
            </g>
          </g>
        </g>
        <circle id="楕円形_2439" data-name="楕円形 2439" cx="1.058" cy="1.058" r="1.058" transform="translate(26.897 6.684)" fill="#fff"/>
        <g id="グループ_20699" data-name="グループ 20699" transform="translate(5.17 22.362)">
          <g id="グループ_20698" data-name="グループ 20698" transform="translate(0 0)">
            <g id="グループ_20697" data-name="グループ 20697">
              <path id="パス_4234" data-name="パス 4234" d="M63.168,72.682c2.975,2.84,9.811.681,15.255-4.394" transform="translate(-63.168 -68.288)" fill="none" stroke="#fff" stroke-linecap="round" stroke-linejoin="round" stroke-width="2"/>
            </g>
          </g>
        </g>
        <path id="パス_4235" data-name="パス 4235" d="M67.922,38.884" transform="translate(-60.383 -31.176)" fill="#ffc417"/>
      </g>
      <path id="パス_4236" data-name="パス 4236" d="M73.047,69.484a14.412,14.412,0,0,0,6.005.04c4.541-.948,8.821-3.926,12.3-7.366l.007-.008.008-.008c3.4-3.519,6.336-7.831,7.236-12.38a14.418,14.418,0,0,0-.1-6.005" transform="translate(-10.16 -10.204)" fill="none" stroke="#000" stroke-linecap="round" stroke-linejoin="round" stroke-width="2"/>
    </g>
    <rect id="しかく" width="399" height="565" transform="translate(-12 39)" fill="none"/>
    <g id="illust" transform="translate(-207.966 -1.667)">
      <g id="グループ_20177" data-name="グループ 20177" transform="translate(244.753 499.541)">
        <path id="パス_3625" data-name="パス 3625" d="M610.338,1800.55H592.655l10.3-6.813h16.892Z" transform="translate(-592.655 -1793.737)" fill="#c03" stroke="#231815" stroke-linecap="round" stroke-linejoin="round" stroke-width="2"/>
        <path id="パス_3628" data-name="パス 3628" d="M0,0H17.683V23.054H0Z" transform="translate(0 6.813)" fill="#c03" stroke="#231815" stroke-linecap="round" stroke-linejoin="round" stroke-width="2"/>
        <path id="パス_3626" data-name="パス 3626" d="M615.14,1816.791l-9.507,6.814V1800.55l9.507-6.813Z" transform="translate(-587.95 -1793.737)" fill="#c03" stroke="#231815" stroke-linecap="round" stroke-linejoin="round" stroke-width="2"/>
      </g>
      <g id="グループ_20178" data-name="グループ 20178" transform="translate(270.94 480.543)">
        <path id="パス_3625-2" data-name="パス 3625" d="M610.338,1800.55H592.655l10.3-6.813h16.892Z" transform="translate(-592.655 -1793.737)" fill="#c03" stroke="#231815" stroke-linecap="round" stroke-linejoin="round" stroke-width="2"/>
        <path id="パス_3628-2" data-name="パス 3628" d="M0,0H17.683V42.052H0Z" transform="translate(0 6.813)" fill="#c03" stroke="#231815" stroke-linecap="round" stroke-linejoin="round" stroke-width="2"/>
        <path id="パス_3626-2" data-name="パス 3626" d="M615.14,1835.788l-9.507,6.814V1800.55l9.507-6.813Z" transform="translate(-587.95 -1793.737)" fill="#c03" stroke="#231815" stroke-linecap="round" stroke-linejoin="round" stroke-width="2"/>
      </g>
      <g id="グループ_20179" data-name="グループ 20179" transform="translate(297.722 468.16)">
        <path id="パス_3625-3" data-name="パス 3625" d="M610.338,1800.55H592.655l10.3-6.813h16.892Z" transform="translate(-592.655 -1793.737)" fill="#c03" stroke="#231815" stroke-linecap="round" stroke-linejoin="round" stroke-width="2"/>
        <path id="パス_3627" data-name="パス 3627" d="M0,0H17.683V54.435H0Z" transform="translate(0 6.813)" fill="#c03" stroke="#231815" stroke-linecap="round" stroke-linejoin="round" stroke-width="2"/>
        <path id="パス_3626-3" data-name="パス 3626" d="M615.14,1848.171l-9.507,6.814V1800.55l9.507-6.813Z" transform="translate(-587.95 -1793.737)" fill="#c03" stroke="#231815" stroke-linecap="round" stroke-linejoin="round" stroke-width="2"/>
      </g>
      <g id="グループ_20180" data-name="グループ 20180" transform="translate(324.258 455.777)">
        <path id="パス_3625-4" data-name="パス 3625" d="M610.338,1800.55H592.655l10.3-6.813h16.892Z" transform="translate(-592.655 -1793.737)" fill="#c03" stroke="#231815" stroke-linecap="round" stroke-linejoin="round" stroke-width="2"/>
        <path id="パス_3627-2" data-name="パス 3627" d="M0,0H17.683V66.817H0Z" transform="translate(0 6.813)" fill="#c03" stroke="#231815" stroke-linecap="round" stroke-linejoin="round" stroke-width="2"/>
        <path id="パス_3626-4" data-name="パス 3626" d="M615.14,1860.554l-9.507,6.813V1800.55l9.507-6.813Z" transform="translate(-587.95 -1793.737)" fill="#c03" stroke="#231815" stroke-linecap="round" stroke-linejoin="round" stroke-width="2"/>
      </g>
    </g>
  </g>
</svg>
