<svg xmlns="http://www.w3.org/2000/svg" width="512" height="382" viewBox="0 0 512 382">
  <g id="グループ_20858" data-name="グループ 20858" transform="translate(-14883 -2742)">
    <g id="illust" transform="translate(14904.236 2878.604)">
      <ellipse id="楕円形_2373" data-name="楕円形 2373" cx="48.627" cy="157.324" rx="48.627" ry="157.324" transform="translate(71.8 217.608) rotate(-87.95)" fill="#ecf1f7"/>
      <path id="パス_4009" data-name="パス 4009" d="M240.782,59.65a23.268,23.268,0,0,0-13.866-9.928c-10.925-2.732-36.975-7.532-58.2-4.109s-32.182,16.776-36.462,24.822-8.9,24.136-10.1,27.731-3.595,6.505-8.388,8.559-20.542,12.668-20.713,31.668,14.722,33.894,39.2,40.227,97.059,14.036,128.556,15.064,62.822-7.189,76.688-18.659,22.425-35.092,21.912-54.606S351.147,75.128,335.1,64.956C315.93,52.8,295.9,52.8,280.667,52.118c-14.366-.646-21.226.171-28.244,2.568A78.672,78.672,0,0,0,240.782,59.65Z" transform="translate(0.353 0.656)" fill="#c03" stroke="#000" stroke-linecap="round" stroke-linejoin="round" stroke-width="3"/>
      <path id="パス_4010" data-name="パス 4010" d="M186.962,69.671a2.386,2.386,0,0,1,1.968.385,7.354,7.354,0,0,1,1.8,5.392c-.043,2.911-1.069,3.68-1.069,3.68s5.905.728,9.757,1.584,12.367,3.637,17.5,9.586,6.333,8.944,6.761,10.1.642,1.669.642,1.669l13.567,3.68-.643,1.241a82.363,82.363,0,0,1,13.267,5.263c5.435,2.953,15.62,11.341,17.631,13.866s7.1,7.233,11.041,8.645,12.881,1.712,12.881,1.712a37.9,37.9,0,0,0,5.307-.086c2.568-.256,5.991-1.583,8-.727a8.214,8.214,0,0,1,3.295,3.039s7.575-.086,11.341,1.968a7.981,7.981,0,0,1,3.979,7.832c-.128,1.968-1.754,2.524-3.552,2.1a56.39,56.39,0,0,0-7.66-.385s.685,4.536-1.925,5.478-4.108-.044-4.879-1.712-5.563-6.591-6.462-7.019-7.447-.556-7.447-.556l-.128,2.1s-7.787,2.572-13.908,2.652c-9.672.129-18.659-4.364-18.659-4.364s-7.447,1.925-12.753,2.781-15.1.333-20.5-.3c-9.115-1.069-20.8-6.975-20.8-6.975s-7.361,6.547-8.731,6.975-7.147.941-8.387.385-2.868-7.019-2.868-7.019-16.134.685-20.67.172-8.216-4.108-9.971-5.649-3.852-8.516-3.124-14.079,3.851-13.481,5.263-16.648S161.327,98,161.327,98s-3.637-7.1-3.295-9.8a34.452,34.452,0,0,1,1.669-7.233,10.508,10.508,0,0,1,2.183-2.311l-.471-1.883s7.189-1.968,8.9-3.852,5.135-5.734,5.135-5.734l9.244,5.477,1.5-2.781Z" transform="translate(1.322 1.034)" fill="#fff"/>
      <path id="パス_4011" data-name="パス 4011" d="M161.744,97.658s-3.052-6.377-3.281-7.747a4.9,4.9,0,0,1-.014-2.054,38.318,38.318,0,0,0-12.881,2.966c-7.417,2.967-14.322,8.274-17.517,16.947s-1.769,19.857,2.454,25.734a24.285,24.285,0,0,0,17.232,9.814c6.505.684,13.922-1.541,13.922-1.541s-8.5-3.595-9.472-13.01a37.167,37.167,0,0,1,3.538-19.4C156.923,106.745,161.744,97.658,161.744,97.658Z" transform="translate(0.905 1.378)" fill="#ffc417"/>
      <g id="グループ_20590" data-name="グループ 20590" transform="translate(291.542 4.906)">
        <path id="パス_4012" data-name="パス 4012" d="M300.567,15.368c-.3.686-.9.814-1.329.385-.493-.493-.043-2.4-1.308-3.794a11.267,11.267,0,0,0-2.015-1.736c.021.729.021,1.414.043,1.822a40.349,40.349,0,0,1-.108,5.746,4.832,4.832,0,0,1-1.221,2.593,5.192,5.192,0,0,1-4.673,1.63,2.833,2.833,0,0,1-1.93-3.323,4.613,4.613,0,0,1,3.129-3.15,3.978,3.978,0,0,1,2.488-.193c.043-1.887.021-4.459.021-5.424.021-1.394.085-2.4.043-3.194-.064-.815,0-1.823,1.03-1.823.749.021,1.393.943,1.136.965a10.65,10.65,0,0,0,2.637,2.937A5.783,5.783,0,0,1,300.567,15.368Z" transform="translate(-287.952 -4.906)"/>
      </g>
      <g id="グループ_20593" data-name="グループ 20593" transform="translate(132.723 195.994)">
        <path id="パス_4013" data-name="パス 4013" d="M128.574,197.12a22.189,22.189,0,0,1,5.361-2.734c2.523-.735,5.309-.841,7.726,1.577s2.89,5.518-.578,9.2a25.8,25.8,0,0,1-13.822,7.148c-5.256,1-9.144-.368-11.142-2.049s-2.68-4.468-.577-6.149,6.411-3.469,8.04-4.94a28.664,28.664,0,0,1,3.469-2.628Z" transform="translate(-97.018 -188.855)" fill="#c03"/>
        <path id="パス_4014" data-name="パス 4014" d="M111.618,192.157a22.14,22.14,0,0,1,5.361-2.733c2.522-.736,5.308-.842,7.725,1.576s2.89,5.519-.577,9.2a25.8,25.8,0,0,1-13.823,7.148c-5.255,1-9.144-.368-11.141-2.049s-2.681-4.467-.578-6.149,6.412-3.469,8.041-4.94a28.574,28.574,0,0,1,3.469-2.628Z" transform="translate(-97.3 -188.938)" fill="#c03"/>
        <g id="グループ_20591" data-name="グループ 20591" transform="translate(17.315 5.045)">
          <path id="パス_4015" data-name="パス 4015" d="M126.781,196.642a24.582,24.582,0,0,1,5.367,3.778,4.71,4.71,0,0,0,3.878,1.226" transform="translate(-114.125 -193.856)" fill="none" stroke="#000" stroke-linecap="round" stroke-linejoin="round" stroke-width="3"/>
          <path id="パス_4016" data-name="パス 4016" d="M131.726,195.018s4.1-1.787,7.252-.841,6.307,4.414,4.309,8.2c-1.009,1.912-5.106,6.567-10.928,8.7s-13.171,2.533-16.81-1.694,1.763-6.589,4.482-7.886a33.175,33.175,0,0,0,6.626-4.578" transform="translate(-114.332 -193.901)" fill="none" stroke="#000" stroke-linecap="round" stroke-linejoin="round" stroke-width="3"/>
        </g>
        <g id="グループ_20592" data-name="グループ 20592" transform="translate(0.076)">
          <path id="パス_4017" data-name="パス 4017" d="M109.824,191.679a24.576,24.576,0,0,1,5.368,3.778,4.71,4.71,0,0,0,3.878,1.226" transform="translate(-97.168 -188.893)" fill="none" stroke="#000" stroke-linecap="round" stroke-linejoin="round" stroke-width="3"/>
          <path id="パス_4018" data-name="パス 4018" d="M110.258,207.38c-4.509.67-9.047.026-11.664-3.014-3.638-4.227,1.763-6.589,4.482-7.886A33.152,33.152,0,0,0,109.7,191.9" transform="translate(-97.375 -188.889)" fill="none" stroke="#000" stroke-linecap="round" stroke-linejoin="round" stroke-width="3"/>
          <path id="パス_4019" data-name="パス 4019" d="M114.486,190.055s4.1-1.787,7.252-.841a7.22,7.22,0,0,1,4.655,4.19" transform="translate(-97.091 -188.938)" fill="none" stroke="#000" stroke-linecap="round" stroke-linejoin="round" stroke-width="3"/>
        </g>
      </g>
      <path id="パス_4020" data-name="パス 4020" d="M228.149,34.715S235.573,25.5,252.5,25.9c21.3.5,27.3-6.059,27.3-6.059" transform="translate(2.597 0.248)" fill="none" stroke="#000" stroke-linecap="round" stroke-linejoin="round" stroke-width="3"/>
      <g id="グループ_20600" data-name="グループ 20600" transform="translate(127.012 57.891)">
        <path id="パス_4021" data-name="パス 4021" d="M210.512,143.777s21.112,9.7,47.587,1.94" transform="translate(-124.708 -55.585)" fill="none" stroke="#000" stroke-linecap="round" stroke-linejoin="round" stroke-width="3"/>
        <path id="パス_4022" data-name="パス 4022" d="M240.941,134.688s16.636,13.322,26.656,14.952c14.721,2.4,22.939-1.711,22.939-1.711l.684-12.1s-13.119,1.995-22.751-8.576c-7.582-8.322-23.543-19.334-32.025-20.452" transform="translate(-124.277 -56.199)" fill="none" stroke="#000" stroke-linecap="round" stroke-linejoin="round" stroke-width="3"/>
        <path id="パス_4023" data-name="パス 4023" d="M226.751,129.891s5.859-18.528,10.56-24.77l-9.265-2.317" transform="translate(-124.438 -56.265)" fill="none" stroke="#000" stroke-linecap="round" stroke-linejoin="round" stroke-width="3"/>
        <g id="グループ_20595" data-name="グループ 20595" transform="translate(33.099)">
          <path id="パス_4024" data-name="パス 4024" d="M159.29,74.884a16.668,16.668,0,0,1,2.633-10.135A17.423,17.423,0,0,1,173.4,57.586a15.525,15.525,0,0,1,11.066,2.761,26.63,26.63,0,0,1,4.938,5.466l-4.29,7.635L175.805,67.8s-3.272,4.98-6.32,6.7-9.7,3.222-9.7,3.222Z" transform="translate(-158.658 -57.019)" fill="#ffc417"/>
          <g id="グループ_20594" data-name="グループ 20594">
            <path id="パス_4025" data-name="パス 4025" d="M188.141,80.029s3.11-2.423,2.216-5.829" transform="translate(-158.179 -56.74)" fill="none" stroke="#000" stroke-linecap="round" stroke-linejoin="round" stroke-width="3"/>
            <path id="パス_4026" data-name="パス 4026" d="M161.717,77.439l3.011,9.063A12.124,12.124,0,0,0,187,88.232" transform="translate(-158.617 -56.686)" fill="none" stroke="#000" stroke-linecap="round" stroke-linejoin="round" stroke-width="3"/>
            <path id="パス_4027" data-name="パス 4027" d="M174.744,68.251s-2.91,4.1-5.737,5.827-10.339,3.261-10.339,3.261" transform="translate(-158.668 -56.839)" fill="none" stroke="#000" stroke-linecap="round" stroke-linejoin="round" stroke-width="3"/>
            <path id="パス_4028" data-name="パス 4028" d="M159.25,71.557A15.415,15.415,0,0,1,168,58.8a15.736,15.736,0,0,1,18.47,2.837c2.639,2.957,2.78,3.734,2.78,3.734L185.2,72.666" transform="translate(-158.658 -57.025)" fill="none" stroke="#000" stroke-linecap="round" stroke-linejoin="round" stroke-width="3"/>
            <circle id="楕円形_2374" data-name="楕円形 2374" cx="1.567" cy="1.567" r="1.567" transform="matrix(0.949, -0.315, 0.315, 0.949, 8.718, 23.916)"/>
            <circle id="楕円形_2375" data-name="楕円形 2375" cx="1.567" cy="1.567" r="1.567" transform="matrix(0.949, -0.315, 0.315, 0.949, 18.121, 20.792)"/>
            <path id="パス_4029" data-name="パス 4029" d="M191.046,72.332" transform="translate(-158.13 -56.771)" fill="none" stroke="#000" stroke-linecap="round" stroke-linejoin="round" stroke-width="2.4"/>
            <path id="パス_4030" data-name="パス 4030" d="M181.351,98.979a9.292,9.292,0,0,0,8.667-1.788,10.213,10.213,0,0,0,3.261-12.572" transform="translate(-158.291 -56.567)" fill="none" stroke="#000" stroke-linecap="round" stroke-linejoin="round" stroke-width="3"/>
            <line id="線_226" data-name="線 226" x1="1.522" y1="2.811" transform="translate(29.871 23.442)" fill="none" stroke="#000" stroke-linecap="round" stroke-linejoin="round" stroke-width="2.4"/>
          </g>
        </g>
        <path id="パス_4031" data-name="パス 4031" d="M178.946,85.794l-2.082,1.71-2.691-.124" transform="translate(-125.311 -56.548)" fill="none" stroke="#000" stroke-linecap="round" stroke-linejoin="round" stroke-width="3"/>
        <path id="パス_4032" data-name="パス 4032" d="M159.2,101.372s-11.541,19-6.5,31.279c3.466,8.438,10.617,10.1,17.027,9.633" transform="translate(-125.689 -56.289)" fill="none" stroke="#000" stroke-linecap="round" stroke-linejoin="round" stroke-width="3"/>
        <g id="グループ_20596" data-name="グループ 20596" transform="translate(43.109 55.103)">
          <path id="パス_4033" data-name="パス 4033" d="M170.189,113.684a2.03,2.03,0,0,0-1.637,2.388l6.228,31.9a2.144,2.144,0,0,0,2.432,1.69l13.14-2.17a2.028,2.028,0,0,0,1.665-2.367l-5.871-32.194a2.079,2.079,0,0,0-2.4-1.667Z" transform="translate(-168.515 -111.228)" fill="#fff"/>
          <path id="パス_4034" data-name="パス 4034" d="M189.146,129.38l-3-16.452a2.079,2.079,0,0,0-2.4-1.667l-13.554,2.424a2.03,2.03,0,0,0-1.637,2.388l6.228,31.9a2.144,2.144,0,0,0,2.432,1.69l5.5-.862" transform="translate(-168.515 -111.228)" fill="none" stroke="#000" stroke-linecap="round" stroke-linejoin="round" stroke-width="3"/>
        </g>
        <path id="パス_4035" data-name="パス 4035" d="M194.01,79.735s11.812.6,20.114,7.96c8.152,7.227,12.553,15.564,10.7,29.528s-16.005,23.023-16.005,23.023" transform="translate(-124.982 -56.648)" fill="none" stroke="#000" stroke-linecap="round" stroke-linejoin="round" stroke-width="3"/>
        <g id="グループ_20599" data-name="グループ 20599" transform="translate(57.108 71.833)">
          <path id="パス_4036" data-name="パス 4036" d="M184.46,139.406a3.848,3.848,0,0,1-1.788-1.2,2.482,2.482,0,0,1,.791-3.434,5.34,5.34,0,0,1,2.176-.641l6.654-1.44" transform="translate(-182.285 -127.602)" fill="none" stroke="#000" stroke-linecap="round" stroke-linejoin="round" stroke-width="3"/>
          <g id="グループ_20598" data-name="グループ 20598" transform="translate(2.029)">
            <g id="グループ_20597" data-name="グループ 20597" transform="translate(3.816)">
              <path id="パス_4037" data-name="パス 4037" d="M192.4,127.685c2.237.49,2.8.307,4.033.9a16.248,16.248,0,0,1,5.648,3.852c2.4,2.824,3.252,6.419,2.483,8.644" transform="translate(-187.961 -127.685)" fill="none" stroke="#000" stroke-linecap="round" stroke-linejoin="round" stroke-width="3"/>
              <path id="パス_4038" data-name="パス 4038" d="M188.034,148.677s5.3-.248,7.873-.633c1.4-.209,8.587-6.961,8.587-6.961" transform="translate(-188.034 -127.462)" fill="none" stroke="#000" stroke-linecap="round" stroke-linejoin="round" stroke-width="3"/>
            </g>
            <path id="パス_4039" data-name="パス 4039" d="M185.58,142.417a1.78,1.78,0,0,0-.168,1.793c.4,1.2,1.166,1.371,1.166,1.371" transform="translate(-184.264 -127.44)" fill="none" stroke="#000" stroke-linecap="round" stroke-linejoin="round" stroke-width="3"/>
            <path id="パス_4040" data-name="パス 4040" d="M184.591,139.3a1.783,1.783,0,0,0-.168,1.793c.4,1.2,1.166,1.371,1.166,1.371" transform="translate(-184.281 -127.492)" fill="none" stroke="#000" stroke-linecap="round" stroke-linejoin="round" stroke-width="3"/>
            <path id="パス_4041" data-name="パス 4041" d="M186.677,145.522a1.681,1.681,0,0,0-.194,1.688,2.038,2.038,0,0,0,1.7,1.39" transform="translate(-184.246 -127.389)" fill="none" stroke="#000" stroke-linecap="round" stroke-linejoin="round" stroke-width="3"/>
          </g>
        </g>
        <path id="パス_4042" data-name="パス 4042" d="M294.254,145.417l2.775.251s5.656,4.036,6.811,7.052,6.172,3.58,6.77-.378-2.588-9.522-3.54-13.215-4.393-5.244-6.54-4.665a37.246,37.246,0,0,1-6.048,1.027" transform="translate(-123.317 -55.741)" fill="none" stroke="#000" stroke-linecap="round" stroke-linejoin="round" stroke-width="3"/>
        <path id="パス_4043" data-name="パス 4043" d="M310.868,137.715s4.793.114,7.988,2.625c2.345,1.842,5.021,7.417,1.23,9.311-1.072.535-2.458-.385-3.512-.41-1.45-.034-2.511-.115-2.511-.115" transform="translate(-123.041 -55.685)" fill="none" stroke="#000" stroke-linecap="round" stroke-linejoin="round" stroke-width="3"/>
        <path id="パス_4044" data-name="パス 4044" d="M153.969,88.659s-27.988,2.568-27.859,31.627c.051,11.4,8.859,20.669,18.4,22.353a39.889,39.889,0,0,0,9.113.455" transform="translate(-126.11 -56.5)" fill="none" stroke="#000" stroke-linecap="round" stroke-linejoin="round" stroke-width="3"/>
        <line id="線_227" data-name="線 227" x2="3.319" y2="4.985" transform="translate(20.988 50.76)" fill="none" stroke="#000" stroke-linecap="round" stroke-linejoin="round" stroke-width="3"/>
      </g>
      <path id="パス_4045" data-name="パス 4045" d="M322.63,126.3s-20.085-3.88-46.561-.913" transform="translate(3.393 1.982)" fill="none" stroke="#000" stroke-linecap="round" stroke-linejoin="round" stroke-width="3"/>
      <path id="パス_4046" data-name="パス 4046" d="M236.649,67.219s-5.592,13.523-5.763,26.19" transform="translate(2.642 1.035)" fill="none" stroke="#000" stroke-linecap="round" stroke-linejoin="round" stroke-width="3"/>
      <path id="パス_4047" data-name="パス 4047" d="M159.179,81.84s-1.113,4.879-1.369,5.991a6.939,6.939,0,0,0,.684,4.023c.6,1.284,2.435,6.424,4.708,7.447,3.424,1.54,6.445.594,7.275-1.712" transform="translate(1.427 1.278)" fill="none" stroke="#000" stroke-linecap="round" stroke-linejoin="round" stroke-width="3"/>
      <circle id="楕円形_2376" data-name="楕円形 2376" cx="1.567" cy="1.567" r="1.567" transform="matrix(0.949, -0.315, 0.315, 0.949, 177.454, 118.158)"/>
    </g>
    <rect id="しかく" width="512" height="382" transform="translate(14883 2742)" fill="none"/>
  </g>
</svg>
