<svg xmlns="http://www.w3.org/2000/svg" width="512" height="382" viewBox="0 0 512 382">
  <g id="グループ_20859" data-name="グループ 20859" transform="translate(-270.563 -332.085)">
    <g id="グループ_20527" data-name="グループ 20527" transform="translate(301.84 531)">
      <circle id="楕円形_2317" data-name="楕円形 2317" cx="29.693" cy="29.693" r="29.693" transform="translate(194.258 2)" fill="#ffc417" stroke="#000" stroke-linecap="round" stroke-linejoin="round" stroke-width="3"/>
      <path id="パス_3999" data-name="パス 3999" d="M249.846,35.742A21.846,21.846,0,0,1,228,57.588" transform="translate(-4.049 -4.049)" fill="none" stroke="#000" stroke-linecap="round" stroke-linejoin="round" stroke-width="3"/>
      <path id="パス_4000" data-name="パス 4000" d="M203.175,32.763a21.846,21.846,0,0,1,21.846-21.847" transform="translate(-1.07 -1.07)" fill="none" stroke="#000" stroke-linecap="round" stroke-linejoin="round" stroke-width="3"/>
      <path id="パス_4001" data-name="パス 4001" d="M229.462,38.063h-4.676v9.148h-4.745v-24.3h9.421c5.018,0,8.021,3.448,8.021,7.578S234.48,38.063,229.462,38.063Zm-.239-10.923h-4.437V33.8h4.437a3.333,3.333,0,1,0,0-6.655Z" transform="translate(-3.094 -2.509)"/>
    </g>
    <g id="グループ_20710" data-name="グループ 20710" transform="translate(668.564 587.652) rotate(89)">
      <g id="グループ_20700" data-name="グループ 20700" transform="translate(0 0)">
        <path id="パス_4229" data-name="パス 4229" d="M42.513,36.729l-6.356,6.289-.031-.032c-5.953,4.828-17.6,1.778-26.653-7.185l-.1-.1-.021-.021-.1-.1C.392,26.436-2.535,14.759,2.356,8.858l-.032-.031L8.679,2.537a8.053,8.053,0,0,1,4-2.114,18.109,18.109,0,0,1,7.545-.05c5.706,1.191,11.084,4.933,15.46,9.255l.009.01.01.01c4.276,4.421,7.961,9.839,9.091,15.556a18.116,18.116,0,0,1-.13,7.545A8.05,8.05,0,0,1,42.513,36.729Z" transform="translate(0 0)" fill="#ffc417"/>
        <g id="グループ_20692" data-name="グループ 20692" transform="translate(0.026 5.379)">
          <g id="グループ_20691" data-name="グループ 20691" transform="translate(0 0)">
            <g id="グループ_20690" data-name="グループ 20690">
              <path id="パス_4230" data-name="パス 4230" d="M39.476,28c.289,3.773-.656,7.083-2.972,9.33-5.8,5.623-17.995,2.449-27.24-7.09S-2.776,8.4,3.023,2.781C5.2.672,8.272-.2,11.752.038" transform="translate(0 0)" fill="none" stroke="#000" stroke-linecap="round" stroke-linejoin="round" stroke-width="3"/>
              <path id="パス_4231" data-name="パス 4231" d="M0,0A34,34,0,0,1,13.836,8.923a34.426,34.426,0,0,1,8.3,13.486" transform="translate(16.428 0.948)" fill="none" stroke="#000" stroke-linecap="round" stroke-linejoin="round" stroke-width="3"/>
            </g>
          </g>
        </g>
        <g id="グループ_20696" data-name="グループ 20696" transform="translate(11.898 33.916)">
          <g id="グループ_20695" data-name="グループ 20695" transform="translate(0 0)">
            <g id="グループ_20694" data-name="グループ 20694">
              <path id="パス_4233" data-name="パス 4233" d="M21.222,6.5C17.162,10.481,7.352,7.265,0,0" transform="translate(0.035 -2)" fill="none" stroke="#fff" stroke-linecap="round" stroke-linejoin="round" stroke-width="3"/>
            </g>
          </g>
        </g>
        <ellipse id="楕円形_2439" data-name="楕円形 2439" cx="1.329" cy="1.329" rx="1.329" ry="1.329" transform="translate(33.275 33.29)" fill="#fff"/>
        <g id="グループ_20699" data-name="グループ 20699" transform="translate(6.479 11.28)">
          <g id="グループ_20698" data-name="グループ 20698" transform="translate(0 0)">
            <g id="グループ_20697" data-name="グループ 20697" transform="translate(0)">
              <path id="パス_4234" data-name="パス 4234" d="M0,1.586C3.738-1.982,12.327.73,19.168,7.108" transform="translate(0 0)" fill="none" stroke="#fff" stroke-linecap="round" stroke-linejoin="round" stroke-width="3"/>
            </g>
          </g>
        </g>
        <path id="パス_4235" data-name="パス 4235" d="M0,0" transform="translate(9.473 35.8)" fill="#ffc417"/>
      </g>
      <path id="パス_4236" data-name="パス 4236" d="M0,.423A18.109,18.109,0,0,1,7.545.373c5.706,1.191,11.084,4.933,15.46,9.255l.009.01.01.01c4.276,4.421,7.961,9.839,9.091,15.556a18.116,18.116,0,0,1-.13,7.545" transform="translate(12.682 0)" fill="none" stroke="#000" stroke-linecap="round" stroke-linejoin="round" stroke-width="3"/>
    </g>
    <g id="グループ_20713" data-name="グループ 20713" transform="translate(445.786 663.355) rotate(-180)">
      <g id="グループ_20700-2" data-name="グループ 20700" transform="translate(0 0)">
        <path id="パス_4229-2" data-name="パス 4229" d="M42.513,36.729l-6.356,6.289-.031-.032c-5.953,4.828-17.6,1.778-26.653-7.185l-.1-.1-.021-.021-.1-.1C.392,26.436-2.535,14.759,2.356,8.858l-.032-.031L8.679,2.537a8.053,8.053,0,0,1,4-2.114,18.109,18.109,0,0,1,7.545-.05c5.706,1.191,11.084,4.933,15.46,9.255l.009.01.01.01c4.276,4.421,7.961,9.839,9.091,15.556a18.116,18.116,0,0,1-.13,7.545A8.05,8.05,0,0,1,42.513,36.729Z" transform="translate(0 0)" fill="#ffc417"/>
        <g id="グループ_20692-2" data-name="グループ 20692" transform="translate(0.026 5.379)">
          <g id="グループ_20691-2" data-name="グループ 20691" transform="translate(0 0)">
            <g id="グループ_20690-2" data-name="グループ 20690">
              <path id="パス_4230-2" data-name="パス 4230" d="M39.476,28c.289,3.773-.656,7.083-2.972,9.33-5.8,5.623-17.995,2.449-27.24-7.09S-2.776,8.4,3.023,2.781C5.2.672,8.272-.2,11.752.038" transform="translate(0 0)" fill="none" stroke="#000" stroke-linecap="round" stroke-linejoin="round" stroke-width="3"/>
              <path id="パス_4231-2" data-name="パス 4231" d="M0,0A34,34,0,0,1,13.836,8.923a34.426,34.426,0,0,1,8.3,13.486" transform="translate(16.428 0.948)" fill="none" stroke="#000" stroke-linecap="round" stroke-linejoin="round" stroke-width="3"/>
            </g>
          </g>
        </g>
        <g id="グループ_20696-2" data-name="グループ 20696" transform="translate(11.898 33.916)">
          <g id="グループ_20695-2" data-name="グループ 20695" transform="translate(0 0)">
            <g id="グループ_20694-2" data-name="グループ 20694">
              <path id="パス_4233-2" data-name="パス 4233" d="M21.222,6.5C17.162,10.481,7.352,7.265,0,0" transform="translate(0.035 -2)" fill="none" stroke="#fff" stroke-linecap="round" stroke-linejoin="round" stroke-width="3"/>
            </g>
          </g>
        </g>
        <ellipse id="楕円形_2439-2" data-name="楕円形 2439" cx="1.329" cy="1.329" rx="1.329" ry="1.329" transform="translate(33.275 33.29)" fill="#fff"/>
        <g id="グループ_20699-2" data-name="グループ 20699" transform="translate(6.479 11.28)">
          <g id="グループ_20698-2" data-name="グループ 20698" transform="translate(0 0)">
            <g id="グループ_20697-2" data-name="グループ 20697" transform="translate(0)">
              <path id="パス_4234-2" data-name="パス 4234" d="M0,1.586C3.738-1.982,12.327.73,19.168,7.108" transform="translate(0 0)" fill="none" stroke="#fff" stroke-linecap="round" stroke-linejoin="round" stroke-width="3"/>
            </g>
          </g>
        </g>
        <path id="パス_4235-2" data-name="パス 4235" d="M0,0" transform="translate(9.473 35.8)" fill="#ffc417"/>
      </g>
      <path id="パス_4236-2" data-name="パス 4236" d="M0,.423A18.109,18.109,0,0,1,7.545.373c5.706,1.191,11.084,4.933,15.46,9.255l.009.01.01.01c4.276,4.421,7.961,9.839,9.091,15.556a18.116,18.116,0,0,1-.13,7.545" transform="translate(12.682 0)" fill="none" stroke="#000" stroke-linecap="round" stroke-linejoin="round" stroke-width="3"/>
    </g>
    <rect id="しかく" width="512" height="382" transform="translate(270.563 332.085)" fill="none"/>
  </g>
</svg>
