<svg xmlns="http://www.w3.org/2000/svg" width="1200" height="653.366" viewBox="0 0 1200 653.366">
  <g id="グループ_20859" data-name="グループ 20859" transform="translate(-373 -139)">
    <g id="グループ_20702" data-name="グループ 20702" transform="matrix(-0.208, 0.978, -0.978, -0.208, 1530.096, 351.909)">
      <g id="グループ_20700" data-name="グループ 20700" transform="translate(52.794 23.416)">
        <path id="パス_4229" data-name="パス 4229" d="M111.747,35.607l-8.814-8.721-.043.044c-8.255-6.695-24.4-2.465-36.96,9.964l-.134.135-.029.029-.134.135c-12.3,12.687-16.356,28.879-9.573,37.063l-.044.043L64.83,83.02a11.167,11.167,0,0,0,5.55,2.931,25.112,25.112,0,0,0,10.463.069c7.912-1.652,15.37-6.841,21.439-12.834l.013-.014.014-.014c5.929-6.131,11.039-13.644,12.607-21.572a25.122,25.122,0,0,0-.18-10.463A11.163,11.163,0,0,0,111.747,35.607Z" transform="translate(-52.794 -23.463)" fill="#ffc417"/>
        <g id="グループ_20692" data-name="グループ 20692" transform="translate(0.036)">
          <g id="グループ_20691" data-name="グループ 20691">
            <g id="グループ_20690" data-name="グループ 20690">
              <path id="パス_4230" data-name="パス 4230" d="M107.577,40.21c.4-5.232-.91-9.822-4.122-12.938-8.041-7.8-24.954-3.4-37.774,9.832s-16.7,30.273-8.654,38.071c3.016,2.924,7.278,4.133,12.105,3.8" transform="translate(-52.835 -23.416)" fill="none" stroke="#000" stroke-linecap="round" stroke-linejoin="round" stroke-width="3"/>
              <path id="パス_4231" data-name="パス 4231" d="M79.07,81.239A47.144,47.144,0,0,0,98.256,68.866a47.738,47.738,0,0,0,11.516-18.7" transform="translate(-56.29 -26.938)" fill="none" stroke="#000" stroke-linecap="round" stroke-linejoin="round" stroke-width="3"/>
            </g>
          </g>
        </g>
        <g id="グループ_20696" data-name="グループ 20696" transform="translate(16.53 6.398)">
          <g id="グループ_20695" data-name="グループ 20695">
            <g id="グループ_20694" data-name="グループ 20694">
              <path id="パス_4233" data-name="パス 4233" d="M99.363,33.026c-5.267-5.171-17.994-1-27.532,8.427" transform="translate(-71.12 -30.82)" fill="none" stroke="#fff" stroke-linecap="round" stroke-linejoin="round" stroke-width="3"/>
            </g>
          </g>
        </g>
        <circle id="楕円形_2439" data-name="楕円形 2439" cx="1.844" cy="1.844" r="1.844" transform="translate(46.656 10.668)" fill="#fff"/>
        <g id="グループ_20699" data-name="グループ 20699" transform="translate(9.008 38.963)">
          <g id="グループ_20698" data-name="グループ 20698" transform="translate(0 0)">
            <g id="グループ_20697" data-name="グループ 20697">
              <path id="パス_4234" data-name="パス 4234" d="M63.168,75.945c5.183,4.948,17.095,1.187,26.58-7.657" transform="translate(-63.168 -68.288)" fill="none" stroke="#fff" stroke-linecap="round" stroke-linejoin="round" stroke-width="3"/>
            </g>
          </g>
        </g>
        <path id="パス_4235" data-name="パス 4235" d="M67.922,38.884" transform="translate(-54.786 -25.453)" fill="#ffc417"/>
      </g>
      <path id="パス_4236" data-name="パス 4236" d="M73.047,88.584a25.112,25.112,0,0,0,10.463.069C91.422,87,98.88,81.813,104.949,75.82l.013-.014.014-.014c5.929-6.131,11.039-13.644,12.607-21.572a25.122,25.122,0,0,0-.18-10.463" transform="translate(-2.667 -2.679)" fill="none" stroke="#000" stroke-linecap="round" stroke-linejoin="round" stroke-width="3"/>
    </g>
    <g id="mv03">
      <g id="illust" transform="translate(242 -20)">
        <g id="グループ_20177" data-name="グループ 20177" transform="translate(244.754 501.849)">
          <path id="パス_3625" data-name="パス 3625" d="M611.271,1800.909H592.655l10.842-7.173H621.28Z" transform="translate(-592.656 -1793.736)" fill="#c03" stroke="#231815" stroke-linecap="round" stroke-linejoin="round" stroke-width="3"/>
          <path id="パス_3628" data-name="パス 3628" d="M0,0H18.616V24.27H0Z" transform="translate(-0.001 7.173)" fill="#c03" stroke="#231815" stroke-linecap="round" stroke-linejoin="round" stroke-width="3"/>
          <path id="パス_3626" data-name="パス 3626" d="M615.641,1818.006l-10.009,7.173v-24.27l10.009-7.173Z" transform="translate(-587.018 -1793.736)" fill="#c03" stroke="#231815" stroke-linecap="round" stroke-linejoin="round" stroke-width="3"/>
        </g>
        <g id="グループ_20178" data-name="グループ 20178" transform="translate(272.322 481.849)">
          <path id="パス_3625-2" data-name="パス 3625" d="M611.271,1800.909H592.655l10.842-7.173H621.28Z" transform="translate(-592.656 -1793.736)" fill="#c03" stroke="#231815" stroke-linecap="round" stroke-linejoin="round" stroke-width="3"/>
          <path id="パス_3628-2" data-name="パス 3628" d="M0,0H18.616V44.27H0Z" transform="translate(-0.001 7.173)" fill="#c03" stroke="#231815" stroke-linecap="round" stroke-linejoin="round" stroke-width="3"/>
          <path id="パス_3626-2" data-name="パス 3626" d="M615.641,1838.006l-10.009,7.173v-44.27l10.009-7.173Z" transform="translate(-587.018 -1793.736)" fill="#c03" stroke="#231815" stroke-linecap="round" stroke-linejoin="round" stroke-width="3"/>
        </g>
        <g id="グループ_20179" data-name="グループ 20179" transform="translate(300.516 468.813)">
          <path id="パス_3625-3" data-name="パス 3625" d="M611.271,1800.909H592.655l10.842-7.173H621.28Z" transform="translate(-592.655 -1793.737)" fill="#c03" stroke="#231815" stroke-linecap="round" stroke-linejoin="round" stroke-width="3"/>
          <path id="パス_3627" data-name="パス 3627" d="M0,0H18.616V57.306H0Z" transform="translate(0 7.173)" fill="#c03" stroke="#231815" stroke-linecap="round" stroke-linejoin="round" stroke-width="3"/>
          <path id="パス_3626-3" data-name="パス 3626" d="M615.641,1851.042l-10.009,7.173v-57.306l10.009-7.173Z" transform="translate(-587.017 -1793.737)" fill="#c03" stroke="#231815" stroke-linecap="round" stroke-linejoin="round" stroke-width="3"/>
        </g>
        <g id="グループ_20180" data-name="グループ 20180" transform="translate(328.451 455.777)">
          <path id="パス_3625-4" data-name="パス 3625" d="M611.271,1800.909H592.655l10.842-7.173H621.28Z" transform="translate(-592.655 -1793.737)" fill="#c03" stroke="#231815" stroke-linecap="round" stroke-linejoin="round" stroke-width="3"/>
          <path id="パス_3627-2" data-name="パス 3627" d="M0,0H18.616V70.342H0Z" transform="translate(0 7.173)" fill="#c03" stroke="#231815" stroke-linecap="round" stroke-linejoin="round" stroke-width="3"/>
          <path id="パス_3626-4" data-name="パス 3626" d="M615.641,1864.078l-10.009,7.173v-70.342l10.009-7.173Z" transform="translate(-587.016 -1793.737)" fill="#c03" stroke="#231815" stroke-linecap="round" stroke-linejoin="round" stroke-width="3"/>
        </g>
      </g>
      <g id="グループ_20704" data-name="グループ 20704" transform="translate(1207.338 673.966) rotate(89)">
        <g id="グループ_20700-2" data-name="グループ 20700" transform="translate(52.794 23.416)">
          <path id="パス_4229-2" data-name="パス 4229" d="M111.747,35.607l-8.814-8.721-.043.044c-8.255-6.695-24.4-2.465-36.96,9.964l-.134.135-.029.029-.134.135c-12.3,12.687-16.356,28.879-9.573,37.063l-.044.043L64.83,83.02a11.167,11.167,0,0,0,5.55,2.931,25.112,25.112,0,0,0,10.463.069c7.912-1.652,15.37-6.841,21.439-12.834l.013-.014.014-.014c5.929-6.131,11.039-13.644,12.607-21.572a25.122,25.122,0,0,0-.18-10.463A11.163,11.163,0,0,0,111.747,35.607Z" transform="translate(-52.794 -23.463)" fill="#ffc417"/>
          <g id="グループ_20692-2" data-name="グループ 20692" transform="translate(0.036)">
            <g id="グループ_20691-2" data-name="グループ 20691">
              <g id="グループ_20690-2" data-name="グループ 20690">
                <path id="パス_4230-2" data-name="パス 4230" d="M107.577,40.21c.4-5.232-.91-9.822-4.122-12.938-8.041-7.8-24.954-3.4-37.774,9.832s-16.7,30.273-8.654,38.071c3.016,2.924,7.278,4.133,12.105,3.8" transform="translate(-52.835 -23.416)" fill="none" stroke="#000" stroke-linecap="round" stroke-linejoin="round" stroke-width="3"/>
                <path id="パス_4231-2" data-name="パス 4231" d="M79.07,81.239A47.144,47.144,0,0,0,98.256,68.866a47.738,47.738,0,0,0,11.516-18.7" transform="translate(-56.29 -26.938)" fill="none" stroke="#000" stroke-linecap="round" stroke-linejoin="round" stroke-width="3"/>
              </g>
            </g>
          </g>
          <g id="グループ_20696-2" data-name="グループ 20696" transform="translate(16.53 6.398)">
            <g id="グループ_20695-2" data-name="グループ 20695">
              <g id="グループ_20694-2" data-name="グループ 20694">
                <path id="パス_4233-2" data-name="パス 4233" d="M101.26,33.181c-5.63-5.527-19.234-1.067-29.429,9.007" transform="translate(-71.831 -30.784)" fill="none" stroke="#fff" stroke-linecap="round" stroke-linejoin="round" stroke-width="4"/>
              </g>
            </g>
          </g>
          <circle id="楕円形_2439-2" data-name="楕円形 2439" cx="1.844" cy="1.844" r="1.844" transform="translate(46.864 11.646)" fill="#fff"/>
          <g id="グループ_20699-2" data-name="グループ 20699" transform="translate(9.008 38.963)">
            <g id="グループ_20698-2" data-name="グループ 20698" transform="translate(0 0)">
              <g id="グループ_20697-2" data-name="グループ 20697">
                <path id="パス_4234-2" data-name="パス 4234" d="M63.168,75.945c5.183,4.948,17.095,1.187,26.58-7.657" transform="translate(-63.168 -68.288)" fill="none" stroke="#fff" stroke-linecap="round" stroke-linejoin="round" stroke-width="4"/>
              </g>
            </g>
          </g>
          <path id="パス_4235-2" data-name="パス 4235" d="M67.922,38.884" transform="translate(-54.786 -25.453)" fill="#ffc417"/>
        </g>
        <path id="パス_4236-2" data-name="パス 4236" d="M73.047,88.584a25.112,25.112,0,0,0,10.463.069C91.422,87,98.88,81.813,104.949,75.82l.013-.014.014-.014c5.929-6.131,11.039-13.644,12.607-21.572a25.122,25.122,0,0,0-.18-10.463" transform="translate(-2.667 -2.679)" fill="none" stroke="#000" stroke-linecap="round" stroke-linejoin="round" stroke-width="3"/>
      </g>
    </g>
    <rect id="しかく" width="1200" height="652" transform="translate(373 139)" fill="none"/>
  </g>
</svg>
