<svg version="1.1" id="Layer_1" xmlns="http://www.w3.org/2000/svg" xmlns:xlink="http://www.w3.org/1999/xlink" x="0px" y="0px"
	 width="100%" viewBox="0 0 741 100" enable-background="new 0 0 741 100" xml:space="preserve">
<path fill="#000000" opacity="1.000000" stroke="none"
	d="
M1.000000,49.000000
	C1.000000,33.004173 1.000000,17.008350 1.000000,1.009394
	C247.931381,1.006263 494.862762,1.006263 741.897095,1.006263
	C741.897095,34.255722 741.897095,67.511864 741.897095,100.884003
	C495.000031,100.884003 248.000031,100.884003 1.000000,100.884003
	C1.000000,89.928307 1.000000,78.931137 1.324079,67.244469
	C2.034651,66.865929 2.595500,67.096207 2.782161,67.499619
	C7.554076,77.812737 18.305378,82.335808 29.173674,78.894615
	C33.639153,77.480736 37.697670,74.827339 42.068027,73.049248
	C44.502357,72.058846 45.067776,70.583595 45.046749,68.149834
	C44.941765,55.995983 44.999062,43.840733 44.999226,31.685976
	C44.999287,27.251558 44.999233,22.817139 44.999233,18.421043
	C40.291912,18.421043 36.253769,18.421043 32.001122,18.421043
	C32.001122,21.997202 32.001118,25.152857 32.001118,28.308510
	C32.001118,31.441702 32.001122,34.574894 32.001122,37.764576
	C30.845896,37.764576 30.157888,37.908627 29.554808,37.743156
	C19.036129,34.857082 7.628640,37.788162 2.835007,48.296196
	C2.641055,48.721355 1.630231,48.773865 1.000000,49.000000
M189.195892,78.111328
	C193.330933,78.488487 197.465958,78.865654 202.000290,79.279236
	C202.000290,70.468903 201.909134,62.658249 202.073441,54.852978
	C202.108322,53.195492 202.604980,50.724037 203.717087,50.097363
	C205.594803,49.039280 208.519180,48.266518 210.285095,49.031647
	C211.994186,49.772152 213.738007,52.557449 213.834030,54.524319
	C214.227875,62.591515 213.998535,70.689133 213.998535,78.679802
	C218.736008,78.679802 222.661987,78.679802 227.000427,78.679802
	C227.000427,70.567513 226.913879,62.767574 227.069366,54.972469
	C227.102707,53.301628 227.525040,50.823101 228.627747,50.171677
	C230.488358,49.072529 233.404022,48.237404 235.189163,48.968456
	C236.910583,49.673412 238.731018,52.451855 238.828354,54.403164
	C239.231216,62.478893 238.997345,70.586388 238.997345,78.723236
	C243.646210,78.723236 247.569992,78.723236 251.962357,78.723236
	C251.962357,69.168335 252.362427,59.854961 251.746841,50.609215
	C251.529419,47.343628 249.563721,43.440113 247.127930,41.218231
	C239.869476,34.597202 231.354004,35.125443 222.996796,39.126156
	C221.015427,40.074669 219.978821,40.103043 218.003082,39.115116
	C203.873764,32.049999 187.355347,38.401848 188.909775,56.691799
	C189.486313,63.475471 189.027985,70.347092 189.195892,78.111328
M152.733322,37.979584
	C149.110107,41.160397 144.552689,43.739136 142.041031,47.636326
	C134.865326,58.770443 140.157639,76.856064 158.073563,79.822083
	C166.652847,81.242393 174.080338,78.129204 179.339905,71.044365
	C184.382462,64.251816 184.327499,56.599289 181.470078,49.070255
	C177.565750,38.782684 165.609451,34.110935 152.733322,37.979584
M297.040192,72.435654
	C298.692566,68.246590 301.465973,64.143303 301.794250,59.852924
	C302.934692,44.948772 292.160522,35.875458 277.188324,36.791214
	C264.059082,37.594250 255.143631,51.934990 258.478424,64.097900
	C263.071472,80.850029 284.547821,85.051125 297.040192,72.435654
M64.520226,78.151627
	C75.959511,83.644661 91.493088,76.028015 94.246155,64.076546
	C96.718292,53.344585 91.642250,41.091419 81.468369,38.077244
	C66.364906,33.602604 57.474609,38.563126 52.333961,50.142551
	C47.930676,60.061058 51.416180,72.743828 64.520226,78.151627
M102.397446,47.153797
	C98.501747,55.550858 98.497467,63.951447 104.089317,71.401772
	C111.830666,81.715996 123.142235,78.780556 133.733856,78.822823
	C133.733856,75.021378 133.733856,71.767632 133.733856,68.553230
	C129.426407,68.022026 125.368385,67.629128 121.347160,67.000755
	C115.139633,66.030739 111.624016,62.389347 112.029587,57.588005
	C112.440277,52.725933 117.055122,49.071030 122.932343,49.006878
	C126.519279,48.967720 130.106995,48.999645 133.725464,48.999645
	C133.725464,44.677223 133.725464,41.091412 133.725464,36.999912
	C129.184174,36.999912 124.896439,36.846348 120.623688,37.033981
	C113.225197,37.358883 106.843178,39.751560 102.397446,47.153797
M335.814941,70.744461
	C334.702698,73.284447 333.996857,75.461250 337.386017,77.193810
	C340.579041,78.826065 342.128845,77.140343 343.995331,75.165733
	C349.252441,69.604065 354.496857,64.024261 359.931274,58.638283
	C364.371002,54.238152 369.122742,50.154583 373.647186,45.837440
	C376.222107,43.380531 377.029755,40.289101 374.115479,37.821762
	C371.490967,35.599724 369.075775,37.332714 366.915192,39.516403
	C356.761078,49.779060 346.513916,59.949703 335.814941,70.744461
M373.052551,68.565308
	C371.052155,66.573425 369.321533,64.108467 366.954895,62.758667
	C365.418518,61.882412 362.508209,61.902786 361.007751,62.820332
	C358.583771,64.302628 358.769958,66.995071 360.710297,69.133408
	C362.716888,71.344742 364.945709,73.352921 366.991913,75.530220
	C369.125336,77.800262 371.126251,79.284523 374.076569,76.498573
	C377.084412,73.658318 376.320801,71.375542 373.052551,68.565308
M336.323914,44.848824
	C338.559326,47.080627 340.505341,49.798492 343.136780,51.365170
	C344.761200,52.332317 347.429779,51.545670 349.629608,51.546383
	C349.572174,49.347668 350.200439,46.790848 349.285919,45.039780
	C348.110657,42.789509 345.931000,40.821838 343.744507,39.416088
	C341.902649,38.231937 339.059113,36.992966 337.326111,37.620518
	C334.544159,38.627918 334.120422,41.527050 336.323914,44.848824
M53.544849,31.713861
	C58.811062,33.243355 56.022717,28.208616 57.619095,26.532806
	C60.271214,28.304846 60.531429,33.923676 65.582939,31.504881
	C67.039551,20.164370 66.460472,17.976690 62.132832,18.761364
	C62.041283,20.497911 61.948830,22.251616 61.859108,23.953480
	C58.316273,23.030397 58.587067,16.558086 53.124287,18.457098
	C53.124287,22.699892 53.124287,26.818518 53.544849,31.713861
M85.658340,31.754288
	C93.220039,31.306000 86.384659,25.031406 90.192947,22.608994
	C90.926277,21.844585 92.150597,20.568392 94.295341,18.332766
	C88.720909,18.332766 84.988373,18.332766 81.255844,18.332766
	C84.997330,22.018101 85.492065,26.390263 85.658340,31.754288
M71.993835,24.770884
	C71.993835,27.049610 71.993835,29.328335 71.993835,32.407471
	C79.706329,30.581991 72.377060,24.680466 76.166336,22.975653
	C77.562149,21.812836 78.957962,20.650017 80.353783,19.487200
	C80.065117,18.991264 79.776451,18.495331 79.487785,17.999395
	C77.697327,17.999395 75.906860,17.999393 74.116394,17.999393
	C72.172462,17.999393 70.228531,17.999395 68.284599,17.999395
	C68.042618,18.446491 67.800644,18.893587 67.558670,19.340683
	C69.029564,20.857164 70.500465,22.373646 71.993835,24.770884
z"/>
<path fill="#CC0033" opacity="1.000000" stroke="none"
	d="
M1.000000,49.467941
	C1.630231,48.773865 2.641055,48.721355 2.835007,48.296196
	C7.628640,37.788162 19.036129,34.857082 29.554808,37.743156
	C30.157888,37.908627 30.845896,37.764576 32.001122,37.764576
	C32.001122,34.574894 32.001118,31.441702 32.001118,28.308510
	C32.001118,25.152857 32.001122,21.997202 32.001122,18.421043
	C36.253769,18.421043 40.291912,18.421043 44.999233,18.421043
	C44.999233,22.817139 44.999287,27.251558 44.999226,31.685976
	C44.999062,43.840733 44.941765,55.995983 45.046749,68.149834
	C45.067776,70.583595 44.502357,72.058846 42.068027,73.049248
	C37.697670,74.827339 33.639153,77.480736 29.173674,78.894615
	C18.305378,82.335808 7.554076,77.812737 2.782161,67.499619
	C2.595500,67.096207 2.034651,66.865929 1.324079,66.777481
	C1.000000,61.311958 1.000000,55.623920 1.000000,49.467941
M15.416973,52.070572
	C12.006329,57.954147 12.534628,63.101948 16.840998,65.946442
	C21.722076,69.170547 26.592573,68.617142 30.014957,64.449554
	C33.080147,60.716942 32.775242,53.910938 29.409163,50.927147
	C25.000368,47.019070 20.725498,47.212227 15.416973,52.070572
z"/>
<path fill="#CC0033" opacity="1.000000" stroke="none"
	d="
M189.118744,77.644966
	C189.027985,70.347092 189.486313,63.475471 188.909775,56.691799
	C187.355347,38.401848 203.873764,32.049999 218.003082,39.115116
	C219.978821,40.103043 221.015427,40.074669 222.996796,39.126156
	C231.354004,35.125443 239.869476,34.597202 247.127930,41.218231
	C249.563721,43.440113 251.529419,47.343628 251.746841,50.609215
	C252.362427,59.854961 251.962357,69.168335 251.962357,78.723236
	C247.569992,78.723236 243.646210,78.723236 238.997345,78.723236
	C238.997345,70.586388 239.231216,62.478893 238.828354,54.403164
	C238.731018,52.451855 236.910583,49.673412 235.189163,48.968456
	C233.404022,48.237404 230.488358,49.072529 228.627747,50.171677
	C227.525040,50.823101 227.102707,53.301628 227.069366,54.972469
	C226.913879,62.767574 227.000427,70.567513 227.000427,78.679802
	C222.661987,78.679802 218.736008,78.679802 213.998535,78.679802
	C213.998535,70.689133 214.227875,62.591515 213.834030,54.524319
	C213.738007,52.557449 211.994186,49.772152 210.285095,49.031647
	C208.519180,48.266518 205.594803,49.039280 203.717087,50.097363
	C202.604980,50.724037 202.108322,53.195492 202.073441,54.852978
	C201.909134,62.658249 202.000290,70.468903 202.000290,79.279236
	C197.465958,78.865654 193.330933,78.488487 189.118744,77.644966
z"/>
<path fill="#CC0033" opacity="1.000000" stroke="none"
	d="
M153.131332,37.911469
	C165.609451,34.110935 177.565750,38.782684 181.470078,49.070255
	C184.327499,56.599289 184.382462,64.251816 179.339905,71.044365
	C174.080338,78.129204 166.652847,81.242393 158.073563,79.822083
	C140.157639,76.856064 134.865326,58.770443 142.041031,47.636326
	C144.552689,43.739136 149.110107,41.160397 153.131332,37.911469
M153.918915,64.377342
	C154.503677,64.963501 155.025177,65.635323 155.683624,66.121727
	C159.543854,68.973320 165.014648,68.530945 168.285614,65.147720
	C171.442398,61.882626 171.918350,56.374744 169.344559,52.893669
	C165.939880,48.288799 161.625504,47.089668 157.027298,49.470215
	C151.702606,52.226864 150.469452,57.052265 153.918915,64.377342
z"/>
<path fill="#CC0033" opacity="1.000000" stroke="none"
	d="
M296.787506,72.703621
	C284.547821,85.051125 263.071472,80.850029 258.478424,64.097900
	C255.143631,51.934990 264.059082,37.594250 277.188324,36.791214
	C292.160522,35.875458 302.934692,44.948772 301.794250,59.852924
	C301.465973,64.143303 298.692566,68.246590 296.787506,72.703621
M278.795502,48.099022
	C277.876831,48.420120 276.887024,48.614624 276.051666,49.083981
	C272.200043,51.247932 269.765778,54.518265 270.163452,58.998344
	C270.592377,63.830345 274.553131,67.575615 279.007629,67.970512
	C283.524872,68.370964 286.559387,66.135292 288.325256,62.161430
	C291.285187,55.500431 287.862854,50.042076 278.795502,48.099022
z"/>
<path fill="#CC0033" opacity="1.000000" stroke="none"
	d="
M64.126381,78.085281
	C51.416180,72.743828 47.930676,60.061058 52.333961,50.142551
	C57.474609,38.563126 66.364906,33.602604 81.468369,38.077244
	C91.642250,41.091419 96.718292,53.344585 94.246155,64.076546
	C91.493088,76.028015 75.959511,83.644661 64.126381,78.085281
M76.916481,49.429531
	C71.932617,47.268440 65.915970,48.969353 63.978668,53.087070
	C61.787838,57.743668 63.615864,64.080162 67.810066,66.367889
	C73.109215,69.258308 77.728134,68.266113 80.733627,63.591766
	C83.632843,59.082706 82.237793,53.092068 76.916481,49.429531
z"/>
<path fill="#CC0033" opacity="1.000000" stroke="none"
	d="
M102.660858,46.878090
	C106.843178,39.751560 113.225197,37.358883 120.623688,37.033981
	C124.896439,36.846348 129.184174,36.999912 133.725464,36.999912
	C133.725464,41.091412 133.725464,44.677223 133.725464,48.999645
	C130.106995,48.999645 126.519279,48.967720 122.932343,49.006878
	C117.055122,49.071030 112.440277,52.725933 112.029587,57.588005
	C111.624016,62.389347 115.139633,66.030739 121.347160,67.000755
	C125.368385,67.629128 129.426407,68.022026 133.733856,68.553230
	C133.733856,71.767632 133.733856,75.021378 133.733856,78.822823
	C123.142235,78.780556 111.830666,81.715996 104.089317,71.401772
	C98.497467,63.951447 98.501747,55.550858 102.660858,46.878090
z"/>
<path fill="#FFC42C" opacity="1.000000" stroke="none"
	d="
M336.057465,70.448822
	C346.513916,59.949703 356.761078,49.779060 366.915192,39.516403
	C369.075775,37.332714 371.490967,35.599724 374.115479,37.821762
	C377.029755,40.289101 376.222107,43.380531 373.647186,45.837440
	C369.122742,50.154583 364.371002,54.238152 359.931274,58.638283
	C354.496857,64.024261 349.252441,69.604065 343.995331,75.165733
	C342.128845,77.140343 340.579041,78.826065 337.386017,77.193810
	C333.996857,75.461250 334.702698,73.284447 336.057465,70.448822
z"/>
<path fill="#CC0033" opacity="1.000000" stroke="none"
	d="
M373.320343,68.817749
	C376.320801,71.375542 377.084412,73.658318 374.076569,76.498573
	C371.126251,79.284523 369.125336,77.800262 366.991913,75.530220
	C364.945709,73.352921 362.716888,71.344742 360.710297,69.133408
	C358.769958,66.995071 358.583771,64.302628 361.007751,62.820332
	C362.508209,61.902786 365.418518,61.882412 366.954895,62.758667
	C369.321533,64.108467 371.052155,66.573425 373.320343,68.817749
z"/>
<path fill="#CC0033" opacity="1.000000" stroke="none"
	d="
M336.076263,44.558708
	C334.120422,41.527050 334.544159,38.627918 337.326111,37.620518
	C339.059113,36.992966 341.902649,38.231937 343.744507,39.416088
	C345.931000,40.821838 348.110657,42.789509 349.285919,45.039780
	C350.200439,46.790848 349.572174,49.347668 349.629608,51.546383
	C347.429779,51.545670 344.761200,52.332317 343.136780,51.365170
	C340.505341,49.798492 338.559326,47.080627 336.076263,44.558708
z"/>
<path fill="#CC0032" opacity="1.000000" stroke="none"
	d="
M53.334568,31.325500
	C53.124287,26.818518 53.124287,22.699892 53.124287,18.457098
	C58.587067,16.558086 58.316273,23.030397 61.859108,23.953480
	C61.948830,22.251616 62.041283,20.497911 62.132832,18.761364
	C66.460472,17.976690 67.039551,20.164370 65.582939,31.504881
	C60.531429,33.923676 60.271214,28.304846 57.619095,26.532806
	C56.022717,28.208616 58.811062,33.243355 53.334568,31.325500
z"/>
<path fill="#CC0033" opacity="1.000000" stroke="none"
	d="
M85.405037,31.389809
	C85.492065,26.390263 84.997330,22.018101 81.255844,18.332766
	C84.988373,18.332766 88.720909,18.332766 94.295341,18.332766
	C92.150597,20.568392 90.926277,21.844585 90.192947,22.608994
	C86.384659,25.031406 93.220039,31.306000 85.405037,31.389809
z"/>
<path fill="#CC0033" opacity="1.000000" stroke="none"
	d="
M71.982597,24.330505
	C70.500465,22.373646 69.029564,20.857164 67.558670,19.340683
	C67.800644,18.893587 68.042618,18.446491 68.284599,17.999395
	C70.228531,17.999395 72.172462,17.999393 74.116394,17.999393
	C75.906860,17.999393 77.697327,17.999395 79.487785,17.999395
	C79.776451,18.495331 80.065117,18.991264 80.353783,19.487200
	C78.957962,20.650017 77.562149,21.812836 76.166336,22.975653
	C72.377060,24.680466 79.706329,30.581991 71.993835,32.407471
	C71.993835,29.328335 71.993835,27.049610 71.982597,24.330505
z"/>
<path fill="#000000" opacity="1.000000" stroke="none"
	d="
M15.696003,51.802368
	C20.725498,47.212227 25.000368,47.019070 29.409163,50.927147
	C32.775242,53.910938 33.080147,60.716942 30.014957,64.449554
	C26.592573,68.617142 21.722076,69.170547 16.840998,65.946442
	C12.534628,63.101948 12.006329,57.954147 15.696003,51.802368
z"/>
<path fill="#000000" opacity="1.000000" stroke="none"
	d="
M153.641510,64.090942
	C150.469452,57.052265 151.702606,52.226864 157.027298,49.470215
	C161.625504,47.089668 165.939880,48.288799 169.344559,52.893669
	C171.918350,56.374744 171.442398,61.882626 168.285614,65.147720
	C165.014648,68.530945 159.543854,68.973320 155.683624,66.121727
	C155.025177,65.635323 154.503677,64.963501 153.641510,64.090942
z"/>
<path fill="#000000" opacity="1.000000" stroke="none"
	d="
M279.186707,48.062477
	C287.862854,50.042076 291.285187,55.500431 288.325256,62.161430
	C286.559387,66.135292 283.524872,68.370964 279.007629,67.970512
	C274.553131,67.575615 270.592377,63.830345 270.163452,58.998344
	C269.765778,54.518265 272.200043,51.247932 276.051666,49.083981
	C276.887024,48.614624 277.876831,48.420120 279.186707,48.062477
z"/>
<path fill="#000000" opacity="1.000000" stroke="none"
	d="
M77.229721,49.659904
	C82.237793,53.092068 83.632843,59.082706 80.733627,63.591766
	C77.728134,68.266113 73.109215,69.258308 67.810066,66.367889
	C63.615864,64.080162 61.787838,57.743668 63.978668,53.087070
	C65.915970,48.969353 71.932617,47.268440 77.229721,49.659904
z"/>
</svg>