<?xml version="1.0" encoding="utf-8"?>
<!-- Generator: Adobe Illustrator 26.5.3, SVG Export Plug-In . SVG Version: 6.00 Build 0)  -->
<svg version="1.1" id="_レイヤー_2" xmlns="http://www.w3.org/2000/svg" xmlns:xlink="http://www.w3.org/1999/xlink" x="0px"
	 y="0px" viewBox="0 0 370 50" style="enable-background:new 0 0 370 50;" xml:space="preserve">
<style type="text/css">
	.st0{fill:none;stroke:#CC0033;stroke-width:4.08;stroke-linecap:round;}
	.st1{fill:none;stroke:#FFC42C;stroke-width:4.08;stroke-linecap:round;}
	.st2{fill:#CC0033;}
</style>
<g id="_レイヤー_1-2">
	<g id="_グループ_18910">
		<g id="_グループ_18874">
			<path id="_パス_1375" class="st0" d="M172.54,18.595l3.55,3.55"/>
			<path id="_パス_3459" class="st0" d="M185.11,31.165l3.7,3.7"/>
			<path id="_パス_1376" class="st1" d="M188.81,18.595l-16.27,16.27"/>
		</g>
		<g id="_グループ_18889">
			<g id="_グループ_18888">
				<path id="_パス_1409" d="M305.34,27.065c0,5.99-4.86,10.85-10.85,10.85s-10.85-4.86-10.85-10.85s4.86-10.85,10.85-10.85l0,0
					C300.48,16.215,305.34,21.075,305.34,27.065z M294.49,20.565c-3.59,0-6.5,2.91-6.5,6.5s2.91,6.5,6.5,6.5s6.5-2.91,6.5-6.5l0,0
					C300.99,23.475,298.08,20.565,294.49,20.565L294.49,20.565z"/>
				<path id="_パス_1410" d="M280.32,16.695v20.74h-4.27v-14.56h-0.06l-5.09,14.56h-3.52l-5.08-14.56h-0.06v14.56h-4.27v-20.74
					h6.42l4.72,14.24h0.06l4.72-14.24H280.32L280.32,16.695z"/>
				<path id="_パス_1411" d="M370,37.435l-7.23-10.79l6.63-9.95h-5.25l-4.03,6.56l-4.03-6.56h-5.25l6.64,9.95l-7.23,10.79h5.32
					l4.55-7.23l4.55,7.23h5.32H370z"/>
				<path id="_パス_1412" d="M347.08,16.695v3.84h-10.91v4.49h10.08v3.54h-10.08v5.04h11.18v3.83h-15.74v-20.74H347.08z"/>
				<path id="_パス_1413" d="M313.19,16.695l9.39,13.69h0.06v-13.69h4.27v20.74h-4.53l-9.39-13.69h-0.06v13.69h-4.27v-20.74
					H313.19z"/>
			</g>
			<path id="_パス_1414" d="M246.92,17.155c0,8.66-4.71,11.83-8.04,13.8c-1.19,0.49-1.82,1.79-1.47,3.02
				c0.94,3.33,2.39,6.5,4.3,9.39c0.88,1.12,3.29,1.43,3.84,1.65c1.9,0.78,1.81,4.17-0.44,4.17h-10.33c-0.68,0.1-1.33-0.36-1.46-1.04
				c-0.16-0.57-2.98-11.7-3.09-12.09s-0.29-0.69-0.6-0.69c-0.64,0-0.98,1.08-1.43,2.15s-3.94,10.48-4.17,10.88
				c-0.21,0.47-0.67,0.78-1.19,0.79h-10.12c-1.2,0-1.07-1.06-0.37-1.49c0.94-0.41,1.91-0.74,2.9-0.98c2.1-0.74,3.81-2.3,4.74-4.32
				c0.91-1.95,1.58-4,1.97-6.12c0.34-1.46-0.34-2.96-1.67-3.67c-10.42-4.91-10.01-16.37-5.36-23.68c3.23-5.08,8.84-8.16,14.87-8.13
				C238.67,0.795,246.92,7.875,246.92,17.155z M229.58,4.825c-5.66,0.07-10.68,3.64-12.6,8.96c-2.21,6.03-0.56,9.97,2.28,12.52
				c1.74,1.57,5.68,0.42,7.34-3.72c0.08-0.2,0.47-0.27,0.62-0.29c0.78-0.13,1.53-0.45,2.17-0.91c0.49-0.36,0.44-1.09-0.1-0.96
				c-0.44,0.1-1.46,0.58-1.97,0.73c-0.36,0.1-0.33-0.21-0.33-0.21s0.14-0.43,0.26-0.99c0.11-0.52-0.06-0.7-0.75-0.35
				c-0.34,0.2-0.71,0.34-1.09,0.43c-0.23,0-0.67-0.23-0.54-0.66c1.32-4.38,2.67-5.05,3.42-5.26c1.65-0.53,3.41,0.38,3.94,2.03
				c0,0.01,0,0.03,0.01,0.04c0.22,1.04,0.34,2.1,0.36,3.17c0.23,1.81-0.26,4.92,2.67,5.77c4.48,1.3,9.36-5.16,6.86-12.09
				c-2.13-5.03-7.08-8.27-12.54-8.21l0,0L229.58,4.825z M228.02,17.685c0.36,0,0.64-0.29,0.64-0.64s-0.29-0.64-0.64-0.64
				c-0.36,0-0.64,0.29-0.64,0.64c0,0.36,0.29,0.65,0.64,0.65l0,0l0,0V17.685z"/>
		</g>
		<g>
			<path class="st2" d="M50.55,27.165c0,5.94,4.29,10.6,11.07,10.6h6.26v-5.62h-5.69c-3.64,0-5.65-2.16-5.65-4.98
				s2.01-4.98,5.65-4.98h5.69v-5.62h-6.26C54.84,16.565,50.55,21.225,50.55,27.165z"/>
			<path class="st2" d="M119.17,16.295c-2.29,0-4.43,0.46-7.2,2.33c-2.77-1.87-4.91-2.33-7.2-2.33c-5.1,0-8.66,3.51-8.66,8.56v12.91
				h5.98v-12.61c0-2.16,1.32-3.24,3.48-3.24c2.28,0,3.41,1.14,3.41,2.96v12.88h5.97v-12.88c0-1.82,1.13-2.96,3.41-2.96
				c2.16,0,3.47,1.08,3.47,3.24v12.61h5.98v-12.91c0-5.05-3.56-8.56-8.66-8.56L119.17,16.295z"/>
			<path class="st2" d="M142.2,16.295c-7.11,0-11.13,5.54-11.13,10.87s4.02,10.86,11.13,10.86s11.11-5.55,11.11-10.86
				S149.29,16.295,142.2,16.295z M142.2,32.405c-3.33,0-5.14-2.6-5.14-5.24s1.8-5.24,5.14-5.24s5.14,2.6,5.14,5.24
				S145.53,32.405,142.2,32.405z"/>
			<path class="st2" d="M16.18,6.975v10.66c-1.45-0.84-3.18-1.34-5.18-1.34c-7.18,0-11,5.59-11,10.87s3.82,10.86,10.99,10.86
				c5.39,0,7.41-2.6,11.17-4.33V6.975H16.18z M5.98,27.155c0-2.65,1.8-5.24,5.13-5.24s5.08,2.49,5.13,5.11v0.27
				c-0.06,2.62-1.8,5.11-5.13,5.11s-5.13-2.6-5.13-5.24L5.98,27.155z"/>
			<path class="st2" d="M39.91,6.975v1.45H37.8v5.27h-1.55v-5.27h-2.1v-1.45C34.15,6.975,39.91,6.975,39.91,6.975z"/>
			<path class="st2" d="M46.81,6.975v1.45h-2.1v5.27h-1.55v-5.27h-2.1v-1.45h5.76L46.81,6.975z"/>
			<path class="st2" d="M28.29,6.975l3.06,4.31v-4.31h1.49v6.71h-1.63l-3.04-4.29v4.29h-1.49v-6.71h1.62H28.29z"/>
			<path class="st2" d="M36.66,16.295c-7.11,0-11.13,5.54-11.13,10.87s4.02,10.86,11.13,10.86s11.11-5.55,11.11-10.86
				S43.75,16.295,36.66,16.295z M36.66,32.405c-3.33,0-5.13-2.6-5.13-5.24s1.8-5.24,5.13-5.24s5.14,2.6,5.14,5.24
				S40,32.405,36.66,32.405z"/>
			<path class="st2" d="M81.77,16.295c-7.11,0-11.13,5.54-11.13,10.87s4.02,10.86,11.13,10.86s11.11-5.55,11.11-10.86
				S88.86,16.295,81.77,16.295z M81.77,32.405c-3.33,0-5.13-2.6-5.13-5.24s1.8-5.24,5.13-5.24s5.14,2.6,5.14,5.24
				S85.11,32.405,81.77,32.405z"/>
		</g>
	</g>
</g>
</svg>
