<svg xmlns="http://www.w3.org/2000/svg" width="1679.9" height="148" viewBox="0 0 1679.9 148">
  <g id="グループ_20597" data-name="グループ 20597" transform="translate(10.9 -1297)">
    <path id="パス_3900" data-name="パス 3900" d="M-1068.9-141.619h42.4l60.2,97.871h.4v-97.871h31.2V-.781h-40.8l-61.8-100.258h-.4V-.781h-31.2Zm164.2,0h96.2v28.645h-65v26.258h61.4v28.645h-61.4v28.645h68.6V-.781h-99.8Zm110,0h34l22.6,90.312h.4l29.6-90.312h29l29.4,92.7h.4l23.8-92.7h31.6L-635.3-.781h-27.8l-31.2-97.473h-.4L-725.9-.781h-26.8Zm275.2,0h95v28.645h-63.8v28.645h59v28.645h-59v54.9h-31.2Zm236.8,86.532a67.6,67.6,0,0,1-3.8,23.075,50.732,50.732,0,0,1-11.3,18.3A51.787,51.787,0,0,1-316.5-1.576,70.553,70.553,0,0,1-342.3,2.8q-14.8,0-26-4.376A51.787,51.787,0,0,1-387-13.711a50.732,50.732,0,0,1-11.3-18.3,67.6,67.6,0,0,1-3.8-23.075v-86.532h31.2v85.339a34.127,34.127,0,0,0,2.1,12.134,28.962,28.962,0,0,0,5.9,9.648,26.79,26.79,0,0,0,9.1,6.366,28.707,28.707,0,0,0,11.5,2.288,28,28,0,0,0,11.4-2.288,27.049,27.049,0,0,0,9-6.366,28.963,28.963,0,0,0,5.9-9.648,34.127,34.127,0,0,0,2.1-12.134v-85.339h31.2Zm28.8-86.532h42.4l60.2,97.871h.4v-97.871h31.2V-.781h-40.8l-61.8-100.258h-.4V-.781h-31.2Zm255.6,36.6a30.58,30.58,0,0,0-11.3-8.554,37.777,37.777,0,0,0-15.5-2.984,39.191,39.191,0,0,0-16.3,3.382,38.989,38.989,0,0,0-13,9.449A43.99,43.99,0,0,0-63-89.3a51.637,51.637,0,0,0-3.1,18.1A51.405,51.405,0,0,0-63-53a45.184,45.184,0,0,0,8.5,14.323,38.506,38.506,0,0,0,12.7,9.449,36.893,36.893,0,0,0,15.7,3.382,35.341,35.341,0,0,0,17-3.978A33.767,33.767,0,0,0,3.1-40.963l26,19.3A54.085,54.085,0,0,1,6.3-3.168,70.873,70.873,0,0,1-22.1,2.8,87.66,87.66,0,0,1-52.7-2.372a70.11,70.11,0,0,1-24.2-14.82A67.173,67.173,0,0,1-92.8-40.566,79.167,79.167,0,0,1-98.5-71.2a79.167,79.167,0,0,1,5.7-30.634,67.173,67.173,0,0,1,15.9-23.374,70.11,70.11,0,0,1,24.2-14.82A87.661,87.661,0,0,1-22.1-145.2a75.328,75.328,0,0,1,12.5,1.094,67.827,67.827,0,0,1,12.8,3.481,57.148,57.148,0,0,1,12.1,6.366,48.02,48.02,0,0,1,10.4,9.747Zm71.8-9.151H33.1v-27.452h112v27.452H104.7V-.781H73.5Zm87-27.452h31.2V-.781H160.5Zm52,70.419a79.167,79.167,0,0,1,5.7-30.634,67.173,67.173,0,0,1,15.9-23.374,70.11,70.11,0,0,1,24.2-14.82,87.661,87.661,0,0,1,30.6-5.172,87.661,87.661,0,0,1,30.6,5.172,70.11,70.11,0,0,1,24.2,14.82,67.173,67.173,0,0,1,15.9,23.374A79.168,79.168,0,0,1,365.3-71.2a79.168,79.168,0,0,1-5.7,30.634,67.173,67.173,0,0,1-15.9,23.374,70.11,70.11,0,0,1-24.2,14.82A87.66,87.66,0,0,1,288.9,2.8a87.66,87.66,0,0,1-30.6-5.172,70.11,70.11,0,0,1-24.2-14.82,67.173,67.173,0,0,1-15.9-23.374A79.167,79.167,0,0,1,212.5-71.2Zm32.4,0A51.405,51.405,0,0,0,248-53a41.655,41.655,0,0,0,8.9,14.323,40.63,40.63,0,0,0,13.9,9.449,46.559,46.559,0,0,0,18.1,3.382A46.559,46.559,0,0,0,307-29.227a40.63,40.63,0,0,0,13.9-9.449A41.655,41.655,0,0,0,329.8-53a51.4,51.4,0,0,0,3.1-18.2,51.636,51.636,0,0,0-3.1-18.1,41.468,41.468,0,0,0-8.9-14.422,40.63,40.63,0,0,0-13.9-9.449,46.559,46.559,0,0,0-18.1-3.382,46.559,46.559,0,0,0-18.1,3.382,40.63,40.63,0,0,0-13.9,9.449A41.467,41.467,0,0,0,248-89.3,51.637,51.637,0,0,0,244.9-71.2Zm141.6-70.419h42.4l60.2,97.871h.4v-97.871h31.2V-.781H479.9L418.1-101.039h-.4V-.781H386.5Z" transform="translate(1058 1442.2)" fill="#b7002e"/>
    <rect id="長方形_5920" data-name="長方形 5920" width="90" height="141" transform="translate(1579 1301)" fill="none"/>
  </g>
</svg>
