<svg xmlns="http://www.w3.org/2000/svg" width="3399.5" height="148.8" viewBox="0 0 3399.5 148.8">
  <g id="グループ_20602" data-name="グループ 20602" transform="translate(221.5 -10068)">
    <path id="パス_3837" data-name="パス 3837" d="M-1557.9-107a22.219,22.219,0,0,0-10.3-7.1,36.914,36.914,0,0,0-12.3-2.3,32.228,32.228,0,0,0-7,.8,26.828,26.828,0,0,0-6.8,2.5,14.823,14.823,0,0,0-5.2,4.5,11.392,11.392,0,0,0-2,6.8,11.272,11.272,0,0,0,4.8,9.8,45.456,45.456,0,0,0,12.1,5.8q7.3,2.4,15.7,4.8a64.689,64.689,0,0,1,15.7,6.8,37.168,37.168,0,0,1,12.1,11.8q4.8,7.4,4.8,19.8a45.522,45.522,0,0,1-4.4,20.6,41.8,41.8,0,0,1-11.9,14.6A50.638,50.638,0,0,1-1570,.8a76.449,76.449,0,0,1-20.9,2.8,75.818,75.818,0,0,1-25.6-4.2,64.149,64.149,0,0,1-22-13.6l22.2-24.4a32.408,32.408,0,0,0,12.1,9.9,34.541,34.541,0,0,0,15.1,3.5,34.163,34.163,0,0,0,7.7-.9,25.082,25.082,0,0,0,7-2.7,15.1,15.1,0,0,0,5-4.6,11.469,11.469,0,0,0,1.9-6.6,11.974,11.974,0,0,0-4.9-10.1,45.162,45.162,0,0,0-12.3-6.3q-7.4-2.6-16-5.2a71.854,71.854,0,0,1-16-7A38.558,38.558,0,0,1-1629-80.2q-4.9-7.2-4.9-19a42.536,42.536,0,0,1,4.5-20,43.389,43.389,0,0,1,12-14.4,52.166,52.166,0,0,1,17.3-8.7,70.814,70.814,0,0,1,20.2-2.9,79.424,79.424,0,0,1,23.2,3.4,53.51,53.51,0,0,1,20.2,11.4Zm72.2-7h-40.4v-27.6h112V-114h-40.4V0h-31.2Zm88.6-27.6h96.2v28.8h-65v26.4h61.4v28.8h-61.4v28.8h68.6V0h-99.8Zm124.8,0h52.6a103.886,103.886,0,0,1,20.8,2,47.3,47.3,0,0,1,17.1,6.9,34.882,34.882,0,0,1,11.6,13.2q4.3,8.3,4.3,20.9,0,12.4-4,20.8a34.12,34.12,0,0,1-11,13.4,44.593,44.593,0,0,1-16.6,7.1,97.293,97.293,0,0,1-20.8,2.1h-22.8V0h-31.2Zm31.2,60h20.8a40.218,40.218,0,0,0,8.1-.8,21.569,21.569,0,0,0,7-2.7,14.405,14.405,0,0,0,5-5.2,16.441,16.441,0,0,0,1.9-8.3,14.039,14.039,0,0,0-2.5-8.7,16.624,16.624,0,0,0-6.4-5.1,27.394,27.394,0,0,0-8.7-2.3,88.893,88.893,0,0,0-9.2-.5h-16Zm181.4-32.4h-40.4v-27.6h112V-114h-40.4V0h-31.2Zm79.8,43.2a79.973,79.973,0,0,1,5.7-30.8,67.552,67.552,0,0,1,15.9-23.5A70.047,70.047,0,0,1-934.1-140a87.236,87.236,0,0,1,30.6-5.2,87.236,87.236,0,0,1,30.6,5.2,70.047,70.047,0,0,1,24.2,14.9,67.552,67.552,0,0,1,15.9,23.5,79.973,79.973,0,0,1,5.7,30.8A79.973,79.973,0,0,1-832.8-40a67.552,67.552,0,0,1-15.9,23.5A70.047,70.047,0,0,1-872.9-1.6a87.236,87.236,0,0,1-30.6,5.2,87.236,87.236,0,0,1-30.6-5.2,70.047,70.047,0,0,1-24.2-14.9A67.552,67.552,0,0,1-974.2-40,79.973,79.973,0,0,1-979.9-70.8Zm32.4,0a51.934,51.934,0,0,0,3.1,18.3,41.917,41.917,0,0,0,8.9,14.4,40.621,40.621,0,0,0,13.9,9.5,46.34,46.34,0,0,0,18.1,3.4,46.339,46.339,0,0,0,18.1-3.4,40.621,40.621,0,0,0,13.9-9.5,41.916,41.916,0,0,0,8.9-14.4,51.933,51.933,0,0,0,3.1-18.3A52.167,52.167,0,0,0-862.6-89a41.729,41.729,0,0,0-8.9-14.5,40.621,40.621,0,0,0-13.9-9.5,46.339,46.339,0,0,0-18.1-3.4,46.34,46.34,0,0,0-18.1,3.4,40.621,40.621,0,0,0-13.9,9.5A41.73,41.73,0,0,0-944.4-89,52.168,52.168,0,0,0-947.5-70.8Zm193.2,0a79.973,79.973,0,0,1,5.7-30.8,67.552,67.552,0,0,1,15.9-23.5A70.047,70.047,0,0,1-708.5-140a87.236,87.236,0,0,1,30.6-5.2,87.236,87.236,0,0,1,30.6,5.2,70.047,70.047,0,0,1,24.2,14.9,67.552,67.552,0,0,1,15.9,23.5,79.973,79.973,0,0,1,5.7,30.8A79.973,79.973,0,0,1-607.2-40a67.552,67.552,0,0,1-15.9,23.5A70.047,70.047,0,0,1-647.3-1.6a87.236,87.236,0,0,1-30.6,5.2,87.236,87.236,0,0,1-30.6-5.2,70.047,70.047,0,0,1-24.2-14.9A67.552,67.552,0,0,1-748.6-40,79.973,79.973,0,0,1-754.3-70.8Zm32.4,0a51.934,51.934,0,0,0,3.1,18.3,41.917,41.917,0,0,0,8.9,14.4A40.621,40.621,0,0,0-696-28.6a46.339,46.339,0,0,0,18.1,3.4,46.339,46.339,0,0,0,18.1-3.4,40.621,40.621,0,0,0,13.9-9.5A41.917,41.917,0,0,0-637-52.5a51.934,51.934,0,0,0,3.1-18.3A52.168,52.168,0,0,0-637-89a41.73,41.73,0,0,0-8.9-14.5,40.621,40.621,0,0,0-13.9-9.5,46.339,46.339,0,0,0-18.1-3.4A46.339,46.339,0,0,0-696-113a40.621,40.621,0,0,0-13.9,9.5A41.73,41.73,0,0,0-718.8-89,52.168,52.168,0,0,0-721.9-70.8Zm141.6-70.8h52.6a103.886,103.886,0,0,1,20.8,2,47.3,47.3,0,0,1,17.1,6.9,34.881,34.881,0,0,1,11.6,13.2q4.3,8.3,4.3,20.9,0,12.4-4,20.8a34.12,34.12,0,0,1-11,13.4,44.593,44.593,0,0,1-16.6,7.1,97.294,97.294,0,0,1-20.8,2.1h-22.8V0h-31.2Zm31.2,60h20.8a40.218,40.218,0,0,0,8.1-.8,21.568,21.568,0,0,0,7-2.7,14.4,14.4,0,0,0,5-5.2,16.442,16.442,0,0,0,1.9-8.3,14.039,14.039,0,0,0-2.5-8.7,16.624,16.624,0,0,0-6.4-5.1,27.394,27.394,0,0,0-8.7-2.3,88.891,88.891,0,0,0-9.2-.5h-16Zm96-60h96.2v28.8h-65v26.4h61.4v28.8h-61.4v28.8h68.6V0h-99.8Zm124.8,0h42.4l60.2,98.4h.4v-98.4h31.2V0h-40.8l-61.8-100.8h-.4V0h-31.2Zm162.6,0h31.2V0h-31.2Zm59.6,0h42.4L-3.5-43.2h.4v-98.4H28.1V0H-12.7L-74.5-100.8h-.4V0h-31.2ZM185.1-10A112.947,112.947,0,0,1,156.3.4a146.256,146.256,0,0,1-30.6,3.2A87.236,87.236,0,0,1,95.1-1.6,70.047,70.047,0,0,1,70.9-16.5,67.552,67.552,0,0,1,55-40a79.973,79.973,0,0,1-5.7-30.8A79.973,79.973,0,0,1,55-101.6a67.552,67.552,0,0,1,15.9-23.5A70.047,70.047,0,0,1,95.1-140a87.236,87.236,0,0,1,30.6-5.2,113.253,113.253,0,0,1,31.3,4.1A61.283,61.283,0,0,1,182.1-127l-22,24a43.834,43.834,0,0,0-14.4-10q-8-3.4-20-3.4a46.339,46.339,0,0,0-18.1,3.4,40.621,40.621,0,0,0-13.9,9.5A41.729,41.729,0,0,0,84.8-89a52.168,52.168,0,0,0-3.1,18.2,51.934,51.934,0,0,0,3.1,18.3,41.916,41.916,0,0,0,8.9,14.4,40.621,40.621,0,0,0,13.9,9.5,46.34,46.34,0,0,0,18.1,3.4,59.634,59.634,0,0,0,17.6-2.3,66.421,66.421,0,0,0,11.8-4.7v-23H129.7V-84h55.4ZM318.3-141.6h25.8L405.7,0H370.5L358.3-30h-55L291.5,0H257.1Zm12,41.2-17.2,44h34.6Zm89.6-41.2h42.4l60.2,98.4h.4v-98.4h31.2V0H513.3L451.5-100.8h-.4V0H419.9Zm268.8,0h25.8L776.1,0H740.9L728.7-30h-55L661.9,0H627.5Zm12,41.2-17.2,44h34.6Zm182.2-4.4a30.6,30.6,0,0,0-11.3-8.6,37.6,37.6,0,0,0-15.5-3,39.011,39.011,0,0,0-16.3,3.4,39,39,0,0,0-13,9.5A44.277,44.277,0,0,0,818.2-89a52.168,52.168,0,0,0-3.1,18.2,51.934,51.934,0,0,0,3.1,18.3,45.481,45.481,0,0,0,8.5,14.4,38.524,38.524,0,0,0,12.7,9.5,36.726,36.726,0,0,0,15.7,3.4,35.187,35.187,0,0,0,17-4,33.835,33.835,0,0,0,12.2-11.2l26,19.4A54.143,54.143,0,0,1,887.5-2.4a70.547,70.547,0,0,1-28.4,6,87.236,87.236,0,0,1-30.6-5.2,70.047,70.047,0,0,1-24.2-14.9A67.552,67.552,0,0,1,788.4-40a79.973,79.973,0,0,1-5.7-30.8,79.973,79.973,0,0,1,5.7-30.8,67.552,67.552,0,0,1,15.9-23.5A70.047,70.047,0,0,1,828.5-140a87.236,87.236,0,0,1,30.6-5.2,74.934,74.934,0,0,1,12.5,1.1,67.541,67.541,0,0,1,12.8,3.5,57.041,57.041,0,0,1,12.1,6.4,48.125,48.125,0,0,1,10.4,9.8Zm137,0a30.6,30.6,0,0,0-11.3-8.6,37.6,37.6,0,0,0-15.5-3,39.011,39.011,0,0,0-16.3,3.4,39,39,0,0,0-13,9.5A44.277,44.277,0,0,0,955.2-89a52.168,52.168,0,0,0-3.1,18.2,51.934,51.934,0,0,0,3.1,18.3,45.481,45.481,0,0,0,8.5,14.4,38.524,38.524,0,0,0,12.7,9.5,36.726,36.726,0,0,0,15.7,3.4,35.187,35.187,0,0,0,17-4,33.835,33.835,0,0,0,12.2-11.2l26,19.4a54.143,54.143,0,0,1-22.8,18.6,70.547,70.547,0,0,1-28.4,6,87.236,87.236,0,0,1-30.6-5.2,70.047,70.047,0,0,1-24.2-14.9A67.552,67.552,0,0,1,925.4-40a79.973,79.973,0,0,1-5.7-30.8,79.973,79.973,0,0,1,5.7-30.8,67.552,67.552,0,0,1,15.9-23.5A70.047,70.047,0,0,1,965.5-140a87.236,87.236,0,0,1,30.6-5.2,74.934,74.934,0,0,1,12.5,1.1,67.541,67.541,0,0,1,12.8,3.5,57.038,57.038,0,0,1,12.1,6.4,48.125,48.125,0,0,1,10.4,9.8Zm36.8,34a79.974,79.974,0,0,1,5.7-30.8,67.55,67.55,0,0,1,15.9-23.5,70.046,70.046,0,0,1,24.2-14.9,87.236,87.236,0,0,1,30.6-5.2,87.237,87.237,0,0,1,30.6,5.2,70.046,70.046,0,0,1,24.2,14.9,67.554,67.554,0,0,1,15.9,23.5,79.974,79.974,0,0,1,5.7,30.8,79.974,79.974,0,0,1-5.7,30.8,67.553,67.553,0,0,1-15.9,23.5,70.046,70.046,0,0,1-24.2,14.9,87.236,87.236,0,0,1-30.6,5.2,87.236,87.236,0,0,1-30.6-5.2,70.046,70.046,0,0,1-24.2-14.9A67.55,67.55,0,0,1,1062.4-40,79.974,79.974,0,0,1,1056.7-70.8Zm32.4,0a51.932,51.932,0,0,0,3.1,18.3,41.917,41.917,0,0,0,8.9,14.4,40.621,40.621,0,0,0,13.9,9.5,46.34,46.34,0,0,0,18.1,3.4,46.34,46.34,0,0,0,18.1-3.4,40.62,40.62,0,0,0,13.9-9.5,41.915,41.915,0,0,0,8.9-14.4,51.934,51.934,0,0,0,3.1-18.3A52.168,52.168,0,0,0,1174-89a41.728,41.728,0,0,0-8.9-14.5,40.62,40.62,0,0,0-13.9-9.5,46.34,46.34,0,0,0-18.1-3.4A46.34,46.34,0,0,0,1115-113a40.622,40.622,0,0,0-13.9,9.5,41.73,41.73,0,0,0-8.9,14.5A52.166,52.166,0,0,0,1089.1-70.8Zm261,16.2a68.3,68.3,0,0,1-3.8,23.2A51.052,51.052,0,0,1,1335-13,51.761,51.761,0,0,1,1316.3-.8a70.213,70.213,0,0,1-25.8,4.4q-14.8,0-26-4.4A51.761,51.761,0,0,1,1245.8-13a51.052,51.052,0,0,1-11.3-18.4,68.3,68.3,0,0,1-3.8-23.2v-87h31.2v85.8a34.477,34.477,0,0,0,2.1,12.2,29.147,29.147,0,0,0,5.9,9.7,26.79,26.79,0,0,0,9.1,6.4,28.574,28.574,0,0,0,11.5,2.3,27.868,27.868,0,0,0,11.4-2.3,27.05,27.05,0,0,0,9-6.4,29.147,29.147,0,0,0,5.9-9.7,34.477,34.477,0,0,0,2.1-12.2v-85.8h31.2Zm28.8-87h42.4l60.2,98.4h.4v-98.4h31.2V0h-40.8l-61.8-100.8h-.4V0h-31.2ZM1569.3-114h-40.4v-27.6h112V-114h-40.4V0h-31.2Z" transform="translate(1417 10213.2)" fill="#f2bd00"/>
    <rect id="長方形_5923" data-name="長方形 5923" width="120" height="142" transform="translate(3058 10072)" fill="none"/>
  </g>
</svg>
