<svg xmlns="http://www.w3.org/2000/svg" width="1229.6" height="159" viewBox="0 0 1229.6 159">
  <g id="グループ_20609" data-name="グループ 20609" transform="translate(222.6 -6930)">
    <path id="パス_3980" data-name="パス 3980" d="M-1063.4-104.8a30.6,30.6,0,0,0-11.3-8.6,37.6,37.6,0,0,0-15.5-3,39.011,39.011,0,0,0-16.3,3.4,39,39,0,0,0-13,9.5,44.277,44.277,0,0,0-8.6,14.5,52.166,52.166,0,0,0-3.1,18.2,51.932,51.932,0,0,0,3.1,18.3,45.48,45.48,0,0,0,8.5,14.4,38.522,38.522,0,0,0,12.7,9.5,36.726,36.726,0,0,0,15.7,3.4,35.186,35.186,0,0,0,17-4A33.835,33.835,0,0,0-1062-40.4l26,19.4a54.143,54.143,0,0,1-22.8,18.6,70.547,70.547,0,0,1-28.4,6,87.236,87.236,0,0,1-30.6-5.2A70.046,70.046,0,0,1-1142-16.5,67.55,67.55,0,0,1-1157.9-40a79.974,79.974,0,0,1-5.7-30.8,79.974,79.974,0,0,1,5.7-30.8,67.55,67.55,0,0,1,15.9-23.5,70.046,70.046,0,0,1,24.2-14.9,87.236,87.236,0,0,1,30.6-5.2,74.934,74.934,0,0,1,12.5,1.1,67.542,67.542,0,0,1,12.8,3.5,57.038,57.038,0,0,1,12.1,6.4,48.125,48.125,0,0,1,10.4,9.8Zm91-36.8h25.8L-885,0h-35.2l-12.2-30h-55L-999.2,0h-34.4Zm12,41.2-17.2,44H-943Zm89.6-41.2h47.2L-791-49.2h.4l32.8-92.4h47V0H-742V-108.6h-.4L-779.6,0h-23.8l-35.8-108.6h-.4V0h-31.2Zm188.8,0h52.6a103.886,103.886,0,0,1,20.8,2,47.3,47.3,0,0,1,17.1,6.9,34.881,34.881,0,0,1,11.6,13.2q4.3,8.3,4.3,20.9,0,12.4-4,20.8a34.12,34.12,0,0,1-11,13.4,44.593,44.593,0,0,1-16.6,7.1A97.294,97.294,0,0,1-628-55.2h-22.8V0H-682Zm31.2,60H-630a40.218,40.218,0,0,0,8.1-.8,21.568,21.568,0,0,0,7-2.7,14.4,14.4,0,0,0,5-5.2,16.442,16.442,0,0,0,1.9-8.3,14.038,14.038,0,0,0-2.5-8.7,16.624,16.624,0,0,0-6.4-5.1,27.394,27.394,0,0,0-8.7-2.3,88.891,88.891,0,0,0-9.2-.5h-16Zm126.6-60h25.8L-436.8,0H-472l-12.2-30h-55L-551,0h-34.4Zm12,41.2-17.2,44h34.6Zm89.2-41.2h31.2V0H-423ZM-235.2-10A112.947,112.947,0,0,1-264,.4a146.256,146.256,0,0,1-30.6,3.2,87.236,87.236,0,0,1-30.6-5.2,70.047,70.047,0,0,1-24.2-14.9A67.552,67.552,0,0,1-365.3-40,79.973,79.973,0,0,1-371-70.8a79.973,79.973,0,0,1,5.7-30.8,67.552,67.552,0,0,1,15.9-23.5A70.047,70.047,0,0,1-325.2-140a87.236,87.236,0,0,1,30.6-5.2,113.253,113.253,0,0,1,31.3,4.1A61.283,61.283,0,0,1-238.2-127l-22,24a43.833,43.833,0,0,0-14.4-10q-8-3.4-20-3.4a46.34,46.34,0,0,0-18.1,3.4,40.621,40.621,0,0,0-13.9,9.5A41.729,41.729,0,0,0-335.5-89a52.168,52.168,0,0,0-3.1,18.2,51.934,51.934,0,0,0,3.1,18.3,41.916,41.916,0,0,0,8.9,14.4,40.621,40.621,0,0,0,13.9,9.5,46.34,46.34,0,0,0,18.1,3.4A59.634,59.634,0,0,0-277-27.5a66.421,66.421,0,0,0,11.8-4.7v-23h-25.4V-84h55.4Zm27.4-131.6h42.4l60.2,98.4h.4v-98.4h31.2V0h-40.8l-61.8-100.8h-.4V0h-31.2Z" transform="translate(941 7085)" fill="#b7002e"/>
    <rect id="長方形_5922" data-name="長方形 5922" width="141" height="159" transform="translate(866 6930)" fill="none"/>
  </g>
</svg>
