<svg xmlns="http://www.w3.org/2000/svg" width="176.32" height="117.12" viewBox="0 0 176.32 117.12">
  <path id="パス_3902" data-name="パス 3902" d="M-89.44-56.64A117.4,117.4,0,0,1-87.6-77.12,60,60,0,0,1-81.04-96a39.067,39.067,0,0,1,12.88-13.84q8.16-5.36,20.8-5.36t20.8,5.36A39.067,39.067,0,0,1-13.68-96,60.005,60.005,0,0,1-7.12-77.12,117.4,117.4,0,0,1-5.28-56.64,117.4,117.4,0,0,1-7.12-36.16a60.005,60.005,0,0,1-6.56,18.88A39.066,39.066,0,0,1-26.56-3.44q-8.16,5.36-20.8,5.36t-20.8-5.36A39.067,39.067,0,0,1-81.04-17.28,60,60,0,0,1-87.6-36.16,117.4,117.4,0,0,1-89.44-56.64Zm24,0q0,4.48.4,10.72a52.391,52.391,0,0,0,2.16,12,25.487,25.487,0,0,0,5.36,9.76q3.6,4,10.16,4,6.4,0,10.08-4a24.935,24.935,0,0,0,5.44-9.76,52.391,52.391,0,0,0,2.16-12q.4-6.24.4-10.72t-.4-10.72a52.391,52.391,0,0,0-2.16-12,24.935,24.935,0,0,0-5.44-9.76q-3.68-4-10.08-4-6.56,0-10.16,4a25.487,25.487,0,0,0-5.36,9.76,52.391,52.391,0,0,0-2.16,12Q-65.44-61.12-65.44-56.64ZM7.84-25.44l44-39.52a82.728,82.728,0,0,0,6.72-6.88,13.184,13.184,0,0,0,3.36-8.96,10.877,10.877,0,0,0-4.16-9.04A15.3,15.3,0,0,0,48-93.12q-6.72,0-10.48,4.16a16.775,16.775,0,0,0-4.24,10.24l-24-1.76a39.045,39.045,0,0,1,3.68-15.28,32.108,32.108,0,0,1,8.48-10.8,35.706,35.706,0,0,1,12.4-6.48,52.96,52.96,0,0,1,15.44-2.16,46.791,46.791,0,0,1,14.4,2.16,33.54,33.54,0,0,1,11.68,6.4A29.1,29.1,0,0,1,83.12-96a36.849,36.849,0,0,1,2.8,14.88,39.927,39.927,0,0,1-1.12,9.84,33.316,33.316,0,0,1-3.12,8,36.528,36.528,0,0,1-4.72,6.64,77.485,77.485,0,0,1-5.92,5.92l-34.4,29.6H86.88V0H7.84Z" transform="translate(89.44 115.2)" fill="#c9d5e3"/>
</svg>
