<svg xmlns="http://www.w3.org/2000/svg" width="176" height="117.12" viewBox="0 0 176 117.12">
  <path id="パス_3903" data-name="パス 3903" d="M-89.44-56.64A117.4,117.4,0,0,1-87.6-77.12,60,60,0,0,1-81.04-96a39.067,39.067,0,0,1,12.88-13.84q8.16-5.36,20.8-5.36t20.8,5.36A39.067,39.067,0,0,1-13.68-96,60.005,60.005,0,0,1-7.12-77.12,117.4,117.4,0,0,1-5.28-56.64,117.4,117.4,0,0,1-7.12-36.16a60.005,60.005,0,0,1-6.56,18.88A39.066,39.066,0,0,1-26.56-3.44q-8.16,5.36-20.8,5.36t-20.8-5.36A39.067,39.067,0,0,1-81.04-17.28,60,60,0,0,1-87.6-36.16,117.4,117.4,0,0,1-89.44-56.64Zm24,0q0,4.48.4,10.72a52.391,52.391,0,0,0,2.16,12,25.487,25.487,0,0,0,5.36,9.76q3.6,4,10.16,4,6.4,0,10.08-4a24.935,24.935,0,0,0,5.44-9.76,52.391,52.391,0,0,0,2.16-12q.4-6.24.4-10.72t-.4-10.72a52.391,52.391,0,0,0-2.16-12,24.935,24.935,0,0,0-5.44-9.76q-3.68-4-10.08-4-6.56,0-10.16,4a25.487,25.487,0,0,0-5.36,9.76,52.391,52.391,0,0,0-2.16,12Q-65.44-61.12-65.44-56.64Zm100-12H42.4a44.169,44.169,0,0,0,6.56-.48,18.721,18.721,0,0,0,5.84-1.84,10.9,10.9,0,0,0,4.24-3.84,11.781,11.781,0,0,0,1.6-6.48,10.527,10.527,0,0,0-4.08-8.48,15.213,15.213,0,0,0-10-3.36,14.085,14.085,0,0,0-9.28,3.04,13.935,13.935,0,0,0-4.8,7.52L6.08-88a36.352,36.352,0,0,1,5.76-12.56,31.719,31.719,0,0,1,9.12-8.4,40.259,40.259,0,0,1,11.76-4.72A59.743,59.743,0,0,1,46.4-115.2a56.418,56.418,0,0,1,14.48,1.84,35.533,35.533,0,0,1,12.24,5.76,28.821,28.821,0,0,1,8.4,9.84,29.816,29.816,0,0,1,3.12,14.08,26.455,26.455,0,0,1-4.96,16.16q-4.96,6.72-14.4,8.64v.48a22.415,22.415,0,0,1,9.04,3.04,24.41,24.41,0,0,1,6.64,5.92,25.946,25.946,0,0,1,4.16,8A30.66,30.66,0,0,1,86.56-32a32.2,32.2,0,0,1-3.28,14.88,31.108,31.108,0,0,1-8.8,10.64A37.673,37.673,0,0,1,61.52-.16,58.284,58.284,0,0,1,45.76,1.92q-15.2,0-26.16-7.04T5.12-27.36L30.4-33.28a17.243,17.243,0,0,0,5.2,9.6q3.92,3.52,11.6,3.52,7.84,0,11.6-4.08a14.858,14.858,0,0,0,3.76-10.48q0-4.8-2-7.44a11.95,11.95,0,0,0-5.2-3.92,23,23,0,0,0-7.2-1.52q-4-.24-8-.24h-5.6Z" transform="translate(89.44 115.2)" fill="#c9d5e3"/>
</svg>
