<svg xmlns="http://www.w3.org/2000/svg" xmlns:xlink="http://www.w3.org/1999/xlink" width="1440" height="746" viewBox="0 0 1440 746">
  <defs>
    <clipPath id="clip-path">
      <rect id="長方形_6125" data-name="長方形 6125" width="1440" height="746" transform="translate(0 13097)" fill="rgba(240,125,125,0.52)" stroke="#707070" stroke-width="1"/>
    </clipPath>
    <clipPath id="clip-path-2">
      <rect id="長方形_6101" data-name="長方形 6101" width="1058.727" height="769.408" fill="none"/>
    </clipPath>
    <clipPath id="clip-path-3">
      <rect id="長方形_6102" data-name="長方形 6102" width="1011.953" height="488.223" fill="none"/>
    </clipPath>
  </defs>
  <g id="マスクグループ_12" data-name="マスクグループ 12" transform="translate(0 -13097)" clip-path="url(#clip-path)">
    <g id="グループ_21176" data-name="グループ 21176" transform="translate(-1 13219.152)">
      <g id="グループ_21171" data-name="グループ 21171" transform="translate(0)">
        <g id="グループ_21170" data-name="グループ 21170" clip-path="url(#clip-path-2)">
          <path id="パス_4888" data-name="パス 4888" d="M982.123,534.223s11.748-4.229,21.616-18.444,10.574-21.734,10.574-21.734l16.212,3.29a73.72,73.72,0,0,1-1.527,18.21c-2.115,10.574-13.98,32.66-28.313,43.82s-31.133,14.1-31.133,14.1l-3.642,5.757L893.19,561.479s15.507-17.975,26.2-22.439a50.109,50.109,0,0,1,21.5-3.994l2.937-3.994s-1.536-7.343-.474-11.66,4.7-3.377,4.7-3.377,3.524-2.7,4.347-6.344,1.88-8.576,1.88-8.576a46.6,46.6,0,0,0,14.1,6.344c7.989,2,13.628.117,13.628.117l1.057,10.691s2.35,9.516-.94,15.978" transform="translate(-599.558 -146.857)" fill="#fff"/>
          <path id="パス_4889" data-name="パス 4889" d="M974.907,528.407s-.725,3.583-5.7,3.172c-12.1-1-23.32,6.109-24.2-2-.272-2.5,6.7,1.292,5.757-9.046-.592-6.51,9.138-19.411,14.407-27.144s10.994-11.46,16.448-12.923a11.512,11.512,0,0,1,9.095,1.052s8.676-2.307,16.281,1.65,14.715,12.48,17.27,18.444.456,10.159-1.41,14.332-7.754,7.167-7.754,7.167a31.107,31.107,0,0,0-.117-6.462c-.433-3.683-2-12.453-2-12.453a54.572,54.572,0,0,1-11.228,0c-10.122-1.51-15.579-6.441-15.579-6.441s-1.345,8.355-3.571,11.6-3.7,4.013-3.7,4.013-3.357-.587-4.3,1.845-1.086,8.025.063,9.664a8.8,8.8,0,0,0,1.762,2.056Z" transform="translate(-630.818 -142.686)" fill="#ffc417"/>
          <path id="パス_4890" data-name="パス 4890" d="M888.712,452.568l1.88-18.445a3.868,3.868,0,0,1,3.642-2.937c2.938,0,3.172,4.465,3.172,4.465v9.4a22.441,22.441,0,0,1,5.4,1.762c3.524,1.528,8.459,5.052,8.694,7.167s-.235,5.287-1.645,6.344-2.35,1.644-2.35,3.524-.94,5.521-2.349,6.7-2.585,2.349-2.585,2.349l-1.528,5.757-14.1-3.407,1.175-6.814s-4.229-10.221-6.109-12.688-3.994-3.525-3.642-5.992,3.994-2.35,5.4-1.645,4.934,4.465,4.934,4.465" transform="translate(-470.08 -128.172)" fill="#fff"/>
          <path id="パス_4891" data-name="パス 4891" d="M1036.468,497.334l-16.212-3.29s-7.519,21.969-18.914,31.72-13.276,8.459-13.276,8.459-3.76,6.7-8.459,7.636a29.89,29.89,0,0,1-8.106.587,53.385,53.385,0,0,1-4.112,13.393c-2.937,5.874-10.808,15.038-10.808,15.038s-7.754-9.751-9.4-19.737a106.528,106.528,0,0,1-1.644-15.507,35.9,35.9,0,0,0-21.617,3.877c-10.808,5.874-30.624,28.407-30.624,28.407l72.721,18.327,9.477-12.782s22.791-5.051,38.886-21.5,20.56-37.594,20.56-37.594Z" transform="translate(-605.501 -146.857)" fill="#ffc417"/>
          <path id="パス_4892" data-name="パス 4892" d="M997.022,524.977a2.305,2.305,0,1,1-2.466-2.132,2.305,2.305,0,0,1,2.466,2.132" transform="translate(-635.718 -155.416)"/>
          <path id="パス_4893" data-name="パス 4893" d="M973.785,523.473a2.305,2.305,0,1,1-2.466-2.132,2.3,2.3,0,0,1,2.466,2.132" transform="translate(-596.152 -154.969)"/>
          <path id="パス_4894" data-name="パス 4894" d="M967.725,553.278c.507,0,1.012-.018,1.517-.058a17.376,17.376,0,0,0,12.607-6.69,20.028,20.028,0,0,0,3.916-13.851l-.592-7.766a2.189,2.189,0,0,0-2.382-2.044,2.218,2.218,0,0,0-2.044,2.382l.592,7.766a15.608,15.608,0,0,1-3,10.8A12.823,12.823,0,0,1,968.9,548.8a16.453,16.453,0,0,1-8.834-1.876,2.219,2.219,0,0,0-2.055,3.933,20.966,20.966,0,0,0,9.709,2.425" transform="translate(-599.508 -155.423)"/>
          <path id="パス_4895" data-name="パス 4895" d="M987.81,512.536c.748,0,1.506-.02,2.28-.06a2.219,2.219,0,1,0-.23-4.432,38.011,38.011,0,0,1-24.116-6.917,2.219,2.219,0,0,0-2.8,3.441,41.62,41.62,0,0,0,24.871,7.968" transform="translate(-609.597 -148.816)"/>
          <path id="パス_4896" data-name="パス 4896" d="M973.733,518.008a2.175,2.175,0,0,0,1.385-.5c.308-.254,1.942-1.732,3.79-5.857,2.178-4.862,2.063-13.362-10.862-26.24-10.377-10.339-23.564-7.7-24.125-7.581a2.22,2.22,0,0,0,.912,4.344,23.372,23.372,0,0,1,20.08,6.382c11.718,11.675,11.26,18.345,9.945,21.281a13.962,13.962,0,0,1-2.6,4.279,2.229,2.229,0,0,0,1.478,3.89" transform="translate(-583.341 -141.923)"/>
          <path id="パス_4897" data-name="パス 4897" d="M1003.7,522.557a2.213,2.213,0,0,0,1.467-.554,19.812,19.812,0,0,0,5.567-9.722,2.219,2.219,0,0,0-4.339-.932,15.442,15.442,0,0,1-4.163,7.323,2.22,2.22,0,0,0,1.467,3.885" transform="translate(-655.843 -151.481)"/>
          <path id="パス_4898" data-name="パス 4898" d="M1016.33,531.374a9.142,9.142,0,0,0,6.352-3.032,7.39,7.39,0,0,0,1.486-7.331c-1.079-3.5,1.786-7.2,4.82-11.116a33.429,33.429,0,0,0,4.869-7.557l.637-1.626c2.076-5.364,3.871-10,12.958-16.074a2.219,2.219,0,1,0-2.467-3.689c-10.255,6.857-12.479,12.6-14.63,18.16l-.62,1.585a30.085,30.085,0,0,1-4.256,6.482c-3.426,4.422-7.312,9.434-5.555,15.141a2.951,2.951,0,0,1-.46,2.956,4.893,4.893,0,0,1-3.155,1.664,2.28,2.28,0,0,0-2.486,1.9,2.147,2.147,0,0,0,1.716,2.472,4.433,4.433,0,0,0,.789.066" transform="translate(-702.158 -142.853)"/>
          <path id="パス_4899" data-name="パス 4899" d="M1013.693,537.99a6.8,6.8,0,0,0,2.5-.46,2.22,2.22,0,0,0-1.656-4.119,2.393,2.393,0,0,1-2.473-.532,4.577,4.577,0,0,1-.68-2.067l-.161-1.181a5.424,5.424,0,0,1,.1-2.207c.334-.6.843-1.187,2.405-1.16h.061a2.219,2.219,0,0,0,.056-4.437,6.788,6.788,0,0,0-6.4,3.433,8.971,8.971,0,0,0-.618,4.985l.167,1.226a8.177,8.177,0,0,0,1.933,4.547,6.609,6.609,0,0,0,4.765,1.972" transform="translate(-666.314 -155.114)"/>
          <path id="パス_4900" data-name="パス 4900" d="M1017.06,538.432a3.728,3.728,0,1,1-4.2-3.187,3.728,3.728,0,0,1,4.2,3.187" transform="translate(-667.887 -159.094)" fill="#ffc417"/>
          <path id="パス_4901" data-name="パス 4901" d="M1012.414,543.947a5.962,5.962,0,0,0,4.748-2.354,5.943,5.943,0,1,0-4.748,2.354m.017-7.457a1.509,1.509,0,0,1,.2,3,1.467,1.467,0,0,1-1.116-.294,1.508,1.508,0,0,1,.706-2.7,1.525,1.525,0,0,1,.21-.014m3.689,1h0Z" transform="translate(-666.946 -158.154)"/>
          <path id="パス_4902" data-name="パス 4902" d="M981.57,539.681a14.384,14.384,0,0,0,4.247-.6,2.219,2.219,0,0,0-1.322-4.237,12.413,12.413,0,0,1-5.583.138,2.219,2.219,0,0,0-1,4.324,17.569,17.569,0,0,0,3.661.372" transform="translate(-614.668 -158.955)"/>
          <path id="パス_4903" data-name="パス 4903" d="M986.761,547.438a2.219,2.219,0,0,0,1.745-3.589c-1.027-1.308-1.68-4.292-1.851-5.867a2.219,2.219,0,0,0-4.413.472c.056.544.626,5.4,2.77,8.134a2.218,2.218,0,0,0,1.749.85" transform="translate(-620.509 -159.328)"/>
          <path id="パス_4904" data-name="パス 4904" d="M1010.76,581.864a13.359,13.359,0,0,0,1.389-.058,2.221,2.221,0,0,0,1.961-2.45,2.191,2.191,0,0,0-2.445-1.96,22.489,22.489,0,0,1-9.564-1.755,2.218,2.218,0,1,0-1.66,4.115,28.056,28.056,0,0,0,10.318,2.11" transform="translate(-657.476 -171.063)"/>
          <path id="パス_4905" data-name="パス 4905" d="M1020.894,582.892a2.215,2.215,0,0,0,1.664-.751c.12-.135,12.12-13.69,22.656-21.784,9.991-7.676,24.708-6.262,24.851-6.247a2.219,2.219,0,0,0,.462-4.415c-.672-.074-16.6-1.631-28.017,7.142-10.882,8.36-22.78,21.8-23.28,22.368a2.219,2.219,0,0,0,1.664,3.687" transform="translate(-729.656 -163.354)"/>
          <path id="パス_4906" data-name="パス 4906" d="M893.221,534.961a2.208,2.208,0,0,0,.867-.178c19.567-8.306,28.611-32.2,30.936-39.381,3.539.784,10.847,2.422,14.24,3.329a2.219,2.219,0,0,0,1.144-4.289c-4.646-1.242-15.959-3.711-16.438-3.817a2.227,2.227,0,0,0-2.614,1.583c-.08.3-8.348,29.721-29,38.489a2.22,2.22,0,0,0,.867,4.263" transform="translate(-509.476 -145.826)"/>
          <path id="パス_4907" data-name="パス 4907" d="M892.752,589.533a2.211,2.211,0,0,0,1.638-.722,64.163,64.163,0,0,0,7.031-9.567c4.926-1.64,29.751-10.435,41.7-24.975,19.848-24.146,19.765-45.307,19.751-46.2a2.219,2.219,0,0,0-2.219-2.187h-.032a2.222,2.222,0,0,0-2.187,2.252c0,.2,0,20.507-18.742,43.312-12.179,14.815-40.145,23.737-40.427,23.825A2.231,2.231,0,0,0,898,576.3a60.759,60.759,0,0,1-6.889,9.519,2.218,2.218,0,0,0,1.638,3.715" transform="translate(-529.969 -150.377)"/>
          <path id="パス_4908" data-name="パス 4908" d="M882.033,462.081a2.222,2.222,0,0,0,2.039-3.1,5.788,5.788,0,0,0-3.3-3.4,5.155,5.155,0,0,0-3.933.221,2.22,2.22,0,0,0,1.963,3.982c.238-.1.674-.263,1.192.949a2.22,2.22,0,0,0,2.039,1.345" transform="translate(-440.868 -135.338)"/>
          <path id="パス_4909" data-name="パス 4909" d="M906.405,477.336c.058,0,.12,0,.178-.006a2.217,2.217,0,0,0,2.037-2.375,17.892,17.892,0,0,0-2.2-6.769,25.249,25.249,0,0,1-1.188-2.554c-1.067-2.521-2.273-5.38-5.36-7.5-.624-.428-.916-.916-.824-1.373a.567.567,0,0,1,.273-.42,3.309,3.309,0,0,1,3.261.638c.254.176.505.348.769.509a18.225,18.225,0,0,1,2.989,3.637,2.224,2.224,0,0,0,1.51.964c3.177.494,6.482,1.857,6.8,2.8a2.218,2.218,0,1,0,4.209-1.4c-1.2-3.6-6.647-5.094-9.368-5.621a17.021,17.021,0,0,0-3.83-4.174c-.188-.115-.368-.242-.55-.368a7.507,7.507,0,0,0-6.686-1.337,4.884,4.884,0,0,0-3.727,3.889,5.738,5.738,0,0,0,2.661,5.909c2.018,1.385,2.837,3.323,3.784,5.569a29.207,29.207,0,0,0,1.411,3.008,13.58,13.58,0,0,1,1.638,4.931,2.227,2.227,0,0,0,2.211,2.037" transform="translate(-488.921 -134.286)"/>
          <path id="パス_4910" data-name="パス 4910" d="M900.251,445.15s.594-7.208.856-10.8c.148-2.026,1.333-1.994,1.32-1.986a1.881,1.881,0,0,1,.811,1.546c-.007,1.059.19,11.209.19,11.209l4.439-.086s-.2-10.046-.191-11.1a6.063,6.063,0,0,0-4.18-5.873,5.183,5.183,0,0,0-4.209.89,6.474,6.474,0,0,0-2.605,5.076c-.262,3.579-.854,10.759-.856,10.761Z" transform="translate(-478.678 -127.201)"/>
          <path id="パス_4911" data-name="パス 4911" d="M894.648,454.437a2.222,2.222,0,0,0,2.039-3.1,5.8,5.8,0,0,0-3.305-3.4,5.147,5.147,0,0,0-3.931.224,2.22,2.22,0,0,0,1.963,3.981c.238-.1.674-.26,1.194.95a2.223,2.223,0,0,0,2.039,1.344" transform="translate(-462.347 -133.065)"/>
          <path id="パス_4912" data-name="パス 4912" d="M888.505,457.686a2.222,2.222,0,0,0,2.039-3.1,5.8,5.8,0,0,0-3.3-3.4,5.153,5.153,0,0,0-3.931.223,2.22,2.22,0,0,0,1.964,3.981c.24-.1.674-.26,1.194.95a2.223,2.223,0,0,0,2.039,1.344" transform="translate(-451.887 -134.031)"/>
          <path id="パス_4913" data-name="パス 4913" d="M877.724,482.558a2.212,2.212,0,0,0,1.591-.672c3.155-3.242,3.946-7.964,4.126-10.708a5.909,5.909,0,0,0,3.535-3.445,20.509,20.509,0,0,0,.7-6.272,2.22,2.22,0,0,0-4.439.112,17.37,17.37,0,0,1-.407,4.579,1.357,1.357,0,0,1-.933.856,2.111,2.111,0,0,0-2.026.316,2.194,2.194,0,0,0-.828,1.927c0,.058.3,6.238-2.909,9.54a2.219,2.219,0,0,0,1.591,3.767" transform="translate(-444.212 -136.529)"/>
          <path id="パス_4914" data-name="パス 4914" d="M1065.891,506.671,985.06,485.685s9.848-18.856,26.822-27.7,30.587-7.373,30.587-7.373l2.218-5.022s-4.652.735-7.174-3.1a15.948,15.948,0,0,1-2.183-8.764l9.3-1.29-.737-5.279,3.189-8.517s1.243-2.69,3.392-2.609,13.8,3.079,13.8,3.079l19.236-2.852,1.108,8.679a9.615,9.615,0,0,1,2.352,6.168,10.331,10.331,0,0,1-1.769,5.467,33.472,33.472,0,0,1,.479,7.786,16.852,16.852,0,0,1-.611,3.852s13.376-5.595,22.767-15.4c9.985-10.425,15.992-30.59,15.992-30.59l2.061.44.788-4.479s-2.819-11.179-5.25-14.481-4.494-4.548-3.968-7.5,4.826-1.989,4.826-1.989l4.942,4.635,1.9-18.091s.882-3.226,3.479-3.058,3.325,3.209,3.325,3.209l.493,11.368s.443-1.255,3.85-.015,9.869,5.511,10.236,7.837a11.474,11.474,0,0,1-1.227,6.63,2.642,2.642,0,0,1-2.5,1.532s-.865,7.7-2.646,10.126-2.228,2.426-2.228,2.426l-1.142,5.376,2.24.618a140.844,140.844,0,0,1-8.37,33.872c-6.648,16.588-19.941,28.009-27.262,33.052s-28.765,15.332-28.765,15.332Z" transform="translate(-784.128 -106.324)" fill="#fff"/>
          <path id="パス_4915" data-name="パス 4915" d="M1138.945,490.957a50.179,50.179,0,0,0,2.637,10.463,33.566,33.566,0,0,0,6.126,9.554l-9.992,8.723a74.825,74.825,0,0,1-5.056-10.812c-3.44-9.565-2.84-16.282-2.84-16.282Z" transform="translate(-882.929 -145.939)" fill="#ffc417"/>
          <path id="パス_4916" data-name="パス 4916" d="M1105.823,505.7s-2.126,5.648-4.356,7.805-6.7,4.056-6.7,4.056l4.7,11.261s9.2-6.034,10.227-17.05Z" transform="translate(-820.313 -150.32)" fill="#ffc417"/>
          <path id="パス_4917" data-name="パス 4917" d="M1130.4,434.519l-17.057,2.619-15.052-4.212a3.611,3.611,0,0,0-2.661,1.266c-.747,1.2-3.944,9.573-3.944,9.573l.748,5.371-8.112,1.246-6.8-7.391s-2.446-8.859,2.746-15.476,8.609-5.59,8.609-5.59,5.414-9.212,18.751-9.785,18.547,6.077,21.375,8.824a20.423,20.423,0,0,1,4.284,7.18Z" transform="translate(-831.381 -122.5)" fill="#ffc417"/>
          <path id="パス_4918" data-name="パス 4918" d="M1086.674,459.841a2.342,2.342,0,1,1-2.539-2.127,2.341,2.341,0,0,1,2.539,2.127" transform="translate(-788.326 -136.055)"/>
          <path id="パス_4919" data-name="パス 4919" d="M1116.453,462.1a2.342,2.342,0,1,1-2.539-2.127,2.342,2.342,0,0,1,2.539,2.127" transform="translate(-839.033 -136.726)"/>
          <path id="パス_4920" data-name="パス 4920" d="M1137.693,520.487a2.214,2.214,0,0,0,1.987-1.229c5.249-10.524,19.249-19.947,23.484-22.009,12.671-6.17,27.309-5.8,27.443-5.806a2.181,2.181,0,0,0,2.285-2.151,2.219,2.219,0,0,0-2.148-2.285c-.635-.022-15.844-.408-29.521,6.252-4.774,2.325-19.689,12.337-25.512,24.019a2.218,2.218,0,0,0,1.983,3.209" transform="translate(-932.116 -144.762)"/>
          <path id="パス_4921" data-name="パス 4921" d="M1133.93,488.675a2.219,2.219,0,0,0,2.035-1.332l2.182-4.991a2.218,2.218,0,1,0-4.065-1.777l-2.183,4.991a2.217,2.217,0,0,0,1.145,2.921,2.191,2.191,0,0,0,.886.188" transform="translate(-874.913 -142.457)"/>
          <path id="パス_4922" data-name="パス 4922" d="M1092.2,496.82a23.2,23.2,0,0,0,3.541-.27c11.323-1.738,18.122-12.257,16.165-25.011a2.219,2.219,0,0,0-4.387.674c1.567,10.212-3.669,18.6-12.451,19.951a19.234,19.234,0,0,1-12.32-2.26,18.472,18.472,0,0,1-4.711-3.783,2.219,2.219,0,0,0-3.311,2.956,22.92,22.92,0,0,0,5.838,4.691,23.706,23.706,0,0,0,11.635,3.053" transform="translate(-808.369 -139.608)"/>
          <path id="パス_4923" data-name="パス 4923" d="M1139.817,480.811a10,10,0,0,0,3.381-.578,2.22,2.22,0,0,0-1.61-4.137,4.727,4.727,0,0,1-4.406-.636c-.576-.489-1.082-2.365-1.175-3.743a2.219,2.219,0,0,0-4.429.283c.05.8.416,4.884,2.735,6.848a8.345,8.345,0,0,0,5.5,1.963" transform="translate(-881.086 -139.604)"/>
          <path id="パス_4924" data-name="パス 4924" d="M1082.556,449.817a2.22,2.22,0,0,0,1.684-3.666l-4.129-4.8c-.327-1.676-1.185-7.609,1.8-12.441,3.247-5.259,7.252-5.656,7.29-5.659a2.22,2.22,0,0,0,1.923-1.4c.1-.245,2.9-6.58,14.4-8.421a22.98,22.98,0,0,1,21.3,7.3,30.768,30.768,0,0,1,3.394,4.4l-1.365,4.145a2.22,2.22,0,0,0,4.217,1.387l1.643-4.992a2.235,2.235,0,0,0,.041-1.246c-.156-.6-.912-2.449-4.6-6.629a27.35,27.35,0,0,0-25.332-8.746c-11.2,1.792-15.747,7.519-17.229,10.009-2.074.526-6.178,2.207-9.458,7.518-4.512,7.308-2.313,15.991-2.217,16.357a2.247,2.247,0,0,0,.464.884l4.493,5.231a2.217,2.217,0,0,0,1.684.772" transform="translate(-831.757 -121.471)"/>
          <path id="パス_4925" data-name="パス 4925" d="M1101.434,445.382a2.143,2.143,0,0,0,.336-.026l11.566-1.776a2.219,2.219,0,0,0-.672-4.387l-11.129,1.709-10.645-2.63a2.219,2.219,0,0,0-1.066,4.309l11.076,2.736a2.243,2.243,0,0,0,.533.065" transform="translate(-821.176 -130.259)"/>
          <path id="パス_4926" data-name="パス 4926" d="M1081.571,467.968a10.066,10.066,0,0,0,1.723-.148,10,10,0,0,0,5.255-17.045,2.219,2.219,0,1,0-3.082,3.193,5.565,5.565,0,1,1-4.822-1.489,2.219,2.219,0,0,0-.754-4.373,10,10,0,0,0,1.68,19.863" transform="translate(-785.924 -133.191)"/>
          <path id="パス_4927" data-name="パス 4927" d="M1111.369,470.225a9.916,9.916,0,0,0,1.705-.148,10,10,0,0,0,5.258-17.042,2.219,2.219,0,0,0-3.087,3.188,5.567,5.567,0,1,1-4.822-1.486,2.219,2.219,0,0,0-.755-4.373,10,10,0,0,0,1.7,19.861" transform="translate(-836.63 -133.863)"/>
          <path id="パス_4928" data-name="パス 4928" d="M1097.98,466.059a2.253,2.253,0,0,0,.282-.018l3.434-.436a2.219,2.219,0,1,0-.559-4.4l-3.436.436a2.219,2.219,0,0,0,.277,4.421" transform="translate(-814.952 -137.09)"/>
          <path id="パス_4929" data-name="パス 4929" d="M1096.952,484.763a15.039,15.039,0,0,0,5.825-1,2.219,2.219,0,1,0-1.8-4.055,13.788,13.788,0,0,1-5.748.538,2.22,2.22,0,0,0-.485,4.412,21.447,21.447,0,0,0,2.211.108" transform="translate(-813.307 -142.537)"/>
          <path id="パス_4930" data-name="パス 4930" d="M1103.53,492.5a2.219,2.219,0,0,0,1.45-3.9c-1.7-1.468-2.08-4.541-2.083-5.6a2.223,2.223,0,0,0-2.217-2.217h0a2.215,2.215,0,0,0-2.219,2.205c0,.6.076,5.912,3.621,8.973a2.207,2.207,0,0,0,1.45.54" transform="translate(-818.96 -142.915)"/>
          <path id="パス_4931" data-name="パス 4931" d="M1135.4,523.263a2.223,2.223,0,0,0,2.115-2.892l-2.464-7.755a2.226,2.226,0,0,0-.525-.874,31.1,31.1,0,0,1-7.366-12.947,2.219,2.219,0,0,0-4.323,1,35.058,35.058,0,0,0,8.14,14.653l2.308,7.265a2.225,2.225,0,0,0,2.115,1.548" transform="translate(-867.917 -147.76)"/>
          <path id="パス_4932" data-name="パス 4932" d="M1144.634,524.927a2.221,2.221,0,0,0,1.4-.5l4.044-3.278a2.22,2.22,0,0,0-2.8-3.448l-2.013,1.633a45.455,45.455,0,0,1-3.612-9.047,83.051,83.051,0,0,1-1.841-8.75,2.246,2.246,0,0,0-2.334-2.1,2.219,2.219,0,0,0-2.1,2.334,81.674,81.674,0,0,0,1.991,9.675,48.942,48.942,0,0,0,5.4,12.457,2.224,2.224,0,0,0,1.514.99,2.124,2.124,0,0,0,.351.028" transform="translate(-890.054 -148.461)"/>
          <path id="パス_4933" data-name="パス 4933" d="M996.911,465.378a2.19,2.19,0,0,0,1.049-.266c21.511-11.576,30.316-34.633,32.572-41.673,3.706.821,11.567,2.58,15.2,3.551a2.219,2.219,0,0,0,1.144-4.289c-4.919-1.314-16.9-3.931-17.411-4.042a2.227,2.227,0,0,0-2.62,1.606c-.074.283-7.687,28.4-30.989,40.939a2.219,2.219,0,0,0,1.053,4.173" transform="translate(-688.812 -124.433)"/>
          <path id="パス_4934" data-name="パス 4934" d="M996.414,525.9a2.213,2.213,0,0,0,1.513-.6,56.214,56.214,0,0,0,9.55-11.8c4.82-1.862,30.246-12.192,42.919-27.61,21-25.549,20.914-47.925,20.9-48.865a2.216,2.216,0,0,0-2.219-2.183h-.028a2.221,2.221,0,0,0-2.19,2.246c0,.214.008,21.777-19.891,45.984-12.984,15.795-41.5,26.446-41.788,26.552A2.225,2.225,0,0,0,1004,510.64a51.524,51.524,0,0,1-9.1,11.415,2.219,2.219,0,0,0,1.513,3.843" transform="translate(-711.237 -129.258)"/>
          <path id="パス_4935" data-name="パス 4935" d="M988.673,388.909a2.222,2.222,0,0,0,2.039-3.1,5.847,5.847,0,0,0-3.332-3.437,5.2,5.2,0,0,0-3.968.224,2.219,2.219,0,0,0,1.963,3.98c.241-.1.713-.283,1.259.984a2.222,2.222,0,0,0,2.039,1.345" transform="translate(-622.402 -113.576)"/>
          <path id="パス_4936" data-name="パス 4936" d="M1013.439,404.409c.058,0,.119,0,.18-.006a2.215,2.215,0,0,0,2.035-2.375,18.113,18.113,0,0,0-2.231-6.862,25.628,25.628,0,0,1-1.209-2.6c-1.082-2.558-2.306-5.457-5.436-7.6-.644-.442-.947-.951-.85-1.429a.6.6,0,0,1,.306-.456,3.382,3.382,0,0,1,3.342.654c.258.177.513.353.78.517a18.2,18.2,0,0,1,3.051,3.708,2.217,2.217,0,0,0,1.508.963c3.238.5,6.608,1.9,6.93,2.873a2.22,2.22,0,0,0,4.214-1.4c-1.217-3.651-6.751-5.158-9.505-5.69a17.371,17.371,0,0,0-3.89-4.243c-.19-.117-.375-.245-.561-.374a7.623,7.623,0,0,0-6.766-1.352,4.927,4.927,0,0,0-3.76,3.926,5.8,5.8,0,0,0,2.689,5.966c2.059,1.413,2.893,3.386,3.857,5.673a29.485,29.485,0,0,0,1.433,3.053,13.829,13.829,0,0,1,1.67,5.026,2.226,2.226,0,0,0,2.211,2.036" transform="translate(-671.225 -112.508)"/>
          <path id="パス_4937" data-name="パス 4937" d="M1007.148,371.742s.6-7.325.871-10.977A2.611,2.611,0,0,1,1008.7,359a1.148,1.148,0,0,1,.7-.29,1.957,1.957,0,0,1,.854,1.605c0,1.082.2,11.389.2,11.389l4.438-.086s-.2-10.212-.195-11.283a6.2,6.2,0,0,0-4.219-5.927,5.232,5.232,0,0,0-4.246.9,6.542,6.542,0,0,0-2.631,5.133c-.266,3.635-.869,10.931-.871,10.933Z" transform="translate(-660.817 -105.309)"/>
          <path id="パス_4938" data-name="パス 4938" d="M1001.489,381.142a2.222,2.222,0,0,0,2.039-3.1,5.851,5.851,0,0,0-3.337-3.436,5.183,5.183,0,0,0-3.964.225,2.22,2.22,0,0,0,1.966,3.98c.234-.1.713-.284,1.257.984a2.225,2.225,0,0,0,2.039,1.344" transform="translate(-644.224 -111.267)"/>
          <path id="パス_4939" data-name="パス 4939" d="M995.247,384.443a2.222,2.222,0,0,0,2.039-3.1,5.852,5.852,0,0,0-3.333-3.437,5.194,5.194,0,0,0-3.968.225,2.22,2.22,0,0,0,1.966,3.98c.237-.1.715-.282,1.257.982a2.222,2.222,0,0,0,2.039,1.345" transform="translate(-633.596 -112.248)"/>
          <path id="パス_4940" data-name="パス 4940" d="M984.3,409.713a2.21,2.21,0,0,0,1.59-.672c3.208-3.3,4.006-8.1,4.186-10.881a5.962,5.962,0,0,0,3.59-3.481,20.8,20.8,0,0,0,.706-6.363,2.189,2.189,0,0,0-2.275-2.16,2.219,2.219,0,0,0-2.163,2.274,17.374,17.374,0,0,1-.414,4.667,1.409,1.409,0,0,1-.98.89,2.109,2.109,0,0,0-2.03.316,2.194,2.194,0,0,0-.835,1.925c0,.058.308,6.354-2.967,9.72a2.219,2.219,0,0,0,1.591,3.767" transform="translate(-625.801 -114.786)"/>
          <path id="パス_4941" data-name="パス 4941" d="M1104.284,527.627a2.217,2.217,0,0,0,1.706-.8l5.071-6.07a20.393,20.393,0,0,0,8.777-5.2,2.219,2.219,0,0,0-3.151-3.125,15.664,15.664,0,0,1-7.275,4.167,2.249,2.249,0,0,0-1.292.758l-5.537,6.628a2.218,2.218,0,0,0,1.7,3.642" transform="translate(-836.228 -152.128)"/>
          <path id="パス_4942" data-name="パス 4942" d="M1098.365,535.376a2.222,2.222,0,0,0,1.437-.528,44.423,44.423,0,0,0,8.854-11.485,2.22,2.22,0,0,0-3.875-2.167,45.985,45.985,0,0,1-5.667,8.038l-.812-1.918a2.22,2.22,0,0,0-4.088,1.732l2.107,4.975a2.219,2.219,0,0,0,2.043,1.353" transform="translate(-819.044 -154.59)"/>
        </g>
      </g>
      <g id="グループ_21173" data-name="グループ 21173" transform="translate(46.773 19.496)">
        <g id="グループ_21172" data-name="グループ 21172" clip-path="url(#clip-path-3)">
          <path id="パス_4943" data-name="パス 4943" d="M1187.236,641.969H437.744V451.633Z" transform="translate(-482.906 -153.746)" fill="#ffc417"/>
          <path id="パス_4944" data-name="パス 4944" d="M1116.745,684.818a2.251,2.251,0,0,0,.55-4.433L205.559,449.2a2.25,2.25,0,1,0-1.1,4.363L1116.19,684.748a2.206,2.206,0,0,0,.555.07" transform="translate(-249.526 -153)" fill="#fff"/>
          <path id="パス_4945" data-name="パス 4945" d="M1116.747,792.542a2.251,2.251,0,0,0,.55-4.433L205.559,556.923a2.25,2.25,0,1,0-1.105,4.363l911.739,231.186a2.2,2.2,0,0,0,.555.07" transform="translate(-249.529 -185.022)" fill="#fff"/>
          <path id="パス_4946" data-name="パス 4946" d="M1116.745,738.681a2.251,2.251,0,0,0,.55-4.433L205.559,503.061a2.25,2.25,0,1,0-1.1,4.363L1116.19,738.61a2.206,2.206,0,0,0,.555.07" transform="translate(-249.526 -169.012)" fill="#fff"/>
          <path id="パス_4947" data-name="パス 4947" d="M1116.747,846.4a2.251,2.251,0,0,0,.55-4.433L205.559,610.784a2.25,2.25,0,1,0-1.105,4.363l911.739,231.188a2.208,2.208,0,0,0,.555.07" transform="translate(-249.529 -201.033)" fill="#fff"/>
          <path id="パス_4948" data-name="パス 4948" d="M1116.747,954.129a2.251,2.251,0,0,0,.55-4.433L205.559,718.508a2.25,2.25,0,1,0-1.105,4.363l911.739,231.188a2.205,2.205,0,0,0,.555.07" transform="translate(-249.529 -233.054)" fill="#fff"/>
          <path id="パス_4949" data-name="パス 4949" d="M1116.747,900.267a2.251,2.251,0,0,0,.55-4.433L205.559,664.647a2.25,2.25,0,1,0-1.105,4.363L1116.193,900.2a2.208,2.208,0,0,0,.555.07" transform="translate(-249.529 -217.044)" fill="#fff"/>
          <path id="パス_4950" data-name="パス 4950" d="M464.5,754.645a2.219,2.219,0,0,0,2.219-2.219V714.575a2.219,2.219,0,0,0-4.439,0v37.851a2.219,2.219,0,0,0,2.219,2.219" transform="translate(220.371 -231.247)" fill="#fff"/>
          <path id="パス_4951" data-name="パス 4951" d="M637.485,710.781a2.219,2.219,0,0,0,2.219-2.219V670.711a2.219,2.219,0,1,0-4.439,0v37.851a2.219,2.219,0,0,0,2.219,2.219" transform="translate(-74.182 -218.208)" fill="#fff"/>
          <path id="パス_4952" data-name="パス 4952" d="M550.991,732.714a2.219,2.219,0,0,0,2.219-2.219V692.644a2.219,2.219,0,0,0-4.439,0v37.851a2.219,2.219,0,0,0,2.219,2.219" transform="translate(73.096 -224.728)" fill="#fff"/>
          <path id="パス_4953" data-name="パス 4953" d="M810.469,666.918a2.219,2.219,0,0,0,2.219-2.219V626.848a2.219,2.219,0,0,0-4.439,0V664.7a2.219,2.219,0,0,0,2.219,2.219" transform="translate(-368.729 -205.169)" fill="#fff"/>
          <path id="パス_4954" data-name="パス 4954" d="M723.976,688.85a2.219,2.219,0,0,0,2.219-2.219V648.78a2.22,2.22,0,0,0-4.439,0v37.851a2.219,2.219,0,0,0,2.22,2.219" transform="translate(-221.453 -211.689)" fill="#fff"/>
          <path id="パス_4955" data-name="パス 4955" d="M983.456,623.054a2.219,2.219,0,0,0,2.219-2.219V582.984a2.219,2.219,0,1,0-4.438,0v37.851a2.219,2.219,0,0,0,2.219,2.219" transform="translate(-663.282 -192.131)" fill="#fff"/>
          <path id="パス_4956" data-name="パス 4956" d="M896.963,644.986a2.219,2.219,0,0,0,2.219-2.219V604.914a2.219,2.219,0,0,0-4.439,0v37.852a2.219,2.219,0,0,0,2.219,2.219" transform="translate(-516.007 -198.649)" fill="#fff"/>
          <path id="パス_4957" data-name="パス 4957" d="M1156.441,579.19a2.219,2.219,0,0,0,2.219-2.219V539.12a2.219,2.219,0,1,0-4.438,0v37.851a2.218,2.218,0,0,0,2.219,2.219" transform="translate(-957.831 -179.092)" fill="#fff"/>
          <path id="パス_4958" data-name="パス 4958" d="M1069.95,601.122a2.219,2.219,0,0,0,2.219-2.219V561.051a2.219,2.219,0,1,0-4.439,0V598.9a2.219,2.219,0,0,0,2.219,2.219" transform="translate(-810.559 -185.611)" fill="#fff"/>
          <path id="パス_4959" data-name="パス 4959" d="M1329.428,535.327a2.219,2.219,0,0,0,2.219-2.219V495.257a2.219,2.219,0,1,0-4.439,0v37.851a2.219,2.219,0,0,0,2.219,2.219" transform="translate(-1252.384 -166.053)" fill="#fff"/>
          <path id="パス_4960" data-name="パス 4960" d="M1242.934,557.258a2.219,2.219,0,0,0,2.219-2.219V517.187a2.219,2.219,0,0,0-4.439,0v37.852a2.219,2.219,0,0,0,2.219,2.219" transform="translate(-1105.107 -172.572)" fill="#fff"/>
          <path id="パス_4961" data-name="パス 4961" d="M1415.921,513.4a2.219,2.219,0,0,0,2.219-2.219V473.324a2.219,2.219,0,1,0-4.438,0v37.852a2.219,2.219,0,0,0,2.219,2.219" transform="translate(-1399.66 -159.534)" fill="#fff"/>
          <path id="パス_4962" data-name="パス 4962" d="M687.882,751.865a2.219,2.219,0,0,0,2.219-2.219V711.8a2.219,2.219,0,0,0-4.439,0v37.851a2.219,2.219,0,0,0,2.219,2.219" transform="translate(-159.995 -230.42)" fill="#fff"/>
          <path id="パス_4963" data-name="パス 4963" d="M860.866,708a2.219,2.219,0,0,0,2.219-2.219V667.931a2.219,2.219,0,0,0-4.439,0v37.851A2.219,2.219,0,0,0,860.866,708" transform="translate(-454.542 -217.382)" fill="#fff"/>
          <path id="パス_4964" data-name="パス 4964" d="M774.375,729.934a2.219,2.219,0,0,0,2.219-2.219V689.862a2.219,2.219,0,1,0-4.439,0v37.852a2.219,2.219,0,0,0,2.219,2.219" transform="translate(-307.27 -223.901)" fill="#fff"/>
          <path id="パス_4965" data-name="パス 4965" d="M1033.853,664.137a2.219,2.219,0,0,0,2.219-2.219V624.067a2.219,2.219,0,0,0-4.438,0v37.851a2.219,2.219,0,0,0,2.219,2.219" transform="translate(-749.095 -204.343)" fill="#fff"/>
          <path id="パス_4966" data-name="パス 4966" d="M947.36,686.07a2.219,2.219,0,0,0,2.219-2.219V646a2.219,2.219,0,1,0-4.439,0V683.85a2.219,2.219,0,0,0,2.219,2.219" transform="translate(-601.82 -210.862)" fill="#fff"/>
          <path id="パス_4967" data-name="パス 4967" d="M1206.84,620.274a2.219,2.219,0,0,0,2.219-2.219V580.2a2.219,2.219,0,1,0-4.438,0v37.851a2.219,2.219,0,0,0,2.219,2.219" transform="translate(-1043.648 -191.304)" fill="#fff"/>
          <path id="パス_4968" data-name="パス 4968" d="M1120.347,642.206a2.219,2.219,0,0,0,2.219-2.219V602.134a2.219,2.219,0,1,0-4.439,0v37.852a2.219,2.219,0,0,0,2.219,2.219" transform="translate(-896.372 -197.823)" fill="#fff"/>
          <path id="パス_4969" data-name="パス 4969" d="M1379.825,576.41a2.219,2.219,0,0,0,2.219-2.219V536.34a2.219,2.219,0,1,0-4.439,0v37.851a2.219,2.219,0,0,0,2.219,2.219" transform="translate(-1338.198 -178.265)" fill="#fff"/>
          <path id="パス_4970" data-name="パス 4970" d="M1293.331,598.343a2.219,2.219,0,0,0,2.219-2.219V558.271a2.219,2.219,0,1,0-4.438,0v37.852a2.219,2.219,0,0,0,2.219,2.219" transform="translate(-1190.92 -184.784)" fill="#fff"/>
          <path id="パス_4971" data-name="パス 4971" d="M983.456,730.778a2.219,2.219,0,0,0,2.219-2.219V690.708a2.219,2.219,0,1,0-4.438,0v37.851a2.219,2.219,0,0,0,2.219,2.219" transform="translate(-663.282 -224.152)" fill="#fff"/>
          <path id="パス_4972" data-name="パス 4972" d="M896.963,752.711a2.219,2.219,0,0,0,2.219-2.219V712.639a2.219,2.219,0,0,0-4.439,0v37.852a2.219,2.219,0,0,0,2.219,2.219" transform="translate(-516.007 -230.671)" fill="#fff"/>
          <path id="パス_4973" data-name="パス 4973" d="M1156.441,686.915a2.219,2.219,0,0,0,2.219-2.219V646.845a2.219,2.219,0,1,0-4.438,0V684.7a2.218,2.218,0,0,0,2.219,2.219" transform="translate(-957.831 -211.114)" fill="#fff"/>
          <path id="パス_4974" data-name="パス 4974" d="M1069.95,708.847a2.219,2.219,0,0,0,2.219-2.219V668.775a2.219,2.219,0,0,0-4.439,0v37.852a2.219,2.219,0,0,0,2.219,2.219" transform="translate(-810.559 -217.632)" fill="#fff"/>
          <path id="パス_4975" data-name="パス 4975" d="M1329.428,643.051a2.219,2.219,0,0,0,2.219-2.219V602.981a2.219,2.219,0,1,0-4.439,0v37.851a2.219,2.219,0,0,0,2.219,2.219" transform="translate(-1252.384 -198.075)" fill="#fff"/>
          <path id="パス_4976" data-name="パス 4976" d="M1242.934,664.984a2.219,2.219,0,0,0,2.219-2.219V624.912a2.219,2.219,0,0,0-4.439,0v37.852a2.219,2.219,0,0,0,2.219,2.219" transform="translate(-1105.107 -204.594)" fill="#fff"/>
          <path id="パス_4977" data-name="パス 4977" d="M1415.921,621.12a2.219,2.219,0,0,0,2.219-2.219V581.048a2.219,2.219,0,0,0-4.438,0V618.9a2.219,2.219,0,0,0,2.219,2.219" transform="translate(-1399.66 -191.555)" fill="#fff"/>
          <path id="パス_4978" data-name="パス 4978" d="M1206.84,728a2.219,2.219,0,0,0,2.219-2.219V687.928a2.219,2.219,0,1,0-4.438,0v37.851A2.219,2.219,0,0,0,1206.84,728" transform="translate(-1043.648 -223.326)" fill="#fff"/>
          <path id="パス_4979" data-name="パス 4979" d="M1120.347,749.929a2.219,2.219,0,0,0,2.219-2.219V709.859a2.219,2.219,0,0,0-4.439,0V747.71a2.219,2.219,0,0,0,2.219,2.219" transform="translate(-896.372 -229.845)" fill="#fff"/>
          <path id="パス_4980" data-name="パス 4980" d="M1379.825,684.135a2.219,2.219,0,0,0,2.219-2.219V644.065a2.219,2.219,0,0,0-4.439,0v37.851a2.219,2.219,0,0,0,2.219,2.219" transform="translate(-1338.198 -210.287)" fill="#fff"/>
          <path id="パス_4981" data-name="パス 4981" d="M1293.331,706.066a2.219,2.219,0,0,0,2.219-2.219V666a2.219,2.219,0,1,0-4.438,0v37.851a2.219,2.219,0,0,0,2.219,2.219" transform="translate(-1190.92 -216.806)" fill="#fff"/>
          <path id="パス_4982" data-name="パス 4982" d="M1329.428,750.776a2.219,2.219,0,0,0,2.219-2.219V710.706a2.219,2.219,0,1,0-4.439,0v37.851a2.219,2.219,0,0,0,2.219,2.219" transform="translate(-1252.384 -230.096)" fill="#fff"/>
          <path id="パス_4983" data-name="パス 4983" d="M1415.921,728.843a2.219,2.219,0,0,0,2.219-2.219V688.773a2.219,2.219,0,0,0-4.438,0v37.851a2.219,2.219,0,0,0,2.219,2.219" transform="translate(-1399.66 -223.577)" fill="#fff"/>
        </g>
      </g>
      <g id="グループ_21175" data-name="グループ 21175" transform="translate(0)">
        <g id="グループ_21174" data-name="グループ 21174" clip-path="url(#clip-path-2)">
          <path id="パス_4984" data-name="パス 4984" d="M529.733,435.683c3.091,9.16,5.6,11.667,14.758,14.758-9.16,3.091-11.667,5.6-14.758,14.758-3.091-9.16-5.6-11.667-14.758-14.758,9.16-3.091,11.667-5.6,14.758-14.758" transform="translate(152.339 -129.509)" fill="#fff"/>
          <path id="パス_4985" data-name="パス 4985" d="M528.8,466.481h0a2.219,2.219,0,0,0,2.1-1.51c2.867-8.5,4.865-10.5,13.363-13.366a2.217,2.217,0,0,0,0-4.2c-8.5-2.869-10.5-4.868-13.363-13.366a2.219,2.219,0,0,0-4.2,0c-2.869,8.5-4.867,10.5-13.367,13.366a2.218,2.218,0,0,0,0,4.2c8.5,2.869,10.5,4.868,13.367,13.366a2.217,2.217,0,0,0,2.1,1.51m8.721-16.978a16.844,16.844,0,0,0-8.721,8.721,16.851,16.851,0,0,0-8.722-8.721,16.85,16.85,0,0,0,8.722-8.721,16.843,16.843,0,0,0,8.721,8.721" transform="translate(153.277 -128.57)"/>
          <path id="パス_4986" data-name="パス 4986" d="M889.436,80.679c2.782,8.245,5.038,10.5,13.283,13.283-8.245,2.782-10.5,5.038-13.283,13.283-2.782-8.245-5.038-10.5-13.283-13.283,8.245-2.783,10.5-5.038,13.283-13.283" transform="translate(-459.704 -23.982)" fill="#fff"/>
          <path id="パス_4987" data-name="パス 4987" d="M888.5,108.524a2.217,2.217,0,0,0,2.1-1.509c2.553-7.56,4.33-9.338,11.889-11.89a2.218,2.218,0,0,0,0-4.205c-7.559-2.55-9.336-4.328-11.889-11.888a2.218,2.218,0,0,0-4.2,0c-2.553,7.562-4.33,9.339-11.89,11.888a2.22,2.22,0,0,0,0,4.207c7.559,2.551,9.337,4.328,11.89,11.889a2.217,2.217,0,0,0,2.1,1.509m7.34-15.5a15.081,15.081,0,0,0-7.34,7.342,15.076,15.076,0,0,0-7.34-7.342,15.073,15.073,0,0,0,7.34-7.34,15.075,15.075,0,0,0,7.34,7.34" transform="translate(-458.767 -23.044)"/>
          <path id="パス_4988" data-name="パス 4988" d="M1101.786,311.19c2.782,8.245,5.038,10.5,13.283,13.283-8.245,2.782-10.5,5.038-13.283,13.283-2.782-8.245-5.038-10.5-13.283-13.283,8.245-2.783,10.5-5.038,13.283-13.283" transform="translate(-821.282 -92.503)" fill="#fff"/>
          <path id="パス_4989" data-name="パス 4989" d="M1100.848,339.036a2.216,2.216,0,0,0,2.1-1.51c2.553-7.56,4.33-9.337,11.889-11.89a2.217,2.217,0,0,0,0-4.2c-7.559-2.552-9.336-4.33-11.889-11.891a2.219,2.219,0,0,0-4.2,0c-2.55,7.56-4.328,9.338-11.889,11.889a2.22,2.22,0,0,0,0,4.207c7.561,2.552,9.339,4.329,11.889,11.888a2.218,2.218,0,0,0,2.1,1.51m7.34-15.5a15.085,15.085,0,0,0-7.34,7.339,15.078,15.078,0,0,0-7.34-7.339,15.077,15.077,0,0,0,7.34-7.34,15.083,15.083,0,0,0,7.34,7.34" transform="translate(-820.345 -91.564)"/>
          <path id="パス_4990" data-name="パス 4990" d="M269.5,637.4c-2.782,8.245-5.038,10.5-13.283,13.283,8.245,2.782,10.5,5.038,13.283,13.283,2.782-8.245,5.038-10.5,13.283-13.283-8.245-2.783-10.5-5.038-13.283-13.283" transform="translate(595.887 -189.469)" fill="#fff"/>
          <path id="パス_4991" data-name="パス 4991" d="M268.561,665.245a2.218,2.218,0,0,0,2.1-1.51c2.553-7.56,4.33-9.337,11.889-11.89a2.217,2.217,0,0,0,0-4.2c-7.559-2.552-9.336-4.33-11.889-11.891a2.218,2.218,0,0,0-4.2,0c-2.553,7.56-4.33,9.338-11.89,11.891a2.218,2.218,0,0,0,0,4.2c7.559,2.553,9.337,4.33,11.89,11.89a2.218,2.218,0,0,0,2.1,1.51m7.34-15.5a15.078,15.078,0,0,0-7.34,7.342,15.078,15.078,0,0,0-7.34-7.342,15.078,15.078,0,0,0,7.34-7.342,15.078,15.078,0,0,0,7.34,7.342" transform="translate(596.828 -188.531)"/>
          <path id="パス_4992" data-name="パス 4992" d="M742.891,332.189s22.177-8.151,17.39-27.3c0,0-4-15.578-23.41-22.888s-25.064-3.394-28.98-2-13.141,9.139-13.838,19.059,1.393,12.793,5.744,15.752,15.229,5.744,15.229,5.744-4.525,4.874-4.612,9.922,5.047,8.354,5.047,8.354.7,12.706-2,18.1-6.788,6-6.788,6-4.526-8.267-9.66-12.966-15.056-14.361-15.317-14.621-11.488-16.275-11.488-16.275-1.3-1.914-4.786-2.176-5.482,6.18-5.482,6.18L656.546,333l-16.971,3.307-10.7-11.749s-3.568-1.566-6.353.261-6.614,22.193-6.614,22.193-9.138,11.4-10.269,22.713.174,14.273.174,14.273-18.537,5.656-26.108,14.012-9.138,14.446-9.138,14.446-4.351-1.306-5.656,1.479a17.74,17.74,0,0,0-1.219,6.7s-5.048,5.047-3.133,14.185,13.141,13.4,17.144,14.1,7.919-2.436,10.269-5.221,2.524-7.4,1.741-9.225a16.681,16.681,0,0,0-2.959-4s2.524-2.176,1.566-3.829-1.74-3.133-.261-5.135a17.975,17.975,0,0,1,10.356-6.092c4.612-.7,7.658-1.044,8.876.174s1.6,3.085-.493,13.181-10.235,17.561-7.363,28.961,11.4,16.933,14.972,19.022a26.521,26.521,0,0,0,8.713,2.7s-4.545,5.482-5.154,9.572-1.065,5.453-.368,7.978,5.133,6.68,9.572,4.417,1.611-5.526,6.136-6.136,14.592-1.452,20.249-5.89,5.645-11.9,5.645-11.9,20.183-8.33,28.1-8.59,10.576,2.171,13.622-.615,7.827-11.555,8.436-14.687-.32-6.488-2.67-7.446-3.611-1-6.135.657-4.661,4.936-6.75,3.8-4.293-2.878-6.382-3.313-6.259-1.595-6.259-1.595,9.044-11.449,11.045-21.108,2.176-14.012,5.831-15.753,19.723-8.68,26.077-17.382,11.734-22.089,12.517-31.662a95.224,95.224,0,0,0-.245-17.671s5.515-.366,7-2.455-.491-7.486-.491-7.486" transform="translate(-95.854 -82.548)" fill="#fff"/>
          <path id="パス_4993" data-name="パス 4993" d="M630.659,330.156c4.317,0,8.056-1.356,10.125-5.118A2.219,2.219,0,0,0,636.9,322.9c-3.226,5.867-16.52,1.594-26.927-3.844-5.65-2.954-7.5-10.49-4.505-18.328a2.219,2.219,0,1,0-4.144-1.586c-3.829,10.01-1.118,19.816,6.6,23.848,5.121,2.677,14.89,7.167,22.744,7.169" transform="translate(-3.698 -88.497)"/>
          <path id="パス_4994" data-name="パス 4994" d="M559.352,345.393a2.177,2.177,0,0,0,.538-.066c.21-.052,21.034-5.49,19.179-27.174a2.219,2.219,0,1,0-4.421.377c1.528,17.872-15.125,22.311-15.836,22.492a2.219,2.219,0,0,0,.54,4.371" transform="translate(88.016 -93.968)"/>
          <path id="パス_4995" data-name="パス 4995" d="M779.407,541.775a2.219,2.219,0,0,0,.252-4.424c-.759-.088-18.638-2.368-23.224-19.429-2.317-8.613.176-13.1,2.815-17.847a42.469,42.469,0,0,0,2.759-5.616c4.529-11.992,3.9-13.2,3.441-14.089a2.374,2.374,0,0,0-1.459-1.179,2.22,2.22,0,0,0-2.682,2.786c-.07.669-.529,3.172-3.453,10.913a38.113,38.113,0,0,1-2.488,5.03c-2.813,5.065-6,10.805-3.221,21.155,5.381,20.018,26.791,22.662,27.007,22.686a2.195,2.195,0,0,0,.252.014m-16.542-58.291h0Zm-.006,0h0Zm-.009,0h0m-.238-.08a2.108,2.108,0,0,0,.238.079,2.256,2.256,0,0,1-.238-.079" transform="translate(-250.71 -142.421)"/>
          <path id="パス_4996" data-name="パス 4996" d="M759.955,356.13l-6.009,1.1-11.3-12.022s-6.649-4.394-8.711,2.714c-1.459,5.032-11.192,33.614-11.192,33.614s14.822-.288,22.214-6.292a57.962,57.962,0,0,0,15-19.117" transform="translate(-209.131 -102.216)" fill="#ffc417"/>
          <path id="パス_4997" data-name="パス 4997" d="M689.047,403.553a12.759,12.759,0,0,0,8.322-3.332,2.219,2.219,0,0,0-3.1-3.174,8.249,8.249,0,0,1-5.929,2.031c-2.013-.212-4.079-2.112-4.7-2.826a2.219,2.219,0,0,0-3.355,2.905c.342.4,3.476,3.9,7.594,4.336a11.138,11.138,0,0,0,1.172.06" transform="translate(-116.991 -117.562)"/>
          <path id="パス_4998" data-name="パス 4998" d="M704.885,408.312a18.046,18.046,0,0,0,5.845-1.039c6.164-2.108,8.327-8.576,8.415-8.85a2.219,2.219,0,0,0-4.221-1.37c-.013.037-1.6,4.639-5.63,6.02-4.309,1.474-6.764.474-6.864.431a2.24,2.24,0,0,0-2.911,1.135,2.2,2.2,0,0,0,1.067,2.9,10.605,10.605,0,0,0,4.3.77" transform="translate(-151.974 -117.57)"/>
          <path id="パス_4999" data-name="パス 4999" d="M676.209,360.014a2.219,2.219,0,0,0,2.159-1.715c1.54-6.615,3.384-14.043,3.805-15.024a3.3,3.3,0,0,1,2.13-1.5,2.957,2.957,0,0,1,2.447.3c1,.708,6.33,6.434,10.905,11.559a2.217,2.217,0,0,0,2.057.706l16.3-2.992a2.221,2.221,0,0,0,1.684-1.42c2.249-6.151,5.169-13.439,5.957-14.484a2.274,2.274,0,0,1,1.671-.893,3.978,3.978,0,0,1,2.754,1.142c.7.715,4.8,6.468,8.342,11.611a2.219,2.219,0,0,0,3.654-2.519c-2.291-3.324-7.748-11.178-8.936-12.307a8.267,8.267,0,0,0-6.074-2.358,6.683,6.683,0,0,0-4.841,2.505c-1.363,1.648-4.56,10-6.257,14.585l-13.836,2.539c-2.629-2.928-9.135-10.105-10.823-11.3a7.355,7.355,0,0,0-6.124-.972,7.663,7.663,0,0,0-5.025,3.9c-.715,1.488-3.117,11.626-4.116,15.914a2.218,2.218,0,0,0,2.163,2.723" transform="translate(-155.385 -98.124)"/>
          <path id="パス_5000" data-name="パス 5000" d="M653.164,415.219a2.214,2.214,0,0,0,1.881-1.04c.479-.76,11.607-18.771,4.941-31.551-3.195-6.128-20.027-22.14-21.934-23.945A2.22,2.22,0,0,0,635,361.908c5.037,4.765,18.638,18.143,21.05,22.772,5.489,10.522-4.662,26.978-4.766,27.142a2.222,2.222,0,0,0,1.879,3.4" transform="translate(-49.138 -106.44)"/>
          <path id="パス_5001" data-name="パス 5001" d="M768.08,415.77a2.191,2.191,0,0,0,.349-.027,2.218,2.218,0,0,0,1.844-2.538c-3.479-21.973,7.666-33.276,8.14-33.747a2.219,2.219,0,0,0-3.1-3.173c-.544.53-13.276,13.266-9.419,37.613a2.218,2.218,0,0,0,2.189,1.872" transform="translate(-258.064 -111.666)"/>
          <path id="パス_5002" data-name="パス 5002" d="M679.481,378.708a3.435,3.435,0,1,0,2.725-4.022,3.436,3.436,0,0,0-2.725,4.022" transform="translate(-105.022 -111.359)"/>
          <path id="パス_5003" data-name="パス 5003" d="M722.531,386.505a3.435,3.435,0,1,0,2.725-4.022,3.435,3.435,0,0,0-2.725,4.022" transform="translate(-178.326 -113.676)"/>
          <path id="パス_5004" data-name="パス 5004" d="M702.411,424.8c6.569,0,9.614-5.82,10.313-8.976a2.22,2.22,0,0,0-4.335-.961c-.052.223-1.3,5.706-6.3,5.491-5.178-.234-6.852-10.262-6.87-10.363a2.219,2.219,0,0,0-4.389.661c.084.56,2.161,13.733,11.059,14.136.174.008.346.012.516.012" transform="translate(-139.516 -121.312)"/>
          <path id="パス_5005" data-name="パス 5005" d="M623.941,390.028a2.216,2.216,0,0,0,.778-.142c.455-.171,11.125-4.431,9.1-26.34a2.22,2.22,0,0,0-4.421.409c1.693,18.275-6.153,21.744-6.231,21.774a2.22,2.22,0,0,0,.778,4.3" transform="translate(-12.256 -107.468)"/>
          <path id="パス_5006" data-name="パス 5006" d="M605.573,364.411c5.938,0,9.8-1.322,11.731-4a6.969,6.969,0,0,0,.652-6.72l-1.389-3.153a2.219,2.219,0,1,0-4.062,1.788l1.4,3.176a2.558,2.558,0,0,1-.216,2.337c-.678.906-3.329,2.9-13.384,1.817-14.91-1.6-14.81-8.131-14.8-8.2a2.142,2.142,0,0,0-.013-.47,6.028,6.028,0,0,1,.734-3.417,2.219,2.219,0,1,0-3.779-2.328,10.352,10.352,0,0,0-1.377,6.14c0,1.748.885,10.763,18.766,12.685a53.759,53.759,0,0,0,5.743.339" transform="translate(31.885 -102.313)"/>
          <path id="パス_5007" data-name="パス 5007" d="M593.763,441.492a2.2,2.2,0,0,0,.805-.153c.545-.212,13.441-5.306,21.824-14.831,19.184-21.8,16.656-46.788,16.54-47.841a2.22,2.22,0,0,0-4.413.486,63.069,63.069,0,0,1-15.46,44.423c-7.674,8.722-19.979,13.579-20.1,13.628a2.22,2.22,0,0,0,.806,4.288" transform="translate(9.919 -111.974)"/>
          <path id="パス_5008" data-name="パス 5008" d="M781.949,457.626a2.218,2.218,0,0,0,2.037-1.336c8.127-18.7,31.6-24.733,31.832-24.791a2.219,2.219,0,0,0-1.064-4.309c-1.051.259-25.825,6.588-34.838,27.331a2.223,2.223,0,0,0,2.033,3.1" transform="translate(-306.729 -126.965)"/>
          <path id="パス_5009" data-name="パス 5009" d="M775.941,482.8a2.217,2.217,0,0,0,1.771-.878c7.513-9.9,20.005-7.85,20.534-7.758a2.219,2.219,0,0,0,.78-4.37c-.635-.114-15.668-2.657-24.851,9.444a2.219,2.219,0,0,0,1.766,3.561" transform="translate(-285.854 -139.561)"/>
          <path id="パス_5010" data-name="パス 5010" d="M822.329,506.484a10.86,10.86,0,0,0,5.851-1.594c8.765-5.493,7.1-13.4,7.024-13.732a2.219,2.219,0,1,0-4.33.975c.036.188.971,5.222-5.052,9-5.125,3.214-14.4-2.2-18.661-8.817-5.314-8.259,1.086-13.891,1.361-14.127a2.228,2.228,0,0,0,.773-1.579,26.584,26.584,0,0,1,1.032-6.833,2.236,2.236,0,0,1,2.351.322c.052.04.133.1.189.136,7.093,4.536,15.049,10.493,16.713,12.888a15.493,15.493,0,0,1-4.148,2.968,2.219,2.219,0,0,0,1.838,4.04,19.22,19.22,0,0,0,6.339-4.88,3.049,3.049,0,0,0,.6-2.44c-.676-4.067-12.061-11.9-18.861-16.255a6.563,6.563,0,0,0-7.8-.263c-.544.391-2.159,1.552-2.637,9.2-3.24,3.3-6.974,10.685-1.483,19.221,4.246,6.6,12.113,11.77,18.9,11.77" transform="translate(-339.29 -138.256)"/>
          <path id="パス_5011" data-name="パス 5011" d="M632.235,553.126a2.124,2.124,0,0,0,.312-.022c8.576-1.209,18.787-5.086,26.99-8.2,5.235-1.988,9.756-3.706,11.967-4a39.982,39.982,0,0,1,9.178-.012c4.545.384,8.463.718,11.969-3.677a10.8,10.8,0,0,0,2.174-4.044,16.218,16.218,0,0,1,1.144-2.8c.572-1.122,1.164-2.12,1.708-3.039,2.239-3.791,4.555-7.71-.254-12.649a6.921,6.921,0,0,0-5.375-2.193c-4.057.143-8,3.525-9.978,5.518-15.053-8.234-26.373-4.15-26.862-3.966a2.219,2.219,0,0,0,1.55,4.159c.434-.157,10.723-3.749,24.607,4.514a2.225,2.225,0,0,0,2.83-.474c1.142-1.347,5.069-5.215,8.014-5.316a2.527,2.527,0,0,1,2.033.854c2.36,2.423,1.948,3.344-.386,7.3-.588.99-1.222,2.07-1.84,3.279a20.541,20.541,0,0,0-1.42,3.464,6.474,6.474,0,0,1-1.417,2.631c-1.924,2.415-3.583,2.408-8.122,2.021a44.337,44.337,0,0,0-10.134.036c-2.722.358-7.24,2.075-12.961,4.247-8,3.037-17.951,6.817-26.035,7.957a2.219,2.219,0,0,0,.308,4.417" transform="translate(-84.263 -152.338)"/>
          <path id="パス_5012" data-name="パス 5012" d="M711.733,587.733c4.493,0,7.448-3.4,8.758-6.038,1.127-.507,4.436-1.77,11.718-3.038,16.706-2.912,16.308-15.784,16.3-15.914a2.219,2.219,0,1,0-4.434.207c.011.352.117,9.114-12.63,11.334-10.491,1.828-13.578,3.741-13.894,3.954a2.2,2.2,0,0,0-.828,1.024c-.37.9-2.46,5.373-7.136,3.594-3.727-1.419-3.528-2.358-2.785-5.848a31.019,31.019,0,0,0,.574-3.311c.62-5.928,2.763-7.3,2.785-7.309a2.169,2.169,0,0,0,1.027-2.921,2.269,2.269,0,0,0-3-1.051c-.717.333-4.348,2.424-5.223,10.819a27.1,27.1,0,0,1-.5,2.848c-.774,3.63-1.736,8.149,5.548,10.92a10.455,10.455,0,0,0,3.723.73" transform="translate(-183.068 -166.65)"/>
          <path id="パス_5013" data-name="パス 5013" d="M654.74,504.246a2.218,2.218,0,0,0,1.719-.812c9.52-11.613,12.859-30.008,13-30.785a2.219,2.219,0,0,0-4.37-.774c-.032.179-3.283,18.041-12.06,28.746a2.219,2.219,0,0,0,1.714,3.625" transform="translate(-69.321 -139.722)"/>
          <path id="パス_5014" data-name="パス 5014" d="M452.53,201.116c-4.357-.828-9.172-4.4-10.7-7.938L385.312,62.24c-.752-1.743-.573-3.164.324-4.06.924-.923,5.708-10.542,7.919-10.122L645.56,95.827c4.357.828,9.171,4.4,10.7,7.938l57.534,132.423c.764,1.77-6.682,10.5-7.614,11.4s-2.6,1.24-4.779.826Z" transform="translate(74.434 -14.282)" fill="#fff"/>
          <path id="パス_5015" data-name="パス 5015" d="M452.822,192.389c-4.357-.828-9.171-4.4-10.7-7.938L385.6,53.513c-1.527-3.538.788-5.755,5.145-4.928L496.276,68.64l44.671,8.489L611,90.44l28.619,5.439c4.357.828,9.172,4.4,10.7,7.938l56.52,130.938c1.527,3.538-.789,5.755-5.146,4.927Z" transform="translate(80.769 -14.391)" fill="#fff"/>
          <path id="パス_5016" data-name="パス 5016" d="M702.454,241.133a6.235,6.235,0,0,0,5.052-2.088,5.831,5.831,0,0,0,.431-6.107L651.417,102c-1.816-4.211-7.228-8.27-12.32-9.238L390.228,45.469c-3.118-.594-5.732.092-7.164,1.88-1.268,1.582-1.424,3.807-.431,6.107l56.52,130.938c1.816,4.212,7.228,8.271,12.32,9.238l248.869,47.293a11.324,11.324,0,0,0,2.112.208M388.085,49.692a7.088,7.088,0,0,1,1.315.136L638.268,97.122c3.6.686,7.845,3.788,9.074,6.637L703.863,234.7c.306.708.377,1.326.18,1.572s-1.071.636-2.874.3L452.3,189.272c-3.6-.685-7.843-3.786-9.074-6.637L386.706,51.7c-.306-.708-.377-1.326-.18-1.572a2.115,2.115,0,0,1,1.559-.431m63.8,141.76h0Z" transform="translate(81.705 -13.454)"/>
          <path id="パス_5017" data-name="パス 5017" d="M712.671,254.27a6.471,6.471,0,0,0,4.6-1.616,2.219,2.219,0,1,0-3.069-3.205c-.254.242-1.131.571-2.83.249L462.5,202.406c-3.6-.685-7.845-3.786-9.076-6.638L396.9,64.829c-.245-.57-.429-1.337-.136-1.618a2.219,2.219,0,0,0-3.069-3.205c-1.669,1.6-1.985,4-.869,6.582l56.52,130.939c1.821,4.214,7.232,8.272,12.323,9.238l248.869,47.293a11.432,11.432,0,0,0,2.13.212" transform="translate(65.177 -17.654)"/>
          <path id="パス_5018" data-name="パス 5018" d="M480.417,199.615c3.2,7.422,12.351,14.734,20.327,16.25l24.132,4.586c7.976,1.516,11.881-3.317,8.677-10.739l-6.975-16.158c-3.2-7.422-12.351-14.735-20.327-16.251l-24.132-4.585c-7.976-1.516-11.881,3.316-8.677,10.739Z" transform="translate(192.132 -51.259)" fill="#ffc417"/>
          <path id="パス_5019" data-name="パス 5019" d="M730.125,120.508a1.906,1.906,0,0,0,.191-.054c1.119-.385,1.249-1.7.292-2.941a12.768,12.768,0,0,1-1.952-3.481,7.352,7.352,0,0,1-.329-4.376c.289-1.067-.647-2.531-2.092-3.269s-2.85-.468-3.141.6a11.157,11.157,0,0,0,.5,6.643,19.411,19.411,0,0,0,2.961,5.278,3.93,3.93,0,0,0,3.571,1.6" transform="translate(-180.462 -31.5)"/>
          <path id="パス_5020" data-name="パス 5020" d="M743.329,121.747a1.793,1.793,0,0,0,.252-.077c1.09-.423,1.168-1.76.176-2.987a25.715,25.715,0,0,1-4.28-7.419,14.774,14.774,0,0,1-.728-8.368c.259-1.083-.706-2.541-2.155-3.257s-2.838-.418-3.1.663a18.652,18.652,0,0,0,.917,10.556,32.448,32.448,0,0,0,5.4,9.355,3.91,3.91,0,0,0,3.517,1.533" transform="translate(-200.907 -29.502)"/>
          <path id="パス_5021" data-name="パス 5021" d="M757,123.149a1.709,1.709,0,0,0,.278-.088c1.076-.439,1.132-1.786.125-3.006a39.111,39.111,0,0,1-6.766-11.583,22.633,22.633,0,0,1-1.186-12.312c.237-1.094-.749-2.547-2.2-3.246s-2.825-.378-3.061.715a26.516,26.516,0,0,0,1.387,14.438,45.872,45.872,0,0,0,7.934,13.581,3.9,3.9,0,0,0,3.493,1.5" transform="translate(-222.039 -27.509)"/>
          <path id="パス_5022" data-name="パス 5022" d="M771.007,124.508a1.755,1.755,0,0,0,.291-.093c1.07-.448,1.113-1.8.1-3.016a52.88,52.88,0,0,1-9.3-15.829c-2.124-5.918-2.673-11.446-1.632-16.431.229-1.1-.764-2.549-2.22-3.242s-2.82-.365-3.05.732c-1.159,5.547-.524,11.956,1.838,18.535a59.633,59.633,0,0,0,10.492,17.855,3.9,3.9,0,0,0,3.48,1.488" transform="translate(-243.718 -25.425)"/>
          <path id="パス_5023" data-name="パス 5023" d="M794.243,198.11a2.219,2.219,0,0,0,1.084-4.157l-135.484-75.6a2.219,2.219,0,1,0-2.163,3.875l135.484,75.6a2.2,2.2,0,0,0,1.079.282" transform="translate(-199.119 -35.098)"/>
          <path id="パス_5024" data-name="パス 5024" d="M436.1,194.791a2.211,2.211,0,0,0,1.259-.394l92.1-63.626a2.219,2.219,0,1,0-2.522-3.652l-92.1,63.627a2.219,2.219,0,0,0,1.264,4.045" transform="translate(223.401 -37.67)"/>
          <path id="パス_5025" data-name="パス 5025" d="M981,202.506a2.219,2.219,0,0,0,.416-4.4l-151.4-29a2.219,2.219,0,1,0-.836,4.358l151.4,29a2.2,2.2,0,0,0,.42.04" transform="translate(-505.927 -50.256)"/>
          <path id="パス_5026" data-name="パス 5026" d="M398.439,260.225a2.259,2.259,0,0,0,.47-.05l73.632-15.855a2.219,2.219,0,0,0-.936-4.339l-73.632,15.855a2.219,2.219,0,0,0,.466,4.389" transform="translate(305.991 -71.321)"/>
          <path id="パス_5027" data-name="パス 5027" d="M475.227,93.08a2.22,2.22,0,0,0,1.714-3.627c-11.167-13.62-26.841-9.391-27.5-9.206a2.219,2.219,0,0,0,1.2,4.273c.557-.155,13.58-3.582,22.867,7.748a2.223,2.223,0,0,0,1.72.812" transform="translate(266.576 -23.627)"/>
          <path id="パス_5028" data-name="パス 5028" d="M463.4,71.28a2.22,2.22,0,0,0,1.911-3.343c-.169-.287-4.228-7.032-15.675-5.893a2.219,2.219,0,1,0,.442,4.416c8.481-.858,11.38,3.678,11.406,3.725a2.219,2.219,0,0,0,1.916,1.1" transform="translate(278.526 -18.404)"/>
          <path id="パス_5029" data-name="パス 5029" d="M483.856,644.853a21.73,21.73,0,0,0,17.491-8.9,2.22,2.22,0,0,0-3.732-2.406c-.276.419-6.6,9.787-19.854,5.947a2.219,2.219,0,0,0-1.235,4.262,26.243,26.243,0,0,0,7.33,1.095" transform="translate(223.277 -188.024)"/>
          <path id="パス_5030" data-name="パス 5030" d="M481.38,663.672a14.025,14.025,0,0,0,10.979-5.424,2.219,2.219,0,1,0-3.394-2.859c-4.547,5.4-9.928,3.558-10.153,3.475a2.235,2.235,0,0,0-2.839,1.323,2.21,2.21,0,0,0,1.292,2.838,12.521,12.521,0,0,0,4.115.647" transform="translate(231.454 -194.582)"/>
          <path id="パス_5031" data-name="パス 5031" d="M1028.731,300.886a2.221,2.221,0,0,0,2.042-3.089,17.674,17.674,0,0,1,4.092-18.754,2.218,2.218,0,1,0-3.164-3.11,22.077,22.077,0,0,0-5.008,23.608,2.22,2.22,0,0,0,2.039,1.345" transform="translate(-697.232 -81.825)"/>
          <path id="パス_5032" data-name="パス 5032" d="M1050.677,293.39a2.219,2.219,0,0,0,2.165-2.715c-1.469-6.421,1.71-9.05,1.846-9.16a2.235,2.235,0,0,0,.386-3.1,2.2,2.2,0,0,0-3.064-.436c-.232.172-5.639,4.323-3.494,13.688a2.218,2.218,0,0,0,2.161,1.724" transform="translate(-733.291 -82.501)"/>
          <path id="パス_5033" data-name="パス 5033" d="M364.466,358.282a2.22,2.22,0,0,0,2.141-2.813c-.052-.18-4.891-18.088,4.213-24.124,9.815-6.507,36.285-4.418,36.55-4.4a2.22,2.22,0,0,0,1.458-4.027c-.226-.158-22.368-15.957-14.635-29.735,8.107-14.446,23.386-15.98,23.538-15.994a2.219,2.219,0,0,0-.382-4.422,36.492,36.492,0,0,0-27.027,18.244c-6.922,12.332,3.643,24.8,10.632,31.189-9.037-.213-24.78.266-32.588,5.443-8.248,5.467-8.03,17.061-7.07,23.83-7.451-4.365-22.857-12.2-35.373-10.677-16.819,2.044-23.188,9.142-23.451,9.443a2.219,2.219,0,1,0,3.342,2.919c.046-.049,5.689-6.14,20.647-7.957,15.142-1.844,36.546,12.55,36.76,12.7a2.2,2.2,0,0,0,1.244.382" transform="translate(426.795 -81.08)"/>
          <path id="パス_5034" data-name="パス 5034" d="M285.481,484.134,298.6,472.442l.07.073c14.441-10.672,41.73-3.63,62.442,16.574l.221.22.047.046.221.22c20.254,20.615,26.275,46.762,14.263,59.853l.073.07L362.818,561.19a19.935,19.935,0,0,1-9.621,4.645,45.242,45.242,0,0,1-17.838-.035c-13.392-2.772-25.816-11.238-35.827-20.98l-.022-.023c-.008-.007-18.082-22.161-20.314-34.958a38.421,38.421,0,0,1,.886-16.855,18.454,18.454,0,0,1,5.4-8.85" transform="translate(480.896 -138.985)" fill="#ffc417"/>
          <path id="パス_5035" data-name="パス 5035" d="M344.118,558.143c7.791,0,14.448-2.264,19.4-6.621,5.277-4.648,8.22-11.363,8.51-19.416.52-14.412-7.342-31.335-21.035-45.269-21.9-22.285-51.9-29.679-66.886-16.484-6,5.281-8.933,13.081-8.493,22.557a2.22,2.22,0,1,0,4.434-.206c-.377-8.084,2.041-14.66,6.994-19.02,13.241-11.665,40.513-4.37,60.787,16.262,12.851,13.082,20.241,28.782,19.765,42-.247,6.8-2.67,12.423-7.011,16.245-4.67,4.115-11.3,5.98-19.217,5.41a2.248,2.248,0,0,0-2.372,2.052,2.221,2.221,0,0,0,2.052,2.375c1.042.076,2.07.114,3.075.114" transform="translate(493.024 -137.87)"/>
          <path id="パス_5036" data-name="パス 5036" d="M385,571.8a2.22,2.22,0,0,0,.724-4.318c-10.218-3.529-20.569-10.28-29.144-19.008-8.264-8.411-14.3-17.914-17.463-27.484a2.218,2.218,0,1,0-4.213,1.391c3.372,10.212,9.774,20.31,18.512,29.2,9.046,9.209,20.005,16.345,30.86,20.094a2.221,2.221,0,0,0,.724.122" transform="translate(436.24 -154.413)"/>
          <path id="パス_5037" data-name="パス 5037" d="M373.358,484a2.22,2.22,0,0,0,.9-4.249c-11.8-5.238-22.216-5.393-28.585-.415a2.218,2.218,0,1,0,2.73,3.5c5.037-3.933,13.8-3.581,24.051.974a2.226,2.226,0,0,0,.9.192" transform="translate(440.825 -141.408)" fill="#fff"/>
          <path id="パス_5038" data-name="パス 5038" d="M390.966,490.3a2.721,2.721,0,0,0-.1,4,3.116,3.116,0,0,0,4.231,0,2.721,2.721,0,0,0,.1-4,3.116,3.116,0,0,0-4.231,0" transform="translate(388.604 -145.498)" fill="#fff"/>
          <path id="パス_5039" data-name="パス 5039" d="M333.66,576.773c4.924,0,9.208-1.3,12.357-4.037a2.218,2.218,0,1,0-2.908-3.351c-7.978,6.922-26.546,1.516-41.4-12.058a2.219,2.219,0,1,0-2.994,3.275c11.351,10.38,24.562,16.172,34.941,16.172" transform="translate(502.528 -165.495)" fill="#fff"/>
          <path id="パス_5040" data-name="パス 5040" d="M383.9,578.662a49.686,49.686,0,0,0,9.371-.906,2.219,2.219,0,1,0-.837-4.358,43.217,43.217,0,0,1-16.971-.03c-14.451-2.991-26.862-12.743-34.729-20.4-7.665-7.822-17.3-20.023-19.7-33.773a36.356,36.356,0,0,1,.838-15.892,2.219,2.219,0,1,0-4.282-1.164,40.793,40.793,0,0,0-.93,17.819c2.594,14.872,12.793,27.844,20.891,36.108,8.372,8.148,21.508,18.437,37.007,21.645a46,46,0,0,0,9.336.948" transform="translate(441.523 -148.777)"/>
          <path id="パス_5041" data-name="パス 5041" d="M336.88,527.164l5.027-.18,5.672,10.252a6.9,6.9,0,0,0,6.623,3.673c2.895-.1,3.874-1.481,2.481-4l-16.551-30.016c-2.616-4.726-4.987-6.306-9.257-6.153l-8.631.311c-11,.394-12.538,5.487-8.237,13.265,5.322,9.621,13.2,13.2,22.873,12.849m-10.274-19.193,3.6-.131c.952-.034,1.239.227,1.763,1.171l5.467,9.883c.579,1.048.523,1.209-.427,1.244l-3.365.122c-4.079.146-7.589-1.391-10.176-6.067-2.469-4.467-.28-6.1,3.138-6.223" transform="translate(482.311 -148.844)"/>
          <path id="パス_5042" data-name="パス 5042" d="M367.658,110.13c5.379,3.5,14.431,1.438,21.666-5.075s10.413-15.887,7.826-21.9c0,0-1.78-7.619-7.151-10.022a17.177,17.177,0,0,0-15.079-5.285c-9.448,1.427-17.538,9.825-19.273,17.032s-.661,11.706,2.521,14.909h0s3.673,8.7,9.491,10.337" transform="translate(411.338 -20.11)" fill="#ffc417"/>
          <path id="パス_5043" data-name="パス 5043" d="M377.65,104.431a24.636,24.636,0,0,0,16.15-6.718,2.219,2.219,0,0,0-2.969-3.3c-4.217,3.8-9.49,5.86-14.186,5.541a10.308,10.308,0,0,1-7.41-3.545c-4.651-5.549-2.434-15.466,4.944-22.108,4.219-3.8,9.518-5.885,14.186-5.543a10.316,10.316,0,0,1,7.409,3.546c2.763,3.3,3.182,8.361,1.119,13.545-.241.6-.509,1.2-.813,1.786a2.22,2.22,0,0,0,3.953,2.022c.364-.715.694-1.438.982-2.165,2.679-6.727,1.992-13.47-1.838-18.038a14.851,14.851,0,0,0-10.5-5.122c-5.9-.414-12.295,2.015-17.465,6.672-9.133,8.221-11.545,20.9-5.377,28.257a14.844,14.844,0,0,0,10.5,5.122c.436.03.876.046,1.316.046" transform="translate(401.413 -19.11)"/>
          <path id="パス_5044" data-name="パス 5044" d="M403.3,105.383c.112,0,.226,0,.34-.006a1.664,1.664,0,0,0-.05-3.327c-.084,0-.193.006-.292,0a5.224,5.224,0,0,1-4.167-1.725c-1.155-1.408-1.435-3.529-.789-5.973a1.665,1.665,0,0,0-3.221-.85c-.923,3.5-.414,6.676,1.435,8.933a8.465,8.465,0,0,0,6.744,2.944" transform="translate(376.12 -27.427)" fill="#fff"/>
          <path id="パス_5045" data-name="パス 5045" d="M374.577,94.292a1.658,1.658,0,0,0,1.306-.632c4.238-5.351,5.037-11.722,1.947-15.494a1.665,1.665,0,0,0-2.575,2.111c2.057,2.51,1.222,7.269-1.98,11.318a1.664,1.664,0,0,0,1.3,2.7" transform="translate(416.961 -23.054)" fill="#fff"/>
          <path id="パス_5046" data-name="パス 5046" d="M356.73,120.369c5.372,0,12.021-2.926,17.576-7.928,6.883-6.2,10.929-14.438,10.065-20.508a2.22,2.22,0,1,0-4.395.626c.552,3.88-2.237,10.822-8.639,16.584-6.536,5.882-13.252,7.5-16.732,6.521a2.219,2.219,0,0,0-1.205,4.272,12.242,12.242,0,0,0,3.331.432" transform="translate(427.027 -26.762)"/>
          <path id="パス_5047" data-name="パス 5047" d="M389.314,91.137l2.034-.423-.512,5.652c-.126,1.389.462,1.979,1.63,1.734a2.558,2.558,0,0,0,2.054-2.5l1.521-16.552c.235-2.605-.277-3.382-2-3.023l-3.493.727c-4.451.927-6.426,4.01-6.815,8.3-.481,5.305,1.671,6.9,5.585,6.088m1.095-10.6,1.457-.3c.385-.08.429.055.382.576l-.494,5.449c-.053.578-.118.676-.5.756l-1.362.284c-1.651.344-2.624-.335-2.391-2.914.223-2.462,1.527-3.559,2.91-3.847" transform="translate(393.014 -22.574)"/>
          <path id="パス_5048" data-name="パス 5048" d="M355.772,208.508c2.782,8.245,5.038,10.5,13.283,13.283-8.245,2.782-10.5,5.038-13.283,13.283-2.782-8.245-5.038-10.5-13.283-13.283,8.245-2.783,10.5-5.038,13.283-13.283" transform="translate(448.99 -61.98)" fill="#fff"/>
          <path id="パス_5049" data-name="パス 5049" d="M354.832,236.354a2.218,2.218,0,0,0,2.1-1.509c2.552-7.56,4.33-9.337,11.889-11.89a2.218,2.218,0,0,0,0-4.2c-7.559-2.552-9.337-4.33-11.889-11.89a2.218,2.218,0,0,0-4.2,0c-2.553,7.56-4.33,9.338-11.89,11.89a2.218,2.218,0,0,0,0,4.2c7.559,2.553,9.337,4.33,11.89,11.89a2.218,2.218,0,0,0,2.1,1.509m7.34-15.5a15.078,15.078,0,0,0-7.34,7.342,15.078,15.078,0,0,0-7.34-7.342,15.078,15.078,0,0,0,7.34-7.342,15.078,15.078,0,0,0,7.34,7.342" transform="translate(449.93 -61.041)"/>
          <path id="パス_5050" data-name="パス 5050" d="M600.05,119.442c3.091,9.16,5.6,11.667,14.758,14.758-9.16,3.091-11.667,5.6-14.758,14.758-3.091-9.16-5.6-11.667-14.758-14.758,9.16-3.091,11.667-5.6,14.758-14.758" transform="translate(32.607 -35.505)" fill="#fff"/>
          <path id="パス_5051" data-name="パス 5051" d="M599.111,150.239a2.217,2.217,0,0,0,2.1-1.51c2.869-8.5,4.868-10.5,13.365-13.366a2.218,2.218,0,0,0,0-4.2c-8.5-2.869-10.5-4.868-13.368-13.366a2.218,2.218,0,0,0-4.2,0c-2.868,8.5-4.865,10.5-13.367,13.366a2.218,2.218,0,0,0,0,4.2c8.5,2.869,10.5,4.868,13.365,13.366a2.219,2.219,0,0,0,2.1,1.51m8.721-16.977a16.85,16.85,0,0,0-8.721,8.721,16.836,16.836,0,0,0-8.721-8.721,16.838,16.838,0,0,0,8.721-8.721,16.858,16.858,0,0,0,8.721,8.721" transform="translate(33.546 -34.566)"/>
          <path id="パス_5052" data-name="パス 5052" d="M1048.947,109.988,1037.03,93.932l.069-.067c-9.025-14.848-1.545-41.664,17.529-61.338l.208-.209.044-.044.207-.209c19.426-19.2,43.253-23.995,54.559-11.451l.066-.07L1121.63,36.6a20.768,20.768,0,0,1,3.79,9.78c.8,6.1-.159,11.328-1.483,17.044-3.053,13.192-11.464,24.418-20.662,33.929-.008.008-1.91,2.255-1.916,2.262-9.388,9.255-17.765,14.425-29.4,16.06a32.906,32.906,0,0,1-15.549-1.131,18.592,18.592,0,0,1-7.467-4.557" transform="translate(-793.125 -4.061)" fill="#ffc417"/>
          <path id="パス_5053" data-name="パス 5053" d="M1069.642,104.818h.03a2.219,2.219,0,0,0,0-4.439h-.026c-7.18,0-12.921-2.674-16.6-7.734-10.008-13.754-2.3-40.6,17.173-59.851,12.171-12.029,26.449-18.661,38.192-17.682,6.144.5,11.122,3.143,14.4,7.647,3.53,4.855,4.947,11.583,4.1,19.456a2.219,2.219,0,1,0,4.413.476c.969-8.987-.732-16.782-4.921-22.544-4.062-5.581-10.156-8.852-17.629-9.46-13.031-1.056-28.6,6.026-41.673,18.949-20.971,20.727-28.886,50.164-17.64,65.62,4.553,6.256,11.533,9.562,20.189,9.562" transform="translate(-806.756 -3.146)"/>
          <path id="パス_5054" data-name="パス 5054" d="M1051.247,120.953a2.2,2.2,0,0,0,.654-.1c9.393-2.9,18.8-8.826,27.207-17.135a82.2,82.2,0,0,0,19.4-29.77,2.219,2.219,0,1,0-4.174-1.506,77.729,77.729,0,0,1-18.345,28.119c-7.9,7.81-16.683,13.36-25.4,16.051a2.22,2.22,0,0,0,.654,4.341" transform="translate(-777.112 -21.098)"/>
          <path id="パス_5055" data-name="パス 5055" d="M1150.3,108.776a2.218,2.218,0,0,0,1.864-3.42c-2.624-4.083-2.006-11.035,1.7-19.076a2.219,2.219,0,0,0-4.031-1.857c-4.415,9.583-4.911,17.871-1.4,23.335a2.215,2.215,0,0,0,1.868,1.018" transform="translate(-900.762 -24.711)" fill="#fff"/>
          <path id="パス_5056" data-name="パス 5056" d="M1142.151,121.362a2.981,2.981,0,0,0-2.085,3.408,2.5,2.5,0,0,0,3.025,2.16,2.981,2.981,0,0,0,2.086-3.408,2.5,2.5,0,0,0-3.026-2.159" transform="translate(-887.639 -36.055)" fill="#fff"/>
          <path id="パス_5057" data-name="パス 5057" d="M1058.755,79.259a2.213,2.213,0,0,0,1.64-.724C1073.563,64.1,1079.428,42.39,1072.7,33a2.219,2.219,0,0,0-3.606,2.586c5.431,7.583-.5,27.378-11.978,39.962a2.22,2.22,0,0,0,1.64,3.715" transform="translate(-759.255 -9.533)" fill="#fff"/>
          <path id="パス_5058" data-name="パス 5058" d="M1042.877,130.988a41.473,41.473,0,0,0,5.325-.366c15.788-2.045,44.954-18.576,56.013-54.233,1.6-5.171,1.866-10.933.852-18.684a2.218,2.218,0,1,0-4.4.576c.926,7.084.713,12.263-.692,16.792-4.677,15.082-23.626,47.428-52.344,51.147-8.053,1.041-11.653-.534-15.14-2.058l-1.864,4.03a27.392,27.392,0,0,0,12.249,2.8" transform="translate(-771.21 -16.579)"/>
          <path id="パス_5059" data-name="パス 5059" d="M1095.826,72.535l4.552-.729-3.727,11.737c-.916,2.884.066,4.156,2.683,3.735a6.893,6.893,0,0,0,5.562-5.06l10.962-34.369c1.718-5.41.982-7.065-2.884-6.446l-7.816,1.255c-9.962,1.6-15.626,7.874-18.456,16.778-3.5,11.015.363,14.5,9.124,13.1m7.281-22.009,3.261-.525c.862-.138.892.146.549,1.227l-3.595,11.316c-.382,1.2-.568,1.4-1.428,1.538l-3.048.49c-3.694.592-5.462-.9-3.762-6.25,1.625-5.113,4.927-7.3,8.022-7.8" transform="translate(-820.78 -12.27)"/>
          <path id="パス_5060" data-name="パス 5060" d="M979.643,138.214a2.2,2.2,0,0,0,.888-.188,2.219,2.219,0,0,0,1.143-2.923c-5.462-12.448-21.226-20.422-30.9-24.293,5.488-1.6,12.583-4.772,17.82-11.056,10.011-12.014-2.9-33.554-3.453-34.465a2.22,2.22,0,0,0-3.793,2.307c.119.2,11.822,19.734,3.836,29.316-8.365,10.037-22.883,11.041-23.03,11.051a2.219,2.219,0,0,0-.477,4.348c.288.083,28.854,8.429,35.936,24.574a2.222,2.222,0,0,0,2.035,1.328" transform="translate(-583.761 -19.09)"/>
          <path id="パス_5061" data-name="パス 5061" d="M909.828,293.675a2.219,2.219,0,0,0,.992-4.205C884,276.094,858.044,279.3,847.651,281.45c3.167-7.569,7.343-23.262-5.727-34.723-12.362-10.841-31.08-16.181-40.635-18.329a17.048,17.048,0,0,0,5.539-9.525,2.219,2.219,0,0,0-4.384-.7,12.169,12.169,0,0,1-8.205,9.115,2.219,2.219,0,0,0,.332,4.308c.284.045,28.57,4.563,44.427,18.467,14.963,13.12,2.822,33.3,2.7,33.5a2.22,2.22,0,0,0,2.538,3.285c.316-.1,32.287-9.524,64.606,6.594a2.217,2.217,0,0,0,.988.233" transform="translate(-410.383 -64.299)"/>
          <path id="パス_5062" data-name="パス 5062" d="M648.954,185.545a2.223,2.223,0,0,0,2.068-3.029l-19.881-50.8A2.22,2.22,0,0,0,627,133.327l19.882,50.806a2.224,2.224,0,0,0,2.068,1.412" transform="translate(-32.964 -38.732)"/>
          <path id="パス_5063" data-name="パス 5063" d="M668.664,662.62c-5.286,3.435-14.181,1.413-21.291-4.987s-10.233-15.613-7.691-21.517c0,0,1.748-7.488,7.027-9.849a16.88,16.88,0,0,1,14.819-5.194c9.284,1.4,17.235,9.656,18.94,16.738s.651,11.5-2.476,14.651h0s-3.61,8.551-9.327,10.159" transform="translate(-71.47 -184.558)" fill="#ffc417"/>
          <path id="パス_5064" data-name="パス 5064" d="M660.077,657.04c.436,0,.869-.014,1.3-.046a14.618,14.618,0,0,0,10.342-5.047c6.075-7.248,3.7-19.729-5.288-27.821-5.089-4.582-11.363-6.983-17.19-6.566a14.63,14.63,0,0,0-10.349,5.047c-3.769,4.5-4.447,11.141-1.812,17.765.286.718.606,1.429.968,2.134A2.22,2.22,0,1,0,642,640.478c-.3-.578-.561-1.163-.795-1.75-2.02-5.08-1.613-10.042,1.092-13.27a10.106,10.106,0,0,1,7.256-3.471c4.579-.343,9.772,1.71,13.911,5.437,7.234,6.512,9.412,16.235,4.855,21.672a10.088,10.088,0,0,1-7.252,3.472c-4.577.311-9.776-1.711-13.915-5.436a2.219,2.219,0,0,0-2.969,3.3,24.251,24.251,0,0,0,15.9,6.61" transform="translate(-62.951 -183.559)"/>
          <path id="パス_5065" data-name="パス 5065" d="M647.2,657.97a8.345,8.345,0,0,0,6.647-2.9c1.823-2.227,2.325-5.353,1.415-8.8a1.665,1.665,0,0,0-3.221.85c.633,2.391.358,4.467-.769,5.844a5.238,5.238,0,0,1-4.313,1.681,1.6,1.6,0,0,0-1.715,1.613,1.665,1.665,0,0,0,1.615,1.713c.112,0,.228.006.34.006" transform="translate(-50.416 -191.736)" fill="#fff"/>
          <path id="パス_5066" data-name="パス 5066" d="M677,647.072a1.664,1.664,0,0,0,1.3-2.7c-3.14-3.969-3.957-8.632-1.944-11.086a1.665,1.665,0,1,0-2.574-2.111c-3.047,3.715-2.263,9.99,1.909,15.262a1.66,1.66,0,0,0,1.307.632" transform="translate(-92.131 -187.439)" fill="#fff"/>
          <path id="パス_5067" data-name="パス 5067" d="M683.76,672.7a12.052,12.052,0,0,0,3.281-.426,2.219,2.219,0,0,0-1.205-4.271c-3.424.962-10-.633-16.408-6.4-6.28-5.653-9.018-12.46-8.476-16.263a2.22,2.22,0,0,0-4.395-.626c-.85,5.978,3.129,14.092,9.9,20.188,5.468,4.923,12.011,7.8,17.3,7.8" transform="translate(-91.244 -191.078)"/>
          <path id="パス_5068" data-name="パス 5068" d="M658.261,643.1l1.791,1.156-1.743,4.593a2.135,2.135,0,0,0,.952,2.753c1.031.666,1.864.468,2.292-.66l5.122-13.433c.8-2.117.558-3.186-.964-4.169l-3.076-1.984c-3.92-2.529-6.281-1.3-7.6,2.186-1.636,4.309-.219,7.333,3.229,9.558m3.381-8.515,1.283.827c.339.219.344.37.183.793l-1.681,4.427c-.178.469-.255.507-.594.288l-1.2-.773c-1.453-.938-2.105-2.268-1.311-4.363.76-2,2.1-1.987,3.318-1.2" transform="translate(-68.242 -187.276)"/>
          <path id="パス_5069" data-name="パス 5069" d="M973.743,325.148c-3.977,4.891-13.064,5.7-21.794,1.786s-14.531-11.72-13.923-18.12c0,0-.633-7.663,3.666-11.53a16.879,16.879,0,0,1,12.51-9.491c9.266-1.514,19.367,3.9,23.162,10.119s4.149,10.75,2.138,14.7h0s-.812,9.246-5.76,12.531" transform="translate(-581.149 -85.472)" fill="#ffc417"/>
          <path id="パス_5070" data-name="パス 5070" d="M960.34,320.77a20.445,20.445,0,0,0,7.635-1.414,14.628,14.628,0,0,0,8.3-7.98c3.556-8.762-2.531-19.913-13.569-24.857-6.25-2.8-12.947-3.157-18.38-.973a14.63,14.63,0,0,0-8.3,7.978c-2.208,5.44-.817,11.968,3.725,17.464.49.593,1.017,1.173,1.576,1.732a2.219,2.219,0,0,0,3.138-3.138q-.689-.689-1.292-1.42c-3.485-4.218-4.621-9.065-3.034-12.968a10.1,10.1,0,0,1,5.84-5.531c4.25-1.709,9.829-1.372,14.908.906,8.883,3.978,13.94,12.563,11.272,19.137a10.1,10.1,0,0,1-5.841,5.53c-4.254,1.71-9.826,1.372-14.908-.905a2.22,2.22,0,1,0-1.816,4.051,26.43,26.43,0,0,0,10.743,2.387" transform="translate(-575.631 -84.459)"/>
          <path id="パス_5071" data-name="パス 5071" d="M946.778,319.3a1.647,1.647,0,0,0,.464-.066,8.441,8.441,0,0,0,5.76-4.9c1.051-2.675.57-5.8-1.355-8.812a1.664,1.664,0,1,0-2.8,1.794c1.335,2.084,1.71,4.143,1.06,5.8a5.216,5.216,0,0,1-3.589,2.923,1.664,1.664,0,0,0,.464,3.263" transform="translate(-558.993 -90.589)" fill="#fff"/>
          <path id="パス_5072" data-name="パス 5072" d="M978.963,315.133a1.665,1.665,0,0,0,.928-3.048c-4.207-2.812-6.415-7-5.253-9.954a1.665,1.665,0,0,0-3.1-1.218c-1.758,4.472.914,10.2,6.5,13.94a1.667,1.667,0,0,0,.923.28" transform="translate(-604.271 -89.134)" fill="#fff"/>
          <path id="パス_5073" data-name="パス 5073" d="M975.637,339.934a16.092,16.092,0,0,0,8.874-2.256,2.219,2.219,0,1,0-2.458-3.7c-2.949,1.962-9.708,2.47-17.58-1.058-7.713-3.455-12.407-9.094-13.06-12.878a2.219,2.219,0,0,0-4.373.752c1.023,5.95,7.3,12.451,15.617,16.176a32.425,32.425,0,0,0,12.979,2.959" transform="translate(-592.282 -94.588)"/>
          <path id="パス_5074" data-name="パス 5074" d="M964.374,308.628l2.059.55-.249,4.906a2.135,2.135,0,0,0,1.751,2.328c1.185.318,1.917-.126,1.979-1.331l.753-14.357c.115-2.261-.447-3.2-2.2-3.671l-3.536-.945c-4.507-1.2-6.377.692-6.567,4.414-.235,4.6,2.042,7.046,6.006,8.106m.606-9.142,1.475.394c.39.1.441.247.418.7l-.241,4.729c-.026.5-.088.561-.477.457l-1.379-.368c-1.671-.447-2.7-1.512-2.586-3.751.11-2.137,1.39-2.535,2.79-2.16" transform="translate(-585.431 -87.912)"/>
          <path id="パス_5075" data-name="パス 5075" d="M493.348,515.744l3.495-3.04.04.052c6.707-3.774,21.087,4.44,32.932,19.054l.127.158.027.034.127.158c11.637,14.775,16.351,30.458,11.035,35.974l.042.051-7.048,5.446a6.247,6.247,0,0,1-4.623,1.124c-3.031-.287-4.952-2.081-7.991-3.661-7.014-3.645-18.552-18.072-18.557-18.077-5.611-7.137-9.264-16.19-11.207-23.754a23.692,23.692,0,0,1-.6-9.369,6.06,6.06,0,0,1,2.2-4.151" transform="translate(170.43 -152.147)" fill="#ffc417"/>
          <path id="パス_5076" data-name="パス 5076" d="M531.376,568.367a4.866,4.866,0,0,0,4.185-2.07c4.259-6.072-4.777-23.565-15.9-37.709-7.742-9.84-19.221-21.249-26.262-21.249l-.176,0a4.857,4.857,0,0,0-4.031,2.074c-1.666,2.373-1.478,6.272.577,11.918.073.239,2.646,8.05,15.263,25.709a78.374,78.374,0,0,0,12.594,13.693,2.219,2.219,0,1,0,2.9-3.359,74.014,74.014,0,0,1-11.883-12.914c-12.1-16.936-14.652-24.5-14.678-24.57-1.812-4.984-1.567-7.32-1.14-7.927.05-.07.124-.175.52-.186h.076c3.587,0,12.728,6.813,22.751,19.555,12.42,15.792,17.628,29.747,15.758,32.416-.225.316-1.48.35-3.9-.916a2.219,2.219,0,1,0-2.058,3.931,11.885,11.885,0,0,0,5.407,1.6" transform="translate(179.102 -150.809)"/>
          <path id="パス_5077" data-name="パス 5077" d="M548,578.837a2.219,2.219,0,0,0,.392-4.4,21.5,21.5,0,0,1-8.044-3.166c-9.857-6.41-17.593-18.111-17.919-18.607-4.933-6.894-11-15.376-12.637-22.581a21.042,21.042,0,0,1-.33-8.306,2.22,2.22,0,0,0-4.373-.767,25.541,25.541,0,0,0,.373,10.054c1.833,8.079,8.194,16.964,13.3,24.1.3.457,8.535,12.912,19.164,19.824a26.152,26.152,0,0,0,9.675,3.812,2.118,2.118,0,0,0,.4.036" transform="translate(153.787 -154.326)"/>
          <path id="パス_5078" data-name="パス 5078" d="M529.448,563.463a1.977,1.977,0,0,0,.448-.052,2.088,2.088,0,0,0,1.353-1.2c1-2.795-8.329-15.766-13.98-23.25-13.766-18.223-16.083-17.85-16.855-17.74a2.087,2.087,0,0,0-1.482,1.227c-.3.828-.316,1.89,2.445,6.525a1.664,1.664,0,0,0,3.062-.526c2.5,2.775,5.977,6.966,10.173,12.521a189.471,189.471,0,0,1,11.731,17.084,1.664,1.664,0,0,0-.8,2.8c1.9,1.892,2.943,2.614,3.907,2.614" transform="translate(176.874 -154.928)" fill="#fff"/>
          <path id="パス_5079" data-name="パス 5079" d="M660.076,73.185l-4.627.215v-.066c-7.6-1.2-13.779-16.569-14-35.38v-.448c.046-18.808,6.084-34.03,13.675-35.056V2.385l8.906.1a6.245,6.245,0,0,1,4.323,1.987c2.2,2.106,2.591,4.7,3.994,7.83,3.238,7.212,3.33,25.684,3.33,25.691-.03,9.079-2.784,18.444-5.956,25.581a23.68,23.68,0,0,1-5.342,7.72,6.058,6.058,0,0,1-4.305,1.887" transform="translate(-67.73 -0.709)" fill="#ffc417"/>
          <path id="パス_5080" data-name="パス 5080" d="M668.022,73.794a4.863,4.863,0,0,0,1.389-.206c2.78-.829,5.051-4,6.946-9.7.089-.235,2.921-7.956,3.987-29.632A78.512,78.512,0,0,0,678.97,15.7a2.22,2.22,0,0,0-4.36.835,73.85,73.85,0,0,1,1.3,17.5c-1.023,20.79-3.712,28.3-3.74,28.376-1.671,5.031-3.314,6.712-4.027,6.923-.076.026-.2.062-.523-.176-2.83-2.117-5.81-13.175-5.76-29.5.061-20.091,4.64-34.264,7.763-35.2.362-.106,1.376.643,2.492,3.141a2.219,2.219,0,1,0,4.053-1.807c-2.706-6.078-6.055-6.112-7.81-5.587-7.106,2.117-10.881,21.441-10.935,39.436-.039,12.623,1.914,28.858,7.54,33.068a5.042,5.042,0,0,0,3.06,1.082" transform="translate(-83.704 0)"/>
          <path id="パス_5081" data-name="パス 5081" d="M642.453,73.93a2.212,2.212,0,0,0,1.476-.561,25.449,25.449,0,0,0,5.949-8.115c3.578-7.473,4.107-18.385,4.532-27.155.05-.543,1.322-15.425-2.724-27.437a26.175,26.175,0,0,0-5.219-9A2.22,2.22,0,0,0,643.137,4.6a21.492,21.492,0,0,1,4.344,7.476c3.749,11.138,2.555,25.118,2.5,25.708-.412,8.467-.916,18.885-4.107,25.549a21.057,21.057,0,0,1-4.9,6.716,2.22,2.22,0,0,0,1.476,3.877" transform="translate(-45.832 -0.273)"/>
          <path id="パス_5082" data-name="パス 5082" d="M672.566,66.609a1.949,1.949,0,0,0,1.01-.257c.746-.462,1.422-1.282,2.135-6.633a1.664,1.664,0,0,0-1.428-1.869,1.627,1.627,0,0,0-1.3.382c-.236-3.727-.362-9.172-.2-16.131a188.507,188.507,0,0,1,1.4-20.675,1.687,1.687,0,0,0,.908.149,1.665,1.665,0,0,0,1.458-1.848c-.362-3.077-.806-4.223-1.826-4.713a2.1,2.1,0,0,0-1.805.1c-2.616,1.631-3.3,19.362-3.467,26.909-.519,22.819,1.53,23.985,2.2,24.369a1.887,1.887,0,0,0,.914.214" transform="translate(-88.229 -4.416)" fill="#fff"/>
        </g>
      </g>
    </g>
  </g>
</svg>
