<svg xmlns="http://www.w3.org/2000/svg" xmlns:xlink="http://www.w3.org/1999/xlink" width="120" height="120" viewBox="0 0 120 120">
  <defs>
    <clipPath id="clip-path">
      <rect id="長方形_6075" data-name="長方形 6075" width="61.74" height="64.001" transform="translate(8.806 -0.001)" fill="none"/>
    </clipPath>
  </defs>
  <g id="グループ_21095" data-name="グループ 21095" transform="translate(-342 -10375)">
    <circle id="楕円形_16" data-name="楕円形 16" cx="60" cy="60" r="60" transform="translate(342 10375)" fill="#fff"/>
    <g id="グループ_21089" data-name="グループ 21089" transform="translate(362.194 10403.001)">
      <g id="グループ_21088" data-name="グループ 21088" clip-path="url(#clip-path)">
        <path id="パス_4537" data-name="パス 4537" d="M39.749,49.739a13.2,13.2,0,0,1-9.017-3.86,12.943,12.943,0,0,1-3.578-8.7,8.731,8.731,0,0,1-2.31-.192A3.219,3.219,0,0,1,22.5,34.257V25.42l5.619,2.668V25.215h10.6a19.656,19.656,0,0,0,4.875-1.693,12.979,12.979,0,0,0,3.591-2.668l3.9,5.13v2.207l5.592-2.053V33.68a4.143,4.143,0,0,1-1.23,2.873,3.41,3.41,0,0,1-3.028.77s-.718,4.464-2.052,6.567-4.044,5.387-10.616,5.849" fill="#fff"/>
        <path id="パス_4538" data-name="パス 4538" d="M28.115,25.214h8.14a40.628,40.628,0,0,0,5.182-.718c2.975-.667,5.746-3.643,5.746-3.643l3.9,5.131V28.19l5.593-2.052s1.129-2,.256-6.054c0,0-1.282-3.9-3.745-5.8a11.757,11.757,0,0,0-5.541-2.155s-3.848-4.669-9.184-3.8S27.17,11.778,24.095,16.441a11.831,11.831,0,0,0-1.642,9.337l5.7,2.617Z" fill="#ffc417"/>
        <path id="パス_4539" data-name="パス 4539" d="M39.749,130.444H17.931l-.146,3.591H1.931l.116-6.657a79.6,79.6,0,0,1-.885-8.581c.116-1.846,2.117-30.1,2.886-36.992S5.979,68.681,8.4,65.772c2.835-3.412,21.741-11.621,21.741-11.621v-9A14.791,14.791,0,0,0,35.216,48.8a15.22,15.22,0,0,0,4.533.936c.062,0,.062,80.705,0,80.705" fill="#fff"/>
        <path id="パス_4540" data-name="パス 4540" d="M39.6,130.444H61.42l.146,3.591H77.42l-.116-6.657a79.605,79.605,0,0,0,.885-8.581c-.116-1.846-2.117-30.1-2.886-36.992s-1.931-13.124-4.348-16.033C68.12,62.36,49.214,54.151,49.214,54.151v-9a14.788,14.788,0,0,1-5.08,3.656,15.212,15.212,0,0,1-4.532.936c-.062,0-.062,80.705,0,80.705" fill="#fff"/>
        <path id="パス_4541" data-name="パス 4541" d="M35.638,33.453a1.613,1.613,0,1,1-1.612-1.612,1.611,1.611,0,0,1,1.612,1.612"/>
        <path id="パス_4542" data-name="パス 4542" d="M46.9,33.453a1.613,1.613,0,1,1-1.613-1.612A1.612,1.612,0,0,1,46.9,33.453"/>
        <path id="パス_4543" data-name="パス 4543" d="M8.805,67.01a1.253,1.253,0,0,1-.942-2.078,19.637,19.637,0,0,1,4.34-3.5c1.627-.991,13.517-6.647,16.617-8.118V45.344a1.253,1.253,0,0,1,2.505,0v8.764a1.253,1.253,0,0,1-.716,1.132c-4.273,2.023-15.674,7.462-17.1,8.333a17.057,17.057,0,0,0-3.758,3.01,1.25,1.25,0,0,1-.943.427"/>
        <path id="パス_4544" data-name="パス 4544" d="M70.546,67.01a1.249,1.249,0,0,1-.943-.427,17.055,17.055,0,0,0-3.757-3.01c-1.43-.871-12.831-6.31-17.1-8.333a1.253,1.253,0,0,1-.716-1.132V45.344a1.252,1.252,0,0,1,2.5,0v7.971c3.1,1.471,14.99,7.127,16.617,8.118a19.591,19.591,0,0,1,4.34,3.5,1.253,1.253,0,0,1-.942,2.078"/>
        <path id="パス_4545" data-name="パス 4545" d="M41.183,34.689H38.21a1.253,1.253,0,0,1,0-2.505h2.973a1.253,1.253,0,1,1,0,2.505"/>
        <path id="パス_4546" data-name="パス 4546" d="M51.129,29.007a1.253,1.253,0,0,1-1.253-1.253v-1.13l-1.227-1.739a1.252,1.252,0,0,1,2.046-1.444L52.152,25.5a1.252,1.252,0,0,1,.23.722v1.528a1.253,1.253,0,0,1-1.253,1.253"/>
        <path id="パス_4547" data-name="パス 4547" d="M39.735,50.856A13.75,13.75,0,0,1,26,37.121a1.252,1.252,0,1,1,2.5,0,11.23,11.23,0,1,0,22.46,0,1.253,1.253,0,1,1,2.505,0A13.751,13.751,0,0,1,39.735,50.856"/>
        <path id="パス_4548" data-name="パス 4548" d="M39.672,43.993a1.256,1.256,0,0,1-.561-.132l-2.859-1.429a1.253,1.253,0,0,1,1.12-2.241l2.312,1.155,2.434-1.165a1.253,1.253,0,0,1,1.082,2.26L40.213,43.87a1.251,1.251,0,0,1-.541.123"/>
        <path id="パス_4549" data-name="パス 4549" d="M26.3,38.393a5.212,5.212,0,0,1-4.024-1.736c-1.151-1.323-1.049-3.664-1-4.261V30.088a1.252,1.252,0,0,1,2.5,0v2.36c0,.037,0,.075,0,.112a4.422,4.422,0,0,0,.389,2.453,3,3,0,0,0,2.715.829,1.253,1.253,0,0,1,.541,2.446,5.538,5.538,0,0,1-1.121.105"/>
        <path id="パス_4550" data-name="パス 4550" d="M53.052,38.393a5.534,5.534,0,0,1-1.12-.105,1.253,1.253,0,1,1,.552-2.444,3,3,0,0,0,2.7-.831,4.417,4.417,0,0,0,.391-2.455c0-.036,0-.074,0-.11v-2.36a1.252,1.252,0,0,1,2.5,0V32.4c.047.6.15,2.938-1,4.261a5.219,5.219,0,0,1-4.026,1.736"/>
        <path id="パス_4551" data-name="パス 4551" d="M56.906,26.955A1.254,1.254,0,0,1,55.72,25.3c.807-2.379-.139-5.49-1.434-7.516a9.43,9.43,0,0,0-7.014-4.349,1.262,1.262,0,0,1-1.038-.643c-.037-.066-4.072-6.328-13.78-1.391-11,5.6-8.829,13.583-8.731,13.92a1.252,1.252,0,0,1-2.4.719c-.031-.1-2.943-10.289,9.994-16.871C40.573,4.459,46.245,8.57,48.049,11A12.019,12.019,0,0,1,56.4,16.433c1.5,2.347,2.843,6.288,1.695,9.671a1.253,1.253,0,0,1-1.186.851"/>
        <path id="パス_4552" data-name="パス 4552" d="M28.218,29.007a1.253,1.253,0,0,1-1.253-1.253V25.368a1.253,1.253,0,0,1,2.506,0v2.386a1.253,1.253,0,0,1-1.253,1.253"/>
        <path id="パス_4553" data-name="パス 4553" d="M45.315,38.65A5.216,5.216,0,1,1,50.7,33.436a5.308,5.308,0,0,1-5.384,5.214m0-7.922a2.713,2.713,0,1,0,2.879,2.708,2.8,2.8,0,0,0-2.879-2.708"/>
        <path id="パス_4554" data-name="パス 4554" d="M34.079,38.65a5.216,5.216,0,1,1,5.384-5.214,5.308,5.308,0,0,1-5.384,5.214m0-7.922a2.713,2.713,0,1,0,2.879,2.708,2.8,2.8,0,0,0-2.879-2.708"/>
        <path id="パス_4555" data-name="パス 4555" d="M38.743,26.416H28.277a1.253,1.253,0,1,1,0-2.505H38.644c.637-.108,5.119-.96,7.513-3.922a1.253,1.253,0,0,1,1.949,1.574c-3.2,3.957-8.945,4.807-9.188,4.841a1.286,1.286,0,0,1-.175.012"/>
        <path id="パス_4556" data-name="パス 4556" d="M44.274,72.348a1.256,1.256,0,0,1-.883-.363L38.875,67.5a1.254,1.254,0,0,1-.048-1.728l7.88-8.754A1.253,1.253,0,1,1,48.569,58.7l-7.082,7.868,2.71,2.69,8.128-9.54a1.252,1.252,0,0,1,1.907,1.624l-9,10.57a1.258,1.258,0,0,1-.9.439h-.052"/>
        <path id="パス_4557" data-name="パス 4557" d="M35.268,72.348h-.052a1.258,1.258,0,0,1-.9-.439l-9-10.57a1.252,1.252,0,0,1,1.907-1.624l8.128,9.54,2.71-2.69L30.972,58.7a1.253,1.253,0,1,1,1.862-1.676l7.881,8.754a1.254,1.254,0,0,1-.048,1.728l-4.516,4.483a1.256,1.256,0,0,1-.883.363"/>
      </g>
    </g>
  </g>
</svg>
