<svg xmlns="http://www.w3.org/2000/svg" xmlns:xlink="http://www.w3.org/1999/xlink" width="120" height="120" viewBox="0 0 120 120">
  <defs>
    <clipPath id="clip-path">
      <rect id="長方形_6076" data-name="長方形 6076" width="61.74" height="64" transform="translate(9.23)" fill="none"/>
    </clipPath>
  </defs>
  <g id="グループ_21094" data-name="グループ 21094" transform="translate(-519 -10375)">
    <circle id="楕円形_17" data-name="楕円形 17" cx="60" cy="60" r="60" transform="translate(519 10375)" fill="#fff"/>
    <g id="グループ_21091" data-name="グループ 21091" transform="translate(538.77 10403)">
      <g id="グループ_21090" data-name="グループ 21090" clip-path="url(#clip-path)">
        <path id="パス_4558" data-name="パス 4558" d="M22.539,26.183l5.952,3.078V22.643s4.925,1.026,8.516-.2,7.081-2.463,10.108-1.8a13.7,13.7,0,0,1,4.258,1.488v7.285l5.875-2.924s1.718-5.695-1.258-9.8a12.39,12.39,0,0,0-7.9-4.669A13.16,13.16,0,0,0,35.314,8.688c-8.055,2-11.646,8-12.262,10.415a35.781,35.781,0,0,0-.513,7.08" fill="#ffc417"/>
        <path id="パス_4559" data-name="パス 4559" d="M51.727,28.86V22.28a14.34,14.34,0,0,0-4.568-1.77c-2.925-.654-7.066.923-7.066.923v.025a39.192,39.192,0,0,1-5.028,1.476,16.429,16.429,0,0,1-6.542-.291V28.86l-5.618-2.848v8a3.219,3.219,0,0,0,2.348,2.733,8.717,8.717,0,0,0,2.308.192,12.944,12.944,0,0,0,3.579,8.7A13.188,13.188,0,0,0,40.125,49.5a13.188,13.188,0,0,0,8.985-3.861,12.944,12.944,0,0,0,3.579-8.7A8.726,8.726,0,0,0,55,36.749a3.219,3.219,0,0,0,2.347-2.733v-8Z" fill="#fff"/>
        <path id="パス_4560" data-name="パス 4560" d="M76.034,84.181S75.007,73.817,73.468,69.4s-5.438-6.772-7.49-7.9-16.316-8-16.316-8V44.778s-3.079,3.283-5.13,3.8a30.663,30.663,0,0,1-4.407.692,30.675,30.675,0,0,1-4.4-.692c-2.053-.513-5.131-3.8-5.131-3.8V53.5s-14.263,6.874-16.315,8-5.951,3.488-7.491,7.9S4.217,84.181,4.217,84.181,1.14,122.148,1.14,126.047a24.125,24.125,0,0,0,1.128,7.132H17.916v1.128h44.42v-1.128H77.983a24.106,24.106,0,0,0,1.129-7.132c0-3.9-3.078-41.866-3.078-41.866" fill="#fff"/>
        <path id="パス_4561" data-name="パス 4561" d="M36.039,33.19a1.613,1.613,0,1,1-1.612-1.612,1.613,1.613,0,0,1,1.612,1.612"/>
        <path id="パス_4562" data-name="パス 4562" d="M47.3,33.19a1.612,1.612,0,1,1-1.613-1.612A1.613,1.613,0,0,1,47.3,33.19"/>
        <path id="パス_4563" data-name="パス 4563" d="M40.137,50.594A13.751,13.751,0,0,1,26.4,36.858a1.252,1.252,0,0,1,2.5,0,11.23,11.23,0,1,0,22.459,0,1.252,1.252,0,0,1,2.5,0A13.751,13.751,0,0,1,40.137,50.594"/>
        <path id="パス_4564" data-name="パス 4564" d="M26.7,38.131a5.22,5.22,0,0,1-4.028-1.737c-1.15-1.322-1.047-3.662-1-4.26V29.826a1.253,1.253,0,1,1,2.505,0v2.361c0,.037,0,.074,0,.112a4.4,4.4,0,0,0,.389,2.45,3,3,0,0,0,2.715.831,1.253,1.253,0,0,1,.541,2.446,5.432,5.432,0,0,1-1.118.1"/>
        <path id="パス_4565" data-name="パス 4565" d="M53.451,38.131a5.405,5.405,0,0,1-1.117-.1,1.253,1.253,0,0,1,.55-2.444,3,3,0,0,0,2.7-.832,4.412,4.412,0,0,0,.391-2.454c0-.035-.005-.074-.005-.109V29.826a1.253,1.253,0,1,1,2.505,0v2.308c.048.6.15,2.938-1,4.261a5.218,5.218,0,0,1-4.027,1.736"/>
        <path id="パス_4566" data-name="パス 4566" d="M51.475,30.283a1.253,1.253,0,0,1-1.253-1.253V22.756c-1.505-.622-5.319-1.883-8.885-.448-5.521,2.221-9.423,1.98-11.543,1.5V29.03a1.253,1.253,0,1,1-2.505,0V22.085a1.253,1.253,0,0,1,1.853-1.1c.026.013,3.925,1.951,11.261-1,5.643-2.27,11.416.732,11.659.861a1.252,1.252,0,0,1,.666,1.106V29.03a1.253,1.253,0,0,1-1.253,1.253"/>
        <path id="パス_4567" data-name="パス 4567" d="M40.166,90.389a1.253,1.253,0,0,1-.915-2.108c8.269-8.841,12.734-27.7,12.778-27.895a1.253,1.253,0,0,1,2.441.568c-.187.8-4.659,19.7-13.389,29.038a1.248,1.248,0,0,1-.915.4"/>
        <path id="パス_4568" data-name="パス 4568" d="M71,66.747a1.249,1.249,0,0,1-.943-.427,17.006,17.006,0,0,0-3.757-3.01c-1.43-.871-12.831-6.311-17.1-8.334a1.251,1.251,0,0,1-.717-1.132V45.081a1.253,1.253,0,1,1,2.506,0v7.971c3.1,1.471,14.988,7.127,16.616,8.117a19.579,19.579,0,0,1,4.339,3.5A1.253,1.253,0,0,1,71,66.747"/>
        <path id="パス_4569" data-name="パス 4569" d="M40.035,90.389a1.248,1.248,0,0,1-.915-.4c-8.73-9.333-13.2-28.238-13.388-29.038a1.253,1.253,0,0,1,2.44-.568c.044.19,4.509,19.054,12.778,27.895a1.253,1.253,0,0,1-.915,2.108"/>
        <path id="パス_4570" data-name="パス 4570" d="M9.206,66.747a1.253,1.253,0,0,1-.941-2.078,19.608,19.608,0,0,1,4.339-3.5c1.627-.99,13.517-6.646,16.617-8.117V45.081a1.252,1.252,0,1,1,2.5,0v8.763a1.252,1.252,0,0,1-.716,1.132c-4.273,2.023-15.674,7.463-17.1,8.333a17.074,17.074,0,0,0-3.757,3.011,1.25,1.25,0,0,1-.943.427"/>
        <path id="パス_4571" data-name="パス 4571" d="M57.325,26.667a1.256,1.256,0,0,1-1.212-1.574c.01-.035.924-3.578-.069-5.908a9.65,9.65,0,0,0-8.019-6.016,1.253,1.253,0,1,1,.181-2.5A12.15,12.15,0,0,1,58.349,18.2c1.333,3.13.233,7.356.186,7.534a1.254,1.254,0,0,1-1.21.931"/>
        <path id="パス_4572" data-name="パス 4572" d="M22.794,26.512a1.253,1.253,0,0,1-1.234-1.046,13.368,13.368,0,0,1,2.688-11.018c2.9-3.448,8.58-7.474,15.016-7.474,6.833,0,9.428,4.117,9.535,4.292a1.253,1.253,0,0,1-2.132,1.316c-.091-.143-2.058-3.1-7.4-3.1-5.964,0-11.04,4.138-13.1,6.582a10.912,10.912,0,0,0-2.133,8.992A1.253,1.253,0,0,1,23,26.5a1.233,1.233,0,0,1-.208.017"/>
        <path id="パス_4573" data-name="パス 4573" d="M39.9,62.786c-6.4,0-9.87-2.865-10.016-2.988a1.253,1.253,0,0,1,1.609-1.92c.048.039,3.08,2.461,8.613,2.4h.014a1.253,1.253,0,0,1,.013,2.505H39.9"/>
        <path id="パス_4574" data-name="パス 4574" d="M40.358,62.786h-.233a1.253,1.253,0,0,1,.013-2.505h.216c5.431,0,8.383-2.379,8.412-2.4A1.253,1.253,0,0,1,50.375,59.8c-.146.123-3.621,2.988-10.017,2.988"/>
        <path id="パス_4575" data-name="パス 4575" d="M40.046,43.2a14.627,14.627,0,0,1-3.947-.759,1.253,1.253,0,0,1,.8-2.374,11.3,11.3,0,0,0,3.2.627,1.253,1.253,0,0,1,.04,2.505h-.093"/>
        <path id="パス_4576" data-name="パス 4576" d="M40.194,43.2H40.1a1.253,1.253,0,0,1,.02-2.505H40.2a12.26,12.26,0,0,0,3.143-.628,1.253,1.253,0,0,1,.8,2.374,14.618,14.618,0,0,1-3.947.759"/>
        <path id="パス_4577" data-name="パス 4577" d="M36.138,43.664c-.031,0-.063,0-.094,0a1.253,1.253,0,0,1-1.157-1.342c.131-1.749.741-2.392,1.231-2.623a1.253,1.253,0,0,1,1.4,2.035,2.93,2.93,0,0,0-.136.774,1.253,1.253,0,0,1-1.248,1.16m1.05-1.7h0m0,0h0Zm0,0h0m0,0h0m0,0h0Z"/>
        <path id="パス_4578" data-name="パス 4578" d="M44.061,43.664a1.251,1.251,0,0,1-1.247-1.16,2.978,2.978,0,0,0-.136-.775,1.252,1.252,0,0,1,1.4-2.034c.489.231,1.1.874,1.229,2.624a1.25,1.25,0,0,1-1.156,1.341c-.031,0-.063,0-.094,0m-1.05-1.7h0m0,0h0Zm0,0h0Zm0,0h0m0,0h0Z"/>
      </g>
    </g>
  </g>
</svg>
