<svg id="グループ_21156" data-name="グループ 21156" xmlns="http://www.w3.org/2000/svg" xmlns:xlink="http://www.w3.org/1999/xlink" width="198.727" height="191.936" viewBox="0 0 198.727 191.936">
  <defs>
    <clipPath id="clip-path">
      <rect id="長方形_6094" data-name="長方形 6094" width="198.727" height="191.936" fill="none"/>
    </clipPath>
  </defs>
  <g id="グループ_21155" data-name="グループ 21155" clip-path="url(#clip-path)">
    <path id="パス_4683" data-name="パス 4683" d="M136.488,129.679a11.211,11.211,0,0,0-3.9,3.581c-1.131,2.073.188,3.9.879,5.089a7,7,0,0,0,4.775,2.639,7.965,7.965,0,0,0,4.712-.817,22.615,22.615,0,0,0,3.2-2.639l18.785.44a11.866,11.866,0,0,0,4.9,4.586c3.016,1.257,11.686.88,16.272-1.759a11.385,11.385,0,0,0,5.529-7.979c.063-.691,2.953-3.392,4.586-7.225s2.325-9.424-.314-13.319-9.361-.88-9.361-.88A12.712,12.712,0,0,0,177.514,108c-5.717.125-8.419,2.136-11.5,4.335a5,5,0,0,0-1.821,5.654l-.943,13.319-18.345.88a3.7,3.7,0,0,0-3.016-3.141,11.617,11.617,0,0,0-5.4.628" fill="#fff"/>
    <path id="パス_4684" data-name="パス 4684" d="M70.015,178v5.461H93.391v-5.548Z" fill="#ffc417"/>
    <path id="パス_4685" data-name="パス 4685" d="M93.391,177.3c.586,3.853-4.148,7.426-10.574,7.981a18.448,18.448,0,0,1-5.874-.41,14.306,14.306,0,0,1-2.251-.737,10.678,10.678,0,0,1-2.113-1.183,5.675,5.675,0,0,1-2.459-3.641c-.586-3.852,4.148-7.426,10.574-7.981s12.111,2.118,12.7,5.971" fill="#ffc417"/>
    <path id="パス_4686" data-name="パス 4686" d="M93.391,182.745c.586,3.853-4.148,7.426-10.574,7.981a18.447,18.447,0,0,1-5.874-.41,14.306,14.306,0,0,1-2.251-.737,10.678,10.678,0,0,1-2.113-1.183,5.675,5.675,0,0,1-2.459-3.641c-.586-3.852,4.148-7.426,10.574-7.981s12.111,2.118,12.7,5.971" fill="#ffc417"/>
    <path id="パス_4687" data-name="パス 4687" d="M72.339,183.91a1.127,1.127,0,0,1-.7-.243A6.654,6.654,0,0,1,69,179.485a5.932,5.932,0,0,1,1.352-4.62c2-2.539,5.829-4.282,10.247-4.664,7.115-.615,13.233,2.43,13.918,6.932A6.009,6.009,0,0,1,92.962,182a1.136,1.136,0,0,1-1.73-1.473,3.878,3.878,0,0,0,1.036-3.05c-.489-3.211-5.742-5.505-11.476-5.01-3.748.324-7.065,1.782-8.658,3.805a3.68,3.68,0,0,0-.891,2.873,4.447,4.447,0,0,0,1.8,2.738,1.136,1.136,0,0,1-.7,2.029"/>
    <path id="パス_4688" data-name="パス 4688" d="M81.122,186.495a19.237,19.237,0,0,1-3.818-.376,1.136,1.136,0,1,1,.451-2.227,17.431,17.431,0,0,0,4.965.261,16.591,16.591,0,0,0,4.531-1.014,1.136,1.136,0,0,1,.816,2.121,18.913,18.913,0,0,1-5.152,1.157q-.9.078-1.793.078"/>
    <path id="パス_4689" data-name="パス 4689" d="M81.122,191.936a19.237,19.237,0,0,1-3.818-.376,1.136,1.136,0,1,1,.451-2.227,17.43,17.43,0,0,0,4.965.261,16.59,16.59,0,0,0,4.531-1.014,1.136,1.136,0,0,1,.816,2.121,18.913,18.913,0,0,1-5.152,1.157q-.9.078-1.793.078"/>
    <path id="パス_4690" data-name="パス 4690" d="M77.531,191.583a1.116,1.116,0,0,1-.19-.016,18.108,18.108,0,0,1-5.616-2.375,1.059,1.059,0,0,1-.087-.062A6.649,6.649,0,0,1,69,184.949a1.233,1.233,0,0,1-.013-.172V179.97a1.137,1.137,0,0,1,2.273,0v4.715A4.461,4.461,0,0,0,73,187.309a15.818,15.818,0,0,0,4.72,2.017,1.136,1.136,0,0,1-.187,2.257"/>
    <path id="パス_4691" data-name="パス 4691" d="M90.266,178.357a1.715,1.715,0,1,1-1.714-1.714,1.714,1.714,0,0,1,1.714,1.714" fill="#fff"/>
    <path id="パス_4692" data-name="パス 4692" d="M76.574,159.909c-2.569-.689-5.29.534-6.107,1.777-1.032,1.569-.352,4,2.447,4.536,3.269.629,4.67-3.737,8.825-.7,0,0-1.084-4.519-5.165-5.614" fill="#ffc417"/>
    <path id="パス_4693" data-name="パス 4693" d="M73.558,167.421a4.462,4.462,0,0,1-.858-.083,4.605,4.605,0,0,1-3.518-2.612,3.9,3.9,0,0,1,.335-3.664c1.14-1.733,4.365-3.05,7.351-2.25,4.681,1.255,5.925,6.235,5.975,6.446a1.136,1.136,0,0,1-1.775,1.182c-1.9-1.385-2.837-.868-4.261-.084a6.639,6.639,0,0,1-3.249,1.065m1.459-6.578a4.8,4.8,0,0,0-3.6,1.467,1.628,1.628,0,0,0-.14,1.532,2.359,2.359,0,0,0,1.853,1.265,3.732,3.732,0,0,0,2.583-.742,6.1,6.1,0,0,1,3.745-1.031,5.719,5.719,0,0,0-3.177-2.327,4.842,4.842,0,0,0-1.263-.164"/>
    <path id="パス_4694" data-name="パス 4694" d="M86.892,159.909c2.569-.689,5.29.534,6.107,1.777,1.032,1.569.352,4-2.447,4.536-3.269.629-4.67-3.737-8.825-.7a9.2,9.2,0,0,1,2.134-3.8,6.524,6.524,0,0,1,3.031-1.813" fill="#ffc417"/>
    <path id="パス_4695" data-name="パス 4695" d="M89.907,167.421a6.639,6.639,0,0,1-3.248-1.066c-1.425-.783-2.366-1.3-4.261.085a1.137,1.137,0,0,1-1.776-1.182,10.373,10.373,0,0,1,2.421-4.325,7.629,7.629,0,0,1,3.555-2.121c2.986-.8,6.211.516,7.35,2.249a3.9,3.9,0,0,1,.335,3.665,4.978,4.978,0,0,1-4.376,2.7m-5.39-4.116a6.609,6.609,0,0,1,3.237,1.06,3.733,3.733,0,0,0,2.583.742,2.361,2.361,0,0,0,1.853-1.265,1.628,1.628,0,0,0-.141-1.532,5.026,5.026,0,0,0-4.863-1.3,5.4,5.4,0,0,0-2.507,1.5,6.949,6.949,0,0,0-.677.824,4.546,4.546,0,0,1,.515-.029m2.375-3.4h0Z"/>
    <path id="パス_4696" data-name="パス 4696" d="M81.713,178.271a1.137,1.137,0,0,1-1.136-1.136V165.454a1.136,1.136,0,1,1,2.272,0v11.681a1.137,1.137,0,0,1-1.136,1.136"/>
    <path id="パス_4697" data-name="パス 4697" d="M136.577,138.989c-2.467,0-4.488-1.02-5.189-2.852a4.573,4.573,0,0,1,.9-4.441,10.566,10.566,0,0,1,9.678-3.7,4.572,4.572,0,0,1,3.636,2.7c1.039,2.715-1.269,6.036-5.255,7.561a10.629,10.629,0,0,1-3.772.732m3.847-8.868a8.436,8.436,0,0,0-2.968.577,7.71,7.71,0,0,0-3.352,2.367,2.531,2.531,0,0,0-.6,2.259c.493,1.287,3.09,1.936,6.027.811s4.438-3.341,3.947-4.627a2.535,2.535,0,0,0-1.951-1.285,5.791,5.791,0,0,0-1.108-.1"/>
    <path id="パス_4698" data-name="パス 4698" d="M173.8,124.135a14.957,14.957,0,0,1-5.664-1.043c-2.745-1.13-4.487-3.03-4.9-5.349s.552-4.707,2.73-6.724a17.494,17.494,0,0,1,17.145-3.088c2.745,1.13,4.487,3.03,4.9,5.349a1.136,1.136,0,0,1-2.236.4c-.275-1.53-1.53-2.826-3.533-3.651a15.243,15.243,0,0,0-14.736,2.654c-1.59,1.472-2.313,3.125-2.038,4.654s1.53,2.826,3.533,3.65a14.064,14.064,0,0,0,7.717.608,14.872,14.872,0,0,0,6.226-2.6,1.136,1.136,0,0,1,1.369,1.814,16.959,16.959,0,0,1-7.192,3.022,18.822,18.822,0,0,1-3.321.3"/>
    <path id="パス_4699" data-name="パス 4699" d="M180.09,118.438a1.136,1.136,0,0,1-.479-.106l-7.979-3.706a1.136,1.136,0,0,1,.958-2.061L180,116.006c1.328-.923,1.274-1.41,1.226-1.845-.1-.911-1.834-1.209-2.842-1.242a1.136,1.136,0,1,1,.074-2.271c2.931.1,4.81,1.315,5.026,3.262.194,1.747-.615,3.01-2.793,4.358a1.137,1.137,0,0,1-.6.17"/>
    <path id="パス_4700" data-name="パス 4700" d="M141.322,142a1.136,1.136,0,0,1-.153-2.262c.064-.011,1.957-.352,4.141-2.82a1.134,1.134,0,0,1,.878-.383l18.817.46a1.136,1.136,0,1,1-.055,2.272l-18.3-.448c-2.631,2.779-4.923,3.139-5.186,3.172a1.129,1.129,0,0,1-.142.009"/>
    <path id="パス_4701" data-name="パス 4701" d="M148.484,133.328a1.136,1.136,0,0,1-.057-2.271l14.705-.754a1.136,1.136,0,0,1,.115,2.27l-14.7.754h-.06"/>
    <path id="パス_4702" data-name="パス 4702" d="M163.47,132.48l-.062,0a1.136,1.136,0,0,1-1.074-1.195l.788-14.8a1.136,1.136,0,0,1,2.269.121l-.788,14.8a1.136,1.136,0,0,1-1.133,1.076"/>
    <path id="パス_4703" data-name="パス 4703" d="M175.851,144.306a18.249,18.249,0,0,1-7.927-1.53,11.234,11.234,0,0,1-3.481-3.147,1.136,1.136,0,0,1,1.886-1.268,9.048,9.048,0,0,0,2.714,2.438c1.649.934,7.951,2.263,13.761.01,5.837-2.262,8.183-5.44,7.383-10-.734-4.179-4.308-16.745-4.344-16.871a1.136,1.136,0,1,1,2.185-.623c.148.521,3.643,12.807,4.4,17.1.993,5.654-1.968,9.864-8.8,12.512a21.637,21.637,0,0,1-7.774,1.378"/>
    <path id="パス_4704" data-name="パス 4704" d="M194.473,129.841a1.124,1.124,0,0,1-.627-.19,1.135,1.135,0,0,1-.318-1.575,24.035,24.035,0,0,0,1.888-3.935c1.123-2.842,1.772-8.28-.4-10.923-1.692-2.054-5.327-1.228-5.363-1.219a1.136,1.136,0,0,1-.529-2.21c.205-.049,5.046-1.172,7.646,1.984,2.945,3.576,2.031,10,.764,13.2a25.39,25.39,0,0,1-2.109,4.356,1.132,1.132,0,0,1-.947.508"/>
    <path id="パス_4705" data-name="パス 4705" d="M86.887,153.118a1.136,1.136,0,0,1-.748-1.992c15.613-13.626,37.249-17.358,38.162-17.511a1.136,1.136,0,1,1,.374,2.242c-.217.036-21.925,3.788-37.042,16.981a1.129,1.129,0,0,1-.746.28"/>
    <path id="パス_4706" data-name="パス 4706" d="M110.353,150.856a1.136,1.136,0,0,1-.688-2.041,71.813,71.813,0,0,1,14.1-8.342,1.136,1.136,0,0,1,.879,2.1,70.92,70.92,0,0,0-13.606,8.056,1.13,1.13,0,0,1-.686.231"/>
    <path id="パス_4707" data-name="パス 4707" d="M106.205,175.548a1.136,1.136,0,0,1-1-1.68c9.054-16.6,24.644-28.879,24.8-29a1.136,1.136,0,1,1,1.4,1.791c-.153.12-15.381,12.121-24.2,28.3a1.138,1.138,0,0,1-1,.592"/>
    <path id="パス_4708" data-name="パス 4708" d="M52.112,156.886c1.065,3.156,1.929,4.02,5.085,5.085-3.156,1.066-4.02,1.929-5.085,5.086-1.065-3.157-1.929-4.02-5.085-5.086,3.156-1.065,4.02-1.929,5.085-5.085" fill="#fff"/>
    <path id="パス_4709" data-name="パス 4709" d="M52.112,168.194a1.136,1.136,0,0,1-1.076-.773c-.949-2.811-1.562-3.424-4.372-4.373a1.135,1.135,0,0,1,0-2.152c2.81-.949,3.423-1.562,4.372-4.373a1.137,1.137,0,0,1,2.153,0c.948,2.811,1.561,3.424,4.372,4.373a1.135,1.135,0,0,1,0,2.152c-2.811.949-3.424,1.562-4.372,4.373a1.136,1.136,0,0,1-1.077.773M49.9,161.972a5.851,5.851,0,0,1,2.216,2.216,5.861,5.861,0,0,1,2.217-2.216,5.861,5.861,0,0,1-2.217-2.216,5.851,5.851,0,0,1-2.216,2.216"/>
    <path id="パス_4710" data-name="パス 4710" d="M94.416,86.78v25.99L62.383,123.564l-19.424-20.38V77.194Z" fill="#ffc417"/>
    <path id="パス_4711" data-name="パス 4711" d="M52.594,109.49v17.284L20.561,137.568,1.137,117.188V99.9Z" fill="#ffc417"/>
    <path id="パス_4712" data-name="パス 4712" d="M20.56,138.705a1.137,1.137,0,0,1-.822-.352L.313,117.972A1.136,1.136,0,0,1,0,117.189V99.9a1.136,1.136,0,0,1,1.344-1.117L52.8,108.373a1.137,1.137,0,0,1,.929,1.117v17.284a1.137,1.137,0,0,1-.774,1.077L20.923,138.646a1.14,1.14,0,0,1-.363.059M2.272,116.734l18.611,19.527,30.574-10.3V110.434L2.272,101.272Z"/>
    <path id="パス_4713" data-name="パス 4713" d="M20.56,120.285,1.136,99.9,32.749,89.646l19.844,19.845Z" fill="#fff"/>
    <path id="パス_4714" data-name="パス 4714" d="M24.7,15.591,55.927,5.445,74.869,24.858,43.738,35.193Z" fill="#fff"/>
    <path id="パス_4715" data-name="パス 4715" d="M26.147,16.533,43.738,35.192,75.277,24.826V41.664L52.6,49.454s-7.288-.314-9.361-.377-4.775.628-7.728-2.2-2.262-5.9-5.277-8.984a21.483,21.483,0,0,0-4.9-4.021l-3.581-4.335L20.43,25.2s3.33-.5,4.4-2.325,1.319-6.345,1.319-6.345" fill="#ffc417"/>
    <path id="パス_4716" data-name="パス 4716" d="M21.875,29.161,20.43,25.2s3.581-.628,4.4-2.325.628-3.644,1.068-4.649a4.4,4.4,0,0,0-.251-3.581c-.566-.754-3.267-4.523-3.267-4.523L18.985,4.6a12.035,12.035,0,0,0-4.712-1.005A6.961,6.961,0,0,0,9.058,5.224c-1.193.942-2.45,3.77-2.45,3.77S2.65,11.255,3.09,14.9s2.764,7.665,3.832,8.356,3.958,2.074,3.958,2.074l-.628,2.638L8.43,31.423s-3.455,5.089-4.209,6.659S1.205,45.433,2.713,48.26s9.612,3.581,9.612,3.581S14.4,55.8,14.336,58.689a15.92,15.92,0,0,1-.5,4.21l.691,3.644s3.33,3.832,10.115,4.021A24.123,24.123,0,0,0,36.2,68.051a93.263,93.263,0,0,0-1.382-9.864s8.482,0,12.817-2.011,5.4-2.387,5.4-2.387,5.4-.88,6.471-2.45a10.1,10.1,0,0,0,1.131-4.461l-7.916,2.136-7.477.314a13.239,13.239,0,0,1-7.6-1.193c-3.392-1.885-3.455-4.524-5.465-7.917s-6.534-6.973-6.534-6.973Z" fill="#fff"/>
    <path id="パス_4717" data-name="パス 4717" d="M9.624,27.842,7.865,31.235a12.663,12.663,0,0,0,8.419,3.141,34.777,34.777,0,0,0,9.612-.942l-4.021-4.273a29.4,29.4,0,0,1-5.906.817c-2.261-.063-6.345-2.136-6.345-2.136" fill="#ffc417"/>
    <path id="パス_4718" data-name="パス 4718" d="M14.524,66.543a17.113,17.113,0,0,0,6.22,3.33,28.862,28.862,0,0,0,12,.251,6.626,6.626,0,0,0,3.9-2.073l.251,10.806s-.5,11.686-2.2,17.34-3.706,11.623-3.706,11.623a2.792,2.792,0,0,1-2.639,2.387c-2.388.189-3.833-.314-4.963-1.445s-1.069-3.643-1.069-3.643a6.953,6.953,0,0,1-4.586-.692c-2.513-1.256-2.2-3.518-2.2-6.911S17.54,86.459,17.791,81.81,15.466,71.443,15.152,70s-.628-3.455-.628-3.455" fill="#ffc417"/>
    <path id="パス_4719" data-name="パス 4719" d="M10.377,24.575l4.085-.188,3.14-6.472s-1.193-2.45-.251-3.455a14.023,14.023,0,0,1,1.068-4.712A7.712,7.712,0,0,1,20.743,7.3l-.5-2.513a11.577,11.577,0,0,0-5.97-1.194c-3.392.251-4.9.88-5.654,1.885A33.284,33.284,0,0,0,6.607,8.994a7.932,7.932,0,0,0-3.392,6.6,11,11,0,0,0,3.2,7.476Z" fill="#ffc417"/>
    <path id="パス_4720" data-name="パス 4720" d="M178.062,21.826v61.9L146.029,94.516,126.6,74.136l.845-62.741Z" fill="#ffc417"/>
    <path id="パス_4721" data-name="パス 4721" d="M127.08,45.266l.37-33.871,50.612,10.431" fill="#ffc417"/>
    <path id="パス_4722" data-name="パス 4722" d="M127.08,46.4h-.013a1.136,1.136,0,0,1-1.123-1.148l.369-33.871a1.137,1.137,0,0,1,1.366-1.1l50.612,10.431a1.136,1.136,0,0,1-.459,2.226L128.57,12.786l-.354,32.492A1.137,1.137,0,0,1,127.08,46.4"/>
    <path id="パス_4723" data-name="パス 4723" d="M178.062,21.826v61.9L146.029,94.516l-6.043-6.34" fill="#ffc417"/>
    <path id="パス_4724" data-name="パス 4724" d="M146.029,95.652a1.135,1.135,0,0,1-.823-.352l-6.042-6.34a1.136,1.136,0,0,1,1.645-1.568l5.543,5.816,30.574-10.3V21.826a1.136,1.136,0,0,1,2.272,0v61.9a1.136,1.136,0,0,1-.773,1.076l-32.033,10.8a1.14,1.14,0,0,1-.363.059"/>
    <path id="パス_4725" data-name="パス 4725" d="M146.874,31.775,127.45,11.395,159.063,1.136l19,20.69Z" fill="#fff"/>
    <path id="パス_4726" data-name="パス 4726" d="M146.874,32.911a1.138,1.138,0,0,1-.823-.352l-19.423-20.38a1.136,1.136,0,0,1,.471-1.865L158.712.055A1.137,1.137,0,0,1,159.9.368l19,20.689a1.135,1.135,0,0,1-.492,1.851l-31.187,9.949a1.149,1.149,0,0,1-.345.054M129.518,11.918l17.688,18.558,28.815-9.192-17.3-18.842Z"/>
    <path id="パス_4727" data-name="パス 4727" d="M136.239,60.238V98.943l-32.033,10.794L84.782,89.357V50.652Z" fill="#ffc417"/>
    <path id="パス_4728" data-name="パス 4728" d="M84.782,72.808a1.136,1.136,0,0,1-1.136-1.136V50.652a1.136,1.136,0,0,1,1.344-1.117l51.457,9.586a1.136,1.136,0,1,1-.416,2.233L85.918,52.019V71.672a1.137,1.137,0,0,1-1.136,1.136"/>
    <path id="パス_4729" data-name="パス 4729" d="M104.206,110.873a1.135,1.135,0,0,1-.823-.352l-5.758-6.042a1.136,1.136,0,1,1,1.645-1.568l5.259,5.518,30.574-10.3V60.238a1.136,1.136,0,0,1,2.272,0V98.943a1.135,1.135,0,0,1-.773,1.076l-32.033,10.8a1.14,1.14,0,0,1-.363.059"/>
    <path id="パス_4730" data-name="パス 4730" d="M104.206,71.032,84.782,50.652l31.613-10.259,19.844,19.845Z" fill="#fff"/>
    <path id="パス_4731" data-name="パス 4731" d="M104.206,72.168a1.139,1.139,0,0,1-.823-.352L83.959,51.436a1.136,1.136,0,0,1,.472-1.865l31.613-10.259a1.139,1.139,0,0,1,1.154.278l19.844,19.844a1.136,1.136,0,0,1-.44,1.88L104.569,72.108a1.141,1.141,0,0,1-.363.06M86.85,51.175l17.679,18.549,29.611-9.978L116.083,41.689Z"/>
    <path id="パス_4732" data-name="パス 4732" d="M62.383,97.574,42.959,77.194,74.572,66.935,94.416,86.78Z" fill="#fff"/>
    <path id="パス_4733" data-name="パス 4733" d="M62.383,98.71a1.133,1.133,0,0,1-.822-.352L42.136,77.978a1.136,1.136,0,0,1,.472-1.865L74.221,65.854a1.136,1.136,0,0,1,1.154.278L95.22,85.976a1.136,1.136,0,0,1-.441,1.88L62.746,98.651a1.14,1.14,0,0,1-.363.059M45.027,77.717,62.706,96.266l29.612-9.978L74.261,68.231Z"/>
    <path id="パス_4734" data-name="パス 4734" d="M42.959,95.341a1.137,1.137,0,0,1-1.136-1.136V77.193a1.136,1.136,0,1,1,2.272,0V94.205a1.137,1.137,0,0,1-1.136,1.136"/>
    <path id="パス_4735" data-name="パス 4735" d="M62.383,124.7a1.135,1.135,0,0,1-.823-.352l-5.779-6.064a1.136,1.136,0,0,1,1.645-1.567l5.28,5.539,30.574-10.3V86.78a1.136,1.136,0,0,1,2.272,0v25.99a1.135,1.135,0,0,1-.773,1.076L62.746,124.641a1.14,1.14,0,0,1-.363.059"/>
    <path id="パス_4736" data-name="パス 4736" d="M20.56,121.421a1.135,1.135,0,0,1-.823-.352L.313,100.689a1.136,1.136,0,0,1,.472-1.865l11.042-3.583a1.136,1.136,0,1,1,.7,2.161L3.2,100.428l17.679,18.549L50.495,109,37.669,96.173a1.136,1.136,0,1,1,1.606-1.607L53.4,108.687a1.137,1.137,0,0,1-.441,1.88L20.923,121.362a1.14,1.14,0,0,1-.363.059"/>
    <path id="パス_4737" data-name="パス 4737" d="M90.042,10.631c1.065,3.156,1.929,4.02,5.085,5.085-3.156,1.066-4.02,1.929-5.085,5.086-1.065-3.157-1.929-4.02-5.085-5.086,3.156-1.065,4.02-1.929,5.085-5.085" fill="#fff"/>
    <path id="パス_4738" data-name="パス 4738" d="M90.041,21.939a1.136,1.136,0,0,1-1.076-.773c-.949-2.811-1.562-3.424-4.372-4.373a1.135,1.135,0,0,1,0-2.152c2.81-.949,3.423-1.562,4.372-4.373a1.136,1.136,0,0,1,2.153,0c.949,2.811,1.562,3.424,4.372,4.373a1.135,1.135,0,0,1,0,2.152c-2.81.949-3.423,1.562-4.372,4.373a1.136,1.136,0,0,1-1.077.773m-2.216-6.222a5.851,5.851,0,0,1,2.216,2.216,5.861,5.861,0,0,1,2.217-2.216A5.861,5.861,0,0,1,90.041,13.5a5.851,5.851,0,0,1-2.216,2.216"/>
    <path id="パス_4739" data-name="パス 4739" d="M56.209,49.271a1.136,1.136,0,0,1-.367-2.212L73.882,40.9V24.826a1.136,1.136,0,1,1,2.272,0V41.712a1.136,1.136,0,0,1-.77,1.076L56.576,49.21a1.144,1.144,0,0,1-.367.061"/>
    <path id="パス_4740" data-name="パス 4740" d="M43.719,36.508a1.135,1.135,0,0,1-.823-.352L29.386,21.981a1.136,1.136,0,0,1,1.645-1.568L44.042,34.064l28.877-9.731-17.6-17.6-25.9,8.4a1.136,1.136,0,0,1-.7-2.161l26.565-8.62a1.137,1.137,0,0,1,1.154.277l19.389,19.39a1.136,1.136,0,0,1-.441,1.88l-31.3,10.547a1.14,1.14,0,0,1-.363.059"/>
    <path id="パス_4741" data-name="パス 4741" d="M10.263,25.969a1.121,1.121,0,0,1-.564-.151l-3.837-2.2a1.165,1.165,0,0,1-.2-.144,12.078,12.078,0,0,1-3.558-9.331A7.055,7.055,0,0,1,5.447,8.5c.651-1.216,2.9-5.069,5.624-5.756,2.814-.71,8.408.456,9.036.591a1.136,1.136,0,0,1,.859.819l.508,1.91a1.136,1.136,0,0,1-2.2.584l-.326-1.228c-1.925-.365-5.609-.907-7.325-.473-1.555.392-3.471,3.207-4.314,4.889a1.133,1.133,0,0,1-.539.522,4.738,4.738,0,0,0-2.4,3.943,9.959,9.959,0,0,0,2.743,7.415l3.713,2.128a1.136,1.136,0,0,1-.566,2.122"/>
    <path id="パス_4742" data-name="パス 4742" d="M17.5,14.612a1.782,1.782,0,0,0-.392,2.019,3,3,0,0,0,1.3,1.592" fill="#fff"/>
    <path id="パス_4743" data-name="パス 4743" d="M17.927,19.255a4.046,4.046,0,0,1-1.869-2.187,2.894,2.894,0,0,1,.7-3.314l1.49,1.716.023-.021a.636.636,0,0,0-.112.745,2.046,2.046,0,0,0,.758,1.014.328.328,0,0,0-.037-.017Z"/>
    <path id="パス_4744" data-name="パス 4744" d="M20.688,26.1a1.136,1.136,0,0,1-.328-2.224c.567-.172,1.049-.276,1.475-.367,1.281-.277,1.512-.327,1.96-1.581a9.724,9.724,0,0,0,.651-3.592,1.167,1.167,0,0,1,.1-.571,14.407,14.407,0,0,0,.656-1.647,8.085,8.085,0,0,0-1.2-.68,1.135,1.135,0,0,1-.558-.56,12.152,12.152,0,0,0-2.285-3.449,1.136,1.136,0,0,1,1.56-1.652,13.9,13.9,0,0,1,2.613,3.779c2.1,1.045,2.17,1.844,2.2,2.155a6.627,6.627,0,0,1-.811,2.765,12.587,12.587,0,0,1-.788,4.216,4.011,4.011,0,0,1-3.621,3.038c-.4.086-.818.176-1.3.321a1.141,1.141,0,0,1-.329.049"/>
    <path id="パス_4745" data-name="パス 4745" d="M7.866,52.287a1.078,1.078,0,0,1-.169-.013C4.99,51.87.055,49.7.746,44.378c.607-4.664,4.039-10.493,4.185-10.739A1.136,1.136,0,0,1,6.886,34.8c-.034.056-3.341,5.676-3.886,9.873a4.037,4.037,0,0,0,2.13,4.271,8.953,8.953,0,0,0,2.906,1.086,1.136,1.136,0,0,1-.17,2.259"/>
    <path id="パス_4746" data-name="パス 4746" d="M37.012,59.372a22.047,22.047,0,0,1-4.738-.5c-4.8-1.055-7.784-5.294-7.908-5.474a1.136,1.136,0,1,1,1.867-1.3c.024.035,2.619,3.689,6.529,4.55,7.985,1.756,16.316-2.26,18.337-3.328a24.044,24.044,0,0,0,.223-3.066c-2.173.083-6.949.232-10.7.114-4.416-.139-6.084-3.379-7.7-6.513a30.037,30.037,0,0,0-2.106-3.654,26.879,26.879,0,0,0-5.393-5.286,1.136,1.136,0,1,1,1.324-1.846A28.844,28.844,0,0,1,32.67,38.9a31.84,31.84,0,0,1,2.271,3.925c1.7,3.311,2.813,5.19,5.75,5.282,4.907.155,11.628-.158,11.7-.162a1.138,1.138,0,0,1,1.187,1.07,25.63,25.63,0,0,1-.32,5.235,1.138,1.138,0,0,1-.544.787,34.479,34.479,0,0,1-15.7,4.338"/>
    <path id="パス_4747" data-name="パス 4747" d="M53.57,54.878a8.476,8.476,0,0,1-.871-.039,1.136,1.136,0,1,1,.251-2.258c.032,0,3.359.329,5.439-1.561a21.692,21.692,0,0,0,1.221-3.881,1.136,1.136,0,0,1,2.21.53c-.669,2.788-1.288,4.462-1.84,4.975a9.551,9.551,0,0,1-6.41,2.234"/>
    <path id="パス_4748" data-name="パス 4748" d="M25.378,12.04A2.4,2.4,0,0,1,23.9,15.061a2.4,2.4,0,0,1-2.727-1.969,2.4,2.4,0,0,1,1.476-3.02,2.394,2.394,0,0,1,2.727,1.968" fill="#fff"/>
    <path id="パス_4749" data-name="パス 4749" d="M23.458,16.252a3.645,3.645,0,0,1-3.385-2.883,3.528,3.528,0,0,1,2.3-4.4,3.528,3.528,0,0,1,4.1,2.794,3.528,3.528,0,0,1-2.3,4.4,2.963,2.963,0,0,1-.72.089m-.355-5.1a.735.735,0,0,0-.175.021c-.542.136-.84.889-.651,1.644s.807,1.277,1.349,1.142.839-.889.65-1.643A1.407,1.407,0,0,0,23.1,11.152"/>
    <path id="パス_4750" data-name="パス 4750" d="M22.941,19.261A3.181,3.181,0,0,0,24.864,20" fill="#fff"/>
    <path id="パス_4751" data-name="パス 4751" d="M24.865,21.132h-.054a4.3,4.3,0,0,1-2.652-1.045,1.136,1.136,0,0,1,1.551-1.66,2.085,2.085,0,0,0,1.207.435,1.136,1.136,0,0,1-.052,2.271"/>
    <path id="パス_4752" data-name="パス 4752" d="M23.445,32.371a1.129,1.129,0,0,1-.81-.34l-1.474-1.5a17.006,17.006,0,0,1-5.956.783,9.145,9.145,0,0,1-6.084-2.541A1.136,1.136,0,0,1,10.8,27.239a6.888,6.888,0,0,0,4.526,1.807,14.541,14.541,0,0,0,5.7-.876,1.139,1.139,0,0,1,1.25.251l1.983,2.017a1.137,1.137,0,0,1-.81,1.933"/>
    <path id="パス_4753" data-name="パス 4753" d="M17.9,35.734a20,20,0,0,1-4.52-.535c-4.51-1.048-5.664-2.582-5.85-2.879l1.927-1.2a.341.341,0,0,0-.034-.05c.009.011.885,1.087,4.471,1.92a14.532,14.532,0,0,0,7.294.066,1.136,1.136,0,0,1,.747,2.146,13.16,13.16,0,0,1-4.035.537"/>
    <path id="パス_4754" data-name="パス 4754" d="M14.366,66.8a1.137,1.137,0,0,1-1.115-.922l-.471-2.45a.905.905,0,0,1,.163-.841,8.1,8.1,0,0,0,.29-3.453c-.145-2.465-2.91-9.406-3.963-11.872a1.136,1.136,0,1,1,2.089-.892c.4.944,3.948,9.324,4.142,12.63a10.549,10.549,0,0,1-.419,4.365l.4,2.084A1.139,1.139,0,0,1,14.366,66.8"/>
    <path id="パス_4755" data-name="パス 4755" d="M27.537,71.728a21.5,21.5,0,0,1-11.056-2.787,1.136,1.136,0,0,1,1.237-1.906,20.007,20.007,0,0,0,10.919,2.394c4-.19,5.786-1.344,6.389-1.859a31.667,31.667,0,0,0-.784-5.254A1.136,1.136,0,1,1,36.4,61.6a36.706,36.706,0,0,1,.935,6.308,1.141,1.141,0,0,1-.2.724c-.194.283-2.073,2.768-8.391,3.069-.411.02-.815.029-1.209.029"/>
    <path id="パス_4756" data-name="パス 4756" d="M31.048,108.077a1.138,1.138,0,0,1-1.078-1.5c.037-.112,3.751-11.289,4.668-16.973s.928-16.983.928-17.1a1.136,1.136,0,1,1,2.272,0c0,.47-.011,11.593-.956,17.458s-4.6,16.865-4.757,17.33a1.135,1.135,0,0,1-1.077.777"/>
    <path id="パス_4757" data-name="パス 4757" d="M27.65,111.712a12.308,12.308,0,0,1-2.9-.369,4.37,4.37,0,0,1-3.135-3.11,7.493,7.493,0,0,1-.372-2.248,1.207,1.207,0,0,1,.015-.17c.024-.144,2.361-14.453,2.918-18.354a36.081,36.081,0,0,0-.28-8.862,1.136,1.136,0,0,1,2.243-.363,37.749,37.749,0,0,1,.286,9.546c-.535,3.751-2.7,17.007-2.908,18.3.015.425.17,2.666,1.769,3.054a7.26,7.26,0,0,0,4.092.059,1.129,1.129,0,0,1,1.492.581,1.142,1.142,0,0,1-.584,1.5,6.776,6.776,0,0,1-2.634.435"/>
    <path id="パス_4758" data-name="パス 4758" d="M19.034,105.942a5.8,5.8,0,0,1-2.9-.855c-1.882-1.129-1.877-2.856-1.872-4.526v-.312A107.4,107.4,0,0,1,15.93,89.416c.159-.886.306-1.706.428-2.4a23.9,23.9,0,0,0-.166-9.275c-.563-2.064-1.444-5.679-1.453-5.716a1.136,1.136,0,0,1,2.208-.537c.009.036.882,3.621,1.437,5.655A26.4,26.4,0,0,1,18.6,87.409c-.122.7-.27,1.518-.429,2.408-.648,3.613-1.628,9.073-1.628,10.432v.319c-.006,1.734.06,2.146.768,2.571a3.448,3.448,0,0,0,1.734.531,1.136,1.136,0,0,1,.138,2.268c-.023,0-.072,0-.145,0"/>
    <path id="パス_4759" data-name="パス 4759" d="M33.686,110.81a1.136,1.136,0,0,1-.378-2.208,16.27,16.27,0,0,0,2.338-1.033,1.635,1.635,0,0,0,.725-.97.562.562,0,0,0-.107-.485c-.462-.615-.843-.677-.859-.679a.319.319,0,0,0,.071,0v-2.272a3.421,3.421,0,0,1,2.606,1.585,2.85,2.85,0,0,1,.519,2.285,3.874,3.874,0,0,1-1.786,2.481,18.681,18.681,0,0,1-2.751,1.228,1.139,1.139,0,0,1-.378.065"/>
  </g>
</svg>
