<svg id="グループ_19064" data-name="グループ 19064" xmlns="http://www.w3.org/2000/svg" xmlns:xlink="http://www.w3.org/1999/xlink" width="519.61" height="68.129" viewBox="0 0 519.61 68.129">
  <defs>
    <clipPath id="clip-path">
      <rect id="長方形_432" data-name="長方形 432" width="519.61" height="68.129" transform="translate(0 0)" fill="none"/>
    </clipPath>
  </defs>
  <g id="グループ_19063" data-name="グループ 19063" clip-path="url(#clip-path)">
    <path id="パス_1527" data-name="パス 1527" d="M28.728,59.237,14.607,33.108,13,29.7c.254,2.993.457,6.1.457,9.025V59.237H1.5V8.817H13.555L27.74,34.877,29.23,38.1c-.261-2.968-.468-6.017-.468-8.837V8.817h11.96v50.42Z" fill="#fff"/>
    <path id="パス_1528" data-name="パス 1528" d="M39.221,10.317v47.42h-9.6L15.927,32.4l-4.8-10.175h-.32c.448,5.119,1.152,11.071,1.152,16.511V57.737H3V10.317h9.663L26.422,35.6l4.736,10.239h.32c-.448-4.927-1.216-11.2-1.216-16.575V10.317Zm3-3H27.262V29.259q0,.81.021,1.642L15.3,8.883l-.852-1.566H0v53.42H14.959V38.731q0-.922-.025-1.863l12.049,22.3.85,1.573H42.221V7.317Z"/>
    <rect id="長方形_431" data-name="長方形 431" width="12.471" height="50.42" transform="translate(49.436 8.817)" fill="#fff"/>
    <path id="パス_1529" data-name="パス 1529" d="M60.407,57.737H50.936V10.317h9.471Zm3-50.42H47.936v53.42H63.407V7.317Z"/>
    <path id="パス_1530" data-name="パス 1530" d="M86.2,60.133A26.7,26.7,0,0,1,67.881,52.8l-1.01-.968,7.347-8.815,1.159,1.071c3.284,3.037,7.4,4.85,11.013,4.85,2.26,0,6.051-.512,6.051-3.94,0-2.214-1.4-2.993-5.74-4.828L79.916,37.3C73.141,34.495,69.4,29.48,69.4,23.179c0-8.662,7.688-15.194,17.883-15.194A22.4,22.4,0,0,1,103.2,14.512l.937.953-6.593,8.177-1.171-.972a13.547,13.547,0,0,0-9.089-3.558C85.7,19.112,82,19.452,82,22.6c0,2.172,2.078,3.1,6.06,4.673l.353.14,6.238,2.636c7.126,2.93,10.451,7.458,10.451,14.245,0,10.4-9.511,15.835-18.906,15.835" fill="#fff"/>
    <path id="パス_1531" data-name="パス 1531" d="M87.286,9.485a21.017,21.017,0,0,1,14.847,6.08l-4.8,5.951a15.107,15.107,0,0,0-10.047-3.9c-4.16,0-6.784,1.856-6.784,4.992,0,3.392,3.328,4.608,7.36,6.208l6.207,2.623C99.829,33.8,103.6,37.451,103.6,44.3c0,7.744-6.463,14.335-17.406,14.335a25.239,25.239,0,0,1-17.279-6.911l5.44-6.528c3.391,3.136,7.871,5.248,12.031,5.248,4.927,0,7.551-2.112,7.551-5.439,0-3.52-2.88-4.608-7.1-6.4L80.5,35.915c-4.8-1.984-9.6-5.824-9.6-12.735,0-7.743,6.783-13.7,16.383-13.7m0-3c-11.05,0-19.383,7.177-19.383,16.7,0,6.948,4.068,12.455,11.453,15.508l6.31,2.676.451.191c4.1,1.736,4.824,2.252,4.824,3.448,0,1.618-1.531,2.439-4.551,2.439-3.2,0-7.026-1.705-10-4.45l-2.319-2.145-2.022,2.427L66.615,49.8l-1.792,2.15,2.021,1.937A28.21,28.21,0,0,0,86.2,61.633c5.935,0,11.048-1.731,14.785-5.008A16.2,16.2,0,0,0,106.6,44.3c0-7.37-3.727-12.485-11.394-15.637l-6.18-2.613L89,26.035l-.031-.012-.354-.14C84.779,24.364,83.5,23.677,83.5,22.6c0-1.733,2.371-1.992,3.784-1.992a12.147,12.147,0,0,1,8.131,3.213l2.341,1.943,1.91-2.368,4.8-5.952,1.678-2.081-1.875-1.906A23.9,23.9,0,0,0,87.286,6.485"/>
    <path id="パス_1532" data-name="パス 1532" d="M136.379,59.238l-3.327-12.16h-13.07l-3.327,12.16h-12.8L119.982,8.817h13.324l16.2,50.421Zm-6.192-22.519-.894-3.291c-.981-3.284-1.893-6.86-2.775-10.334-.871,3.454-1.813,6.961-2.782,10.354l-.889,3.271Z" fill="#fff"/>
    <path id="パス_1533" data-name="パス 1533" d="M132.212,10.317l15.232,47.421h-9.92L134.2,45.578h-15.36l-3.327,12.16h-9.6l15.167-47.421Zm-11.327,27.9h11.264l-1.408-5.184c-1.472-4.927-2.752-10.367-4.1-15.486h-.32c-1.216,5.183-2.623,10.559-4.032,15.486l-1.408,5.184M134.4,7.317H118.887L118.22,9.4,103.053,56.824,101.8,60.738h16l.6-2.209,2.723-9.951h10.78l2.723,9.951.6,2.209h16.323L150.3,56.82,135.069,9.4Zm-9.591,27.9.38-1.4c.447-1.564.889-3.157,1.321-4.759.434,1.627.881,3.237,1.346,4.8l.369,1.361Z"/>
    <path id="パス_1534" data-name="パス 1534" d="M179.258,51.891l2.4-.253a47.708,47.708,0,0,0,5.784-1c8.4-1.967,13.416-7.832,13.416-15.686,0-7.8-3.975-13.342-10.718-15.1a124.125,124.125,0,0,1-3.628,15.99c-4.258,14.335-10.4,21.921-17.752,21.921-8.126,0-14.491-8.839-14.491-20.123,0-15.93,13.85-28.89,30.874-28.89,16.106,0,27.354,10.88,27.354,26.458,0,14.646-9.35,24.493-25.653,27.017l-.973.15ZM178.4,20.275c-8.909,2.86-12.944,11.138-12.944,16.536,0,5.9,2.181,8.1,3.555,8.1.856,0,3.191-1.131,6.373-11.607A95.159,95.159,0,0,0,178.4,20.275" fill="#fff"/>
    <path id="パス_1535" data-name="パス 1535" d="M185.14,10.253c15.871,0,25.854,11.006,25.854,24.958,0,13.5-8.255,23.038-24.382,25.534l-4.8-7.615a49.4,49.4,0,0,0,5.952-1.025c8.192-1.919,14.591-7.807,14.591-17.15,0-8.832-4.8-15.423-13.439-16.9a129.37,129.37,0,0,1-3.84,17.342c-3.84,12.928-9.343,20.863-16.318,20.863-7.1,0-12.992-7.807-12.992-18.623,0-14.783,12.8-27.389,29.374-27.389m-4.927,8c-10.56,2.176-16.255,11.519-16.255,18.559,0,6.463,2.559,9.6,5.055,9.6,2.688,0,5.184-4.032,7.808-12.671a96.052,96.052,0,0,0,3.392-15.487m4.927-11c-17.851,0-32.374,13.632-32.374,30.389,0,12.327,6.875,21.623,15.992,21.623q5.694,0,10.251-4.956l.265.42,4.8,7.615,1.05,1.667,1.947-.3c17.11-2.648,26.923-13.035,26.923-28.5a27.778,27.778,0,0,0-7.85-19.829c-5.3-5.318-12.562-8.129-21-8.129m-2.984,42.819a58.7,58.7,0,0,0,5.8-13.815,119.2,119.2,0,0,0,3.37-14.454c5.145,1.972,8.033,6.623,8.033,13.152,0,7.109-4.589,12.428-12.275,14.229a48.071,48.071,0,0,1-4.924.888M168.974,43.4c-.487-.125-2.016-1.889-2.016-6.592,0-6.6,4.747-11.5,9.479-14a92.325,92.325,0,0,1-2.481,10.033c-2.774,9.131-4.68,10.4-4.982,10.554"/>
    <path id="パス_1536" data-name="パス 1536" d="M216.963,57.7l.81-1.147A188.671,188.671,0,0,0,229.825,36.57l.182-.352-.868-.615c-2.7-1.906-8.812-5.223-11.752-6.817l-1.5-.816,5.845-8.036,2.238,1.1c3.567,1.747,8.452,4.139,11.049,5.733l.339.208V20.592h17.022V16.341c-3.645.514-7.312.894-10.77,1.228l-1.386.134-.237-1.371a25.36,25.36,0,0,0-1.455-4.7l-5.473,7.4-1.211-.932A109.407,109.407,0,0,0,221.826,12l-2.965-1.684,6.109-7.841,1.1.549c3.77,1.886,8.317,4.2,11.148,5.919l-.345-.666,2.2-.22c12.317-1.231,23.36-3.443,29.541-5.915l.935-.374,8.116,8.383-2.144.8a87.2,87.2,0,0,1-12.913,3.6v6.035h16.255v10.3H262.607v5.064h13.056V64.485H265.431v-2.3h-16.2v2.624h-9.911V35.951h13.054V30.887H235.353V29.061l-4.14,6.211,7.362,6.77-.511,1.012c-3.664,7.259-7.711,14.485-11.4,20.345l-.9,1.432Zm48.468-11.837h-16.2v6.407h16.2Z" fill="#fff"/>
    <path id="パス_1537" data-name="パス 1537" d="M269.17,3.533l5.824,6.016a87.419,87.419,0,0,1-13.887,3.776v8.767h16.255v7.3H261.107v8.064h13.056V62.985h-7.232v-2.3h-19.2v2.624h-6.911V37.451h13.055V29.387H236.853v-7.3h17.023V14.6c-4.16.64-8.448,1.088-12.416,1.472a27.191,27.191,0,0,0-2.239-6.527c10.879-1.088,22.91-3.2,29.949-6.016M247.732,53.769h19.2V44.362h-19.2ZM225.4,4.365c3.583,1.792,9.151,4.608,11.9,6.4l-4.544,6.143c-2.5-1.92-7.935-4.928-11.647-7.039l4.288-5.5m-3.2,17.471c3.519,1.728,9.216,4.479,12.031,6.207l-4.224,6.336c-2.624-1.856-8.127-4.864-11.9-6.912l4.1-5.631m8.96,15.423,5.567,5.119C233.334,49.1,229.3,56.393,225.4,62.6L219,57.417a189.279,189.279,0,0,0,12.159-20.158M269.926,0l-1.87.748c-6.057,2.423-16.948,4.6-29.133,5.816l-2.392.239c-2.831-1.609-6.59-3.52-9.791-5.121l-2.2-1.1-1.51,1.938-4.289,5.5-2.132,2.736,3.015,1.715,1.461.828a110.851,110.851,0,0,1,9.841,5.982l2.423,1.864.5-.678v3.894c-2.725-1.5-6.391-3.292-9.228-4.682l-1.1-.541-2.265-1.112-1.483,2.04-4.1,5.632-2.014,2.769,3.01,1.632c2.842,1.542,8.681,4.708,11.4,6.584a187.217,187.217,0,0,1-11.524,19l-1.621,2.294,2.183,1.769,6.4,5.183,2.627,2.129,1.8-2.863c3.185-5.066,6.638-11.142,9.883-17.38V66.305h12.911V63.681h13.2v2.3h13.232V34.451H264.107V32.387h16.255v-13.3H264.107V15.774a86.687,86.687,0,0,0,11.94-3.416l4.286-1.607-3.184-3.289-5.823-6.015ZM234.874,19.092l.3-.4,2.889-3.906a16.123,16.123,0,0,1,.446,1.8l.433,2.506h-4.063Zm6.57,0,.3-.03c2.937-.284,6.024-.6,9.127-1v1.034Zm-6.505,13.3h15.937v2.064H237.821V39.31l-4.633-4.26-.015-.014Zm15.793,14.975h13.2v3.407h-13.2Z"/>
    <path id="パス_1538" data-name="パス 1538" d="M286.214,64.605a26.6,26.6,0,0,0-5.57-4.576l-1.73-.9,1.31-1.442c6.294-6.929,7.161-17.082,7.161-27.022V6.321H338.7V54.282c0,3.485-.526,6.946-4.341,8.663-2.533,1.237-6.018,1.489-10.8,1.489-.677,0-1.381,0-2.116-.013l-1.31-.015-.162-1.3a27.563,27.563,0,0,0-2.294-6.828l-.029-.061v7.755h-10.68V46.118H296.673c-1.482,7.989-4.246,14.217-8.22,18.525l-1.14,1.234Zm32.894-10.478c1.709.092,3.757.137,6.26.137.742,0,2.736-.012,2.783-.014V46.118h-10.5v7.931Zm9.043-23.048h-10.5v4.872h10.5Zm-21.183,4.872V31.079h-9.032c-.005,1.535-.045,3.191-.116,4.872Zm21.183-19.4h-10.5v4.424h10.5Zm-21.183,0h-9.031v4.424h9.031Z" fill="#fff"/>
    <path id="パス_1539" data-name="パス 1539" d="M337.2,7.821V54.282c0,4.095-.9,6.143-3.456,7.295-2.292,1.118-5.56,1.357-10.188,1.357q-1.006,0-2.1-.013a28.773,28.773,0,0,0-2.432-7.3c2.15.115,4.53.138,6.34.138,1.206,0,2.158-.01,2.619-.01,1.216,0,1.664-.384,1.664-1.535v-9.6h-13.5V62.473h-7.68V44.618H295.414c-1.153,6.976-3.456,14.015-8.064,19.007a28.131,28.131,0,0,0-6.015-4.928c6.975-7.68,7.55-19.071,7.55-28.03V7.821ZM316.148,22.476h13.5V15.052h-13.5Zm-19.711,0h12.031V15.052H296.437Zm19.711,14.975h13.5V29.579h-13.5Zm-19.9,0h12.222V29.579H296.437v1.152c0,2.048-.063,4.352-.191,6.72M340.2,4.821H285.885V30.667c0,9.639-.82,19.461-6.771,26.013l-2.621,2.886,3.46,1.794a25.6,25.6,0,0,1,5.126,4.225l2.2,2.544,2.28-2.469c3.961-4.292,6.766-10.354,8.353-18.042h7.56V65.473h13.287l.052.418,2.619.03q1.111.012,2.133.013c4.975,0,8.632-.275,11.461-1.64,4.565-2.079,5.183-6.227,5.183-10.012V4.821ZM319.148,18.052h7.5v1.424h-7.5Zm-19.711,0h6.031v1.424h-6.031Zm19.711,14.527h7.5v1.872h-7.5Zm-19.727,0h6.047v1.872h-6.092q.03-.951.045-1.872m19.727,15.039h7.5V52.76c-.379,0-.812,0-1.283,0-2.442,0-4.521-.046-6.18-.134l-.04,0Z"/>
    <path id="パス_1540" data-name="パス 1540" d="M372.531,60.645a72.518,72.518,0,0,1-10.992-.723c-8.292-1.525-10.027-6.867-10.027-11.08V13.964a52.5,52.5,0,0,0-.493-6.418l-.277-1.737h12.992l-.281,1.739a47.049,47.049,0,0,0-.429,6.416V24.123a175.359,175.359,0,0,0,20.258-6.616,52.308,52.308,0,0,0,6.79-3.362l1.469-.867L396.263,24.3l-1.644.693c-2.417,1.018-5.156,2.172-7.28,2.984a253.146,253.146,0,0,1-24.315,7.633V46.282c0,1.622.255,2.021,2.954,2.561a57.561,57.561,0,0,0,7.066.355c6.583,0,16.846-.838,21.95-2.19l1.884-.5V59.174l-1.3.178a199.84,199.84,0,0,1-23.05,1.293" fill="#fff"/>
    <path id="パス_1541" data-name="パス 1541" d="M361.973,7.309a48.289,48.289,0,0,0-.448,6.655v12.1a180.469,180.469,0,0,0,22.333-7.167,53.948,53.948,0,0,0,6.976-3.456L394.29,23.5c-2.432,1.024-5.311,2.24-7.487,3.072a254.357,254.357,0,0,1-25.278,7.871V46.282c0,2.752,1.28,3.456,4.16,4.032a58.006,58.006,0,0,0,7.359.384c6.719,0,17.022-.832,22.334-2.24v9.407a196.514,196.514,0,0,1-22.847,1.28,71.236,71.236,0,0,1-10.751-.7c-5.567-1.024-8.767-4.031-8.767-9.6V13.964a54.042,54.042,0,0,0-.512-6.655Zm3.523-3H348.983l.556,3.474a51.669,51.669,0,0,1,.474,6.181V48.842c0,6.762,3.986,11.219,11.225,12.55l.03.005.031.005a73.943,73.943,0,0,0,11.232.743,201.181,201.181,0,0,0,23.254-1.308l2.593-.354V44.559l-3.769,1c-4.986,1.322-15.076,2.14-21.565,2.14a55.994,55.994,0,0,1-6.86-.344,6.915,6.915,0,0,1-1.612-.458,3.106,3.106,0,0,1-.047-.614V36.763c8.051-2.138,17.356-5.075,23.358-7.393,2.139-.817,4.89-1.976,7.318-3l.253-.106,2.783-1.172-1.189-2.775-3.457-8.063-1.343-3.135-2.938,1.732a50.734,50.734,0,0,1-6.605,3.271,169.016,169.016,0,0,1-18.18,6.041v-8.2a45.53,45.53,0,0,1,.409-6.177Z"/>
    <path id="パス_1542" data-name="パス 1542" d="M407.459,50.561l2.306-.325a64.145,64.145,0,0,0,23.949-8.185c9.7-5.731,18.4-15.019,22.705-24.241l1.246-2.67,6.823,12.333-.411.73c-5.219,9.271-14.043,18.1-24.211,24.227A70.834,70.834,0,0,1,415.6,61.647l-.982.168Zm19.4-20.217A131.7,131.7,0,0,0,411.1,16.73l-1.422-.993,8.077-8.592,1.056.71a130.035,130.035,0,0,1,16.762,13.779l1,1.05L427.927,31.5Z" fill="#fff"/>
    <path id="パス_1543" data-name="パス 1543" d="M417.974,9.1a129.3,129.3,0,0,1,16.51,13.567l-6.527,6.655a133.049,133.049,0,0,0-16-13.822Zm39.8,9.344,4.992,9.023c-4.863,8.639-13.375,17.471-23.678,23.678a69.278,69.278,0,0,1-23.742,9.023l-5.375-8.447a65.948,65.948,0,0,0,24.509-8.383c10.944-6.464,19.263-16.255,23.294-24.894M417.532,5.191l-1.744,1.855-6.016,6.4L407.4,15.974l2.844,1.986a129.762,129.762,0,0,1,15.519,13.405l2.139,2.3,2.2-2.244,6.527-6.655,2.029-2.068-2-2.1A132.033,132.033,0,0,0,419.646,6.61Zm40.019,6.646-2.491,5.339c-4.183,8.963-12.651,18-22.1,23.58a62.662,62.662,0,0,1-23.4,7.995l-4.614.651,2.5,3.93,5.375,8.448,1.069,1.681,1.965-.334a72.352,72.352,0,0,0,24.79-9.413c10.38-6.254,19.4-15.284,24.742-24.775l.821-1.459-.811-1.465L460.4,16.992Z"/>
    <path id="パス_1544" data-name="パス 1544" d="M477.862,62.053l.259-1.723a68.847,68.847,0,0,0,.624-8.736V14.8a43.231,43.231,0,0,0-.612-7.385l-.359-1.794h13.494l-.19,1.67a68.01,68.01,0,0,0-.566,7.509v8.351a209.757,209.757,0,0,1,25.91,9.692l1.264.619L512.873,45.11l-1.455-.763a177.111,177.111,0,0,0-20.906-8.753v16c0,1.709.3,6.063.569,8.813l.16,1.646Z" fill="#fff"/>
    <path id="パス_1545" data-name="パス 1545" d="M489.588,7.117a69.59,69.59,0,0,0-.575,7.679v9.471a209.046,209.046,0,0,1,26.75,9.92l-3.649,8.831a184.809,184.809,0,0,0-23.1-9.535V51.594c0,1.856.319,6.335.575,8.959H479.6a70.11,70.11,0,0,0,.641-8.959V14.8a44.318,44.318,0,0,0-.641-7.679Zm3.362-3H475.944l.719,3.589a41.577,41.577,0,0,1,.582,7.09v36.8a67.011,67.011,0,0,1-.607,8.513l-.518,3.446h16.775l-.321-3.291c-.265-2.716-.561-7-.561-8.668V37.726a167.576,167.576,0,0,1,18.708,7.949l2.911,1.527,1.255-3.038,3.648-8.832,1.076-2.6-2.53-1.237a209.889,209.889,0,0,0-25.068-9.457V14.8a67.049,67.049,0,0,1,.555-7.339Z"/>
  </g>
</svg>
