<svg id="グループ_19104" data-name="グループ 19104" xmlns="http://www.w3.org/2000/svg" xmlns:xlink="http://www.w3.org/1999/xlink" width="365.549" height="65.9" viewBox="0 0 365.549 65.9">
  <defs>
    <clipPath id="clip-path">
      <rect id="長方形_445" data-name="長方形 445" width="365.549" height="65.9" transform="translate(0 0)" fill="none"/>
    </clipPath>
  </defs>
  <g id="グループ_19103" data-name="グループ 19103" clip-path="url(#clip-path)">
    <path id="パス_1547" data-name="パス 1547" d="M19.638,62.544C7.941,62.544,1.5,57.852,1.5,49.332c0-6.51,4.983-13.467,18.97-13.467.746,0,1.485.021,2.21.062l-.059-1.482c-.166-4.114-.323-8-.323-10.711,0-3.94,0-7.661-.064-10.4a47.641,47.641,0,0,0-.663-7.172,1.5,1.5,0,0,1,1.459-1.85h9.663a1.5,1.5,0,0,1,1.478,1.755,61.384,61.384,0,0,0-.554,7.271c-.044,1-.057,2.035-.062,3.109,3.627-.069,10.9-.283,16.238-.925a1.334,1.334,0,0,1,.179-.011,1.5,1.5,0,0,1,1.5,1.45l.256,7.615a1.5,1.5,0,0,1-1.374,1.545c-5.116.427-11.853.719-16.682.86.132,3.431.339,7.418.579,11.1A51.761,51.761,0,0,1,53.3,49.065a1.5,1.5,0,0,1,.239,1.914L48.608,58.6a1.5,1.5,0,0,1-1.1.677c-.052.005-.106.008-.158.008a1.5,1.5,0,0,1-1.06-.439,50.055,50.055,0,0,0-11.52-8.656c-.122,10.746-9.516,12.359-15.13,12.359m-.384-16.575c-3.948,0-6.5,1.169-6.5,2.979,0,2.3,3.395,2.788,6.243,2.788,3.155,0,4.068-1.027,4.068-4.58,0-.276,0-.586-.007-.927a30.385,30.385,0,0,0-3.805-.26" fill="#fff"/>
    <path id="パス_1548" data-name="パス 1548" d="M32.694,5.816a61.38,61.38,0,0,0-.576,7.487c-.064,1.472-.064,3.008-.064,4.672,5.12-.064,12.606-.321,17.919-.96l.256,7.615c-5.376.448-12.928.768-18.111.9.127,3.84.384,8.96.7,13.7A50.259,50.259,0,0,1,52.277,50.164L47.349,57.78A49.9,49.9,0,0,0,33.206,47.733c.064.832.064,1.6.064,2.239,0,5.7-2.881,11.072-13.631,11.072C10.488,61.044,3,58.036,3,49.332c0-6.655,5.7-11.967,17.471-11.967a36.371,36.371,0,0,1,3.776.192c-.192-4.991-.448-10.431-.448-13.823,0-3.9,0-7.679-.064-10.431a46.283,46.283,0,0,0-.7-7.487ZM19,53.236c4.1,0,5.568-1.792,5.568-6.08,0-.575,0-1.343-.064-2.239a34.812,34.812,0,0,0-5.248-.448c-4.991,0-8,1.727-8,4.479,0,3.136,3.264,4.288,7.743,4.288M32.694,2.816H23.031a3,3,0,0,0-2.917,3.7,49.807,49.807,0,0,1,.622,6.883c.063,2.715.063,6.417.063,10.335,0,2.712.154,6.557.318,10.636-.214,0-.43,0-.646,0-6.284,0-11.312,1.374-14.945,4.083A13.32,13.32,0,0,0,0,49.332c0,9.349,7.158,14.712,19.639,14.712,5.755,0,10.117-1.438,12.964-4.275a12.386,12.386,0,0,0,3.472-7.11A49.639,49.639,0,0,1,45.228,59.9a3,3,0,0,0,2.121.879,3.057,3.057,0,0,0,.316-.017,3,3,0,0,0,2.2-1.353L54.8,51.794a3,3,0,0,0-.479-3.829A53.314,53.314,0,0,0,35.683,36.978c-.178-2.844-.335-5.819-.452-8.541,4.678-.155,10.619-.431,15.247-.817a3,3,0,0,0,2.749-3.091l-.256-7.615a3,3,0,0,0-3-2.9,3.087,3.087,0,0,0-.359.021c-4.6.554-10.676.786-14.542.881.009-.507.021-1,.043-1.484,0-.018,0-.035,0-.053a57.6,57.6,0,0,1,.534-7.054,3,3,0,0,0-2.957-3.51M19,50.236c-2.284,0-4.743-.4-4.743-1.288,0-.5,1.509-1.479,5-1.479.725,0,1.49.035,2.306.107-.049,1.618-.373,2.111-.478,2.228A3.347,3.347,0,0,1,19,50.236"/>
    <path id="パス_1549" data-name="パス 1549" d="M94.382,63.886a1.5,1.5,0,0,1-1.042-.492c-1.585-1.756-3.558-3.94-5.515-5.9-3.573-3.69-11.71-10.657-17.651-15.745l-1.4-1.2c-3.516-2.989-5.083-5.464-5.076-8.021.008-2.65,1.683-5.184,5.6-8.474,5.169-4.188,13.787-11.17,18.031-15.287a43.828,43.828,0,0,0,4.724-5.195,1.5,1.5,0,0,1,1.053-.655,1.43,1.43,0,0,1,.195-.013,1.5,1.5,0,0,1,.992.374l7.487,6.592a1.5,1.5,0,0,1-.073,2.312c-2.263,1.752-4.227,3.309-5.531,4.386-1.3,1.039-2.983,2.365-4.829,3.818-4.054,3.191-9.1,7.162-12.048,9.671-1.691,1.467-1.965,1.96-1.977,2.123.015.2.393.758,2.117,2.259,1.173.985,2.823,2.333,4.729,3.889,5.854,4.783,13.872,11.332,18.818,16.132a1.5,1.5,0,0,1-.033,2.183l-7.488,6.847a1.5,1.5,0,0,1-1.012.394l-.071,0" fill="#fff"/>
    <path id="パス_1550" data-name="パス 1550" d="M93.3,4.408,100.789,11c-1.984,1.535-4.1,3.2-5.568,4.415-4.159,3.328-12.607,9.856-16.894,13.5-3.392,2.944-3.328,3.648.128,6.656,4.8,4.032,16.959,13.631,23.486,19.966l-7.487,6.848c-1.792-1.984-3.648-4.032-5.568-5.952-3.9-4.031-13.311-12.03-19.134-17.022-6.4-5.44-5.888-8.832.511-14.207,5.056-4.1,13.824-11.2,18.111-15.359A44.481,44.481,0,0,0,93.3,4.408m0-3a2.864,2.864,0,0,0-.391.026,3,3,0,0,0-2.105,1.31,43.733,43.733,0,0,1-4.553,4.983C82.09,11.765,73.168,18.993,68.375,22.876c-.014.011-.028.022-.041.034-3.027,2.542-6.122,5.673-6.134,9.618-.011,3.894,2.991,6.947,5.609,9.172l1.39,1.191c5.585,4.783,14.025,12.01,17.532,15.632,1.964,1.965,3.923,4.133,5.5,5.876a3,3,0,0,0,2.084.986c.048,0,.1,0,.143,0a3,3,0,0,0,2.024-.786l7.488-6.848a3,3,0,0,0,.064-4.366C99.039,48.543,90.993,41.97,85.117,37.17c-1.894-1.547-3.532-2.885-4.712-3.876-.564-.491-.949-.848-1.209-1.108.24-.237.589-.561,1.1-1,2.9-2.471,7.938-6.432,11.982-9.615,1.849-1.456,3.538-2.785,4.82-3.811,1.328-1.1,3.279-2.643,5.53-4.386a3,3,0,0,0,.147-4.624L95.284,2.156A3,3,0,0,0,93.3,1.408"/>
    <path id="パス_1551" data-name="パス 1551" d="M149.493,62.736a1.5,1.5,0,0,1-1.269-.7l-3.2-5.087a1.5,1.5,0,0,1-.6.35l-7.359,2.239a1.481,1.481,0,0,1-.437.066,1.5,1.5,0,0,1-1.434-1.059c-.1-.323-.209-.656-.32-.995a23.1,23.1,0,0,1-9,1.989c-6.16,0-10.14-4.231-10.14-10.779,0-8.347,6.45-17.287,15.789-22.013.1-1.894.227-3.771.386-5.6h-.4c-2.772,0-6.574-.17-9.629-.308l-1.762-.077a1.5,1.5,0,0,1-1.435-1.46l-.193-7.423a1.5,1.5,0,0,1,1.5-1.539,1.542,1.542,0,0,1,.253.021,88.776,88.776,0,0,0,11.522.875h1.212q.121-1.1.242-2.132l.04-.728a27.538,27.538,0,0,0,.081-2.848,1.5,1.5,0,0,1,1.5-1.588l8.354.193a1.5,1.5,0,0,1,1.4,1.93c-.249.831-.442,1.605-.618,2.307-.086.343-.167.67-.249.978-.069.387-.145.783-.224,1.19q-.04.207-.081.42a108.744,108.744,0,0,0,19.613-2.69,1.5,1.5,0,0,1,1.845,1.447l.064,7.424a1.5,1.5,0,0,1-1.229,1.487c-2.254.415-4.863.791-7.707,1.117l3.687.877a1.5,1.5,0,0,1,1.063,1.972l-.18.491c-.145.391-.318.858-.492,1.351,7.418,2.962,11.962,9.2,11.962,16.587,0,6.853-2.9,18.784-22.332,21.706a1.536,1.536,0,0,1-.224.017m-5.266-11.1c.14.476.291.972.456,1.5a1.5,1.5,0,0,1,.425-.111c14.851-1.616,16.005-9.9,16.005-12.4a7.763,7.763,0,0,0-4.366-6.942,51.226,51.226,0,0,1-12.52,17.95m-12.8-13.356c-3.076,2.749-5.138,6.187-5.138,8.811,0,1.475.462,1.636,1.444,1.636a11.156,11.156,0,0,0,4.74-1.412c-.5-3.017-.853-6.081-1.046-9.035m10.1-5.165c.023,2.21.131,4.274.327,6.23a37.427,37.427,0,0,0,4.6-7.124,30.6,30.6,0,0,0-4.928.894m.564-12.292c-.083.866-.156,1.7-.213,2.516a43.624,43.624,0,0,1,7.84-.786c.147-.86.26-1.668.31-2.236-2.561.21-5.229.381-7.937.506" fill="#fff"/>
    <path id="パス_1552" data-name="パス 1552" d="M134.839,5.432l8.319.192c-.384,1.28-.64,2.432-.9,3.392-.192,1.087-.447,2.239-.639,3.519A112.4,112.4,0,0,0,163.381,9.72l.064,7.423a176.126,176.126,0,0,1-22.718,2.24c-.193,1.92-.385,3.9-.449,5.824a43.6,43.6,0,0,1,9.536-1.152h1.152a35.2,35.2,0,0,0,.576-3.84l7.807,1.856c-.256.7-.768,2.048-1.152,3.263,7.424,2.432,12.351,8.256,12.351,15.679,0,9.088-5.311,17.855-21.054,20.223l-4.224-6.72c12.351-1.344,17.343-7.615,17.343-13.887,0-3.839-2.24-7.231-6.655-8.959-3.456,8.7-8.576,15.423-13.44,19.454.448,1.6.96,3.2,1.472,4.736l-7.359,2.24c-.256-.832-.576-1.728-.832-2.624a22.843,22.843,0,0,1-9.92,2.56c-4.671,0-8.639-2.816-8.639-9.279,0-8.256,6.783-16.831,15.743-21.055q.192-4.126.576-8.063h-2.048c-3.328,0-8.319-.256-11.327-.384l-.192-7.423a90.6,90.6,0,0,0,11.775.9h2.56q.192-1.826.384-3.457c.064-1.215.192-2.751.128-3.839m14.015,25.15a31.892,31.892,0,0,0-8.831,1.408v.192a67.2,67.2,0,0,0,.768,10.623,39.423,39.423,0,0,0,8.063-12.223M127.735,50.228a13.652,13.652,0,0,0,6.4-2.111,89.184,89.184,0,0,1-1.344-12.8c-4.8,3.264-8,8.127-8,11.775,0,2.048.9,3.135,2.943,3.135m7.1-47.8a3,3,0,0,0-3,3.176c.04.678-.024,1.736-.08,2.669-.016.254-.031.5-.044.739s-.055.471-.082.711a88.928,88.928,0,0,1-11.14-.852,3,3,0,0,0-3.505,3.034l.192,7.424a3,3,0,0,0,2.872,2.919l1.757.078c2.644.118,5.845.262,8.474.3q-.12,1.577-.211,3.181c-9.4,5.072-15.837,14.29-15.837,22.947,0,7.459,4.569,12.279,11.639,12.279a23.7,23.7,0,0,0,8.1-1.525A2.995,2.995,0,0,0,137.5,60.97l6.95-2.115,2.5,3.977a3,3,0,0,0,2.539,1.4,2.945,2.945,0,0,0,.447-.034c8.023-1.206,14.148-4.079,18.2-8.539a21.337,21.337,0,0,0,5.4-14.65c0-7.566-4.36-14.014-11.569-17.4l.007-.018.183-.5a3,3,0,0,0-.179-2.449c-.036-.066-.073-.13-.114-.193q1.1-.174,2.111-.36a3,3,0,0,0,2.458-2.977l-.064-7.423a3,3,0,0,0-3.69-2.894,104.857,104.857,0,0,1-17.412,2.535q.075-.3.153-.61c.179-.713.364-1.451.6-2.239a3,3,0,0,0-2.8-3.861l-8.319-.192h-.069m8.21,31.855c.213-.048.428-.094.642-.137q-.3.5-.616.986c-.01-.281-.019-.563-.026-.849m3.76,16.994a53.621,53.621,0,0,0,10.581-15.36,5.965,5.965,0,0,1,2.223,4.708c0,5.423-4.747,9.329-12.8,10.652m-19.015-4.053c0-.041,0-.086,0-.135a9.715,9.715,0,0,1,2.423-5.368c.16,1.565.362,3.144.6,4.716a8.526,8.526,0,0,1-3.024.787"/>
    <path id="パス_1553" data-name="パス 1553" d="M208.438,62.351c-10.077,0-17.115-4.932-17.115-12,0-5.644,4.846-11.483,12.956-11.483,7.252,0,12.772,3.859,14.625,10.011a7.61,7.61,0,0,0,2.817-6.271c0-4.73-4.967-8.163-11.811-8.163-9.131,0-15.153,4.775-21.91,12.48a1.5,1.5,0,0,1-1.091.51h-.037a1.5,1.5,0,0,1-1.078-.457l-5.823-6.015a1.5,1.5,0,0,1,.139-2.214c3.315-2.661,8.293-6.822,12.293-10.165,1.442-1.206,2.738-2.29,3.75-3.13.836-.687,1.831-1.5,2.908-2.378,2.293-1.873,4.945-4.038,7.184-5.9-3.9.148-8.858.372-11.161.5-1.837.136-3.815.329-5.138.5a1.593,1.593,0,0,1-.194.013,1.5,1.5,0,0,1-1.5-1.454L188,8.421a1.5,1.5,0,0,1,1.5-1.546,1.376,1.376,0,0,1,.212.016,42.19,42.19,0,0,0,5.611.305c3.454,0,17.025-.257,20.6-.571a30.731,30.731,0,0,0,4.519-.632,1.477,1.477,0,0,1,.475-.078,1.5,1.5,0,0,1,1.212.616l4.159,5.695a1.5,1.5,0,0,1-.392,2.141c-.465.3-.936.6-1.409.9-1,.628-2.029,1.278-3,1.994-2.367,1.667-6.312,4.873-9.792,7.7l-.205.167q.481-.015.978-.015c11.764,0,20.635,7.578,20.635,17.627,0,11.913-9.682,19.61-24.667,19.61m-4.1-14.334c-1.544,0-2.467.8-2.467,1.572,0,1.429,2.088,2.467,4.963,2.467.687,0,1.34-.017,1.968-.052-.635-2.524-2.238-3.987-4.464-3.987" fill="#fff"/>
    <path id="パス_1554" data-name="パス 1554" d="M220.917,7.416l4.159,5.7c-1.471.96-3.007,1.856-4.479,2.944-3.456,2.431-10.175,8.063-14.207,11.263a25,25,0,0,1,6.079-.7c10.88,0,19.135,6.783,19.135,16.127,0,10.111-7.68,18.111-23.167,18.111-8.894,0-15.614-4.1-15.614-10.5,0-5.184,4.672-9.983,11.455-9.983,7.936,0,12.735,4.863,13.632,10.943a9.274,9.274,0,0,0,5.31-8.7c0-5.76-5.759-9.664-13.31-9.664-9.791,0-16.191,5.184-23.039,12.991l-5.823-6.015c4.543-3.648,12.287-10.175,16.062-13.311,3.585-2.944,10.239-8.32,13.376-11.072-3.264.064-12.1.449-15.487.641-1.728.128-3.776.319-5.248.511l-.256-8.319a44.408,44.408,0,0,0,5.823.32c3.393,0,17.088-.256,20.735-.576a27.963,27.963,0,0,0,4.864-.7M206.838,53.557a33.394,33.394,0,0,0,3.711-.192c-.383-4.16-2.751-6.847-6.208-6.847-2.431,0-3.966,1.471-3.966,3.071,0,2.368,2.623,3.968,6.463,3.968M220.916,4.416a2.981,2.981,0,0,0-.95.155,36.348,36.348,0,0,1-4.2.563c-3.44.3-17.107.562-20.444.562a40.582,40.582,0,0,1-5.4-.29,3.047,3.047,0,0,0-.425-.03,3,3,0,0,0-3,3.092l.256,8.32a3,3,0,0,0,3.386,2.882c1.291-.168,3.226-.357,5.055-.493,1.474-.083,4.011-.2,6.661-.318-1.272,1.044-2.556,2.092-3.744,3.062-1.078.88-2.074,1.693-2.9,2.375-1.025.852-2.322,1.936-3.766,3.143-3.995,3.339-8.966,7.495-12.27,10.147a3,3,0,0,0-.278,4.426l5.824,6.016a3,3,0,0,0,2.155.913h.074a3,3,0,0,0,2.182-1.021q.71-.81,1.393-1.55a11.727,11.727,0,0,0-.7,3.987c0,7.946,7.654,13.5,18.614,13.5,15.9,0,26.167-8.287,26.167-21.111,0-10-8.005-17.748-19.068-18.961,2.587-2.09,5.117-4.1,6.788-5.272l.057-.041c.923-.683,1.886-1.29,2.9-1.932.48-.3.958-.6,1.43-.912a3,3,0,0,0,.783-4.281l-4.16-5.7a3,3,0,0,0-2.423-1.231M201.675,37.585a19.476,19.476,0,0,1,8.235-1.635c5.124,0,10.31,2.289,10.31,6.664a6.745,6.745,0,0,1-.818,3.423c-2.629-5.387-8.148-8.663-15.124-8.663a16.033,16.033,0,0,0-2.6.211M203.456,49.7a1.852,1.852,0,0,1,.885-.183,2.639,2.639,0,0,1,2.162,1.033,4.908,4.908,0,0,1-3.047-.85"/>
    <path id="パス_1555" data-name="パス 1555" d="M247.928,64.4a1.5,1.5,0,0,1-1.108-.489,75.733,75.733,0,0,0-5.488-5.43,1.5,1.5,0,0,1,.691-2.623,88.666,88.666,0,0,0,9.75-2.4h-1.349a1.5,1.5,0,0,1-1.5-1.5v-23.5q-.606.657-1.268,1.256a1.5,1.5,0,0,1-1.008.388c-.051,0-.1,0-.153-.007a1.5,1.5,0,0,1-1.059-.61,20.607,20.607,0,0,0-4.535-4.322,1.5,1.5,0,0,1-.251-2.409c4.433-4.008,4.946-9.1,4.946-12.582V4.344a1.5,1.5,0,0,1,1.863-1.455l4.6,1.15a76.269,76.269,0,0,0,12.756-2.467,1.5,1.5,0,0,1,1.5.346L270.98,6.4a1.5,1.5,0,0,1-.6,2.517,67.074,67.074,0,0,1-9.767,2.056h10.609a1.488,1.488,0,0,1,.718.184c.016-.315.021-.623.021-.923V4.408a1.5,1.5,0,0,1,1.5-1.5,1.469,1.469,0,0,1,.347.041L278.668,4.1A95.5,95.5,0,0,0,292.49,1.562a1.479,1.479,0,0,1,.426-.062,1.5,1.5,0,0,1,1.053.432l4.608,4.544a1.5,1.5,0,0,1-.641,2.511,73.923,73.923,0,0,1-10.19,1.984H300.02a1.5,1.5,0,0,1,1.5,1.5v5.5a1.5,1.5,0,0,1-1.5,1.5h-6.563v4.879a1.5,1.5,0,0,1,1.344,1.492V51.957a1.5,1.5,0,0,1-1.5,1.5h-2.857c3.966,1.585,7.838,3.259,10.68,4.638a1.5,1.5,0,0,1-.117,2.75l-8.832,3.392a1.519,1.519,0,0,1-.538.1,1.493,1.493,0,0,1-.751-.2,125.98,125.98,0,0,0-16.416-7.446,1.5,1.5,0,0,1-.222-2.7l.915-.529h-6.207a1.5,1.5,0,0,1-.243,2.317c-5.77,3.754-14.313,6.889-20.385,8.571a1.484,1.484,0,0,1-.4.055m35.746-40.054V19.475h-3.968a17.976,17.976,0,0,1-3.261,4.871Zm-15.092,0a16.141,16.141,0,0,0-1.875-1.72v1.72Zm-11.658,0V19.475h-3a25.165,25.165,0,0,1-2.046,4.871Zm9.783-4.605c.132-.087.263-.176.39-.266h-.39Z" fill="#fff"/>
    <path id="パス_1556" data-name="パス 1556" d="M292.916,3l4.609,4.544A99.8,99.8,0,0,1,280.054,10.3v.321c0,.575,0,1.215-.064,1.855h20.03v5.5h-8.063v6.719h-6.783V17.975h-6.465a17.014,17.014,0,0,1-6.271,7.871H293.3v26.11H282.23c6.527,2.3,13.886,5.376,18.239,7.488l-8.832,3.392A126.293,126.293,0,0,0,275,55.284l5.76-3.328H262.07l5.825,2.56c-5.312,3.456-13.5,6.592-19.967,8.384a77.173,77.173,0,0,0-5.631-5.568,75.132,75.132,0,0,0,17.6-5.376h-9.471V25.846H271.67a18.17,18.17,0,0,0-4.416-4.671,15.77,15.77,0,0,0,3.713-3.2h-5.76V24.63h-6.783V17.975h-5.633A21.389,21.389,0,0,1,246.649,28.6a21.94,21.94,0,0,0-4.993-4.735c4.672-4.224,5.44-9.472,5.44-13.7V4.344l4.863,1.216A78.189,78.189,0,0,0,265.271,3l4.671,4.48a81.893,81.893,0,0,1-16.254,2.751v.32c0,.576,0,1.28-.065,1.92h17.6v5.184a11.59,11.59,0,0,0,2.239-7.424V4.408l5.12,1.216A98.746,98.746,0,0,0,292.916,3M257.783,33.142h27.773V30.39H257.783Zm0,7.1h27.773V37.494H257.783Zm0,7.1h27.773V44.534H257.783ZM265.27,0a3,3,0,0,0-.914.143,73.956,73.956,0,0,1-12.2,2.373l-4.329-1.083A3,3,0,0,0,244.1,4.344v5.823c0,3.467-.506,7.9-4.452,11.47a3,3,0,0,0,.5,4.817,19.371,19.371,0,0,1,4.078,3.909,3,3,0,0,0,2.118,1.219,2.875,2.875,0,0,0,.308.016,3.008,3.008,0,0,0,.775-.1v20.46a3,3,0,0,0,.214,1.115c-1.935.5-3.928.947-5.888,1.311a3,3,0,0,0-1.383,5.247,74.858,74.858,0,0,1,5.345,5.293,3,3,0,0,0,3.017.869c6.181-1.714,14.892-4.915,20.8-8.76a3,3,0,0,0,1.331-2.075h1.154a3,3,0,0,0,1.926,3.136,124.406,124.406,0,0,1,16.192,7.34,2.994,2.994,0,0,0,2.578.2l8.832-3.392a3,3,0,0,0,.234-5.5c-1.758-.853-3.906-1.818-6.226-2.805a2.991,2.991,0,0,0,.749-1.984V25.846a3,3,0,0,0-1.344-2.5V20.975h5.063a3,3,0,0,0,3-3v-5.5a3,3,0,0,0-3-3h-.2a3,3,0,0,0-.193-4.063L295.022.864A3,3,0,0,0,292.916,0a2.963,2.963,0,0,0-.852.124,93.167,93.167,0,0,1-13.312,2.457l-4.6-1.092a2.968,2.968,0,0,0-.693-.081,3,3,0,0,0-2.951,2.46L267.347.835A3,3,0,0,0,265.27,0m15.376,20.975h1.528v1.871h-2.629a19.146,19.146,0,0,0,1.1-1.871m-25.634,0h.412v1.871h-1.14q.393-.909.728-1.871"/>
    <path id="パス_1557" data-name="パス 1557" d="M346.485,64.208A1.5,1.5,0,0,1,345,62.883,25.9,25.9,0,0,0,342.6,55.6a1.45,1.45,0,0,1-.149-.419H331.41v2.083a1.5,1.5,0,0,1-1.5,1.5h-7.1a1.5,1.5,0,0,1-1.5-1.5V33.59a1.5,1.5,0,0,1,1.5-1.5h24.766a1.5,1.5,0,0,1,1.5,1.5V53.582l.956,0c1.415,0,2.575-.027,3.1-.055.1,0,.179,0,.243-.006V30.738H337.525a1.5,1.5,0,0,1-1.5-1.5V5.368a1.5,1.5,0,0,1,1.5-1.5h25.024a1.5,1.5,0,0,1,1.5,1.5V53.621c0,4.2-.749,7.329-4.4,8.982-2.759,1.346-6.759,1.6-13.161,1.6M338.97,41.361h-7.56v4.551h7.56Zm14.4-20.094h-7.111v.711h7.111Zm0-8.64h-7.111v.52h7.111Zm-44.7,51.581a1.5,1.5,0,0,1-1.5-1.5V5.368a1.5,1.5,0,0,1,1.5-1.5H333.11a1.5,1.5,0,0,1,1.5,1.5V29.174a1.5,1.5,0,0,1-1.5,1.5H317.715V62.708a1.5,1.5,0,0,1-1.5,1.5Zm15.843-42.941h-6.792v.647h6.792Zm0-8.576h-6.792v.456h6.792Z" fill="#fff"/>
    <path id="パス_1558" data-name="パス 1558" d="M362.549,5.368V53.621c0,4.223-.832,6.4-3.521,7.615-2.624,1.28-6.655,1.472-12.543,1.472a27.248,27.248,0,0,0-2.559-7.808c2.051.142,4.3.186,6.1.186,1.461,0,2.632-.029,3.176-.058,1.216,0,1.664-.383,1.664-1.536V29.238H337.525V5.368Zm-17.791,9.279h10.111v-3.52H344.758Zm0,8.832h10.111V19.768H344.758ZM333.11,5.368V29.174H316.215V62.708h-7.551V5.368H333.11m-16.895,9.279h9.792V11.191h-9.792Zm0,8.768h9.792V19.768h-9.792ZM347.573,33.59v20.1H329.91v3.583h-7.1V33.59h24.766M329.91,47.413h10.56V39.862H329.91ZM362.549,2.368H337.525a2.992,2.992,0,0,0-2.207.968,2.993,2.993,0,0,0-2.208-.968H308.664a3,3,0,0,0-3,3v57.34a3,3,0,0,0,3,3h7.551a3,3,0,0,0,3-3V32.174h.946a2.99,2.99,0,0,0-.354,1.416V57.268a3,3,0,0,0,3,3h7.1a3,3,0,0,0,3-3v-.583h8.558a24.539,24.539,0,0,1,2.038,6.373,3,3,0,0,0,2.979,2.65c6.749,0,10.748-.273,13.82-1.757,4.62-2.112,5.244-6.406,5.244-10.33V5.368a3,3,0,0,0-3-3m-12.3,29.87h1.617V52.069c-.379.007-.817.013-1.3.015V33.59a2.981,2.981,0,0,0-.321-1.352M332.91,42.861h4.56v1.551h-4.56Z"/>
  </g>
</svg>
