<svg id="グループ_18932" data-name="グループ 18932" xmlns="http://www.w3.org/2000/svg" xmlns:xlink="http://www.w3.org/1999/xlink" width="334" height="460" viewBox="0 0 334 460">
  <defs>
    <clipPath id="clip-path">
      <rect id="長方形_246" data-name="長方形 246" width="334" height="460" fill="none"/>
    </clipPath>
  </defs>
  <g id="グループ_79" data-name="グループ 79" clip-path="url(#clip-path)">
    <path id="パス_1" data-name="パス 1" d="M257.723,44.548s11.168,15.761,13,18,34,59,34,59,3.664,7.383,0,20-25,42-25,42,34.709,34.5,40,52,3.884,31.877-1,39a51.217,51.217,0,0,1-10,11s15,32.429,15,54-16.151,53.064-19,61,2.054,23.25-1,32-14.284,12.983-21,14-38.86,2.459-47-1a29.718,29.718,0,0,0-22-1c-6.511,2.237-28.824,6.645-39,4s-21.3-11.425-27-10-8.905,7.407-26,7-46.267,3.414-54-9,.071-20.942-4-36-18.425-38.767-17-64,11-37,11-37l8-11s-23.064-8.515-31-25-9.694-43.693-7-64,.627-54.011-1-65-5-28-5-28-18.2-6.534-18-22,17.075-29.744,36-33,31.3,2.5,37,8,13,16,13,16l19-31,18-37s9.487-6.9,16-1,22,31,22,31h37l22-30s10.726-5.7,15,0,19,37,19,37" transform="translate(3.277 3.452)" fill="#fff"/>
    <path id="パス_2" data-name="パス 2" d="M104.529,40.952h14l17-33s19.794-12.186,25,4c11.282,35.08,39,71,39,71s-33.808,5.5-53-5c-26.427-14.459-42-37-42-37" transform="translate(88.471 3.048)" fill="#ffc417"/>
    <path id="パス_3" data-name="パス 3" d="M98.88,92.976a23.935,23.935,0,0,1-17-7l11-10h0c.352.35,3.361,3.657,9,2,3.986-1.174,8.01-6.351,9-8,2.084-3.479,6.511-4.071,10-2s5.055,6.5,3,10c-.68,1.161-7.711,10.974-18,14a23.218,23.218,0,0,1-7,1" transform="translate(69.12 56.024)"/>
    <path id="パス_4" data-name="パス 4" d="M124.272,92.985a29.791,29.791,0,0,1-8-1c-10.289-3.026-16.32-12.839-17-14-2.06-3.511-.511-8.938,3-11s7.936-.511,10,3c.971,1.62,4.012,6.826,8,8a10.828,10.828,0,0,0,10-2l5,5,5,5a21.334,21.334,0,0,1-16,7" transform="translate(82.728 56.015)"/>
    <path id="パス_5" data-name="パス 5" d="M65.621,50c-.91,0-1.1-.641-2-1-3.782-1.511-6.511-5.22-5-9,5.287-13.223,12.783-29.95,15-33,2.746-3.772,7.366-6.37,13-7,6.292-.71,12.288.753,16,4,3.675,3.216,13.388,18.968,20,30h30c6.614-11.032,16.327-26.784,20-30,3.71-3.247,9.7-4.71,16-4,5.634.63,10.256,3.228,13,7,2.221,3.052,8.715,19.775,14,33a6.964,6.964,0,0,1-13,5c-4.91-12.283-11.47-26.33-13-29-1.137-1.084-6.279-2.036-8-1-2.446,2.643-11.652,17.614-19,30-1.329,2.237-3.4,4-6,4h-38c-2.6,0-4.673-1.763-6-4-7.35-12.386-16.554-27.357-19-30-1.719-1.03-6.824-.1-8,1-1.541,2.7-8.1,16.737-13,29a7.937,7.937,0,0,1-7,5" transform="translate(49.379 0)"/>
    <path id="パス_6" data-name="パス 6" d="M162.811,165.839a7.929,7.929,0,0,1-5-2c-3.065-2.68-2.68-6.935,0-10,.234-.267,23.85-27.776,22-51-.717-8.993-20.691-40.29-34-60-2.278-3.374-1.374-8.722,2-11s8.724-1.374,11,2c5.715,8.461,33.717,51.9,35,68,2.344,29.446-23.863,60.7-25,62-1.458,1.666-3.947,2-6,2" transform="translate(122.189 26.161)"/>
    <path id="パス_7" data-name="パス 7" d="M63.543,165.838a5.8,5.8,0,0,1-5-2c-1.137-1.3-28.344-32.554-26-62,1.283-16.1,30.285-59.539,36-68a7.1,7.1,0,0,1,10-2c3.374,2.278,4.28,7.626,2,11-13.308,19.71-32.283,51.007-33,60-1.848,23.224,21.762,50.727,22,51,2.672,3.069,2.065,7.326-1,10a7.949,7.949,0,0,1-5,2" transform="translate(27.457 26.162)"/>
    <path id="パス_8" data-name="パス 8" d="M24,93.576c-1.5,0-2.533-.718-4-1-8.155-1.565-14.668-7.213-18-16-5.693-15.01.588-30.062,18-42,17.174-11.776,47.307-8.831,58-3,10.462,5.707,18.685,17.532,19,18a7.1,7.1,0,0,1-2,10c-3.376,2.269-8.726,1.373-11-2-.149-.219-5.807-9.076-13-13-6.677-3.643-30.314-6.009-42,2-8.138,5.582-17.008,14.433-13,25,1.5,3.962,3.959,6.4,7,7a8.529,8.529,0,0,0,7-2,7.33,7.33,0,0,1,9-1c.044.022,7.8,3.553,11,0,2.722-3.024,7.976-2.726,11,0s2.724,6.974,0,10c-7.241,8.046-17.684,7.689-25,5a25.3,25.3,0,0,1-12,3" transform="translate(0 22.424)"/>
    <path id="パス_9" data-name="パス 9" d="M61.068,241.781a3.952,3.952,0,0,1-1,0c-39.16-7.279-51.279-61.1-47-97a267.965,267.965,0,0,0-1-68,7.855,7.855,0,0,1,6-9c4-.761,7.243,2,8,6a261.458,261.458,0,0,1,2,73c-3.5,29.332,5.534,74.525,35,80,4,.745,5.745,5,5,9a7.1,7.1,0,0,1-7,6" transform="translate(9.932 57.219)"/>
    <path id="パス_10" data-name="パス 10" d="M172.062,208.329a7.5,7.5,0,0,1-7-6c-.94-3.962,2.04-8.06,6-9,.223-.064,8.027-1.963,12-13,10.294-28.595-21.678-59.692-22-60a6.876,6.876,0,0,1,0-10c2.807-2.939,7.053-3.807,10-1,1.6,1.524,39.558,38.337,26,76-6.769,18.8-22.353,21.847-23,22-.573.136-1.436,1-2,1" transform="translate(133.938 90.671)"/>
    <path id="パス_11" data-name="パス 11" d="M87.07,327.067a37.5,37.5,0,0,1-13-2,34.206,34.206,0,0,1-23-6c-10.984-7.989-10.581-20.817-10-33,.083-1.74-.055-3.192,0-5,.123-4.123-1.841-10.431-5-18-5.138-12.3-11.494-27.942-13-48-2.705-36.079,21.946-57.117,23-58a7.106,7.106,0,1,1,9,11c-.835.711-20.125,17.66-18,46,1.327,17.677,7.271,31.677,12,43,3.977,9.524,7.221,16.691,7,24-.059,1.895.088,4.177,0,6-.512,10.753-.338,16.845,4,20a17.606,17.606,0,0,0,13,3,8.03,8.03,0,0,1,5,1c.035.018,8.076,3.766,15,1a23.315,23.315,0,0,1,16-1c3.5.986,5.476,2.012,9,0a7.382,7.382,0,0,1,7,13c-8.89,5.083-15.6,3.24-20,2-3.126-.883-4.731-1.907-7-1a28.927,28.927,0,0,1-11,2" transform="translate(18.93 130.933)"/>
    <path id="パス_12" data-name="パス 12" d="M165.566,319.477a28.933,28.933,0,0,1-11-2c-2.265-.909-3.88.119-7,1-4.4,1.238-11.108,3.083-20-2a7.382,7.382,0,1,1,7-13c3.522,2.011,5.493.986,9,0a23.3,23.3,0,0,1,16,1c6.922,2.768,14.921-.961,15-1a7.831,7.831,0,0,1,5-1,17.751,17.751,0,0,0,13-3c4.338-3.155,4.516-9.245,4-20-.087-1.821.059-4.105,0-6-.221-7.309,3.021-14.476,7-24,4.727-11.323,10.675-25.323,12-43a55.007,55.007,0,0,0-7-31,7.382,7.382,0,1,1,13-7c6.69,12.305,9.038,25.141,8,39-1.506,20.058-7.86,35.7-13,48-3.159,7.569-6.123,13.877-6,18,.057,1.806.917,3.264,1,5,.581,12.185.984,25.011-10,33a34.231,34.231,0,0,1-23,6,37.488,37.488,0,0,1-13,2" transform="translate(104.434 138.523)"/>
    <path id="パス_13" data-name="パス 13" d="M69.238,238.35c-15.884,37.227,1.773,80.118,39,96s80.116-1.773,96-39l26-60c15.882-37.227-1.773-80.116-39-96s-80.116,1.773-96,39Z" transform="translate(53.762 112.65)" fill="#ffc417"/>
    <path id="パス_14" data-name="パス 14" d="M140.6,350.732c-10.545,0-21.706-1.606-32-6-40.905-17.454-59.454-65.093-42-106l25-60a79.605,79.605,0,0,1,44-43c19.992-8.031,42.185-8.453,62,0,40.907,17.454,60.454,65.095,43,106l-26,60a80.376,80.376,0,0,1-74,49m-61-107h0c-14.262,33.43,1.572,72.734,35,87s71.736-1.575,86-35l26-60c14.26-33.428-1.573-71.738-35-86-16.2-6.909-33.663-7.564-50-1s-29.091,19.808-36,36Z" transform="translate(50.399 109.268)"/>
    <path id="パス_15" data-name="パス 15" d="M154.979,224.99c-.964,0-2.058.4-3,0a7.793,7.793,0,0,1-4-10,45.063,45.063,0,0,0,1-33,37.873,37.873,0,0,0-21-22,7.794,7.794,0,0,1-4-10c1.6-3.747,6.255-4.6,10-3,13.534,5.774,23.727,15.931,29,30a59.824,59.824,0,0,1-1,44c-1.2,2.8-4.134,4-7,4" transform="translate(104.021 123.01)" fill="#fff"/>
    <path id="パス_16" data-name="パス 16" d="M146.229,203.579c-1.62,3.8-6.2,4.618-10,3s-5.62-5.2-4-9a7.616,7.616,0,1,1,14,6" transform="translate(110.771 162.421)" fill="#fff"/>
    <path id="パス_17" data-name="パス 17" d="M170.381,123.832s-7.954-2.455-19,0-14.09,10.761-15,16c-1.637,9.408,6.681,17.591,12,18,0,0,1.593,18.818,20,18,0,0,.318,15.864,22,13" transform="translate(114.619 103.168)" fill="#fff"/>
    <path id="パス_18" data-name="パス 18" d="M188.753,199.206c-7.027,0-12.691-1.222-17-5a21.476,21.476,0,0,1-6-8c-11.745-1.965-17.812-11.711-20-20a24.991,24.991,0,0,1-9-7,20.835,20.835,0,0,1-4-17c2.035-11.686,8.819-20.516,20-23,12.793-2.844,22,.633,23,1,3.822,1.408,6.41,6.182,5,10-1.4,3.8-6.205,5.362-10,4-.262-.087-5.574-1.874-14,0-1.972.439-8.493,1.338-10,10-.374,2.16,1.136,3.771,2,5,1.747,2.473,3.416,3.9,4,4a7.693,7.693,0,0,1,7,7c.223,2.674,1.8,11.44,12,11a6.116,6.116,0,0,1,5,2,8.306,8.306,0,0,1,2,6,12.592,12.592,0,0,0,3,4c2.121,1.771,5.773,1.689,11,1,4.043-.54,7.467,2.966,8,7a6.87,6.87,0,0,1-6,8,44.034,44.034,0,0,1-6,0" transform="translate(111.247 99.794)"/>
    <path id="パス_19" data-name="パス 19" d="M94.847,61.692a12.155,12.155,0,0,1-12,12c-6.509,0-11-5.491-11-12s4.491-11,11-11,12,4.491,12,11" transform="translate(60.153 42.308)"/>
    <path id="パス_20" data-name="パス 20" d="M141.427,61.692a12.155,12.155,0,0,1-12,12c-6.509,0-11-5.491-11-12s4.491-11,11-11,12,4.491,12,11" transform="translate(99.573 42.308)"/>
    <path id="パス_21" data-name="パス 21" d="M110.592,176.3a5.393,5.393,0,0,1,0-4c1.367-3.2,4.972-5.292,8-4a4.918,4.918,0,0,1,3,4l9,28,26-13c1.025-.485,2.58-2.032,5-1,2.943,1.255,4.441,5.629,3,9a6.305,6.305,0,0,1-3,3l-24,12,12,6c2.595,1.108,4.216,3.145,3,6a5.339,5.339,0,0,1-7,3l-16-7-2,6,16,7a5.4,5.4,0,0,1,3,7c-1.292,3.026-4.578,3.034-7,2l-16-7-6,13c-1.476,3.459-4.8,4.367-8,3-4.5-1.919-4.96-5.752-4-8l6-13-16-7c-2.681-1.144-4.181-3.232-3-6a5.281,5.281,0,0,1,7-3l16,7,2-6-16-7c-2.681-1.144-4.216-3.145-3-6a5.282,5.282,0,0,1,7-3l13,5Z" transform="translate(77.408 141.7)"/>
    <path id="パス_22" data-name="パス 22" d="M113.015,250.721c-1.08,0-1.933.455-3,0a9.271,9.271,0,0,1-5-5c-.5-1.557.359-3.494,1-5l5-12-16-6a5.843,5.843,0,0,1-3-3,6.115,6.115,0,0,1,0-5,5.19,5.19,0,0,1,3-3,6.485,6.485,0,0,1,5,0l15,7,2-5-15-6c-3.4-1.45-5.32-4.9-4-8,1.592-3.732,5.177-4.2,8-3l11,5-7-25a7.827,7.827,0,0,1,0-5,6.938,6.938,0,0,1,9-4,7.279,7.279,0,0,1,4,5l8,26,25-12a7.027,7.027,0,0,1,6,0,7.966,7.966,0,0,1,4,4,5.566,5.566,0,0,1,0,5c-.606,1.419-1.393,3.18-3,4l-23,11,10,5c2.871,1.226,5.5,4.491,4,8a5.762,5.762,0,0,1-4,3,5.431,5.431,0,0,1-4,0l-15-7-2,5,15,6a5.593,5.593,0,0,1,3,3,6.218,6.218,0,0,1,0,5c-1.542,3.61-5.261,4.17-8,3l-15-7-5,12a6.831,6.831,0,0,1-4,4,5.874,5.874,0,0,1-2,0m-16-37c-.557,0-.517-.194-1,0-.955.383-2.541.924-3,2-.448,1.049.512,2.064,1,3a3.572,3.572,0,0,0,2,2l17,8-6,13a3.78,3.78,0,0,0,0,3c.47,1.478,1.231,3.244,3,4a8.365,8.365,0,0,0,5,0,5.2,5.2,0,0,0,3-3l5-13,17,7c1.845.783,4.881.628,6-2a3.3,3.3,0,0,0,0-3c-.474-.973-1.892-1.528-3-2l-17-7,4-8,17,7a4.194,4.194,0,0,0,3,0c1.073-.306,1.5-.815,2-2a3.45,3.45,0,0,0-2-5l-15-6,27-14a3.324,3.324,0,0,0,2-2,7.286,7.286,0,0,0,0-5,6.005,6.005,0,0,0-3-3c-2.009-.859-3.016.536-4,1l-27,13-8-29c-.391-1.594-1.48-2.351-3-3a5.5,5.5,0,0,0-7,3,3.834,3.834,0,0,0,0,3v1l8,28-14-6c-1.926-.824-4.824-.757-6,2-1.122,2.632,1.118,4.2,3,5l16,7-3,8-17-7c-.691-.295-1.313,0-2,0" transform="translate(76.985 141.279)"/>
  </g>
</svg>
