<svg xmlns="http://www.w3.org/2000/svg" xmlns:xlink="http://www.w3.org/1999/xlink" width="120" height="120" viewBox="0 0 120 120">
  <defs>
    <clipPath id="clip-path">
      <rect id="長方形_6053" data-name="長方形 6053" width="64" height="54.323" transform="translate(0 0)" fill="none"/>
    </clipPath>
  </defs>
  <g id="グループ_21093" data-name="グループ 21093" transform="translate(-959 -10375)">
    <circle id="楕円形_19" data-name="楕円形 19" cx="60" cy="60" r="60" transform="translate(959 10375)" fill="#fff"/>
    <g id="グループ_21052" data-name="グループ 21052" transform="translate(987 10408)">
      <rect id="長方形_6050" data-name="長方形 6050" width="58.959" height="44.43" transform="translate(4.321 9.173)" fill="#fff"/>
      <rect id="長方形_6051" data-name="長方形 6051" width="58.959" height="44.429" transform="translate(0.72 5.573)" fill="#fff"/>
      <g id="グループ_21051" data-name="グループ 21051">
        <g id="グループ_21050" data-name="グループ 21050" clip-path="url(#clip-path)">
          <path id="パス_4505" data-name="パス 4505" d="M59.679,50.722H.72A.72.72,0,0,1,0,50V5.572a.72.72,0,0,1,.72-.72H59.679a.72.72,0,0,1,.72.72V50a.72.72,0,0,1-.72.72M1.44,49.282H58.959V6.292H1.44Z"/>
          <rect id="長方形_6052" data-name="長方形 6052" width="58.959" height="6.437" transform="translate(0.72 5.573)" fill="#ffc417"/>
          <path id="パス_4506" data-name="パス 4506" d="M59.679,12.73H.72A.72.72,0,0,1,0,12.01V5.572a.72.72,0,0,1,.72-.72H59.679a.72.72,0,0,1,.72.72V12.01a.72.72,0,0,1-.72.72M1.44,11.29H58.959v-5H1.44Z"/>
          <path id="パス_4507" data-name="パス 4507" d="M8.956,9.3A4.648,4.648,0,1,1,13.6,4.647a.721.721,0,0,1-1.441,0A3.208,3.208,0,1,0,8.956,7.855a.72.72,0,0,1,0,1.44"/>
          <path id="パス_4508" data-name="パス 4508" d="M51.443,9.3a4.648,4.648,0,1,1,4.648-4.648.72.72,0,0,1-1.441,0,3.208,3.208,0,1,0-3.207,3.208.72.72,0,0,1,0,1.44"/>
          <path id="パス_4509" data-name="パス 4509" d="M63.28,54.323H4.321a.72.72,0,0,1,0-1.44H62.56V9.173a.72.72,0,1,1,1.44,0V53.6a.72.72,0,0,1-.72.72"/>
          <line id="線_286" data-name="線 286" x2="11.11" transform="translate(24.656 17.028)" fill="#ffc417"/>
          <path id="パス_4510" data-name="パス 4510" d="M35.766,17.748H24.656a.72.72,0,1,1,0-1.44h11.11a.72.72,0,1,1,0,1.44"/>
          <path id="パス_4511" data-name="パス 4511" d="M8.7,27.31l2.544,7.182,2.53-7.182h2.679v9.9H14.407V34.506l.2-4.673-2.673,7.379h-1.4L7.871,29.84l.2,4.666v2.706H6.035v-9.9Z"/>
          <path id="パス_4512" data-name="パス 4512" d="M26.371,32.485a5.987,5.987,0,0,1-.517,2.564,3.9,3.9,0,0,1-1.48,1.7,4.367,4.367,0,0,1-4.4.007,3.932,3.932,0,0,1-1.5-1.69,5.824,5.824,0,0,1-.537-2.527V32.05a5.957,5.957,0,0,1,.527-2.575,3.923,3.923,0,0,1,1.49-1.707,4.365,4.365,0,0,1,4.4,0,3.921,3.921,0,0,1,1.489,1.707,5.926,5.926,0,0,1,.528,2.568ZM24.3,32.036a4.168,4.168,0,0,0-.558-2.367,1.97,1.97,0,0,0-3.176-.01A4.123,4.123,0,0,0,20,32v.483a4.226,4.226,0,0,0,.557,2.353,1.953,1.953,0,0,0,3.183.031,4.187,4.187,0,0,0,.558-2.35Z"/>
          <path id="パス_4513" data-name="パス 4513" d="M35.906,37.212h-2.04L29.894,30.7v6.515H27.853v-9.9h2.041l3.978,6.529V27.31h2.034Z"/>
          <path id="パス_4514" data-name="パス 4514" d="M45.142,28.962H42.109v8.25H40.068v-8.25H37.076V27.309h8.066Z"/>
          <path id="パス_4515" data-name="パス 4515" d="M54.364,37.212h-2.04V32.968H48.345v4.244h-2.04v-9.9h2.04v4.012h3.979V27.31h2.04Z"/>
        </g>
      </g>
    </g>
  </g>
</svg>
