<svg xmlns="http://www.w3.org/2000/svg" xmlns:xlink="http://www.w3.org/1999/xlink" width="120" height="120" viewBox="0 0 120 120">
  <defs>
    <clipPath id="clip-path">
      <rect id="長方形_6054" data-name="長方形 6054" width="64" height="64" fill="none"/>
    </clipPath>
  </defs>
  <g id="グループ_21092" data-name="グループ 21092" transform="translate(-792 -10375)">
    <circle id="楕円形_18" data-name="楕円形 18" cx="60" cy="60" r="60" transform="translate(792 10375)" fill="#fff"/>
    <g id="グループ_21087" data-name="グループ 21087" transform="translate(820 10403)">
      <path id="パス_4516" data-name="パス 4516" d="M11.41,43.459H1.2l5.947-5.674H16.9Z" fill="#ffc417"/>
      <g id="グループ_21054" data-name="グループ 21054">
        <g id="グループ_21053" data-name="グループ 21053" clip-path="url(#clip-path)">
          <path id="パス_4517" data-name="パス 4517" d="M11.409,44.184H1.2a.725.725,0,0,1-.5-1.249l5.947-5.674a.723.723,0,0,1,.5-.2H16.9a.725.725,0,0,1,.521,1.229L11.93,43.963a.72.72,0,0,1-.521.221m-8.4-1.45H11.1l4.086-4.223H7.437Z"/>
        </g>
      </g>
      <rect id="長方形_6055" data-name="長方形 6055" width="10.21" height="19.197" transform="translate(1.2 43.459)" fill="#ffc417"/>
      <g id="グループ_21056" data-name="グループ 21056">
        <g id="グループ_21055" data-name="グループ 21055" clip-path="url(#clip-path)">
          <path id="パス_4518" data-name="パス 4518" d="M11.41,63.381H1.2a.726.726,0,0,1-.725-.725v-19.2a.726.726,0,0,1,.725-.725H11.41a.726.726,0,0,1,.725.725v19.2a.726.726,0,0,1-.725.725m-9.485-1.45h8.759V44.184H1.925Z"/>
        </g>
      </g>
      <path id="パス_4519" data-name="パス 4519" d="M16.9,56.982l-5.489,5.674v-19.2L16.9,37.782Z" fill="#ffc417"/>
      <g id="グループ_21058" data-name="グループ 21058">
        <g id="グループ_21057" data-name="グループ 21057" clip-path="url(#clip-path)">
          <path id="パス_4520" data-name="パス 4520" d="M11.409,63.381a.716.716,0,0,1-.272-.053.723.723,0,0,1-.453-.672v-19.2a.724.724,0,0,1,.2-.5l5.489-5.673a.725.725,0,0,1,1.246.5v19.2a.724.724,0,0,1-.2.5L11.93,63.16a.725.725,0,0,1-.521.221m.725-19.631V60.864l4.039-4.174V39.575ZM16.9,56.983h0Z"/>
        </g>
      </g>
      <path id="パス_4521" data-name="パス 4521" d="M26.528,27.64H16.32l5.946-5.674h9.752Z" fill="#ffc417"/>
      <g id="グループ_21060" data-name="グループ 21060">
        <g id="グループ_21059" data-name="グループ 21059" clip-path="url(#clip-path)">
          <path id="パス_4522" data-name="パス 4522" d="M26.528,28.365H16.32a.725.725,0,0,1-.5-1.249l5.947-5.674a.723.723,0,0,1,.5-.2h9.752a.725.725,0,0,1,.521,1.229l-5.49,5.673a.723.723,0,0,1-.521.221m-8.4-1.45h8.091l4.087-4.223H22.557Z"/>
          <rect id="長方形_6058" data-name="長方形 6058" width="10.21" height="35.016" transform="translate(16.318 27.64)" fill="#ffc417"/>
        </g>
      </g>
      <g id="グループ_21062" data-name="グループ 21062">
        <g id="グループ_21061" data-name="グループ 21061" clip-path="url(#clip-path)">
          <path id="パス_4523" data-name="パス 4523" d="M26.528,63.381H16.318a.726.726,0,0,1-.725-.725V27.64a.725.725,0,0,1,.725-.725h10.21a.724.724,0,0,1,.725.725V62.656a.725.725,0,0,1-.725.725m-9.485-1.45H25.8V28.365h-8.76Z"/>
        </g>
      </g>
      <g id="グループ_21064" data-name="グループ 21064">
        <g id="グループ_21063" data-name="グループ 21063" clip-path="url(#clip-path)">
          <path id="パス_4524" data-name="パス 4524" d="M32.017,56.982l-5.489,5.674V27.64l5.489-5.674Z" fill="#ffc417"/>
        </g>
      </g>
      <g id="グループ_21066" data-name="グループ 21066">
        <g id="グループ_21065" data-name="グループ 21065" clip-path="url(#clip-path)">
          <path id="パス_4525" data-name="パス 4525" d="M26.528,63.381a.725.725,0,0,1-.725-.725V27.64a.726.726,0,0,1,.2-.5L31.5,21.463a.725.725,0,0,1,1.246.5V56.983a.724.724,0,0,1-.2.5L27.049,63.16a.724.724,0,0,1-.521.221m.725-35.447v32.93l4.039-4.174V23.759Zm4.764,29.049h0Z"/>
        </g>
      </g>
      <g id="グループ_21068" data-name="グループ 21068">
        <g id="グループ_21067" data-name="グループ 21067" clip-path="url(#clip-path)">
          <path id="パス_4526" data-name="パス 4526" d="M41.99,17.328H31.78l5.947-5.674h9.752Z" fill="#ffc417"/>
          <path id="パス_4527" data-name="パス 4527" d="M41.991,18.053H31.781a.725.725,0,0,1-.5-1.249l5.947-5.674a.723.723,0,0,1,.5-.2H47.48A.725.725,0,0,1,48,12.159l-5.489,5.673a.723.723,0,0,1-.521.221m-8.4-1.45h8.093L45.77,12.38H38.018Z"/>
          <rect id="長方形_6063" data-name="長方形 6063" width="10.21" height="45.327" transform="translate(31.782 17.33)" fill="#ffc417"/>
        </g>
      </g>
      <g id="グループ_21070" data-name="グループ 21070">
        <g id="グループ_21069" data-name="グループ 21069" clip-path="url(#clip-path)">
          <path id="パス_4528" data-name="パス 4528" d="M41.991,63.382H31.782a.725.725,0,0,1-.725-.725V17.33a.724.724,0,0,1,.725-.725H41.991a.725.725,0,0,1,.725.725V62.657a.726.726,0,0,1-.725.725m-9.484-1.45h8.759V18.055H32.507Z"/>
        </g>
      </g>
      <g id="グループ_21072" data-name="グループ 21072">
        <g id="グループ_21071" data-name="グループ 21071" clip-path="url(#clip-path)">
          <path id="パス_4529" data-name="パス 4529" d="M47.479,56.982,41.99,62.656V17.328l5.489-5.673Z" fill="#ffc417"/>
        </g>
      </g>
      <g id="グループ_21074" data-name="グループ 21074">
        <g id="グループ_21073" data-name="グループ 21073" clip-path="url(#clip-path)">
          <path id="パス_4530" data-name="パス 4530" d="M41.99,63.38a.725.725,0,0,1-.725-.725V17.328a.726.726,0,0,1,.2-.5l5.489-5.673a.725.725,0,0,1,1.246.5V56.982a.724.724,0,0,1-.2.5l-5.489,5.673a.724.724,0,0,1-.521.221m.725-45.758V60.863l4.039-4.174V13.447Zm4.764,39.36h0Z"/>
        </g>
      </g>
      <g id="グループ_21076" data-name="グループ 21076">
        <g id="グループ_21075" data-name="グループ 21075" clip-path="url(#clip-path)">
          <path id="パス_4531" data-name="パス 4531" d="M57.311,7.018H47.1l5.947-5.674H62.8Z" fill="#ffc417"/>
        </g>
      </g>
      <g id="グループ_21078" data-name="グループ 21078">
        <g id="グループ_21077" data-name="グループ 21077" clip-path="url(#clip-path)">
          <path id="パス_4532" data-name="パス 4532" d="M57.312,7.743H47.1a.725.725,0,0,1-.5-1.249L52.548.82a.721.721,0,0,1,.5-.2H62.8a.725.725,0,0,1,.521,1.229L57.832,7.522a.723.723,0,0,1-.52.221m-8.4-1.45h8.094L61.09,2.069H53.339Z"/>
        </g>
      </g>
      <g id="グループ_21080" data-name="グループ 21080">
        <g id="グループ_21079" data-name="グループ 21079" clip-path="url(#clip-path)">
          <rect id="長方形_6070" data-name="長方形 6070" width="10.21" height="55.638" transform="translate(47.102 7.018)" fill="#ffc417"/>
        </g>
      </g>
      <g id="グループ_21082" data-name="グループ 21082">
        <g id="グループ_21081" data-name="グループ 21081" clip-path="url(#clip-path)">
          <path id="パス_4533" data-name="パス 4533" d="M57.311,63.381H47.1a.726.726,0,0,1-.725-.725V7.018a.726.726,0,0,1,.725-.725h10.21a.725.725,0,0,1,.725.725V62.656a.725.725,0,0,1-.725.725m-9.484-1.45h8.76V7.743h-8.76Z"/>
        </g>
      </g>
      <g id="グループ_21084" data-name="グループ 21084">
        <g id="グループ_21083" data-name="グループ 21083" clip-path="url(#clip-path)">
          <path id="パス_4534" data-name="パス 4534" d="M62.8,56.982l-5.489,5.674V7.018L62.8,1.344Z" fill="#ffc417"/>
        </g>
      </g>
      <g id="グループ_21086" data-name="グループ 21086">
        <g id="グループ_21085" data-name="グループ 21085" clip-path="url(#clip-path)">
          <path id="パス_4535" data-name="パス 4535" d="M57.311,63.38a.725.725,0,0,1-.725-.725V7.018a.724.724,0,0,1,.2-.5L62.279.84a.725.725,0,0,1,1.246.5V56.982a.724.724,0,0,1-.2.5l-5.489,5.673a.724.724,0,0,1-.521.221m.725-56.068V60.863l4.039-4.174V3.136ZM62.8,56.982h0Z"/>
        </g>
      </g>
    </g>
  </g>
</svg>
