<svg xmlns="http://www.w3.org/2000/svg" xmlns:xlink="http://www.w3.org/1999/xlink" width="1440" height="810" viewBox="0 0 1440 810">
  <defs>
    <clipPath id="clip-path">
      <rect id="長方形_367" data-name="長方形 367" width="1440" height="810" transform="translate(0 0)" fill="#fff" stroke="#707070" stroke-width="1"/>
    </clipPath>
    <clipPath id="clip-path-2">
      <rect id="長方形_462" data-name="長方形 462" width="1120" height="540" transform="translate(160 270)" fill="rgba(247,116,116,0.54)" stroke="#707070" stroke-width="1"/>
    </clipPath>
    <clipPath id="clip-path-3">
      <rect id="長方形_246" data-name="長方形 246" width="851.272" height="1170.716" fill="none"/>
    </clipPath>
  </defs>
  <g id="マスクグループ_2" data-name="マスクグループ 2" transform="translate(0 0)" clip-path="url(#clip-path)">
    <g id="マスクグループ_9" data-name="マスクグループ 9" clip-path="url(#clip-path-2)">
      <g id="グループ_80" data-name="グループ 80" transform="translate(243.728 371.993)">
        <g id="グループ_79" data-name="グループ 79" clip-path="url(#clip-path-3)">
          <path id="パス_1" data-name="パス 1" d="M650.247,106.277s28.484,41.95,33.146,47.648,84.936,148.639,84.936,148.639,9.324,20.2,0,52.31-62.667,106.689-62.667,106.689,89.6,87.009,103.068,131.552,8.283,80.274-4.146,98.4a180.237,180.237,0,0,1-25.895,30.041s40.4,81.831,40.4,136.73-41.95,134.657-49.2,154.853,4.662,60.077-3.109,82.347-35.735,32.114-52.826,34.7-98.922,5.694-119.639-3.11-40.913-8.8-57.488-3.1-73.023,17.607-98.922,10.877-53.863-27.968-68.36-24.342-22.79,19.16-66.3,18.123-116.009,7.772-135.689-23.822-1.037-53.347-11.4-91.671S109.545,914.221,113.171,850s27.968-94.781,27.968-94.781l21.233-26.932S103.331,705.5,83.134,663.55,56.986,552.494,63.843,500.812s2.716-137.134-1.426-165.1-12.95-71.986-12.95-71.986-46.1-14.5-45.575-53.863,44.023-75.616,92.187-83.9,77.689,5.178,92.187,19.164,34.183,40.913,34.183,40.913l49.206-79.242L316.709,13.57s24.342-18.644,40.918-3.626,55.415,80.278,55.415,80.278h95.3l55.415-78.205s26.415-14.5,37.292,0,49.2,94.26,49.2,94.26" transform="translate(14.348 15.111)" fill="#fff"/>
          <path id="パス_2" data-name="パス 2" d="M104.96,99.108h35.721l42.325-83.257s49.707-32.588,62.957,8.607C274.677,113.737,345.8,205.966,345.8,205.966s-85.546,13.982-134.39-12.748c-67.258-36.8-106.445-94.11-106.445-94.11" transform="translate(387.329 13.346)" fill="#ffc417"/>
          <path id="パス_3" data-name="パス 3" d="M124.665,134.242c-20.548,0-35.848-10.1-42.663-17.6l27.766-25.238-.291-.314c.9.891,9.155,8.574,23.508,4.357,10.145-2.988,19.619-15.642,22.138-19.84a18.76,18.76,0,0,1,32.316,19.061c-1.731,2.955-17.678,29.07-43.863,36.772a66.848,66.848,0,0,1-18.911,2.8" transform="translate(302.608 245.275)"/>
          <path id="パス_4" data-name="パス 4" d="M163.508,134.283a66.681,66.681,0,0,1-18.911-2.8c-26.186-7.7-42.137-33.817-43.868-36.772A18.763,18.763,0,0,1,133.1,75.725c2.472,4.123,11.941,16.777,22.091,19.765,14.343,4.212,22.612-3.466,23.508-4.357l13.592,12.931,13.883,12.621c-6.81,7.49-22.119,17.6-42.663,17.6" transform="translate(362.186 245.234)"/>
          <path id="パス_5" data-name="パス 5" d="M77.342,126.687a18.776,18.776,0,0,1-17.415-25.731C73.384,67.3,90.6,25.555,96.244,17.793c6.988-9.6,18.733-15.773,33.071-17.377,16.013-1.806,32.471,2.378,41.917,10.642,9.352,8.184,33.793,47.592,50.622,75.668h75.6c16.833-28.076,41.274-67.479,50.622-75.663C357.515,2.8,373.945-1.39,389.99.416c14.338,1.6,26.083,7.772,33.066,17.373,5.652,7.767,22.87,49.515,36.321,83.172a18.76,18.76,0,0,1-34.839,13.925C412.044,83.625,396.5,46.549,392.6,39.753c-2.894-2.758-15.445-3.044-19.826-.408-6.224,6.726-29.83,44.192-48.53,75.715a18.768,18.768,0,0,1-16.134,9.188H211.2a18.762,18.762,0,0,1-16.134-9.188c-18.7-31.523-42.306-68.989-48.53-75.715-4.376-2.622-16.857-2.35-19.849.441-3.921,6.881-19.441,43.891-31.912,75.1a18.774,18.774,0,0,1-17.429,11.8" transform="translate(216.183 0.002)"/>
          <path id="パス_6" data-name="パス 6" d="M190.783,374.636a18.764,18.764,0,0,1-14.118-31.11c.6-.68,60.434-70.129,55.725-129.235C230.566,191.4,182.05,110.462,148.177,60.3a18.759,18.759,0,0,1,31.092-21c14.544,21.533,87.262,131.032,90.527,172.01,5.966,74.941-61.982,153.6-64.876,156.913a18.735,18.735,0,0,1-14.136,6.412" transform="translate(534.945 114.535)"/>
          <path id="パス_7" data-name="パス 7" d="M111.947,374.629a18.709,18.709,0,0,1-14.122-6.407c-2.894-3.311-70.846-81.972-64.88-156.913,3.264-40.979,75.982-150.477,90.527-172.01a18.759,18.759,0,0,1,31.092,21C120.695,110.46,72.174,191.4,70.35,214.288c-4.7,59.107,55.129,128.555,55.734,129.249a18.764,18.764,0,0,1-14.136,31.092" transform="translate(120.206 114.536)"/>
          <path id="パス_8" data-name="パス 8" d="M61.748,196.36A60.348,60.348,0,0,1,50.374,195.3c-20.754-3.982-36.856-18.489-45.336-40.852C-9.45,116.241,7.65,76.909,51.964,46.525,95.672,16.555,172.4,25.48,199.608,40.32c26.627,14.526,45.753,42.7,46.555,43.9a18.762,18.762,0,0,1-31.129,20.951c-.38-.558-15.089-21.922-33.395-31.908-16.993-9.273-78.717-16.177-108.457,4.207C52.47,91.674,29.92,114.248,40.121,141.142c3.827,10.084,9.451,15.74,17.19,17.279,8.611,1.712,16.833-2.186,18.5-3.954a19.038,19.038,0,0,1,23.024-3.672c.113.056,20.778,10.759,28.911,1.717a18.763,18.763,0,0,1,27.893,25.1c-18.428,20.478-45.078,17.987-63.7,11.144a62.994,62.994,0,0,1-30.2,7.6" transform="translate(0 98.174)"/>
          <path id="パス_9" data-name="パス 9" d="M137.8,510.385a18.834,18.834,0,0,1-3.447-.319C34.687,491.54,5.194,354.556,16.085,263.195c10.942-91.84-3.827-172.278-3.977-173.075a18.763,18.763,0,0,1,36.875-6.956C49.644,86.658,65,169.821,53.34,267.641c-8.9,74.65,12.875,191.6,87.867,205.532a18.765,18.765,0,0,1-3.41,37.212" transform="translate(43.481 250.506)"/>
          <path id="パス_10" data-name="パス 10" d="M193.17,363.133a18.764,18.764,0,0,1-4.32-37.02c.568-.164,21.111-6.1,31.223-34.192,26.2-72.774-54.562-151.242-55.383-152.025a18.762,18.762,0,0,1,25.895-27.157c4.066,3.879,99.3,96.033,64.8,191.888-17.227,47.85-56.217,57.606-57.864,58a18.747,18.747,0,0,1-4.348.511" transform="translate(586.383 396.961)"/>
          <path id="パス_11" data-name="パス 11" d="M186.819,593.49a96.8,96.8,0,0,1-34.131-6.524c-11.505,1.257-35.547,1.369-57.484-14.577-27.954-20.332-26.42-52.395-24.943-83.4.211-4.427.432-8.944.572-13.545.314-10.492-6.632-27.129-14.671-46.391-13.076-31.312-29.347-70.283-33.179-121.332C16.1,215.9,79,161.982,81.687,159.736a18.76,18.76,0,0,1,24.178,28.69C103.741,190.236,55,232.791,60.4,304.918c3.377,44.989,18.348,80.855,30.384,109.672,10.122,24.239,18.114,43.385,17.551,61.986-.15,4.822-.371,9.559-.6,14.2-1.3,27.368-1.506,43.235,9.535,51.264,15.29,11.13,32.958,7.462,33.709,7.3a19.444,19.444,0,0,1,12.575,1.506c.089.047,20.117,9.526,37.738,2.486,17.842-7.138,31.4-3.316,41.288-.525,8.911,2.509,12.992,3.658,21.96-1.463a18.759,18.759,0,0,1,18.616,32.574c-22.626,12.936-39.558,8.161-50.753,5-7.955-2.247-11.4-3.058-17.176-.75a76.134,76.134,0,0,1-28.414,5.323" transform="translate(82.875 573.229)"/>
          <path id="パス_12" data-name="パス 12" d="M229.692,560.263a76.151,76.151,0,0,1-28.414-5.323c-5.764-2.312-9.23-1.492-17.171.75-11.2,3.152-28.123,7.931-50.753-5a18.759,18.759,0,1,1,18.616-32.574c8.963,5.117,13.034,3.973,21.96,1.463,9.9-2.8,23.456-6.613,41.284.525,17.617,7.045,37.649-2.439,37.85-2.537a19.127,19.127,0,0,1,12.654-1.407c.558.113,18.226,3.785,33.521-7.345,11.041-8.03,10.839-23.9,9.526-51.274-.22-4.634-.441-9.366-.591-14.188-.563-18.6,7.429-37.747,17.556-61.986,12.031-28.817,27.007-64.683,30.379-109.672a141.939,141.939,0,0,0-17.218-79.622,18.761,18.761,0,0,1,32.963-17.926A178.916,178.916,0,0,1,393.532,274.49c-3.832,51.049-20.1,90.02-33.184,121.332-8.039,19.263-14.985,35.9-14.671,46.391.146,4.6.361,9.113.572,13.531,1.477,31.012,3.011,63.079-24.943,83.412-21.936,15.942-45.964,15.83-57.484,14.582a96.772,96.772,0,0,1-34.131,6.524" transform="translate(457.215 606.457)"/>
          <path id="パス_13" data-name="パス 13" d="M78.792,399.064C38.367,493.807,82.4,603.386,177.147,643.807s204.317-3.612,244.742-98.355L486.77,393.4c40.421-94.743-3.612-204.317-98.355-244.742s-204.322,3.612-244.747,98.355Z" transform="translate(235.37 493.186)" fill="#ffc417"/>
          <path id="パス_14" data-name="パス 14" d="M264.784,692.34a204.044,204.044,0,0,1-80.278-16.468C80.4,631.451,31.838,510.621,76.259,406.511l64.876-152.053A205.274,205.274,0,0,1,410.5,146.207c104.11,44.421,152.668,165.257,108.246,269.361L453.867,567.626C420.627,645.531,344.579,692.34,264.784,692.34M110.77,421.234h0c-36.3,85.081,3.386,183.825,88.463,220.133,85.091,36.284,183.825-3.4,220.128-88.463l64.876-152.058c36.293-85.077-3.386-183.825-88.458-220.123A167.751,167.751,0,0,0,175.65,269.18Z" transform="translate(220.648 478.376)"/>
          <path id="パス_15" data-name="パス 15" d="M203.573,347.387a18.773,18.773,0,0,1-17.246-26.125c11.379-26.669,12.19-55.9,2.294-82.328-9.779-26.106-28.892-46.34-53.807-56.977a18.758,18.758,0,1,1,14.723-34.506c34.445,14.695,60.8,42.512,74.223,78.318,13.3,35.5,12.256,74.636-2.922,110.212a18.76,18.76,0,0,1-17.265,11.407" transform="translate(455.408 538.541)" fill="#fff"/>
          <path id="パス_16" data-name="パス 16" d="M167.936,219.18A19.021,19.021,0,1,1,157.9,194.223a19.023,19.023,0,0,1,10.033,24.957" transform="translate(484.958 711.081)" fill="#fff"/>
          <path id="パス_17" data-name="パス 17" d="M222.888,125.967s-19.774-7.289-47.888-1.041-36.2,28.31-38.521,41.645c-4.165,23.944,18.742,43.723,32.278,44.764,0,0,3.119,47.888,49.965,45.805,0,0,0,40.6,55.181,33.315" transform="translate(501.804 451.671)" fill="#fff"/>
          <path id="パス_18" data-name="パス 18" d="M276.047,324.866c-17.884,0-32.443-4.836-43.408-14.451a52.028,52.028,0,0,1-14.3-20.661c-29.891-5-45.782-28.109-51.349-49.205a64.043,64.043,0,0,1-22.443-18.419c-10.248-13.175-14.437-28.8-11.791-44,5.178-29.741,24.479-50.42,52.934-56.743,32.56-7.237,55.894.816,58.445,1.749a18.761,18.761,0,0,1-12.8,35.271c-.666-.22-16.059-5.164-37.5-.394-5.019,1.116-20.276,4.5-24.113,26.547-.952,5.5,1.477,10.379,3.677,13.508,4.446,6.294,10.229,9.094,11.716,9.352a18.583,18.583,0,0,1,17.119,17.467c.568,6.806,4.451,29.408,30.416,28.287a18.478,18.478,0,0,1,14.118,5.056,17.843,17.843,0,0,1,5.478,13.686,16.466,16.466,0,0,0,5.384,10.506c5.4,4.507,15.276,5.961,28.578,4.207a18.761,18.761,0,0,1,4.911,37.2,115.219,115.219,0,0,1-15.07,1.041" transform="translate(487.044 436.902)"/>
          <path id="パス_19" data-name="パス 19" d="M131.352,80.187a29.994,29.994,0,1,1-29.994-29.994,29.993,29.993,0,0,1,29.994,29.994" transform="translate(263.351 185.225)"/>
          <path id="パス_20" data-name="パス 20" d="M178.119,80.187a29.994,29.994,0,1,1-29.994-29.994,29.993,29.993,0,0,1,29.994,29.994" transform="translate(435.934 185.225)"/>
          <path id="パス_21" data-name="パス 21" d="M138.855,188.313c-.568-2.322-1.862-5.994.108-10.619,3.48-8.142,13.555-11.646,21.261-8.358a13.816,13.816,0,0,1,8.532,9.887l21.514,70.326L255.7,216.327c2.608-1.233,6.876-3.311,13.034-.685,7.49,3.194,12.251,12.772,8.583,21.35a14.671,14.671,0,0,1-7.275,7.307l-63.023,32.438,31.917,13.616c6.6,2.819,10.764,9.535,7.669,16.8-3.386,7.927-11.055,8.822-17.213,6.186L188.45,295.874,181.78,311.5l40.725,17.377c6.6,2.814,10.666,9.756,7.565,17.021-3.288,7.7-10.952,8.593-17.115,5.961l-40.946-17.467L158.39,366.308c-3.757,8.8-13.053,11.083-21.2,7.6-11.449-4.883-11.843-14.938-9.4-20.661l13.62-31.922L100.7,303.951c-6.824-2.913-10.858-9.31-7.851-16.355,3.475-8.142,11.679-9.076,17.837-6.44l40.505,17.279,6.67-15.623L117.13,265.434c-6.824-2.913-10.849-9.315-7.753-16.58,3.475-8.142,11.585-8.85,17.743-6.219l31.7,13.531Z" transform="translate(338.894 620.367)"/>
          <path id="パス_22" data-name="パス 22" d="M146.41,379.655a21.172,21.172,0,0,1-8.288-1.745c-7.237-3.091-10.1-7.941-11.224-11.463a17.932,17.932,0,0,1,.586-12.279l12.7-29.764-38.559-16.453a17.493,17.493,0,0,1-8.771-7.7,13.322,13.322,0,0,1-.319-11.735,14.6,14.6,0,0,1,7.978-8.1,17.112,17.112,0,0,1,12.936.427L151.8,297.2l4.826-11.313-38.563-16.453c-8.654-3.691-12.349-11.777-8.991-19.662,4.052-9.5,13.635-10.52,20.82-7.457L157.01,253.9l-18.756-63.863a16.568,16.568,0,0,1,.4-11.421c3.851-9.005,15.225-13.48,24.338-9.6a16.157,16.157,0,0,1,9.887,11.486l20.661,67.53,62.948-31.959c2.88-1.355,7.955-3.771,15.018-.746a18.831,18.831,0,0,1,9.709,9.882,18.281,18.281,0,0,1,.113,14.544,16.9,16.9,0,0,1-8.367,8.471l-58.577,30.154,27.325,11.655c7.308,3.119,12.711,10.952,8.9,19.882a13.97,13.97,0,0,1-9.08,8.391,16.985,16.985,0,0,1-11.21-.966L191.54,300.789,186.709,312.1l38.568,16.458a16.774,16.774,0,0,1,8.611,7.973,14.422,14.422,0,0,1,.192,12.124c-3.926,9.188-13.226,10.178-20.2,7.2L175.1,339.305,162.4,369.07a16.945,16.945,0,0,1-10.389,9.713,18.088,18.088,0,0,1-5.6.872m-40.135-95.634a10.765,10.765,0,0,0-4.005.741,9.866,9.866,0,0,0-5.417,5.6,8.767,8.767,0,0,0,.159,7.72,12.818,12.818,0,0,0,6.454,5.558l42.878,18.3L131.8,356.012a13.271,13.271,0,0,0-.427,9.015c1.2,3.762,4.09,6.646,8.593,8.569a15.116,15.116,0,0,0,10.6.727,12.147,12.147,0,0,0,7.523-7.1l14.54-34.075,43.1,18.39c4.695,1.993,11.191,1.961,14.038-4.728a9.685,9.685,0,0,0-.094-8.236,12.109,12.109,0,0,0-6.238-5.708l-42.878-18.3,8.508-19.938,43.1,18.391a12.263,12.263,0,0,0,8.081.769,9.305,9.305,0,0,0,6.05-5.722c2.725-6.379-1.426-11.585-6.43-13.724l-36.5-15.576,67.46-34.717a12.264,12.264,0,0,0,6.191-6.144,13.637,13.637,0,0,0-.1-10.849,14.155,14.155,0,0,0-7.242-7.425c-5.112-2.186-8.527-.577-11.032.6L190.7,254.74l-22.335-72.994a11.619,11.619,0,0,0-7.209-8.414c-6.815-2.9-15.314.422-18.18,7.124-1.468,3.438-.755,6.186-.178,8.4l.174.68,21.355,72.582-36.27-15.483c-4.9-2.1-11.674-2.031-14.666,4.986-2.856,6.7,1.726,11.458,6.515,13.5l42.883,18.3-8.513,19.938-42.658-18.2a13.68,13.68,0,0,0-5.338-1.13" transform="translate(337.043 618.525)"/>
        </g>
      </g>
    </g>
  </g>
</svg>
