<svg xmlns="http://www.w3.org/2000/svg" width="80" height="70" viewBox="0 0 80 70"><defs><clipPath id="4kcba"><path fill="#fff" d="M40 0l40 69.524H0z"/></clipPath><clipPath id="4kcbb"><path fill="#fff" d="M39 53a1 1 0 1 1 2 0 1 1 0 0 1-2 0z"/></clipPath></defs><g><g><g><path fill="#fff" d="M40 0l40 69.524H0z"/><path fill="none" stroke="#000" stroke-miterlimit="20" stroke-width="4" d="M40 0v0l40 69.524v0H0v0z" clip-path="url(&quot;#4kcba&quot;)"/></g><g><path fill="none" stroke="#000" stroke-linecap="round" stroke-miterlimit="20" stroke-width="2" d="M40 34.762v12.46"/></g><g><path d="M39 53a1 1 0 1 1 2 0 1 1 0 0 1-2 0z"/><path fill="none" stroke="#000" stroke-miterlimit="20" stroke-width="2" d="M39 53a1 1 0 1 1 2 0 1 1 0 0 1-2 0z" clip-path="url(&quot;#4kcbb&quot;)"/></g></g></g></svg>