<svg xmlns="http://www.w3.org/2000/svg" width="82" height="66"><defs><clipPath id="a"><path fill="#fff" d="M20 19.5a4.5 4.5 0 119 0 4.5 4.5 0 01-9 0z"/></clipPath></defs><path fill="none" stroke="#000" stroke-linecap="round" stroke-linejoin="round" stroke-miterlimit="20" stroke-width="2" d="M69.006 46.632v0H11.919v0V1.098v0h57.087v45.534L80.84 59.14v0H1.894v0l6.826-8.376v0"/><path fill="none" stroke="#000" stroke-linecap="round" stroke-miterlimit="20" stroke-width="2" d="M36.734 53.195h6.792"/><path fill="none" stroke="#000" stroke-linecap="round" stroke-linejoin="round" stroke-miterlimit="20" stroke-width="2" d="M1.895 59.457v5.224H80.84v0-5.224 0"/><path fill="#fff" d="M20 19.5a4.5 4.5 0 119 0 4.5 4.5 0 01-9 0z"/><path fill="none" stroke="#000" stroke-miterlimit="20" stroke-width="4" d="M20 19.5a4.5 4.5 0 119 0 4.5 4.5 0 01-9 0z" clip-path="url(&quot;#a&quot;)"/><path fill="none" stroke="#000" stroke-miterlimit="20" stroke-width="2" d="M43.38 35.767v11.49m4-11.49v11.49"/><path fill="none" stroke="#000" stroke-linecap="round" stroke-linejoin="round" stroke-miterlimit="20" stroke-width="2" d="M21.129 46.097v-8.833c-2.929.069-3.004-2.793-3.004-2.793v-9.06c.139-1.123 1.42-1.411 1.42-1.411v0h17.451v0s1.65.341 1.618 2.063c-.031 1.723-1.618 1.917-1.618 1.917v0h-8.441v18.117"/><path fill="none" stroke="#000" stroke-linecap="round" stroke-linejoin="round" stroke-miterlimit="20" stroke-width="2" d="M28 12.404v0-2.537 0h3.153v0h29.45V36.12H32.109v0"/></svg>