<svg xmlns="http://www.w3.org/2000/svg" width="70" height="70"><defs><clipPath id="a"><path fill="#fff" d="M37 54V43h17v11z"/></clipPath><clipPath id="b"><path fill="#fff" d="M16 54V43h14v11z"/></clipPath><clipPath id="c"><path fill="#fff" d="M0 70V0h70v70z"/></clipPath></defs><path fill="none" stroke="#000" stroke-linecap="round" stroke-miterlimit="20" stroke-width="2" d="M19.313 17.896h5.872M18.878 30.94h7m-7 6.767h7M12.781 24.792h19.064m6.125-6.896H50.6"/><path fill="none" stroke="#000" stroke-linecap="round" stroke-linejoin="round" stroke-miterlimit="20" stroke-width="2" d="M37.97 27.927v0L50.6 27.8v9.906"/><path fill="none" stroke="#000" stroke-linecap="round" stroke-miterlimit="20" stroke-width="2" d="M37.97 37.707H53"/><path fill="none" stroke="#000" stroke-linejoin="round" stroke-miterlimit="20" stroke-width="4" d="M37 54v0-11 0h17v11z" clip-path="url(&quot;#a&quot;)"/><path fill="none" stroke="#000" stroke-linejoin="round" stroke-miterlimit="20" stroke-width="4" d="M16 54v0-11 0h14v11z" clip-path="url(&quot;#b&quot;)"/><path fill="none" stroke="#000" stroke-linecap="round" stroke-miterlimit="20" stroke-width="2" d="M43.1 17.896v19.81"/><path fill="none" stroke="#000" stroke-linecap="round" stroke-linejoin="round" stroke-miterlimit="20" stroke-width="4" d="M0 70v0V0v0h70v70z" clip-path="url(&quot;#c&quot;)"/></svg>