<svg xmlns="http://www.w3.org/2000/svg" width="85" height="74" viewBox="0 0 85 74"><g><g><g><path fill="none" stroke="#000" stroke-linecap="round" stroke-linejoin="round" stroke-miterlimit="20" stroke-width="2" d="M1 45.514v0h12.686V73H1v0-20.213 0"/></g><g><path fill="none" stroke="#000" stroke-linecap="round" stroke-linejoin="round" stroke-miterlimit="20" stroke-width="2" d="M20.503 49.268v0l3.755-3.755v0s15.12-4.719 19.216-5.866c4.095-1.147 5.078 5.524 2.948 6.694-2.13 1.17-8.421 4.601-8.421 4.601v0l1.057 5.142v0h21.143v0s6.59-3.347 9.375-4.658c2.785-1.31 8.005.492 9.654 2.621-4.084 2.785-16.914 12.609-16.914 12.609v0l-23.258 4.229v0L15.8 70.102v0"/></g><g><g><path fill="none" stroke="#000" stroke-linecap="round" stroke-linejoin="round" stroke-miterlimit="20" stroke-width="2" d="M50.058 9.457C50.058 4.787 57.631 1 66.973 1c9.341 0 16.914 3.787 16.914 8.457 0 4.671-7.573 8.458-16.914 8.458-9.342 0-16.915-3.787-16.915-8.458"/></g><g><path fill="none" stroke="#000" stroke-linecap="round" stroke-linejoin="round" stroke-miterlimit="20" stroke-width="2" d="M50.058 20.029v10.572c0 4.67 7.573 8.457 16.915 8.457 9.341 0 16.914-3.787 16.914-8.457V20.029v0"/></g><g><path fill="none" stroke="#000" stroke-linecap="round" stroke-linejoin="round" stroke-miterlimit="20" stroke-width="2" d="M50.058 9.457V20.03c0 4.67 7.573 8.457 16.915 8.457 9.341 0 16.914-3.786 16.914-8.457V9.457v0"/></g></g></g></g></svg>